<svg width="100" height="100" viewBox="0 0 100 100" fill="none" xmlns="http://www.w3.org/2000/svg">
<path d="M88.9834 72.8631C92.1359 70.1742 94.1406 66.1773 94.1406 61.7188C94.1406 53.6416 87.5693 47.0703 79.4922 47.0703C71.415 47.0703 64.8438 53.6416 64.8438 61.7188C64.8438 66.1773 66.8484 70.1742 70.001 72.8631C63.4586 76.3262 58.9844 83.2504 58.9844 91.2109V97.0703C58.9844 98.6883 60.2961 100 61.9141 100H97.0703C98.6883 100 100 98.6883 100 97.0703V91.2109C100 83.2504 95.5258 76.3262 88.9834 72.8631ZM79.4922 52.9297C84.3385 52.9297 88.2812 56.8725 88.2812 61.7188C88.2812 66.565 84.3385 70.5078 79.4922 70.5078C74.6459 70.5078 70.7031 66.565 70.7031 61.7188C70.7031 56.8725 74.6459 52.9297 79.4922 52.9297ZM94.1406 94.1406H64.8438V91.2109C64.8438 83.026 71.415 76.3672 79.4922 76.3672C87.5693 76.3672 94.1406 83.026 94.1406 91.2109V94.1406Z" fill="#3A9FEC"/>
<path d="M29.999 25.7928C33.1516 23.1039 35.1562 19.107 35.1562 14.6484C35.1562 6.57129 28.585 0 20.5078 0C12.4307 0 5.85938 6.57129 5.85938 14.6484C5.85938 19.107 7.86406 23.1039 11.0166 25.7928C4.47422 29.2559 0 36.1801 0 44.1406V50C0 51.618 1.31172 52.9297 2.92969 52.9297H38.0859C39.7039 52.9297 41.0156 51.618 41.0156 50V44.1406C41.0156 36.1801 36.5414 29.2559 29.999 25.7928ZM20.5078 5.85938C25.3541 5.85938 29.2969 9.80215 29.2969 14.6484C29.2969 19.4947 25.3541 23.4375 20.5078 23.4375C15.6615 23.4375 11.7188 19.4947 11.7188 14.6484C11.7188 9.80215 15.6615 5.85938 20.5078 5.85938ZM35.1562 47.0703H5.85938V44.1406C5.85938 35.9557 12.4307 29.2969 20.5078 29.2969C28.585 29.2969 35.1562 35.9557 35.1562 44.1406V47.0703Z" fill="#3A9FEC"/>
<path d="M93.8473 25.0896C93.3576 24.0793 92.3338 23.4375 91.2109 23.4375H88.1195C86.6574 10.2725 75.4627 0 61.9141 0H50.1953C48.5773 0 47.2656 1.31172 47.2656 2.92969C47.2656 4.54766 48.5773 5.85938 50.1953 5.85938C60.5088 5.85938 69.0686 13.5123 70.4945 23.4375H67.7734C66.6506 23.4375 65.6268 24.0793 65.1371 25.0895C64.6473 26.0998 64.7783 27.3012 65.474 28.1824L77.1928 43.0262C77.7482 43.7301 78.5955 44.1406 79.4922 44.1406C80.3889 44.1406 81.2361 43.7301 81.7916 43.0264L93.5104 28.1826C94.2061 27.3014 94.3369 26.1 93.8473 25.0896ZM79.4922 36.4828L73.8147 29.2912C75.3481 29.1975 76.5625 27.924 76.5625 26.367C76.5625 18.56 73.1525 11.5352 67.7428 6.70293C76.2203 9.22051 82.4219 17.0834 82.4219 26.3672C82.4219 27.9242 83.6365 29.1975 85.1697 29.2914L79.4922 36.4828Z" fill="#47D14D"/>
<path d="M50.1954 94.1406C39.8685 94.1406 31.0024 86.2619 29.5159 76.3672H32.2267C33.3528 76.3672 34.3794 75.7217 34.8673 74.7066C35.3552 73.6916 35.2179 72.4867 34.5144 71.6072L22.7956 56.9588C22.2396 56.2639 21.398 55.8594 20.5079 55.8594C19.6179 55.8594 18.7763 56.2639 18.2202 56.9588L6.50146 71.6072C5.79795 72.4867 5.66064 73.6914 6.14854 74.7066C6.63643 75.7217 7.66299 76.3672 8.78916 76.3672H11.878C13.3298 89.641 24.5294 100 38.086 100H50.1954C51.8134 100 53.1251 98.6883 53.1251 97.0703C53.1251 95.4523 51.8134 94.1406 50.1954 94.1406ZM17.5782 73.4375C17.5782 71.8967 16.3886 70.6336 14.8776 70.5166L20.5079 63.4789L26.1382 70.5168C24.6273 70.6336 23.4376 71.8967 23.4376 73.4375C23.4376 80.475 26.2538 87.1352 31.3675 92.1914C31.7952 92.6145 32.2339 93.0211 32.6833 93.4117C23.9878 91.0123 17.5782 82.9664 17.5782 73.4375Z" fill="#47D14D"/>
</svg>
