<svg width="100" height="100" viewBox="0 0 100 100" fill="none" xmlns="http://www.w3.org/2000/svg">
<path d="M79.283 13.1018H70.2361V9.0546C70.2361 7.74517 68.8078 7.15003 67.4983 7.15003H60.4752C58.8087 2.38848 54.6423 0.00770755 49.8807 0.00770755C45.1716 -0.16933 40.8883 2.71818 39.2863 7.15003H32.3821C31.0726 7.15003 29.7632 7.74517 29.7632 9.0546V13.1018H20.7161C15.3549 13.159 10.9688 17.3883 10.7168 22.7439V90.9528C10.7168 96.1906 15.4783 99.9997 20.7161 99.9997H79.283C84.5208 99.9997 89.2823 96.1906 89.2823 90.9528V22.7441C89.0303 17.3883 84.6443 13.159 79.283 13.1018ZM34.5245 11.9116H41.0717C42.2146 11.7721 43.1326 10.9027 43.3336 9.7689C44.0385 6.69889 46.7319 4.49515 49.8807 4.41222C53.0004 4.50677 55.6532 6.71735 56.3088 9.7689C56.5223 10.9419 57.5009 11.8225 58.6895 11.9116H65.4748V21.4347H34.5245V11.9116ZM84.5208 90.9531C84.5208 93.5719 81.9019 95.2384 79.283 95.2384H20.7161C18.0972 95.2384 15.4783 93.5719 15.4783 90.9531V22.7441C15.7212 20.0181 17.9796 17.9135 20.7161 17.8636H29.763V23.9346C29.8888 25.2684 31.0439 26.2662 32.3819 26.1964H67.4981C68.8606 26.271 70.052 25.2869 70.2359 23.9346V17.8634H79.2828C82.019 17.9135 84.2777 20.0179 84.5205 22.7439V90.9531H84.5208Z" fill="#3A9FEC"/>
<path d="M40.834 53.2178C39.9411 52.2766 38.4587 52.2235 37.5008 53.0989L29.8823 60.3601L26.6683 57.027C25.7754 56.0857 24.293 56.0329 23.3351 56.908C22.413 57.8741 22.413 59.3941 23.3351 60.3601L28.2156 65.3598C28.638 65.8328 29.2482 66.0944 29.8821 66.0741C30.51 66.0652 31.109 65.8084 31.5486 65.3598L40.8336 56.551C41.7541 55.7066 41.8156 54.2757 40.9709 53.3554C40.9277 53.3074 40.8819 53.2616 40.834 53.2178Z" fill="#47D14D"/>
<path d="M74.9978 58.3359H47.6191C46.3041 58.3359 45.2383 59.4018 45.2383 60.7167C45.2383 62.0316 46.3041 63.0975 47.6191 63.0975H74.9978C76.3127 63.0975 77.3786 62.0316 77.3786 60.7167C77.3786 59.4018 76.3127 58.3359 74.9978 58.3359Z" fill="#3A9FEC"/>
<path d="M40.834 34.1709C39.9411 33.2297 38.4587 33.1766 37.5008 34.052L29.8823 41.3133L26.6683 37.9801C25.7754 37.0389 24.293 36.9858 23.3351 37.8612C22.413 38.8272 22.413 40.3472 23.3351 41.3133L28.2156 46.3129C28.638 46.7859 29.2482 47.0475 29.8821 47.0272C30.51 47.0183 31.109 46.7615 31.5486 46.3129L40.8336 37.5041C41.7541 36.6597 41.8156 35.2288 40.9709 34.3086C40.9277 34.2605 40.8819 34.2147 40.834 34.1709Z" fill="#47D14D"/>
<path d="M74.9978 39.291H47.6191C46.3041 39.291 45.2383 40.3569 45.2383 41.6718C45.2383 42.9867 46.3041 44.0526 47.6191 44.0526H74.9978C76.3127 44.0526 77.3786 42.9867 77.3786 41.6718C77.3786 40.3569 76.3127 39.291 74.9978 39.291Z" fill="#3A9FEC"/>
<path d="M40.834 72.2646C39.9411 71.3234 38.4587 71.2705 37.5008 72.1457L29.8823 79.4069L26.6683 76.0737C25.7754 75.1325 24.293 75.0796 23.3351 75.9548C22.413 76.9209 22.413 78.4408 23.3351 79.4069L28.2156 84.4065C28.638 84.8796 29.2482 85.1411 29.8821 85.1208C30.51 85.112 31.109 84.8552 31.5486 84.4065L40.8336 75.5978C41.7541 74.7534 41.8156 73.3225 40.9709 72.4022C40.9277 72.3544 40.8819 72.3086 40.834 72.2646Z" fill="#47D14D"/>
<path d="M74.9978 77.3828H47.6191C46.3041 77.3828 45.2383 78.4487 45.2383 79.7636C45.2383 81.0785 46.3041 82.1444 47.6191 82.1444H74.9978C76.3127 82.1444 77.3786 81.0785 77.3786 79.7636C77.3786 78.4487 76.3127 77.3828 74.9978 77.3828Z" fill="#3A9FEC"/>
</svg>
