<svg width="125" height="125" viewBox="0 0 125 125" fill="none" xmlns="http://www.w3.org/2000/svg">
<path d="M123.905 52.1834L63.2547 25.064C62.774 24.8485 62.2257 24.8485 61.745 25.064L37.1557 36.0588C36.224 36.4755 35.8063 37.5684 36.2231 38.5011C36.6398 39.4338 37.7337 39.8515 38.6663 39.4348L62.4994 28.7776L84.3183 38.5336V52.1538C72.7389 47.9195 62.9896 47.5981 62.5509 47.5857C62.5166 47.5848 62.4822 47.5848 62.4479 47.5857C61.9777 47.5981 50.7951 47.9672 38.1323 53.1389C33.0807 55.2008 28.4659 57.768 24.4167 60.7682C24.1134 60.9933 23.8922 61.3023 23.772 61.6494L6.37907 53.8713L30.7624 42.9681C31.6951 42.5513 32.1128 41.4584 31.6951 40.5258C31.2783 39.5931 30.1845 39.1754 29.2527 39.5921L1.09385 52.1834C0.428196 52.4809 0 53.1427 0 53.8713C0 54.6009 0.428196 55.2618 1.09385 55.5593L23.6681 65.6548V74.5096C23.6681 75.531 24.4968 76.3588 25.5172 76.3588C26.5386 76.3588 27.3664 75.531 27.3664 74.5096V64.4952C27.3664 64.4942 27.3664 64.4923 27.3664 64.4914V63.1953C30.9865 60.6109 35.0739 58.3812 39.5304 56.5626C51.1193 51.8295 61.6754 51.3174 62.5003 51.284C63.3081 51.3155 73.1671 51.7866 84.3183 56.1048V74.48C81.6146 75.2792 79.6348 77.7854 79.6348 80.7456C79.6348 83.4655 81.3057 85.8019 83.6755 86.7833L82.3823 90.1869C73.9443 91.6393 67.2629 93.6382 62.4994 96.1425C51.5275 90.3786 33.1542 88.7497 27.3673 88.3673V83.1803C27.3673 82.1589 26.5386 81.3312 25.5182 81.3312C24.4968 81.3312 23.669 82.1589 23.669 83.1803V90.1144C23.669 91.1034 24.4482 91.9178 25.4371 91.9617C25.6784 91.9722 49.7107 93.0946 61.5848 99.8571C61.8681 100.018 62.1837 100.099 62.5003 100.099C62.816 100.099 63.1317 100.018 63.4159 99.8561C67.4079 97.5807 73.3941 95.6504 80.8489 94.2219L79.756 97.1C79.5395 97.6684 79.6167 98.3064 79.9619 98.8071C80.3072 99.3068 80.8765 99.6062 81.484 99.6062H90.8528C91.4612 99.6062 92.0296 99.3068 92.3748 98.8071C92.7201 98.3064 92.7973 97.6684 92.5818 97.1L90.91 92.7008C95.9416 92.1247 99.5216 91.9626 99.5626 91.9607C100.552 91.9178 101.332 91.1034 101.332 90.1135V83.1794C101.332 82.1589 100.503 81.3302 99.4825 81.3302C98.4611 81.3302 97.6334 82.1589 97.6334 83.1794V88.3692C95.9072 88.4856 93.0386 88.7154 89.5549 89.136L88.6613 86.7833C91.0302 85.8019 92.702 83.4655 92.702 80.7456C92.702 77.7845 90.7221 75.2792 88.0176 74.48V57.6717C91.4908 59.2653 94.7161 61.1125 97.6334 63.1953V64.4914V64.4952V74.5096C97.6334 75.531 98.4611 76.3588 99.4825 76.3588C100.504 76.3588 101.332 75.531 101.332 74.5096V65.6548L123.906 55.5593C124.572 55.2618 125 54.6009 125 53.8713C125 53.1427 124.571 52.4809 123.905 52.1834ZM84.1638 95.9079L86.1674 90.6351L88.1711 95.9079H84.1638ZM89.0027 80.7456C89.0027 82.3087 87.7315 83.5799 86.1674 83.5799C84.6044 83.5799 83.3332 82.3087 83.3332 80.7456C83.3332 79.1816 84.6044 77.9104 86.1674 77.9104C87.7315 77.9104 89.0027 79.1816 89.0027 80.7456ZM101.227 61.6494C101.107 61.3023 100.885 60.9933 100.582 60.7682C96.8437 57.9978 92.618 55.6022 88.0166 53.6272V40.1872L118.62 53.8713L101.227 61.6494Z" fill="#3A9FEC"/>
</svg>
