<svg width="100" height="100" viewBox="0 0 100 100" fill="none" xmlns="http://www.w3.org/2000/svg">
<path d="M50 7.81445C48.9184 7.81445 48.0488 8.68555 48.0488 9.76562C48.0488 10.7709 48.8051 11.6074 49.8047 11.7066C50.9619 11.8215 51.9512 10.9201 51.9512 9.76562C51.9512 8.68398 51.0801 7.81445 50 7.81445Z" fill="#3A9FEC"/>
<path d="M89.0625 11.7188C83.6777 11.7188 79.2969 7.33789 79.2969 1.95312C79.2969 0.874609 78.4223 0 77.3438 0H22.6562C21.5777 0 20.7031 0.874609 20.7031 1.95312C20.7031 7.33789 16.3223 11.7188 10.9375 11.7188C9.85898 11.7188 8.98438 12.5934 8.98438 13.6719V45.5449C8.98438 70.3842 25.1748 92.6416 49.4391 99.9178C49.6221 99.9725 49.8109 100 50 100C50.1891 100 50.3783 99.9725 50.5611 99.9176C74.2998 92.7967 91.0156 70.9275 91.0156 45.5449V13.6719C91.0156 12.5934 90.141 11.7188 89.0625 11.7188ZM87.1094 45.5449C87.1094 68.8746 72.2225 89.0785 50 96.0045C27.9547 89.1338 12.8906 68.7469 12.8906 45.5449V15.4859C18.8693 14.627 23.6113 9.88496 24.4703 3.90625H75.5297C76.3887 9.88496 81.1307 14.627 87.1094 15.4859V45.5449Z" fill="#3A9FEC"/>
<path d="M82.0336 18.0645C77.9605 16.2807 74.735 13.0551 72.9512 8.98203C72.6398 8.27148 71.9379 7.8125 71.1621 7.8125H57.8086C56.7301 7.8125 55.8555 8.68711 55.8555 9.76562C55.8555 10.8441 56.7301 11.7188 57.8086 11.7188H69.9272C71.9906 15.758 75.2576 19.0248 79.2969 21.0885V45.5449C79.2969 64.6588 67.8225 81.151 50 87.7527C32.1775 81.1508 20.7031 64.6588 20.7031 45.5449V21.0885C24.7424 19.0248 28.0092 15.758 30.0729 11.7188H42.1914C43.2699 11.7188 44.1445 10.8441 44.1445 9.76562C44.1445 8.68711 43.2699 7.8125 42.1914 7.8125H28.8379C28.0621 7.8125 27.3602 8.27168 27.0488 8.98203C25.265 13.0551 22.0395 16.2807 17.9664 18.0645C17.2561 18.3758 16.7969 19.0779 16.7969 19.8535V45.5449C16.7969 66.485 29.7482 84.735 49.3484 91.6711C49.5592 91.7457 49.7795 91.783 50 91.783C50.2205 91.783 50.4408 91.7457 50.6516 91.6711C70.2354 84.7408 83.2031 66.502 83.2031 45.5449V19.8535C83.2031 19.0777 82.7439 18.3758 82.0336 18.0645Z" fill="#3A9FEC"/>
<path d="M50 28.5156C40.3074 28.5156 32.4219 36.4012 32.4219 46.0938C32.4219 55.7863 40.3074 63.6719 50 63.6719C59.6926 63.6719 67.5781 55.7863 67.5781 46.0938C67.5781 36.4012 59.6926 28.5156 50 28.5156ZM50 59.7656C42.4613 59.7656 36.3281 53.6324 36.3281 46.0938C36.3281 38.5551 42.4613 32.4219 50 32.4219C57.5387 32.4219 63.6719 38.5551 63.6719 46.0938C63.6719 53.6324 57.5387 59.7656 50 59.7656Z" fill="#32C234"/>
<path d="M59.1937 40.8063C58.4308 40.0437 57.1945 40.0437 56.4314 40.8063L48.047 49.1908L45.5218 46.6658C44.7589 45.9033 43.5226 45.9033 42.7595 46.6658C41.9968 47.4285 41.9968 48.6652 42.7595 49.4281L46.6658 53.3344C47.0474 53.7154 47.547 53.9063 48.047 53.9063C48.547 53.9063 49.0466 53.7154 49.4281 53.3342L59.1937 43.5686C59.9564 42.8059 59.9564 41.5691 59.1937 40.8063Z" fill="#32C234"/>
</svg>
