<svg width="68" height="68" viewBox="0 0 68 68" fill="none" xmlns="http://www.w3.org/2000/svg">
<path fill-rule="evenodd" clip-rule="evenodd" d="M8.77379 0.0488281C8.05796 0.0488281 7.477 0.623388 7.477 1.33753V4.40365H4.38663C3.6708 4.40365 3.08984 4.97821 3.08984 5.69236V66.6599C3.08984 67.374 3.67081 67.9486 4.38663 67.9486H40.5887C41.3005 67.9486 41.8775 67.3716 41.8775 66.6599C41.8775 65.9482 41.3005 65.3712 40.5887 65.3712H5.68342V6.98107H38.1871V14.402C38.1871 15.1162 38.7681 15.6907 39.4839 15.6907H46.9614V23.1036C46.9614 23.8198 47.542 24.4004 48.2582 24.4004C48.9744 24.4004 49.555 23.8198 49.555 23.1036V14.402C49.555 14.0445 49.408 13.722 49.1735 13.4893L40.4024 4.78279C40.1669 4.54906 39.8427 4.40365 39.4839 4.40365H10.0706V2.62624H51.3486V25.281C51.3486 25.9972 51.9291 26.5778 52.6453 26.5778C53.3615 26.5778 53.9421 25.9972 53.9421 25.281V1.33753C53.9421 0.623389 53.3612 0.0488281 52.6453 0.0488281H8.77379ZM40.7807 13.1133V8.8009L45.1251 13.1133H40.7807Z" fill="#3A9FEC"/>
<path fill-rule="evenodd" clip-rule="evenodd" d="M49.2551 26.642C49.0034 26.3408 48.6257 26.1973 48.2588 26.1973C47.892 26.1973 47.5145 26.3407 47.2628 26.6417C43.5565 31.0494 38.5084 32.7098 32.9032 32.7098C32.1874 32.7098 31.6064 33.2844 31.6064 33.9986V51.6311C31.6064 55.9909 33.9752 60.0419 37.7873 62.2036L47.6152 67.7788C47.8143 67.8921 48.037 67.9485 48.2583 67.9485C48.4795 67.9485 48.7022 67.8921 48.9013 67.7788L58.7293 62.2036C62.5413 60.0419 64.9101 55.9909 64.9101 51.6311V33.9986C64.9101 33.2844 64.3291 32.7098 63.6133 32.7098C58.012 32.7098 52.9516 31.0558 49.2551 26.642ZM34.2 51.6311V35.2864C39.5062 35.2393 44.5571 33.3169 48.2582 29.4228C51.9588 33.3174 57.0106 35.2393 62.3165 35.2864V51.6311C62.3165 55.0666 60.4506 58.2602 57.4437 59.9642L48.2582 65.1769L39.0728 59.9658C36.0658 58.2601 34.2 55.0666 34.2 51.6311Z" fill="#3A9FEC"/>
<path fill-rule="evenodd" clip-rule="evenodd" d="M48.2578 35.9766C41.4968 35.9766 35.9932 41.4375 35.9932 48.1523C35.9932 54.8671 41.4968 60.3281 48.2578 60.3281C55.0188 60.3281 60.5225 54.8671 60.5225 48.1523C60.5225 41.4375 55.0188 35.9766 48.2578 35.9766ZM38.5867 48.1523C38.5867 42.861 42.9236 38.554 48.2578 38.554C53.592 38.554 57.9289 42.861 57.9289 48.1523C57.9289 53.4436 53.592 57.7506 48.2578 57.7506C42.9236 57.7506 38.5867 53.4436 38.5867 48.1523Z" fill="#3A9FEC"/>
<path fill-rule="evenodd" clip-rule="evenodd" d="M51.6005 42.5151C50.9164 42.3116 50.1966 42.6993 49.9901 43.3825L47.6393 51.1601L46.6534 50.1815C46.1494 49.6812 45.3362 49.6812 44.8322 50.1815C44.3229 50.687 44.3229 51.5107 44.8322 52.0162L47.3413 54.5069C47.587 54.7518 47.9186 54.8839 48.2577 54.8839C48.3625 54.8839 48.4685 54.8714 48.5731 54.8458L48.5742 54.8455C49.0171 54.7343 49.3675 54.3995 49.4999 53.9657L52.4717 44.1325C52.6794 43.4451 52.2888 42.7198 51.6005 42.5151Z" fill="#3A9FEC"/>
<path fill-rule="evenodd" clip-rule="evenodd" d="M8.76527 17.4668C8.05354 17.4668 7.47656 18.0438 7.47656 18.7555C7.47656 19.4672 8.05354 20.0442 8.76527 20.0442H35.1044C35.8161 20.0442 36.3931 19.4672 36.3931 18.7555C36.3931 18.0438 35.8161 17.4668 35.1044 17.4668H8.76527Z" fill="#3A9FEC"/>
<path fill-rule="evenodd" clip-rule="evenodd" d="M8.76527 21.8223C8.05354 21.8223 7.47656 22.3992 7.47656 23.111C7.47656 23.8227 8.05354 24.3997 8.76527 24.3997H35.1044C35.8161 24.3997 36.3931 23.8227 36.3931 23.111C36.3931 22.3992 35.8161 21.8223 35.1044 21.8223H8.76527Z" fill="#3A9FEC"/>
<path fill-rule="evenodd" clip-rule="evenodd" d="M8.76527 26.1777C8.05354 26.1777 7.47656 26.7547 7.47656 27.4664C7.47656 28.1782 8.05354 28.7552 8.76527 28.7552H35.1044C35.8161 28.7552 36.3931 28.1782 36.3931 27.4664C36.3931 26.7547 35.8161 26.1777 35.1044 26.1777H8.76527Z" fill="#3A9FEC"/>
<path fill-rule="evenodd" clip-rule="evenodd" d="M8.76527 30.5332C8.05354 30.5332 7.47656 31.1102 7.47656 31.8219C7.47656 32.5336 8.05354 33.1106 8.76527 33.1106H28.5236C29.2354 33.1106 29.8123 32.5336 29.8123 31.8219C29.8123 31.1102 29.2354 30.5332 28.5236 30.5332H8.76527Z" fill="#3A9FEC"/>
<path fill-rule="evenodd" clip-rule="evenodd" d="M8.76529 34.8867C8.05355 34.8867 7.47656 35.4637 7.47656 36.1755C7.47656 36.8872 8.05354 37.4642 8.76529 37.4642H28.5236C29.2354 37.4642 29.8123 36.8872 29.8123 36.1755C29.8123 35.4637 29.2354 34.8867 28.5236 34.8867H8.76529Z" fill="#3A9FEC"/>
<path fill-rule="evenodd" clip-rule="evenodd" d="M8.76529 39.2422C8.05355 39.2422 7.47656 39.8192 7.47656 40.5309C7.47656 41.2427 8.05354 41.8196 8.76529 41.8196H28.5236C29.2354 41.8196 29.8123 41.2427 29.8123 40.5309C29.8123 39.8192 29.2354 39.2422 28.5236 39.2422H8.76529Z" fill="#3A9FEC"/>
<path fill-rule="evenodd" clip-rule="evenodd" d="M8.76529 51.3066C8.05354 51.3066 7.47656 51.8836 7.47656 52.5954C7.47656 53.3071 8.05354 53.8841 8.76529 53.8841H28.5236C29.2354 53.8841 29.8123 53.3071 29.8123 52.5954C29.8123 51.8836 29.2354 51.3066 28.5236 51.3066H8.76529Z" fill="#3A9FEC"/>
<path fill-rule="evenodd" clip-rule="evenodd" d="M8.76524 55.6602C8.05353 55.6602 7.47656 56.2371 7.47656 56.9488C7.47656 57.6606 8.05352 58.2375 8.76524 58.2375H28.5237C29.2354 58.2375 29.8123 57.6606 29.8123 56.9488C29.8123 56.2371 29.2354 55.6602 28.5237 55.6602H8.76524Z" fill="#3A9FEC"/>
<path fill-rule="evenodd" clip-rule="evenodd" d="M8.76529 60.0156C8.05354 60.0156 7.47656 60.5926 7.47656 61.3044C7.47656 62.0161 8.05354 62.5931 8.76529 62.5931H28.5236C29.2354 62.5931 29.8123 62.0161 29.8123 61.3044C29.8123 60.5926 29.2354 60.0156 28.5236 60.0156H8.76529Z" fill="#3A9FEC"/>
<path fill-rule="evenodd" clip-rule="evenodd" d="M9.87101 9.75977C9.1612 9.75977 8.57422 10.3348 8.57422 11.0485C8.57422 11.7621 9.1612 12.3372 9.87101 12.3372C10.5808 12.3372 11.1678 11.7621 11.1678 11.0485C11.1678 10.3348 10.5808 9.75977 9.87101 9.75977Z" fill="#3A9FEC"/>
<path fill-rule="evenodd" clip-rule="evenodd" d="M14.2587 9.75977C13.5489 9.75977 12.9619 10.3348 12.9619 11.0485C12.9619 11.7621 13.5489 12.3372 14.2587 12.3372C14.9685 12.3372 15.5555 11.7621 15.5555 11.0485C15.5555 10.3348 14.9685 9.75977 14.2587 9.75977Z" fill="#3A9FEC"/>
<path fill-rule="evenodd" clip-rule="evenodd" d="M18.6454 9.75977C17.9356 9.75977 17.3486 10.3348 17.3486 11.0485C17.3486 11.7621 17.9356 12.3372 18.6454 12.3372C19.3552 12.3372 19.9422 11.7621 19.9422 11.0485C19.9422 10.3348 19.3552 9.75977 18.6454 9.75977Z" fill="#3A9FEC"/>
<path fill-rule="evenodd" clip-rule="evenodd" d="M23.2887 9.75977C22.577 9.75977 22 10.3367 22 11.0485C22 11.7602 22.577 12.3372 23.2887 12.3372H34.3713C35.083 12.3372 35.66 11.7602 35.66 11.0485C35.66 10.3367 35.083 9.75977 34.3713 9.75977H23.2887Z" fill="#3A9FEC"/>
</svg>
