<svg width="68" height="68" viewBox="0 0 68 68" fill="none" xmlns="http://www.w3.org/2000/svg">
<g clip-path="url(#clip0)">
<path d="M57.5848 27.0305V22.9529V7.34494C57.5848 5.1546 56.6187 3.09574 54.9341 1.69616C53.2495 0.296447 51.0484 -0.275311 48.8951 0.125384C48.8688 0.130298 48.8425 0.136009 48.8165 0.14265C48.7052 0.170408 37.6442 2.92427 33.9997 2.92427C30.3567 2.92427 19.2943 0.170408 19.1831 0.14265C19.1571 0.136009 19.1308 0.130298 19.1043 0.125384C16.9513 -0.275975 14.7502 0.296447 13.0655 1.69602C11.3809 3.09574 10.4147 5.15446 10.4147 7.34507V23.3762V27.0307C3.63221 29.1525 0.0537109 32.0401 0.0537109 35.4114C0.0537109 38.7932 3.68042 41.7058 10.542 43.834C16.8266 45.7833 25.1574 46.8568 33.9998 46.8568C42.8422 46.8568 51.1731 45.7833 57.4577 43.834C64.3192 41.7058 67.946 38.7933 67.946 35.4114C67.9459 32.0401 64.3672 29.1525 57.5848 27.0305ZM13.0711 20.2956C18.8542 21.6773 25.9463 22.4315 33.27 22.4315C37.7102 22.4315 42.021 22.1627 46.0827 21.6325C46.81 21.5375 47.3226 20.871 47.2276 20.1437C47.1327 19.4163 46.4661 18.9024 45.7388 18.9986C41.7907 19.5139 37.5956 19.7753 33.27 19.7753C25.8808 19.7753 18.7588 18.9913 13.0711 17.5605V7.34494C13.0709 5.94669 13.6877 4.63251 14.763 3.73908C15.8285 2.85388 17.2177 2.48666 18.5807 2.72997C19.4542 2.94738 30.1129 5.58052 33.9998 5.58052C37.8865 5.58052 48.5453 2.94752 49.4188 2.72997C50.7814 2.48692 52.1709 2.85375 53.2365 3.73908C54.3119 4.63238 54.9284 5.94669 54.9284 7.34481V21.9604C49.0192 23.6428 41.3792 24.5653 33.2699 24.5653C25.8803 24.5653 18.7582 23.7813 13.0709 22.3506V20.2956H13.0711ZM13.0709 28.0164V25.0862C18.8535 26.4677 25.9459 27.2217 33.2699 27.2217C41.29 27.2217 48.8951 26.3374 54.9284 24.7172V26.7783C49.151 28.3021 41.7983 29.1399 34.1598 29.1399C29.8333 29.1399 25.638 28.8785 21.691 28.3632C20.9634 28.2669 20.2971 28.7809 20.2022 29.5082C20.1072 30.2356 20.6199 30.9022 21.3471 30.9971C25.4077 31.5272 29.7186 31.7961 34.1598 31.7961C41.7262 31.7961 49.0451 30.9913 54.9284 29.5212V31.2038C49.0196 32.8858 41.379 33.8076 33.2699 33.8076C25.8804 33.8076 18.7581 33.0242 13.0709 31.5934V28.0164ZM56.6707 41.2969C50.6339 43.1694 42.5825 44.2004 33.9998 44.2004C25.417 44.2004 17.3657 43.1692 11.329 41.2969C6.01274 39.6479 2.70996 37.3927 2.70996 35.4115C2.70996 33.5297 5.61816 31.446 10.4148 29.8239V32.6184C10.4148 32.8804 10.4916 33.1281 10.6263 33.3373C10.7994 33.6061 11.0684 33.811 11.3932 33.8997C15.1797 34.9332 19.6347 35.6765 24.4083 36.0886C24.8857 36.1298 25.3662 36.1676 25.8496 36.2023C26.8164 36.2714 27.7945 36.327 28.7813 36.369C30.2614 36.4319 31.7607 36.4639 33.2699 36.4639C42.0725 36.4639 50.375 35.3988 56.6478 33.4646C57.2047 33.293 57.5846 32.7783 57.5846 32.1955V29.824C62.3813 31.4462 65.2896 33.5299 65.2896 35.4117C65.2895 37.3927 61.987 39.6479 56.6707 41.2969Z" fill="#3A9FEC"/>
<path d="M52.4732 19.1854C52.4559 19.1003 52.4308 19.0166 52.3976 18.9357C52.3644 18.8559 52.3231 18.7788 52.2753 18.7071C52.2276 18.6341 52.1718 18.5663 52.1107 18.5053C52.0496 18.4442 51.9818 18.3884 51.9087 18.3406C51.837 18.2929 51.76 18.2516 51.6791 18.2184C51.5993 18.1852 51.5157 18.1586 51.4307 18.1427C50.9991 18.0552 50.5409 18.1971 50.2328 18.5053C50.1717 18.5663 50.1159 18.6341 50.0682 18.7071C50.0204 18.7788 49.9792 18.8559 49.946 18.9357C49.9128 19.0166 49.8863 19.1003 49.869 19.1854C49.8516 19.2704 49.8438 19.358 49.8438 19.4444C49.8438 19.5306 49.8517 19.6182 49.869 19.7032C49.8863 19.7882 49.9128 19.8719 49.946 19.9516C49.9792 20.0326 50.0204 20.1096 50.0682 20.1813C50.1159 20.2544 50.1717 20.322 50.2328 20.3832C50.2939 20.4443 50.3617 20.5001 50.4346 20.5492C50.5064 20.5958 50.5834 20.6369 50.6631 20.6701C50.7441 20.7033 50.8278 20.7287 50.9128 20.7458C50.9979 20.7631 51.0854 20.7724 51.1717 20.7724C51.2581 20.7724 51.3457 20.7631 51.4307 20.7458C51.5157 20.7285 51.5994 20.7033 51.6791 20.6701C51.76 20.6369 51.837 20.5958 51.9087 20.5492C51.9818 20.5001 52.0495 20.4443 52.1107 20.3832C52.1718 20.3221 52.2276 20.2544 52.2753 20.1813C52.3231 20.1096 52.3644 20.0326 52.3976 19.9516C52.4308 19.8719 52.4559 19.7882 52.4732 19.7032C52.4904 19.6182 52.4997 19.5306 52.4997 19.4444C52.4997 19.358 52.4904 19.2702 52.4732 19.1854Z" fill="#3A9FEC"/>
<path d="M17.5619 28.5509C17.5443 28.4659 17.5192 28.3822 17.486 28.3025C17.4528 28.2216 17.4115 28.1446 17.3638 28.0727C17.3147 27.9996 17.2589 27.9318 17.1978 27.8709C17.1367 27.8098 17.0689 27.754 16.9958 27.7062C16.924 27.6572 16.847 27.6172 16.7673 27.584C16.6863 27.5508 16.6026 27.5244 16.519 27.5084C16.3476 27.4738 16.171 27.4738 15.9997 27.5084C15.9147 27.5244 15.831 27.5508 15.7513 27.584C15.6704 27.6172 15.5934 27.6572 15.5217 27.7062C15.4486 27.754 15.3809 27.8098 15.3197 27.8709C15.2586 27.932 15.2028 27.9997 15.1551 28.0727C15.1073 28.1445 15.0661 28.2215 15.0329 28.3025C14.9997 28.3823 14.9745 28.4659 14.9572 28.5509C14.94 28.6359 14.9307 28.7235 14.9307 28.8098C14.9307 29.1591 15.0728 29.5018 15.3198 29.7488C15.381 29.8099 15.4488 29.8657 15.5218 29.9134C15.5935 29.9612 15.6706 30.0024 15.7514 30.0356C15.8313 30.0688 15.9149 30.0953 15.9998 30.1113C16.0849 30.1285 16.1726 30.1378 16.2588 30.1378C16.3451 30.1378 16.4329 30.1285 16.5178 30.1113C16.6028 30.0953 16.6863 30.0688 16.7675 30.0356C16.8471 30.0024 16.9242 29.9612 16.9959 29.9134C17.0691 29.8657 17.1368 29.8099 17.1979 29.7488C17.4448 29.5018 17.587 29.1591 17.587 28.8098C17.587 28.7235 17.5791 28.6357 17.5619 28.5509Z" fill="#3A9FEC"/>
<path d="M53.6349 50.4688H14.3662C11.1806 50.4688 8.58887 53.0605 8.58887 56.2461V61.9572C8.58887 65.2893 11.2997 68.0001 14.6318 68.0001H23.2394C28.5775 68.0001 32.9205 63.6573 32.9205 58.319V53.125H35.081V58.319C35.081 63.6572 39.4237 68.0001 44.7619 68.0001H53.3697C56.7018 68.0001 59.4128 65.2893 59.4128 61.9572V56.2461C59.4124 53.0605 56.8205 50.4688 53.6349 50.4688ZM23.2393 65.3439H14.6317C12.7642 65.3439 11.245 63.8246 11.245 61.9572V56.2461C11.245 54.5251 12.6451 53.125 14.3661 53.125H30.2639V58.319H30.264C30.264 62.1925 27.1128 65.3439 23.2393 65.3439ZM53.3693 65.3439H44.7615C40.8882 65.3439 37.7368 62.1925 37.7368 58.319V53.125H53.6346C55.3556 53.125 56.7557 54.5251 56.7557 56.2461V61.9572H56.7558C56.7561 63.8246 55.2367 65.3439 53.3693 65.3439Z" fill="#3A9FEC"/>
<path d="M19.3485 54.4807C18.83 53.9622 17.9891 53.9622 17.4704 54.4807L13.176 58.775C12.6574 59.2937 12.6575 60.1346 13.1761 60.6534C13.4354 60.9126 13.7754 61.0424 14.1151 61.0424C14.4551 61.0424 14.795 60.9126 15.0542 60.6534L19.3486 56.359C19.8672 55.8404 19.8671 54.9994 19.3485 54.4807Z" fill="#3A9FEC"/>
<path d="M46.2284 54.4807C45.7099 53.9622 44.8689 53.9622 44.3502 54.4807L40.056 58.775C39.5373 59.2937 39.5373 60.1346 40.056 60.6534C40.3153 60.9126 40.6552 61.0424 40.9951 61.0424C41.3349 61.0424 41.6748 60.9126 41.9342 60.6534L46.2284 56.359C46.747 55.8404 46.747 54.9994 46.2284 54.4807Z" fill="#3A9FEC"/>
</g>
<defs>
<clipPath id="clip0">
<rect width="68" height="68" fill="white"/>
</clipPath>
</defs>
</svg>
