<svg width="68" height="68" viewBox="0 0 68 68" fill="none" xmlns="http://www.w3.org/2000/svg">
<g clip-path="url(#clip0)">
<path d="M11.2992 60.4204C11.0523 60.1732 10.7096 60.0312 10.3604 60.0312C10.0111 60.0312 9.6684 60.1732 9.42137 60.4204C9.17434 60.6676 9.03223 61.0101 9.03223 61.3594C9.03223 61.7087 9.1742 62.0513 9.42137 62.2982C9.6684 62.5453 10.0111 62.6875 10.3604 62.6875C10.7096 62.6875 11.0523 62.5454 11.2992 62.2982C11.5462 62.0513 11.6885 61.7087 11.6885 61.3594C11.6885 61.0101 11.5464 60.6674 11.2992 60.4204Z" fill="#3A9FEC"/>
<path d="M62.3589 24.2973C62.1119 24.0502 61.7705 23.9082 61.4199 23.9082C61.0706 23.9082 60.728 24.0502 60.4809 24.2973C60.234 24.5444 60.0918 24.887 60.0918 25.2363C60.0918 25.5856 60.2339 25.9283 60.4809 26.1752C60.728 26.4222 61.0706 26.5645 61.4199 26.5645C61.7705 26.5645 62.1119 26.4223 62.3589 26.1752C62.6071 25.9283 62.7492 25.5856 62.7492 25.2363C62.7492 24.887 62.6071 24.5444 62.3589 24.2973Z" fill="#3A9FEC"/>
<path d="M67.6102 0.389008C67.3611 0.139984 67.0232 0 66.6709 0L33.9998 0.00172656C33.2664 0.00172656 32.6718 0.596461 32.6718 1.32985V5.12789L20.0826 8.5012C19.3741 8.69112 18.9536 9.41933 19.1435 10.1277L25.6682 34.4779L20.0238 40.1223C19.3054 39.0733 18.0992 38.3835 16.7348 38.3835H3.98522C1.78823 38.3835 0.000976563 40.1709 0.000976563 42.3677V64.0156C0.000976562 66.2126 1.78823 68 3.98522 68H16.735C18.6014 68 20.1715 66.7096 20.6018 64.9745L22.1809 66.3517C23.4 67.4147 24.9619 68.0001 26.5794 68.0001H66.6711C67.4045 68.0001 67.9992 67.4054 67.9992 66.672V1.32812C67.999 0.975906 67.8593 0.638031 67.6102 0.389008ZM18.0628 64.0158C18.0628 64.748 17.467 65.3439 16.7347 65.3439H3.98509C3.25276 65.3439 2.65696 64.7481 2.65696 64.0158V42.3679C2.65696 41.6355 3.25276 41.0397 3.98509 41.0397H9.03183V56.3391C9.03183 57.0725 9.62656 57.6672 10.36 57.6672C11.0933 57.6672 11.6881 57.0725 11.6881 56.3391V41.0397H16.7348C17.4671 41.0397 18.0629 41.6355 18.0629 42.3679V64.0158H18.0628ZM22.0529 10.7231L32.6718 7.87777V12.7991L31.7817 13.0377C31.4413 13.1289 31.1513 13.3514 30.9752 13.6564C30.7991 13.9615 30.7513 14.324 30.8426 14.6642C31.353 16.5689 30.2186 18.5336 28.3139 19.044C27.9733 19.1354 27.6828 19.3582 27.5068 19.664C27.3309 19.9696 27.2834 20.3327 27.3755 20.6732L32.5524 39.8431H29.8868L28.5132 34.469C28.4695 34.2979 28.393 34.1402 28.2906 34.0032L22.0529 10.7231ZM32.6718 18.8898V30.0966L30.2494 21.1271C31.2613 20.6047 32.0894 19.8229 32.6718 18.8898ZM51.7522 65.3438H26.5791C25.6036 65.3438 24.6616 64.9907 23.9263 64.3496L20.7191 61.5525V43.1836L26.5174 37.3853L27.569 41.4998C27.7193 42.0877 28.2489 42.4989 28.8557 42.4989L54.9672 42.5005C55.9925 42.5005 56.8265 43.3346 56.8265 44.3599C56.8265 45.3852 55.9925 46.2193 54.9672 46.2193H41.5876C40.8542 46.2193 40.2595 46.814 40.2595 47.5474C40.2595 48.2808 40.8542 48.8755 41.5876 48.8755H59.1242C60.1495 48.8755 60.9836 49.7096 60.9836 50.7349C60.9836 51.7602 60.1495 52.5943 59.1242 52.5943H41.5876C40.8542 52.5943 40.2595 53.189 40.2595 53.9224C40.2595 54.6558 40.8542 55.2505 41.5876 55.2505H56.2824C57.3077 55.2505 58.1418 56.0846 58.1418 57.1099C58.1418 58.1352 57.3077 58.9693 56.2824 58.9693H41.5876C40.8542 58.9693 40.2595 59.564 40.2595 60.2974C40.2595 61.0308 40.8542 61.6255 41.5876 61.6255H51.7522C52.7775 61.6255 53.6115 62.4596 53.6115 63.4849C53.6114 64.5097 52.7773 65.3438 51.7522 65.3438ZM65.343 65.3438H65.3429H55.8655C56.123 64.7762 56.2677 64.1471 56.2677 63.4844C56.2677 62.8216 56.123 62.1925 55.8655 61.625H56.2824C58.7722 61.625 60.7979 59.5993 60.7979 57.1095C60.7979 56.3833 60.6246 55.697 60.3186 55.0885C62.2305 54.5634 63.6395 52.8109 63.6395 50.7346C63.6395 49.7274 63.3078 48.7962 62.7482 48.0445V31.2119C62.7482 30.4785 62.1535 29.8837 61.4201 29.8837C60.6867 29.8837 60.092 30.4785 60.092 31.2119V46.3249C59.7799 46.2565 59.4562 46.2193 59.1239 46.2193H59.0804C59.3379 45.6518 59.4825 45.0226 59.4825 44.3599C59.4825 41.8699 57.4569 39.8444 54.967 39.8444H52.8321C55.099 38.8722 56.6912 36.6189 56.6912 34C56.6912 30.4952 53.84 27.6439 50.3352 27.6439C46.8305 27.6439 43.9792 30.4952 43.9792 34C43.9792 36.6189 45.5715 38.8722 47.8383 39.8444H40.5784V14.5912C42.9509 14.0741 44.8231 12.2021 45.34 9.82945H55.3303C55.8472 12.2021 57.7193 14.0741 60.0919 14.5912V18.7203C60.0919 19.4537 60.6866 20.0484 61.42 20.0484C62.1534 20.0484 62.7481 19.4537 62.7481 18.7203V13.4054C62.7481 12.672 62.1534 12.0773 61.42 12.0773C59.4481 12.0773 57.8441 10.4731 57.8441 8.50133C57.8441 7.76794 57.2494 7.1732 56.516 7.1732H44.1544C43.421 7.1732 42.8262 7.76794 42.8262 8.50133C42.8262 10.4732 41.2221 12.0773 39.2504 12.0773C38.517 12.0773 37.9223 12.672 37.9223 13.4054V39.8443H35.3282V2.65771L65.343 2.65625V65.3438ZM50.3354 37.6999C48.2953 37.6999 46.6357 36.0401 46.6357 34.0001C46.6357 31.9601 48.2954 30.3002 50.3354 30.3002C52.3755 30.3002 54.0352 31.96 54.0352 34C54.0352 36.04 52.3756 37.6999 50.3354 37.6999Z" fill="#3A9FEC"/>
</g>
<defs>
<clipPath id="clip0">
<rect width="68" height="68" fill="white"/>
</clipPath>
</defs>
</svg>
