<svg width="68" height="68" viewBox="0 0 68 68" fill="none" xmlns="http://www.w3.org/2000/svg">
<path d="M11.9531 24.7031C11.2201 24.7031 10.625 25.2982 10.625 26.0312C10.625 26.7643 11.2201 27.3594 11.9531 27.3594C12.6862 27.3594 13.2812 26.7643 13.2812 26.0312C13.2812 25.2982 12.6862 24.7031 11.9531 24.7031Z" fill="#3A9FEC"/>
<path d="M64.0156 6.10938H3.98438C1.78726 6.10938 0 7.89664 0 10.0938V52.5938C0 54.7909 1.78726 56.5781 3.98438 56.5781H7.96875V60.5625C7.96875 61.2961 8.56329 61.8906 9.29688 61.8906H19.9219C20.6555 61.8906 21.25 61.2961 21.25 60.5625V56.5781H46.75V60.5625C46.75 61.2961 47.3445 61.8906 48.0781 61.8906H58.7031C59.4367 61.8906 60.0312 61.2961 60.0312 60.5625V56.5781H64.0156C66.2127 56.5781 68 54.7909 68 52.5938V10.0938C68 7.89664 66.2127 6.10938 64.0156 6.10938ZM18.5938 59.2344H10.625V56.5781H18.5938V59.2344ZM57.375 59.2344H49.4062V56.5781H57.375V59.2344ZM65.3438 52.5938C65.3438 53.3263 64.7482 53.9219 64.0156 53.9219C60.9298 53.9219 6.25983 53.9219 3.98438 53.9219C3.25183 53.9219 2.65625 53.3263 2.65625 52.5938V10.0938C2.65625 9.36121 3.25183 8.76562 3.98438 8.76562H64.0156C64.7482 8.76562 65.3438 9.36121 65.3438 10.0938V52.5938Z" fill="#3A9FEC"/>
<path d="M61.3594 16.7344H60.0312V12.75C60.0312 12.0164 59.4367 11.4219 58.7031 11.4219H6.64062C5.90704 11.4219 5.3125 12.0164 5.3125 12.75V49.9375C5.3125 50.6711 5.90704 51.2656 6.64062 51.2656H58.7031C59.4367 51.2656 60.0312 50.6711 60.0312 49.9375V45.9531H61.3594C62.093 45.9531 62.6875 45.3586 62.6875 44.625V36.6562C62.6875 35.9227 62.093 35.3281 61.3594 35.3281H60.0312V27.3594H61.3594C62.093 27.3594 62.6875 26.7648 62.6875 26.0312V18.0625C62.6875 17.3289 62.093 16.7344 61.3594 16.7344ZM57.375 48.6094H7.96875V14.0781H57.375V16.7344H56.0469C55.3133 16.7344 54.7188 17.3289 54.7188 18.0625V26.0312C54.7188 26.7648 55.3133 27.3594 56.0469 27.3594H57.375V35.3281H56.0469C55.3133 35.3281 54.7188 35.9227 54.7188 36.6562V44.625C54.7188 45.3586 55.3133 45.9531 56.0469 45.9531H57.375V48.6094ZM60.0312 43.2969H57.375V37.9844H60.0312V43.2969ZM60.0312 24.7031H57.375V19.3906H60.0312V24.7031Z" fill="#3A9FEC"/>
<path d="M32.6719 19.3906C25.3454 19.3906 19.3906 25.3278 19.3906 32.6719C19.3906 39.9978 25.3272 45.9531 32.6719 45.9531C39.9984 45.9531 45.9531 40.016 45.9531 32.6719C45.9531 25.3449 40.0155 19.3906 32.6719 19.3906ZM32.6719 22.0469C35.063 22.0469 37.3312 22.8334 39.1859 24.2798L37.2861 26.1791C35.9455 25.2214 34.3481 24.7031 32.6719 24.7031C30.9962 24.7031 29.3988 25.2214 28.0577 26.1791L26.1578 24.2793C28.0125 22.8334 30.2807 22.0469 32.6719 22.0469ZM37.9844 32.6719C37.9844 35.5792 35.6233 37.9844 32.6719 37.9844C29.735 37.9844 27.3594 35.5948 27.3594 32.6719C27.3594 29.7355 29.7484 27.3594 32.6719 27.3594C35.6088 27.3594 37.9844 29.749 37.9844 32.6719ZM22.0469 32.6719C22.0469 30.2807 22.8334 28.0125 24.2798 26.1578L26.1791 28.0577C25.2214 29.3977 24.7031 30.9956 24.7031 32.6719C24.7031 34.3476 25.2214 35.9455 26.1791 37.2861L24.2793 39.1859C22.8334 37.3312 22.0469 35.063 22.0469 32.6719ZM32.6719 43.2969C30.2807 43.2969 28.0131 42.5104 26.1578 41.064L28.0577 39.1646C29.3983 40.1223 30.9956 40.6406 32.6719 40.6406C34.3481 40.6406 35.9455 40.1223 37.2861 39.1646L39.1859 41.064C37.3312 42.5104 35.063 43.2969 32.6719 43.2969ZM41.064 39.1859L39.1646 37.2861C40.1223 35.946 40.6406 34.3481 40.6406 32.6719C40.6406 30.9962 40.1223 29.3983 39.1646 28.0577L41.0645 26.1578C42.5104 28.0125 43.2969 30.2807 43.2969 32.6719C43.2969 35.063 42.5104 37.3312 41.064 39.1859Z" fill="#3A9FEC"/>
<path d="M11.9531 30.0156C11.2195 30.0156 10.625 30.6102 10.625 31.3438V39.3125C10.625 40.0461 11.2195 40.6406 11.9531 40.6406C12.6867 40.6406 13.2812 40.0461 13.2812 39.3125V31.3438C13.2812 30.6102 12.6867 30.0156 11.9531 30.0156Z" fill="#3A9FEC"/>
</svg>
