<svg width="200" height="201" viewBox="0 0 200 201" fill="none" xmlns="http://www.w3.org/2000/svg">
<path d="M22.582 161.293H90.3237V167.744H22.582V161.293Z" fill="white"/>
<path d="M199.054 131.592L161.819 94.3557L164.515 91.6589L165.461 92.6041C166.09 93.2331 166.915 93.5493 167.741 93.5493C168.567 93.5493 169.393 93.2331 170.022 92.6041L179.699 82.9266C180.961 81.6653 180.961 79.6265 179.699 78.3652L157.119 55.7844C155.857 54.5231 153.819 54.5231 152.557 55.7844L142.88 65.4619C141.619 66.7232 141.619 68.7619 142.88 70.0232L143.825 70.9684L135.483 79.3104V3.22584C135.483 1.44517 134.038 0 132.258 0H3.22579C1.44516 0 0 1.44517 0 3.22584V164.518C0 173.411 7.23545 180.647 16.129 180.647H90.3222V174.195H16.129C10.7935 174.195 6.45159 169.853 6.45159 164.518C6.45159 159.182 10.7935 154.84 16.129 154.84H90.3222V148.388H32.2579V6.45167H129.032V85.7621L125.806 88.9879L124.861 88.0427C123.6 86.7814 121.561 86.7814 120.3 88.0427L110.622 97.7203C109.361 98.9816 109.361 101.02 110.622 102.282L133.203 124.862C133.832 125.491 134.658 125.808 135.483 125.808C136.309 125.808 137.135 125.491 137.764 124.862L147.441 115.185C148.703 113.924 148.703 111.885 147.441 110.624L146.496 109.678L149.193 106.982L186.428 144.217C187.057 144.846 187.883 145.163 188.709 145.163C189.535 145.163 190.361 144.846 190.99 144.217L199.054 136.153C200.315 134.892 200.315 132.853 199.054 131.592ZM25.8063 148.388H16.129C12.4838 148.388 9.1548 149.65 6.45159 151.698V6.45167H25.8063V148.388ZM154.838 62.6264L172.857 80.6459L167.741 85.7621L149.722 67.7426L154.838 62.6264ZM135.483 118.02L117.464 100.001L122.58 94.8848L140.599 112.904L135.483 118.02ZM130.367 93.5493L148.386 75.5297L159.954 87.0976L141.935 105.117L130.367 93.5493ZM188.709 137.375L153.754 102.42L157.257 98.917L192.212 133.872L188.709 137.375Z" fill="white"/>
<path d="M148.39 180.645H145.164V170.968C145.164 169.184 143.719 167.742 141.939 167.742H103.229C101.449 167.742 100.003 169.184 100.003 170.968V180.645H96.7776C94.9969 180.645 93.5518 182.087 93.5518 183.871V196.774C93.5518 198.558 94.9969 200 96.7776 200H148.39C150.171 200 151.616 198.558 151.616 196.774V183.871C151.616 182.087 150.171 180.645 148.39 180.645ZM106.455 174.194H138.713V180.645H106.455V174.194ZM145.164 193.549H100.003V187.097H145.164V193.549Z" fill="white"/>
<path d="M133.28 129.199C131.964 128.754 130.513 129.212 129.68 130.325L122.584 139.784L115.487 130.322C114.655 129.209 113.203 128.751 111.887 129.196C110.568 129.638 109.681 130.867 109.681 132.257V144.452L97.4096 141.997C96.0677 141.719 94.7225 142.322 94.0225 143.484C93.3161 144.639 93.4129 146.116 94.258 147.177L107.161 163.307L112.2 159.275L104.829 150.061L112.274 151.552C113.222 151.736 114.203 151.494 114.951 150.884C115.7 150.268 116.132 149.355 116.132 148.387V141.935L120.003 147.097C121.219 148.723 123.948 148.723 125.164 147.097L129.035 141.935V148.387C129.035 149.355 129.468 150.268 130.216 150.881C130.961 151.491 131.942 151.733 132.893 151.549L140.338 150.058L132.968 159.272L138.006 163.304L150.909 147.174C151.758 146.116 151.851 144.639 151.145 143.48C150.438 142.319 149.084 141.713 147.758 141.993L135.487 144.452V132.257C135.487 130.867 134.6 129.638 133.28 129.199Z" fill="white"/>
<path d="M77.4145 83.8751H70.9629C63.8468 83.8751 58.0597 89.6622 58.0597 96.7785V100.004C58.0597 101.785 59.5049 103.23 61.2855 103.23H99.995C101.776 103.23 103.221 101.785 103.221 100.004V96.7785C103.221 89.6622 97.4337 83.8751 90.3176 83.8751H83.866V45.1648H98.0015L90.6596 59.8521L90.6886 59.8683C90.4692 60.3005 90.3176 60.7747 90.3176 61.2941V64.5199C90.3176 71.6362 96.1047 77.4234 103.221 77.4234C110.337 77.4234 116.124 71.6362 116.124 64.5199V61.2941C116.124 60.7747 115.972 60.3005 115.753 59.865L115.782 59.8489L108.44 45.1648H116.124C116.979 45.1648 117.801 44.8261 118.405 44.2196L124.856 37.7679L120.295 33.2066L114.788 38.7131H83.866V31.6678C87.6112 30.3323 90.3176 26.7839 90.3176 22.5838C90.3176 17.2483 85.9757 12.9062 80.6403 12.9062C75.3048 12.9062 70.9629 17.2483 70.9629 22.5838C70.9629 26.7839 73.6693 30.3323 77.4145 31.6678V38.7131H46.492L40.9856 33.2066L36.4243 37.7679L42.8759 44.2196C43.4791 44.8261 44.3017 45.1648 45.1565 45.1648H52.8404L45.4985 59.8521L45.5275 59.8683C45.3081 60.3005 45.1565 60.7747 45.1565 61.2941V64.5199C45.1565 71.6362 50.9436 77.4234 58.0597 77.4234C65.1758 77.4234 70.9629 71.6362 70.9629 64.5199V61.2941C70.9629 60.7747 70.8113 60.3005 70.5919 59.865L70.6209 59.8489L63.279 45.1648H77.4145V83.8751ZM96.7692 96.7785H64.5113C64.5113 93.2204 67.4048 90.3268 70.9629 90.3268H90.3176C93.8757 90.3268 96.7692 93.2204 96.7692 96.7785ZM103.221 49.152L107.679 58.0682H98.7628L103.221 49.152ZM103.221 70.9716C99.6628 70.9716 96.7692 68.078 96.7692 64.5199H109.672C109.672 68.078 106.779 70.9716 103.221 70.9716ZM80.6403 19.358C82.4177 19.358 83.866 20.8064 83.866 22.5838C83.866 24.3613 82.4177 25.8097 80.6403 25.8097C78.8628 25.8097 77.4145 24.3613 77.4145 22.5838C77.4145 20.8064 78.8628 19.358 80.6403 19.358ZM58.0597 49.152L62.5178 58.0682H53.6017L58.0597 49.152ZM58.0597 70.9716C54.5017 70.9716 51.6081 68.078 51.6081 64.5199H64.5113C64.5113 68.078 61.6178 70.9716 58.0597 70.9716Z" fill="white"/>
</svg>
