<svg width="68" height="68" viewBox="0 0 68 68" fill="none" xmlns="http://www.w3.org/2000/svg">
<g clip-path="url(#clip0)">
<path d="M40.5742 23.0323C40.5742 23.638 40.0831 24.1291 39.4774 24.1291C38.8717 24.1291 38.3806 23.638 38.3806 23.0323C38.3806 22.4266 38.8717 21.9355 39.4774 21.9355C40.0831 21.9355 40.5742 22.4266 40.5742 23.0323Z" fill="#3A9FEC"/>
<path d="M29.6064 23.0323C29.6064 23.638 29.1153 24.1291 28.5096 24.1291C27.9039 24.1291 27.4128 23.638 27.4128 23.0323C27.4128 22.4266 27.9039 21.9355 28.5096 21.9355C29.1153 21.9355 29.6064 22.4266 29.6064 23.0323Z" fill="#3A9FEC"/>
<path d="M33.9935 30.7097C33.0867 30.7097 32.3068 30.1568 31.9731 29.3704C31.7838 28.9243 31.4072 28.5161 30.9226 28.5161C30.1957 28.5161 29.5868 29.1185 29.8019 29.8128C30.356 31.6011 32.0252 32.9032 33.9935 32.9032C35.9619 32.9032 37.6311 31.6011 38.1852 29.8128C38.4003 29.1185 37.7914 28.5161 37.0645 28.5161C36.5799 28.5161 36.2033 28.9243 36.014 29.3704C35.6803 30.1568 34.9004 30.7097 33.9935 30.7097Z" fill="#3A9FEC"/>
<path d="M58.2976 40.1003L59.0342 38.9957C59.455 38.3645 59.1236 37.507 58.3876 37.323C53.7124 36.1539 50.4451 31.9698 50.4451 27.1494V16.4516C50.4451 7.3802 43.0649 0 33.9935 0C24.9221 0 17.5419 7.3802 17.5419 16.4516V27.1494C17.5419 31.9709 14.2746 36.1539 9.59883 37.323C8.86289 37.507 8.53139 38.3646 8.95225 38.9957L9.6888 40.1003C10.7979 41.7631 12.2422 43.1287 13.9281 44.1398C11.4545 45.4545 9.86445 48.0155 9.86445 50.9025V57.9258C9.86445 58.6438 10.4465 59.2258 11.1645 59.2258H12.058V66.7C12.058 67.418 12.64 68 13.358 68H54.629C55.3469 68 55.929 67.418 55.929 66.7V59.2258H56.8225C57.5405 59.2258 58.1225 58.6438 58.1225 57.9258V50.9025C58.1225 48.0155 56.532 45.4545 54.0589 44.1409C55.7448 43.1287 57.1902 41.7631 58.2976 40.1003ZM33.9935 2.19355C41.8551 2.19355 48.2516 8.58997 48.2516 16.4516V19.7703C47.5977 19.276 46.842 18.914 46.0077 18.7517C45.7999 16.216 44.8129 13.8982 43.2764 12.0479C43.6535 11.3876 43.8645 10.6421 43.8645 9.87097C43.8645 7.45142 41.8969 5.48387 39.4774 5.48387C38.7469 5.48387 38.0293 5.67131 37.3936 6.01887C36.5753 5.00885 35.3302 4.3871 33.9935 4.3871C32.6563 4.3871 31.4117 5.00885 30.5934 6.01887C29.9572 5.67131 29.2401 5.48387 28.5096 5.48387C26.0901 5.48387 24.1225 7.45142 24.1225 9.87097C24.1225 10.6421 24.333 11.3876 24.71 12.0468C23.1736 13.8982 22.1866 16.216 21.9793 18.7507C21.1444 18.9129 20.3888 19.275 19.7354 19.7692V16.4516C19.7354 8.58997 26.1318 2.19355 33.9935 2.19355ZM46.0119 27.2319C46.035 26.9304 46.058 26.6294 46.058 26.3226V21.0406C47.331 21.4947 48.2516 22.7013 48.2516 24.129C48.2516 25.5734 47.309 26.7906 46.0119 27.2319ZM47.7305 53.675C48.7748 54.7193 49.3483 56.1053 49.3483 57.5806C49.3483 59.056 48.7748 60.442 47.7305 61.4863L46.058 63.1588V65.8064H43.8645V55.0419C43.8645 54.324 43.2824 53.7419 42.5645 53.7419H25.4225C24.7045 53.7419 24.1225 54.324 24.1225 55.0419V65.8064H21.929V63.1588L20.2565 61.4863C19.2122 60.442 18.6386 59.056 18.6386 57.5806C18.6386 56.1053 19.2122 54.7193 20.2565 53.675C21.3345 52.597 21.929 51.1623 21.929 49.6365V43.7853L24.1225 43.0998V50.2484C24.1225 50.9664 24.7045 51.5484 25.4225 51.5484H42.5645C43.2824 51.5484 43.8645 50.9664 43.8645 50.2484V43.1009L46.058 43.7864V49.6376C46.058 51.1623 46.6524 52.597 47.7305 53.675ZM26.3161 60.3226H36.187C36.7928 60.3226 37.2838 59.8315 37.2838 59.2258C37.2838 58.6201 36.7928 58.129 36.187 58.129H26.3161V55.9355H41.6709V58.129H40.5741C39.9684 58.129 39.4774 58.6201 39.4774 59.2258C39.4774 59.8315 39.9684 60.3226 40.5741 60.3226H41.6709V65.8064H26.3161V60.3226ZM41.6709 49.3548H26.3161V42.4154L28.2033 41.8252L33.0742 46.6961C33.5819 47.2038 34.4051 47.2038 34.9127 46.6961L39.7831 41.8252L41.6709 42.4154V49.3548ZM38.3806 40.1265L33.9935 44.5136L29.6064 40.1265V37.549C30.9683 38.0835 32.4447 38.3871 33.9935 38.3871C35.5417 38.3871 37.0182 38.0835 38.3806 37.549V40.1265ZM33.9935 36.1936C28.5498 36.1936 24.1225 31.7647 24.1225 26.3226V19.7419H43.8645V26.3226C43.8645 31.7647 39.4367 36.1936 33.9935 36.1936ZM21.975 27.2319C20.6774 26.7906 19.7354 25.5734 19.7354 24.129C19.7354 22.7013 20.6555 21.4947 21.929 21.0406V26.3226C21.929 26.6294 21.952 26.9304 21.975 27.2319ZM26.3161 9.87097C26.3161 8.6612 27.2998 7.67742 28.5096 7.67742C29.0982 7.67742 29.6466 7.91787 30.0659 8.3463C28.7158 8.81275 27.4707 9.50466 26.3852 10.3888C26.3445 10.2196 26.3161 10.0477 26.3161 9.87097ZM41.6008 10.3899C40.5147 9.50466 39.2701 8.81382 37.92 8.34737C38.3399 7.91787 38.8883 7.67742 39.4774 7.67742C40.6871 7.67742 41.6709 8.6612 41.6709 9.87097C41.6709 10.0477 41.642 10.2207 41.6008 10.3899ZM33.9935 9.87097C38.6821 9.87097 42.6086 13.1591 43.6101 17.5484H41.6709V16.4516C41.6709 15.8459 41.1799 15.3548 40.5741 15.3548C39.9684 15.3548 39.4774 15.8459 39.4774 16.4516V17.5484H37.2838V16.4516C37.2838 15.8459 36.7928 15.3548 36.187 15.3548C35.5813 15.3548 35.0903 15.8459 35.0903 16.4516V17.5484H32.8967V16.4516C32.8967 15.8459 32.4057 15.3548 31.7999 15.3548C31.1942 15.3548 30.7032 15.8459 30.7032 16.4516V17.5484H28.5096V16.4516C28.5096 15.8459 28.0186 15.3548 27.4128 15.3548C26.8071 15.3548 26.3161 15.8459 26.3161 16.4516V17.5484H24.3769C25.3783 13.1591 29.3049 9.87097 33.9935 9.87097ZM32.0399 7.85093C32.3997 7.09047 33.1511 6.58065 33.9935 6.58065C34.8359 6.58065 35.5867 7.09047 35.9466 7.85093C35.3093 7.74543 34.6602 7.67742 33.9935 7.67742C33.3267 7.67742 32.6771 7.74543 32.0399 7.85093ZM11.5873 38.9939C16.0568 37.2893 19.1838 33.2026 19.6631 28.4294C20.4327 29.0329 21.3597 29.4265 22.3794 29.5481C23.1736 32.4052 24.989 34.837 27.4128 36.4217V39.7747L16.7664 43.1009C14.6537 42.2772 12.8651 40.8623 11.5873 38.9939ZM12.058 50.9025C12.058 48.4905 13.6041 46.3869 15.9053 45.6688L19.7354 44.4708V49.6365C19.7354 50.5753 19.3691 51.4595 18.7056 52.1241C17.3785 53.4511 16.602 55.1777 16.4724 57.0323H12.058V50.9025ZM14.2516 59.2258H16.625C16.934 60.6584 17.6436 61.9752 18.7045 63.0372L19.7354 64.067V65.8064H14.2516V59.2258ZM53.7354 65.8064H48.2516V64.067L49.2814 63.0372C50.3428 61.9763 51.0513 60.6594 51.3609 59.2258H53.7354V65.8064ZM55.929 50.9025V57.0323H51.5156C51.386 55.1777 50.6095 53.4511 49.2825 52.1241C48.6179 51.4595 48.2516 50.5764 48.2516 49.6365V44.4708L52.0812 45.6677C54.3823 46.3869 55.929 48.4905 55.929 50.9025ZM51.2206 43.1009L40.5741 39.7747V36.4217C42.998 34.837 44.8118 32.4041 45.6071 29.5481C46.6262 29.4265 47.5537 29.0329 48.3238 28.4294C48.8032 33.2037 51.9301 37.2893 56.3992 38.9939C55.1214 40.8623 53.3327 42.2772 51.2206 43.1009Z" fill="#3A9FEC"/>
</g>
<defs>
<clipPath id="clip0">
<rect width="68" height="68" fill="white"/>
</clipPath>
</defs>
</svg>
