<svg width="68" height="68" viewBox="0 0 68 68" fill="none" xmlns="http://www.w3.org/2000/svg">
<path d="M58.9333 47.6H57.1585C55.9138 47.6011 54.6864 47.8908 53.5726 48.4466C51.9521 49.2521 50.0478 49.2521 48.4273 48.4466C47.7808 48.1294 47.0948 47.9006 46.3873 47.7666L48.5961 30.6H50.9999C51.6258 30.6 52.1333 30.0926 52.1333 29.4667V24.9333C52.1333 24.3074 51.6258 23.8 50.9999 23.8H46.4666V20.4C46.4666 20.0994 46.347 19.8112 46.1345 19.5987L40.7999 14.2641V10.744L42.5181 9.3704L45.4523 15.2399L47.4809 14.2267L44.328 7.922L45.7299 6.8H49.8666C50.4925 6.8 50.9999 6.29255 50.9999 5.66667V1.13333C50.9999 0.50745 50.4925 0 49.8666 0H38.5333C32.9029 0.0068 28.3401 4.5696 28.3333 10.2C28.3333 10.8259 28.8407 11.3333 29.4666 11.3333H31.7333V14.2641L28.6653 17.3321C28.4528 17.5446 28.3333 17.8327 28.3333 18.1333V23.8H3.39994C2.77405 23.8 2.2666 24.3074 2.2666 24.9333V29.4667C2.2666 30.0926 2.77405 30.6 3.39994 30.6H5.80374L10.209 64.7451C10.282 65.3103 10.7633 65.7335 11.3333 65.7333H38.0119C39.2973 67.1741 41.1358 67.9986 43.0666 68H44.8414C46.0861 67.9989 47.3135 67.7092 48.4273 67.1534C50.0478 66.3479 51.9521 66.3479 53.5726 67.1534C54.6864 67.7092 55.9138 67.9989 57.1585 68H58.9333C62.6873 67.9963 65.7296 64.954 65.7333 61.2V54.4C65.7296 50.646 62.6873 47.6037 58.9333 47.6ZM46.4666 2.26667H48.7333V4.53333H46.4666V2.26667ZM49.8666 26.0667V28.3333H33.9999V26.0667H49.8666ZM30.6804 9.06667C31.2489 5.16587 34.5913 2.27163 38.5333 2.26667H44.1999V5.12267L39.2688 9.06667H30.6804ZM38.5333 11.3333V13.6H33.9999V11.3333H38.5333ZM30.5999 18.6025L33.3358 15.8667H39.1974L44.1999 20.8692V23.8H30.5999V18.6025ZM29.4666 26.0667H31.7333V34C31.7309 34.4317 31.974 34.827 32.36 35.02L39.16 38.42C39.4916 38.5835 39.743 38.874 39.857 39.2258C39.9744 39.6033 39.9336 40.0123 39.7437 40.3591C39.4176 41.0135 38.6228 41.2795 37.9684 40.9533L37.9655 40.9519L33.3641 38.6512C32.8017 38.3764 32.1231 38.6096 31.8483 39.172C31.7731 39.3261 31.7337 39.4953 31.7333 39.6667V51C31.7333 52.2519 30.7185 53.2667 29.4666 53.2667V43.0667H27.1999V53.2667H24.9333V43.0667H22.6666V53.2667H20.3999V43.0667H18.1333V53.2667C16.8814 53.2667 15.8666 52.2519 15.8666 51V26.0667H29.4666ZM4.53327 28.3333V26.0667H13.5999V28.3333H4.53327ZM36.2666 54.4V61.2C36.2686 61.9726 36.4027 62.7392 36.6633 63.4667H12.3295L8.08854 30.6H13.5999V51C13.5999 53.5037 15.6296 55.5333 18.1333 55.5333H29.4666C31.9703 55.5333 33.9999 53.5037 33.9999 51V41.5004L36.9602 42.9805C38.749 43.8634 40.9148 43.129 41.7977 41.3402C41.8014 41.3328 41.8049 41.3253 41.8086 41.3179C42.2476 40.4477 42.3223 39.4383 42.016 38.5129C41.714 37.5871 41.0524 36.8219 40.18 36.3891L33.9999 33.2996V30.6H46.3113L44.1172 47.6H43.0666C39.3126 47.6037 36.2703 50.646 36.2666 54.4ZM63.4666 61.2C63.4666 63.7037 61.4369 65.7333 58.9333 65.7333H57.1585C56.2658 65.7321 55.3857 65.5242 54.5869 65.1259C52.3274 64.0032 49.6725 64.0032 47.4129 65.1259C46.6142 65.5242 45.7341 65.7321 44.8414 65.7333H43.0666C40.5629 65.7333 38.5333 63.7037 38.5333 61.2V59.4547C39.7761 60.5777 41.3915 61.1996 43.0666 61.2H44.8414C46.0861 61.1989 47.3135 60.9092 48.4273 60.3534C50.0478 59.5479 51.9521 59.5479 53.5726 60.3534C54.6864 60.9092 55.9138 61.1989 57.1585 61.2H58.9333C60.6083 61.1996 62.2238 60.5777 63.4666 59.4547V61.2ZM58.9333 58.9333H57.1585C56.2658 58.9321 55.3857 58.7242 54.5869 58.3259C52.3274 57.2032 49.6725 57.2032 47.4129 58.3259C46.6142 58.7242 45.7341 58.9321 44.8414 58.9333H43.0666C40.5629 58.9333 38.5333 56.9037 38.5333 54.4C38.5333 51.8963 40.5629 49.8667 43.0666 49.8667H44.8414C45.7341 49.8679 46.6142 50.0758 47.4129 50.4741C49.6727 51.5961 52.3272 51.5961 54.5869 50.4741C55.3857 50.0758 56.2658 49.8679 57.1585 49.8667H58.9333C61.4369 49.8667 63.4666 51.8963 63.4666 54.4C63.4666 56.9037 61.4369 58.9333 58.9333 58.9333Z" fill="#3A9FEC"/>
<path d="M59.0669 52.1333H58.8003C58.248 52.1333 57.8003 52.581 57.8003 53.1333V53.3999C57.8003 53.9522 58.248 54.3999 58.8003 54.3999H59.0669C59.6192 54.3999 60.0669 53.9522 60.0669 53.3999V53.1333C60.0669 52.581 59.6192 52.1333 59.0669 52.1333Z" fill="#3A9FEC"/>
<path d="M47.7329 52.1333H47.4663C46.914 52.1333 46.4663 52.581 46.4663 53.1333V53.3999C46.4663 53.9522 46.914 54.3999 47.4663 54.3999H47.7329C48.2852 54.3999 48.7329 53.9522 48.7329 53.3999V53.1333C48.7329 52.581 48.2852 52.1333 47.7329 52.1333Z" fill="#3A9FEC"/>
<path d="M43.2 53.2666H42.9333C42.3811 53.2666 41.9333 53.7143 41.9333 54.2666V54.5332C41.9333 55.0855 42.3811 55.5332 42.9333 55.5332H43.2C43.7523 55.5332 44.2 55.0855 44.2 54.5332V54.2666C44.2 53.7143 43.7523 53.2666 43.2 53.2666Z" fill="#3A9FEC"/>
<path d="M54.5332 53.2666H54.2666C53.7143 53.2666 53.2666 53.7143 53.2666 54.2666V54.5332C53.2666 55.0855 53.7143 55.5332 54.2666 55.5332H54.5332C55.0855 55.5332 55.5332 55.0855 55.5332 54.5332V54.2666C55.5332 53.7143 55.0855 53.2666 54.5332 53.2666Z" fill="#3A9FEC"/>
<path fill-rule="evenodd" clip-rule="evenodd" d="M5.322 0.620635L6.4574 0.946695C8.46693 1.52379 10.3844 2.11266 12.1591 2.76414C14.822 3.74165 17.2172 4.87888 19.1513 6.37528C21.2179 7.97416 22.7569 9.98305 23.5361 12.6129C24.4948 15.8486 24.2618 19.8812 22.7105 25.0231L22.4483 25.8922L21.5429 25.8261C13.8162 25.2617 8.6585 22.5953 6.02585 18.0048C4.5634 15.4547 3.94543 12.4133 4.01766 9.0217C4.06574 6.76393 4.41964 4.3366 5.04325 1.76856L5.322 0.620635ZM8.09445 3.79595C8.54726 4.87146 8.99041 5.88413 9.43046 6.84312C9.87677 6.09692 10.1761 5.4106 10.4216 4.55174C9.67302 4.2934 8.89665 4.04282 8.09445 3.79595ZM12.5515 5.34192C12.1153 6.798 11.5313 7.86899 10.5742 9.22603C11.0297 10.1304 11.4877 10.9848 11.9551 11.7994C12.2617 12.3336 12.5725 12.8509 12.8894 13.3539C13.9827 12.5985 14.7554 11.8901 15.3741 11.0812C16.0459 10.2028 16.576 9.15426 17.1106 7.69142C15.825 6.80694 14.2971 6.04244 12.5515 5.34192ZM18.9542 9.21497C18.4514 10.4653 17.8944 11.517 17.1746 12.4582C16.3691 13.5113 15.3944 14.3811 14.1518 15.2368C14.7544 16.081 15.3862 16.8928 16.0591 17.6878C16.508 18.2181 16.9758 18.7417 17.466 19.263C18.0865 18.7909 18.6005 18.2606 19.0981 17.5255C19.7726 16.5291 20.4391 15.1238 21.2528 12.909C20.7696 11.4721 19.9947 10.2642 18.9542 9.21497ZM21.832 17.336C21.5518 17.8798 21.2688 18.3623 20.9751 18.7961C20.3858 19.6666 19.7655 20.3238 19.0701 20.8853C19.6818 21.4754 20.3275 22.0691 21.0124 22.6731C21.5251 20.6526 21.7853 18.8871 21.832 17.336ZM18.1177 23.1068C17.557 22.5822 17.0206 22.0596 16.5058 21.535C15.8655 20.8826 15.2588 20.2273 14.6798 19.5612C12.9635 19.5766 11.5688 19.482 9.75295 19.1667C11.6306 21.0275 14.3572 22.3917 18.1177 23.1068ZM7.75942 16.4498C9.93471 16.9398 11.3774 17.1695 12.819 17.2548C12.4052 16.701 12.0051 16.1355 11.6159 15.5542C11.1407 14.8444 10.6821 14.1122 10.2348 13.3506C9.27715 13.1075 8.41787 12.8181 7.54082 12.3396C7.15413 12.1286 6.77232 11.8855 6.3824 11.6017C6.57433 13.4256 7.03279 15.0432 7.75942 16.4498ZM6.29953 8.5762C7.21091 9.43047 7.92182 9.96069 8.59307 10.3315C8.47424 10.0964 8.35575 9.8585 8.23748 9.61751C7.67255 8.4663 7.11224 7.24421 6.54395 5.93553C6.41703 6.84785 6.33531 7.72846 6.29953 8.5762Z" fill="#3A9FEC"/>
</svg>
