<svg width="24" height="24" viewBox="0 0 24 24" fill="none" xmlns="http://www.w3.org/2000/svg">
<path d="M23.7071 1.70711C24.0976 1.31658 24.0976 0.683417 23.7071 0.292893C23.3166 -0.0976311 22.6834 -0.0976311 22.2929 0.292893L23.7071 1.70711ZM0.292893 22.2929C-0.0976311 22.6834 -0.0976311 23.3166 0.292893 23.7071C0.683417 24.0976 1.31658 24.0976 1.70711 23.7071L0.292893 22.2929ZM22.2929 23.7071C22.6834 24.0976 23.3166 24.0976 23.7071 23.7071C24.0976 23.3166 24.0976 22.6834 23.7071 22.2929L22.2929 23.7071ZM1.70711 0.292896C1.31658 -0.0976287 0.683419 -0.0976287 0.292895 0.292895C-0.0976292 0.68342 -0.0976292 1.31658 0.292895 1.70711L1.70711 0.292896ZM22.2929 0.292893L0.292893 22.2929L1.70711 23.7071L23.7071 1.70711L22.2929 0.292893ZM23.7071 22.2929L1.70711 0.292896L0.292895 1.70711L22.2929 23.7071L23.7071 22.2929Z" fill="white"/>
</svg>
