<svg width="68" height="68" viewBox="0 0 68 68" fill="none" xmlns="http://www.w3.org/2000/svg">
<path d="M5.48411 6.78224H38.3878V14.4032C38.3878 15.0055 38.8778 15.4919 39.4846 15.4919H47.1621V23.1047C47.1621 23.7105 47.6531 24.2015 48.2589 24.2015C48.8646 24.2015 49.3557 23.7105 49.3557 23.1047V14.4032C49.3557 14.1018 49.232 13.8296 49.0333 13.6324L40.2622 4.92591C40.0624 4.72762 39.7882 4.60482 39.4846 4.60482H9.87126V2.42741H51.5492V25.2822C51.5492 25.8879 52.0403 26.3789 52.646 26.3789C53.2518 26.3789 53.7428 25.8879 53.7428 25.2822V1.33871C53.7428 0.736409 53.2528 0.25 52.646 0.25H8.77447C8.1677 0.25 7.67768 0.736409 7.67768 1.33871V4.60482H4.38732C3.78055 4.60482 3.29053 5.09123 3.29053 5.69353V66.6611C3.29053 67.2634 3.78055 67.7498 4.38732 67.7498H40.5894C41.1907 67.7498 41.6781 67.2624 41.6781 66.6611C41.6781 66.0598 41.1907 65.5724 40.5894 65.5724H5.48411V6.78224ZM40.5814 8.32174L45.6112 13.3145H40.5814V8.32174Z" fill="#3A9FEC" stroke="#3A9FEC" stroke-width="0.4"/>
<path d="M63.6137 32.911H61.9621C57.0646 32.911 52.4584 30.7698 49.3239 27.0364L49.1022 26.7716C48.6866 26.274 47.8319 26.274 47.4163 26.7716L47.1946 27.0353C44.059 30.7698 39.4528 32.911 34.5553 32.911H32.9037C32.2969 32.911 31.8069 33.3974 31.8069 33.9997V51.6322C31.8069 55.9195 34.1365 59.9044 37.8863 62.0308L47.7146 67.6062C47.8827 67.7018 48.0713 67.7497 48.2587 67.7497C48.4461 67.7497 48.6346 67.7018 48.8028 67.6062L58.6311 62.0308C62.3809 59.9044 64.7105 55.9195 64.7105 51.6322V33.9997C64.7105 33.3974 64.2205 32.911 63.6137 32.911ZM62.5169 51.6322C62.5169 55.1402 60.612 58.4 57.5428 60.1394L48.2587 65.408L38.9746 60.141C35.9054 58.4 34.0005 55.1402 34.0005 51.6322V35.0884H34.5553C39.7891 35.0884 44.7316 32.9296 48.2587 29.1319C51.7847 32.9296 56.7283 35.0884 61.9621 35.0884H62.5169V51.6322Z" fill="#3A9FEC" stroke="#3A9FEC" stroke-width="0.4"/>
<path d="M48.2586 36.1772C41.6067 36.1772 36.194 41.5501 36.194 48.153C36.194 54.7559 41.6067 60.1287 48.2586 60.1287C54.9106 60.1287 60.3233 54.7559 60.3233 48.153C60.3233 41.5501 54.9106 36.1772 48.2586 36.1772ZM48.2586 57.9513C42.8154 57.9513 38.3875 53.5561 38.3875 48.153C38.3875 42.7499 42.8154 38.3547 48.2586 38.3547C53.7019 38.3547 58.1297 42.7499 58.1297 48.153C58.1297 53.5561 53.7019 57.9513 48.2586 57.9513Z" fill="#3A9FEC" stroke="#3A9FEC" stroke-width="0.4"/>
<path d="M47.7352 51.5378L46.5133 50.3248C46.0873 49.9019 45.3998 49.9019 44.9738 50.3248C44.5433 50.7522 44.5433 51.4484 44.9738 51.8757L47.483 54.3664C47.6902 54.5732 47.9709 54.6854 48.2584 54.6854C48.3473 54.6854 48.4373 54.6747 48.5262 54.6529C48.9011 54.5588 49.1972 54.276 49.3092 53.9092L52.281 44.0761C52.4567 43.4947 52.1263 42.8814 51.5442 42.7082C50.9657 42.5361 50.3569 42.864 50.1823 43.4417L47.7352 51.5378Z" fill="#3A9FEC" stroke="#3A9FEC" stroke-width="0.4"/>
<path d="M7.67749 18.7572C7.67749 18.1559 8.16492 17.6685 8.7662 17.6685H35.1053C35.7066 17.6685 36.194 18.1559 36.194 18.7572C36.194 19.3584 35.7066 19.8459 35.1053 19.8459H8.7662C8.16492 19.8459 7.67749 19.3584 7.67749 18.7572Z" fill="#3A9FEC" stroke="#3A9FEC" stroke-width="0.4"/>
<path d="M7.67749 23.1131C7.67749 22.5118 8.16492 22.0244 8.7662 22.0244H35.1053C35.7066 22.0244 36.194 22.5118 36.194 23.1131C36.194 23.7144 35.7066 24.2018 35.1053 24.2018H8.7662C8.16492 24.2018 7.67749 23.7144 7.67749 23.1131Z" fill="#3A9FEC" stroke="#3A9FEC" stroke-width="0.4"/>
<path d="M7.67749 27.4676C7.67749 26.8663 8.16492 26.3789 8.7662 26.3789H35.1053C35.7066 26.3789 36.194 26.8663 36.194 27.4676C36.194 28.0689 35.7066 28.5563 35.1053 28.5563H8.7662C8.16492 28.5563 7.67749 28.0689 7.67749 27.4676Z" fill="#3A9FEC" stroke="#3A9FEC" stroke-width="0.4"/>
<path d="M7.67749 31.8226C7.67749 31.2213 8.16492 30.7339 8.7662 30.7339H28.5246C29.1258 30.7339 29.6133 31.2213 29.6133 31.8226C29.6133 32.4239 29.1258 32.9113 28.5246 32.9113H8.7662C8.16492 32.9113 7.67749 32.4239 7.67749 31.8226Z" fill="#3A9FEC" stroke="#3A9FEC" stroke-width="0.4"/>
<path d="M7.67749 36.1776C7.67749 35.5763 8.16493 35.0889 8.76622 35.0889H28.5245C29.1258 35.0889 29.6133 35.5763 29.6133 36.1776C29.6133 36.7789 29.1258 37.2663 28.5245 37.2663H8.76622C8.16493 37.2663 7.67749 36.7789 7.67749 36.1776Z" fill="#3A9FEC" stroke="#3A9FEC" stroke-width="0.4"/>
<path d="M7.67749 40.5326C7.67749 39.9313 8.16493 39.4438 8.76622 39.4438H28.5245C29.1258 39.4438 29.6133 39.9313 29.6133 40.5326C29.6133 41.1339 29.1258 41.6213 28.5245 41.6213H8.76622C8.16493 41.6213 7.67749 41.1339 7.67749 40.5326Z" fill="#3A9FEC" stroke="#3A9FEC" stroke-width="0.4"/>
<path d="M7.67749 52.5956C7.67749 51.9943 8.16493 51.5068 8.76622 51.5068H28.5245C29.1258 51.5068 29.6133 51.9943 29.6133 52.5956C29.6133 53.1968 29.1258 53.6843 28.5245 53.6843H8.76622C8.16493 53.6843 7.67749 53.1968 7.67749 52.5956Z" fill="#3A9FEC" stroke="#3A9FEC" stroke-width="0.4"/>
<path d="M7.67749 56.9505C7.67749 56.3492 8.16491 55.8618 8.76617 55.8618H28.5246C29.1258 55.8618 29.6133 56.3492 29.6133 56.9505C29.6133 57.5518 29.1258 58.0392 28.5246 58.0392H8.76617C8.16491 58.0392 7.67749 57.5518 7.67749 56.9505Z" fill="#3A9FEC" stroke="#3A9FEC" stroke-width="0.4"/>
<path d="M7.67749 61.306C7.67749 60.7047 8.16493 60.2173 8.76621 60.2173H28.5245C29.1258 60.2173 29.6133 60.7047 29.6133 61.306C29.6133 61.9073 29.1258 62.3947 28.5245 62.3947H8.76621C8.16493 62.3947 7.67749 61.9073 7.67749 61.306Z" fill="#3A9FEC" stroke="#3A9FEC" stroke-width="0.4"/>
<path d="M8.77454 11.0487C8.77454 10.4474 9.27005 9.95996 9.87133 9.95996C10.4726 9.95996 10.9681 10.4474 10.9681 11.0487C10.9681 11.6499 10.4726 12.1374 9.87133 12.1374C9.27005 12.1374 8.77454 11.6499 8.77454 11.0487Z" fill="#3A9FEC" stroke="#3A9FEC" stroke-width="0.4"/>
<path d="M13.1617 11.0487C13.1617 10.4474 13.6573 9.95996 14.2585 9.95996C14.8598 9.95996 15.3553 10.4474 15.3553 11.0487C15.3553 11.6499 14.8598 12.1374 14.2585 12.1374C13.6573 12.1374 13.1617 11.6499 13.1617 11.0487Z" fill="#3A9FEC" stroke="#3A9FEC" stroke-width="0.4"/>
<path d="M17.5488 11.0487C17.5488 10.4474 18.0443 9.95996 18.6456 9.95996C19.2469 9.95996 19.7424 10.4474 19.7424 11.0487C19.7424 11.6499 19.2469 12.1374 18.6456 12.1374C18.0443 12.1374 17.5488 11.6499 17.5488 11.0487Z" fill="#3A9FEC" stroke="#3A9FEC" stroke-width="0.4"/>
<path d="M22.2 11.0487C22.2 10.4474 22.6874 9.95996 23.2887 9.95996H34.3712C34.9725 9.95996 35.46 10.4474 35.46 11.0487C35.46 11.6499 34.9725 12.1374 34.3712 12.1374H23.2887C22.6874 12.1374 22.2 11.6499 22.2 11.0487Z" fill="#3A9FEC" stroke="#3A9FEC" stroke-width="0.4"/>
</svg>
