<svg width="28" height="28" viewBox="0 0 28 28" fill="none" xmlns="http://www.w3.org/2000/svg">
<g clip-path="url(#clip0)">
<path d="M14 0C8.47395 0 3.93011 4.3272 3.24023 9.90938C1.38292 10.3433 0 12.0105 0 14C0 15.957 1.33851 17.6025 3.15 18.0688V18.3066C3.15 22.6809 6.53133 26.25 10.7324 26.25H11.4023C11.8177 27.2761 12.8249 28 14 28C15.5464 28 16.8 26.7464 16.8 25.2C16.8 23.6536 15.5464 22.4 14 22.4C12.8249 22.4 11.8177 23.1239 11.4023 24.15H10.7324C7.71699 24.15 5.25 21.5454 5.25 18.3066V11.3887C5.25 6.24661 9.18044 2.1 14 2.1C18.8196 2.1 22.75 6.24661 22.75 11.3887V18.2H23.8C26.1196 18.2 28 16.3196 28 14C28 12.0105 26.6171 10.3433 24.7598 9.90938C24.0699 4.3272 19.5261 0 14 0ZM9.8 11.2C9.0268 11.2 8.4 11.8268 8.4 12.6C8.4 13.3732 9.0268 14 9.8 14C10.5732 14 11.2 13.3732 11.2 12.6C11.2 11.8268 10.5732 11.2 9.8 11.2ZM17.8336 11.2C17.0604 11.2 16.4336 11.8268 16.4336 12.6C16.4336 13.3732 17.0604 14 17.8336 14C18.6068 14 19.2336 13.3732 19.2336 12.6C19.2336 11.8268 18.6068 11.2 17.8336 11.2ZM10.5 15.4C11.0474 16.7038 12.336 17.6203 13.8387 17.6203C15.3413 17.6203 16.63 16.7038 17.1773 15.4H10.5Z" fill="#1F2D38"/>
</g>
<defs>
<clipPath id="clip0">
<rect width="28" height="28" fill="white"/>
</clipPath>
</defs>
</svg>
