<svg width="68" height="68" viewBox="0 0 68 68" fill="none" xmlns="http://www.w3.org/2000/svg">
<path fill-rule="evenodd" clip-rule="evenodd" d="M56.3178 13.3015C56.3173 13.2869 56.3168 13.2724 56.3158 13.2579C56.3116 13.2003 56.3059 13.1437 56.2945 13.0877C56.2945 13.0877 56.2945 13.0877 56.2945 13.0872C56.2831 13.0312 56.267 12.9757 56.2488 12.9217C56.2442 12.9082 56.2395 12.8947 56.2343 12.8812C56.2151 12.8299 56.1933 12.7795 56.1684 12.7308C56.1669 12.7282 56.1658 12.7256 56.1643 12.723C56.1373 12.6722 56.1062 12.6239 56.0724 12.5767C56.0641 12.5648 56.0553 12.5533 56.0465 12.5414C56.0107 12.4947 55.9734 12.4496 55.9313 12.4076L43.9129 0.389098C43.8708 0.347076 43.8257 0.309722 43.779 0.273925C43.7671 0.265106 43.7552 0.255767 43.7432 0.247467C43.696 0.213745 43.6483 0.182617 43.598 0.156158C43.5943 0.154083 43.5907 0.153045 43.5876 0.15097C43.5399 0.126068 43.49 0.104797 43.4397 0.0856016C43.4257 0.0804137 43.4122 0.0757444 43.3977 0.0710753C43.3437 0.0529174 43.2893 0.0368347 43.2327 0.0254211C43.2322 0.0254211 43.2317 0.0254211 43.2317 0.0254211C43.1762 0.0145263 43.1196 0.00830076 43.0626 0.00415038C43.048 0.00363159 43.0335 0.00259398 43.019 0.00207519C43.0039 0.0015564 42.9889 0 42.9738 0H12.8831C12.1495 0 11.5549 0.594542 11.5549 1.32812V58.1749C11.5549 58.9085 12.1495 59.503 12.8831 59.503H32.8786V66.6717C32.8786 67.1547 33.1411 67.5999 33.5639 67.8338C33.9872 68.0678 34.5034 68.0538 34.9128 67.797L39.971 64.6235L45.0293 67.797C45.2446 67.9319 45.49 67.9999 45.7354 67.9999C45.9564 67.9999 46.1779 67.9449 46.3782 67.8344C46.801 67.6004 47.0635 67.1553 47.0635 66.6717V59.503H54.9918C55.7254 59.503 56.3199 58.9085 56.3199 58.1749V13.3466C56.3199 13.3315 56.3184 13.3165 56.3178 13.3015ZM44.302 4.53481L51.7856 12.0185H44.302V4.53481ZM32.2233 41.0219C32.1299 40.7682 31.9779 40.3536 31.9743 40.184C32.0781 40.0553 32.4381 39.8276 32.6586 39.6885C33.1317 39.3897 33.6682 39.0504 34.0573 38.5202C34.45 37.9843 34.6098 37.3654 34.7509 36.8196C34.8126 36.581 34.9122 36.1955 34.9973 36.0497C35.044 36.0398 35.1421 36.0258 35.3262 36.0258C35.4741 36.0258 35.6396 36.0341 35.815 36.043C36.0162 36.0528 36.2238 36.0632 36.4406 36.0632C36.919 36.0632 37.3049 36.0092 37.6551 35.8925C38.2668 35.6891 38.756 35.2954 39.1877 34.9478C39.4263 34.7558 39.8258 34.4342 39.9648 34.4145C40.1168 34.4342 40.5158 34.7558 40.7544 34.9478C41.1861 35.2954 41.6758 35.6891 42.2875 35.8925C42.6377 36.0092 43.0231 36.0632 43.502 36.0632C43.7183 36.0632 43.9264 36.0528 44.1271 36.043C44.3025 36.0341 44.468 36.0258 44.6164 36.0258C44.8005 36.0258 44.8981 36.0393 44.9453 36.0497C45.0304 36.1955 45.13 36.581 45.1912 36.8196C45.3323 37.3654 45.4926 37.9843 45.8853 38.5202C46.2739 39.0504 46.8104 39.3892 47.284 39.6885C47.504 39.8281 47.864 40.0553 47.9678 40.184C47.9642 40.3536 47.8122 40.7682 47.7193 41.0219C47.5216 41.5599 47.298 42.17 47.298 42.846C47.298 43.5219 47.5216 44.132 47.7188 44.6706C47.8122 44.9243 47.9642 45.3388 47.9678 45.5084C47.864 45.6371 47.504 45.8643 47.284 46.0039C46.8104 46.3027 46.2739 46.642 45.8853 47.1722C45.4926 47.7081 45.3323 48.327 45.1912 48.8728C45.13 49.111 45.0298 49.4969 44.9453 49.6427C44.8981 49.6526 44.8005 49.6666 44.6164 49.6666C44.468 49.6666 44.3025 49.6583 44.1271 49.6495C43.9264 49.6396 43.7183 49.6292 43.502 49.6292C43.0231 49.6292 42.6377 49.6832 42.2875 49.7999C41.6758 50.0033 41.1861 50.3976 40.7544 50.7446C40.5194 50.9345 40.1272 51.2494 39.971 51.2775C39.8149 51.2494 39.4232 50.9345 39.1882 50.7446C38.756 50.3976 38.2668 50.0033 37.6551 49.7999C37.3049 49.6832 36.919 49.6292 36.4406 49.6292C36.2243 49.6292 36.0162 49.6396 35.815 49.6495C35.6401 49.6583 35.4746 49.6666 35.3262 49.6666C35.1421 49.6666 35.0445 49.6526 34.9973 49.6427C34.9122 49.4969 34.8126 49.1115 34.7509 48.8728C34.6103 48.327 34.45 47.7081 34.0573 47.1722C33.6687 46.642 33.1322 46.3027 32.6586 46.0039C32.4386 45.8648 32.0786 45.6371 31.9748 45.5084C31.9784 45.3393 32.1305 44.9243 32.2233 44.6706C32.421 44.1326 32.6446 43.5225 32.6446 42.8465C32.6446 42.17 32.4205 41.5599 32.2233 41.0219ZM44.4073 64.2707L40.6771 61.9304C40.2455 61.6602 39.6966 61.6602 39.265 61.9304L35.5348 64.2707V52.3187C35.6759 52.3145 35.8144 52.3093 35.9488 52.3026C36.1247 52.2933 36.2907 52.285 36.4406 52.285C36.6762 52.285 36.7768 52.3067 36.8157 52.3197C36.9739 52.3726 37.278 52.6175 37.5223 52.8141C38.1423 53.3132 38.9137 53.9342 39.971 53.9342C41.0284 53.9342 41.7998 53.3132 42.4198 52.8141C42.6641 52.6175 42.9681 52.3726 43.1259 52.3202C43.1653 52.3073 43.2659 52.2855 43.5015 52.2855C43.6514 52.2855 43.8174 52.2938 43.9933 52.3026C44.1277 52.3093 44.2662 52.315 44.4068 52.3187V64.2707H44.4073ZM47.0635 56.8467V51.2484C47.4583 50.712 47.6233 50.077 47.7629 49.5374C47.836 49.2541 47.9361 48.8666 48.0275 48.7426C48.1182 48.6181 48.456 48.4049 48.7024 48.2492C49.3561 47.8363 50.1696 47.3221 50.4928 46.3499C50.8124 45.3907 50.4798 44.4843 50.2126 43.7559C50.0912 43.4254 49.9538 43.0504 49.9538 42.846C49.9538 42.6415 50.0912 42.267 50.2126 41.9365C50.4798 41.2081 50.8124 40.3012 50.4928 39.342C50.1696 38.3703 49.3561 37.8562 48.7024 37.4432C48.456 37.2876 48.1182 37.0738 48.0275 36.9503C47.9361 36.8258 47.836 36.4383 47.7629 36.155C47.5719 35.4157 47.3343 34.4954 46.5209 33.8988C45.8734 33.4246 45.1237 33.3696 44.6158 33.3696C44.4011 33.3696 44.1935 33.38 43.9933 33.3903C43.8174 33.3992 43.6514 33.4075 43.502 33.4075C43.2659 33.4075 43.1653 33.3857 43.1264 33.3727C42.9687 33.3203 42.6646 33.0754 42.4203 32.8783C41.7998 32.3797 41.0284 31.7587 39.971 31.7587C38.9143 31.7587 38.1423 32.3797 37.5223 32.8783C37.278 33.0749 36.9739 33.3203 36.8162 33.3727C36.7773 33.3857 36.6762 33.4075 36.4406 33.4075C36.2912 33.4075 36.1247 33.3992 35.9488 33.3898C35.7485 33.38 35.5415 33.3696 35.3262 33.3696C34.8189 33.3696 34.0692 33.4246 33.4223 33.8988C32.6083 34.4954 32.3701 35.4157 32.1792 36.155C32.1061 36.4383 32.0059 36.8258 31.9151 36.9498C31.8238 37.0738 31.4861 37.2876 31.2397 37.4432C30.586 37.8562 29.773 38.3703 29.4493 39.342C29.1297 40.3018 29.4623 41.2081 29.7295 41.9365C29.8509 42.267 29.9883 42.6415 29.9883 42.846C29.9883 43.0504 29.8509 43.4254 29.7295 43.7559C29.4623 44.4843 29.1297 45.3907 29.4493 46.3504C29.773 47.3221 30.5865 47.8363 31.2397 48.2492C31.4866 48.4049 31.8238 48.6186 31.9151 48.7426C32.0059 48.8666 32.1061 49.2541 32.1792 49.5374C32.3188 50.077 32.4843 50.7125 32.8791 51.2484V56.8467H14.2112V2.65624H41.6457V13.3466C41.6457 14.0802 42.2403 14.6747 42.9738 14.6747H53.6637V56.8467H47.0635Z" fill="#3A9FEC"/>
<path fill-rule="evenodd" clip-rule="evenodd" d="M19.3728 14.6748H36.4838C37.2169 14.6748 37.8119 14.0803 37.8119 13.3467C37.8119 12.6131 37.2169 12.0186 36.4838 12.0186H19.3728C18.6392 12.0186 18.0447 12.6131 18.0447 13.3467C18.0447 14.0803 18.6397 14.6748 19.3728 14.6748Z" fill="#3A9FEC"/>
<path fill-rule="evenodd" clip-rule="evenodd" d="M48.6507 18.7227H19.3728C18.6392 18.7227 18.0447 19.3172 18.0447 20.0508C18.0447 20.7844 18.6392 21.3789 19.3728 21.3789H48.6507C49.3843 21.3789 49.9788 20.7844 49.9788 20.0508C49.9788 19.3172 49.3843 18.7227 48.6507 18.7227Z" fill="#3A9FEC"/>
<path fill-rule="evenodd" clip-rule="evenodd" d="M43.3382 25.4263H19.3728C18.6392 25.4263 18.0447 26.0213 18.0447 26.7544C18.0447 27.488 18.6392 28.0825 19.3728 28.0825H43.3382C44.0718 28.0825 44.6663 27.488 44.6663 26.7544C44.6663 26.0213 44.0718 25.4263 43.3382 25.4263Z" fill="#3A9FEC"/>
<path fill-rule="evenodd" clip-rule="evenodd" d="M48.6506 25.4263C47.9191 25.4263 47.3225 26.0229 47.3225 26.7544C47.3225 27.4859 47.9191 28.0825 48.6506 28.0825C49.3827 28.0825 49.9788 27.4859 49.9788 26.7544C49.9788 26.0229 49.3827 25.4263 48.6506 25.4263Z" fill="#3A9FEC"/>
</svg>
