<svg width="46" height="46" viewBox="0 0 46 46" fill="none" xmlns="http://www.w3.org/2000/svg">
<circle cx="23" cy="23" r="23" fill="#EDF1F4"/>
<path fill-rule="evenodd" clip-rule="evenodd" d="M14.1765 15C13.5267 15 13 15.5242 13 16.1707C13 16.8173 13.5267 17.3415 14.1765 17.3415H31.8235C32.4733 17.3415 33 16.8173 33 16.1707C33 15.5242 32.4733 15 31.8235 15H14.1765ZM14.1765 21.8293C13.5267 21.8293 13 22.3534 13 23C13 23.6466 13.5267 24.1707 14.1765 24.1707H31.8235C32.4733 24.1707 33 23.6466 33 23C33 22.3534 32.4733 21.8293 31.8235 21.8293H14.1765ZM14.1765 28.6585C13.5267 28.6585 13 29.1827 13 29.8293C13 30.4758 13.5267 31 14.1765 31H31.8235C32.4733 31 33 30.4758 33 29.8293C33 29.1827 32.4733 28.6585 31.8235 28.6585H14.1765Z" fill="#1F2D38"/>
</svg>
