<svg width="50" height="50" viewBox="0 0 50 50" fill="none" xmlns="http://www.w3.org/2000/svg">
<circle cx="25" cy="25" r="24" stroke="#32C234" stroke-width="2"/>
<path d="M13.2071 22.797C12.8166 22.4065 12.1834 22.4065 11.7929 22.797C11.4024 23.1875 11.4024 23.8207 11.7929 24.2112L13.2071 22.797ZM21.7808 32.7849L21.0737 33.492C21.4642 33.8825 22.0974 33.8825 22.4879 33.492L21.7808 32.7849ZM38.3978 17.5821C38.7883 17.1916 38.7883 16.5584 38.3978 16.1679C38.0073 15.7774 37.3741 15.7774 36.9836 16.1679L38.3978 17.5821ZM11.7929 24.2112L21.0737 33.492L22.4879 32.0778L13.2071 22.797L11.7929 24.2112ZM22.4879 33.492L38.3978 17.5821L36.9836 16.1679L21.0737 32.0778L22.4879 33.492Z" fill="#32C234"/>
</svg>
