<svg width="68" height="68" viewBox="0 0 68 68" fill="none" xmlns="http://www.w3.org/2000/svg">
<g clip-path="url(#clip0)">
<path d="M57.585 27.0305V22.9529V7.34494C57.585 5.1546 56.6189 3.09574 54.9343 1.69616C53.2497 0.296447 51.0486 -0.275311 48.8954 0.125384C48.8691 0.130298 48.8428 0.136009 48.8167 0.14265C48.7054 0.170408 37.6444 2.92427 33.9999 2.92427C30.357 2.92427 19.2945 0.170408 19.1833 0.14265C19.1573 0.136009 19.131 0.130298 19.1046 0.125384C16.9516 -0.275975 14.7505 0.296447 13.0657 1.69602C11.3811 3.09574 10.4149 5.15446 10.4149 7.34507V23.3762V27.0307C3.63246 29.1525 0.0539551 32.0401 0.0539551 35.4114C0.0539551 38.7932 3.68067 41.7058 10.5423 43.834C16.8268 45.7833 25.1576 46.8568 34 46.8568C42.8424 46.8568 51.1734 45.7833 57.4579 43.834C64.3194 41.7058 67.9462 38.7933 67.9462 35.4114C67.9461 32.0401 64.3675 29.1525 57.585 27.0305ZM13.0713 20.2956C18.8545 21.6773 25.9465 22.4315 33.2702 22.4315C37.7104 22.4315 42.0212 22.1627 46.0829 21.6325C46.8102 21.5375 47.3229 20.871 47.2279 20.1437C47.1329 19.4163 46.4663 18.9024 45.7391 18.9986C41.7909 19.5139 37.5958 19.7753 33.2702 19.7753C25.8811 19.7753 18.759 18.9913 13.0713 17.5605V7.34494C13.0712 5.94669 13.688 4.63251 14.7632 3.73908C15.8288 2.85388 17.218 2.48666 18.5809 2.72997C19.4544 2.94738 30.1131 5.58052 34 5.58052C37.8868 5.58052 48.5455 2.94752 49.419 2.72997C50.7817 2.48692 52.1712 2.85375 53.2367 3.73908C54.3121 4.63238 54.9286 5.94669 54.9286 7.34481V21.9604C49.0194 23.6428 41.3795 24.5653 33.2701 24.5653C25.8805 24.5653 18.7585 23.7813 13.0712 22.3506V20.2956H13.0713ZM13.0712 28.0164V25.0862C18.8537 26.4677 25.9461 27.2217 33.2701 27.2217C41.2902 27.2217 48.8954 26.3374 54.9286 24.7172V26.7783C49.1513 28.3021 41.7985 29.1399 34.1601 29.1399C29.8336 29.1399 25.6383 28.8785 21.6912 28.3632C20.9637 28.2669 20.2974 28.7809 20.2024 29.5082C20.1074 30.2356 20.6201 30.9022 21.3474 30.9971C25.408 31.5272 29.7188 31.7961 34.1601 31.7961C41.7264 31.7961 49.0453 30.9913 54.9286 29.5212V31.2038C49.0198 32.8858 41.3792 33.8076 33.2701 33.8076C25.8807 33.8076 18.7583 33.0242 13.0712 31.5934V28.0164ZM56.671 41.2969C50.6341 43.1694 42.5828 44.2004 34 44.2004C25.4173 44.2004 17.3659 43.1692 11.3292 41.2969C6.01299 39.6479 2.71021 37.3927 2.71021 35.4115C2.71021 33.5297 5.6184 31.446 10.4151 29.8239V32.6184C10.4151 32.8804 10.4918 33.1281 10.6265 33.3373C10.7997 33.6061 11.0686 33.811 11.3935 33.8997C15.18 34.9332 19.6349 35.6765 24.4086 36.0886C24.8859 36.1298 25.3664 36.1676 25.8499 36.2023C26.8166 36.2714 27.7948 36.327 28.7816 36.369C30.2616 36.4319 31.7609 36.4639 33.2701 36.4639C42.0728 36.4639 50.3753 35.3988 56.648 33.4646C57.2049 33.293 57.5849 32.7783 57.5849 32.1955V29.824C62.3815 31.4462 65.2899 33.5299 65.2899 35.4117C65.2897 37.3927 61.9872 39.6479 56.671 41.2969Z" fill="#3A9FEC"/>
<path d="M52.4728 19.1859C52.4555 19.1007 52.4304 19.0171 52.3972 18.9362C52.364 18.8564 52.3227 18.7793 52.2749 18.7076C52.2272 18.6346 52.1715 18.5668 52.1104 18.5057C52.0493 18.4446 51.9814 18.3889 51.9084 18.3411C51.8366 18.2934 51.7596 18.2521 51.6787 18.2189C51.5989 18.1857 51.5154 18.1591 51.4304 18.1432C50.9987 18.0556 50.5405 18.1976 50.2324 18.5057C50.1713 18.5668 50.1155 18.6346 50.0678 18.7076C50.02 18.7793 49.9789 18.8564 49.9457 18.9362C49.9124 19.0171 49.8859 19.1007 49.8686 19.1859C49.8512 19.2709 49.8434 19.3585 49.8434 19.4449C49.8434 19.531 49.8514 19.6187 49.8686 19.7037C49.8859 19.7887 49.9124 19.8724 49.9457 19.9521C49.9789 20.0331 50.02 20.1101 50.0678 20.1818C50.1155 20.2549 50.1713 20.3225 50.2324 20.3837C50.2935 20.4448 50.3614 20.5006 50.4343 20.5497C50.506 20.5963 50.583 20.6374 50.6627 20.6706C50.7437 20.7038 50.8274 20.7291 50.9124 20.7463C50.9975 20.7635 51.0851 20.7728 51.1714 20.7728C51.2577 20.7728 51.3454 20.7635 51.4304 20.7463C51.5154 20.729 51.599 20.7038 51.6787 20.6706C51.7596 20.6374 51.8366 20.5963 51.9084 20.5497C51.9814 20.5006 52.0491 20.4448 52.1104 20.3837C52.1715 20.3226 52.2272 20.2549 52.2749 20.1818C52.3227 20.1101 52.364 20.0331 52.3972 19.9521C52.4304 19.8724 52.4555 19.7887 52.4728 19.7037C52.4901 19.6187 52.4994 19.531 52.4994 19.4449C52.4994 19.3585 52.4901 19.2707 52.4728 19.1859Z" fill="#3A9FEC"/>
<path d="M17.5617 28.5504C17.544 28.4654 17.5189 28.3817 17.4857 28.302C17.4525 28.2211 17.4112 28.1441 17.3635 28.0722C17.3144 27.9991 17.2586 27.9313 17.1975 27.8704C17.1364 27.8093 17.0687 27.7535 16.9955 27.7057C16.9238 27.6567 16.8468 27.6167 16.7671 27.5835C16.6861 27.5503 16.6024 27.5239 16.5187 27.5079C16.3474 27.4733 16.1708 27.4733 15.9994 27.5079C15.9144 27.5239 15.8308 27.5503 15.7511 27.5835C15.6702 27.6167 15.5932 27.6567 15.5214 27.7057C15.4484 27.7535 15.3807 27.8093 15.3194 27.8704C15.2583 27.9315 15.2026 27.9992 15.1549 28.0722C15.1071 28.144 15.0659 28.221 15.0327 28.302C14.9995 28.3818 14.9742 28.4654 14.957 28.5504C14.9397 28.6354 14.9304 28.723 14.9304 28.8094C14.9304 29.1587 15.0725 29.5013 15.3196 29.7483C15.3808 29.8094 15.4485 29.8652 15.5216 29.9129C15.5933 29.9607 15.6703 30.0019 15.7512 30.0351C15.831 30.0683 15.9147 30.0948 15.9996 30.1108C16.0847 30.128 16.1724 30.1373 16.2585 30.1373C16.3449 30.1373 16.4327 30.128 16.5175 30.1108C16.6025 30.0948 16.6861 30.0683 16.7672 30.0351C16.8469 30.0019 16.9239 29.9607 16.9957 29.9129C17.0688 29.8652 17.1366 29.8094 17.1977 29.7483C17.4446 29.5013 17.5868 29.1587 17.5868 28.8094C17.5868 28.723 17.5788 28.6352 17.5617 28.5504Z" fill="#3A9FEC"/>
<path d="M53.6345 50.4688H14.3658C11.1801 50.4688 8.58844 53.0605 8.58844 56.2461V61.9572C8.58844 65.2893 11.2993 68.0001 14.6314 68.0001H23.239C28.5771 68.0001 32.9201 63.6573 32.9201 58.319V53.125H35.0805V58.319C35.0805 63.6572 39.4233 68.0001 44.7615 68.0001H53.3692C56.7014 68.0001 59.4123 65.2893 59.4123 61.9572V56.2461C59.4119 53.0605 56.8201 50.4688 53.6345 50.4688ZM23.2389 65.3439H14.6313C12.7638 65.3439 11.2446 63.8246 11.2446 61.9572V56.2461C11.2446 54.5251 12.6447 53.125 14.3657 53.125H30.2634V58.319H30.2636C30.2636 62.1925 27.1123 65.3439 23.2389 65.3439ZM53.3688 65.3439H44.7611C40.8878 65.3439 37.7364 62.1925 37.7364 58.319V53.125H53.6342C55.3552 53.125 56.7553 54.5251 56.7553 56.2461V61.9572H56.7554C56.7557 63.8246 55.2363 65.3439 53.3688 65.3439Z" fill="#3A9FEC"/>
<path d="M19.3487 54.4812C18.8302 53.9627 17.9893 53.9627 17.4706 54.4812L13.1762 58.7755C12.6576 59.2941 12.6577 60.1351 13.1763 60.6539C13.4356 60.9131 13.7756 61.0429 14.1153 61.0429C14.4553 61.0429 14.7952 60.9131 15.0544 60.6539L19.3488 56.3595C19.8674 55.8409 19.8673 54.9999 19.3487 54.4812Z" fill="#3A9FEC"/>
<path d="M46.2282 54.4812C45.7097 53.9627 44.8687 53.9627 44.3499 54.4812L40.0557 58.7755C39.5371 59.2941 39.5371 60.1351 40.0557 60.6539C40.3151 60.9131 40.655 61.0429 40.9948 61.0429C41.3347 61.0429 41.6746 60.9131 41.9339 60.6539L46.2282 56.3595C46.7468 55.8409 46.7468 54.9999 46.2282 54.4812Z" fill="#3A9FEC"/>
</g>
<defs>
<clipPath id="clip0">
<rect width="68" height="68" fill="white"/>
</clipPath>
</defs>
</svg>
