<svg width="68" height="68" viewBox="0 0 68 68" fill="none" xmlns="http://www.w3.org/2000/svg">
<g clip-path="url(#clip0)">
<path d="M66.7609 16.3096C66.4703 15.6363 65.6889 15.3258 65.0153 15.6164C64.3419 15.907 64.0314 16.6884 64.322 17.3619C66.362 22.0902 65.3273 27.4984 61.6853 31.1402C56.818 36.0075 48.8981 36.0075 44.0308 31.1402C39.1634 26.2728 39.1635 18.353 44.0308 13.4857C46.0878 11.4287 48.7488 10.2005 51.5301 9.90144V12.4961C49.0937 13.0936 47.2803 15.2948 47.2803 17.913C47.2803 20.9886 49.7825 23.4908 52.8582 23.4908C55.9339 23.4908 58.436 20.9886 58.436 17.913C58.436 15.295 56.6227 13.0936 54.1863 12.4961V9.89972C55.2617 10.0139 56.3323 10.2679 57.3712 10.6698C58.0551 10.9345 58.824 10.5945 59.0889 9.91034C59.3536 9.22636 59.0136 8.45737 58.3295 8.19254C56.9794 7.67006 55.5847 7.35397 54.1863 7.23178V6.50888C54.1863 2.92068 51.2671 0.00146484 47.6789 0.00146484H21.3816C17.7933 0.00146484 14.8742 2.92068 14.8742 6.50888V7.27959C13.1196 7.55 11.4324 8.35789 10.0838 9.70647L2.24918 17.5412C0.798867 18.9921 0 20.9202 0 22.9713V61.712C0 65.1783 2.82001 67.998 6.28615 67.998H26.1184C29.5847 67.998 32.4044 65.1781 32.4044 61.712V48.7414C32.4044 48.008 31.8097 47.4134 31.0764 47.4134C30.3431 47.4134 29.7484 48.0081 29.7484 48.7414V61.712C29.7484 63.7135 28.12 65.3419 26.1185 65.3419H6.28615C4.28453 65.3419 2.65612 63.7135 2.65612 61.712V22.9713C2.65612 21.6297 3.17873 20.3684 4.12728 19.4197L11.9619 11.5851C12.7917 10.7553 13.8061 10.2218 14.8742 9.98086V16.0156C12.5971 16.6063 10.9105 18.679 10.9105 21.1384C10.9105 24.0563 13.2844 26.4302 16.2023 26.4302C19.1202 26.4302 21.4941 24.0563 21.4941 21.1384C21.4941 18.6792 19.8077 16.6065 17.5305 16.0156V9.98086C18.5985 10.2217 19.613 10.7554 20.4428 11.5851L28.2775 19.4196C29.2263 20.3685 29.7485 21.6299 29.7485 22.9713V38.5152C29.7485 39.2486 30.3433 39.8432 31.0765 39.8432C31.8098 39.8432 32.4045 39.2485 32.4045 38.5152V22.9713C32.4045 20.9204 31.6058 18.9919 30.1555 17.5413L22.3207 9.70674C20.9722 8.35816 19.2849 7.55013 17.5303 7.27986V6.50915C17.5303 4.38561 19.2581 2.65785 21.3816 2.65785H47.6789C49.8024 2.65785 51.5302 4.38561 51.5302 6.50915V7.23417C48.0551 7.54229 44.717 9.04334 42.1528 11.6076C36.25 17.5107 36.25 27.1153 42.1528 33.0185C43.7838 34.6495 45.6976 35.8288 47.7377 36.5585V45.4203L45.9086 47.2494C45.39 47.768 45.39 48.6089 45.9086 49.1276L47.1877 50.4066L45.9086 51.6857C45.39 52.2044 45.39 53.0452 45.9086 53.564L47.1876 54.8429L45.9086 56.1219C45.39 56.6406 45.39 57.4814 45.9086 58.0002L47.1877 59.2791L45.9086 60.5583C45.6596 60.8074 45.5196 61.1452 45.5196 61.4974V61.5919C45.5196 61.9442 45.6596 62.2819 45.9086 62.5311L50.9863 67.6087C51.2457 67.868 51.5856 67.9978 51.9254 67.9978C52.2653 67.9978 52.6052 67.868 52.8646 67.6087L58.0368 62.4365C58.2858 62.1873 58.4258 61.8496 58.4258 61.4974V36.3908C60.2982 35.6533 62.0525 34.5299 63.5639 33.0185C65.7504 30.8319 67.1983 28.0738 67.7514 25.0421C68.2911 22.0822 67.9487 19.0626 66.7609 16.3096ZM18.8379 21.1384C18.8379 22.5917 17.6557 23.7741 16.2022 23.7741C14.7488 23.7741 13.5665 22.5919 13.5665 21.1384C13.5665 20.1697 14.0934 19.3237 14.8741 18.8656V20.5865C14.8741 21.3199 15.4688 21.9145 16.2021 21.9145C16.9355 21.9145 17.5301 21.3197 17.5301 20.5865V18.8656C18.311 19.3237 18.8379 20.1696 18.8379 21.1384ZM51.5621 15.2956C51.6933 15.891 52.2233 16.337 52.8582 16.337C53.4932 16.337 54.0232 15.8912 54.1543 15.2956C55.1167 15.7741 55.7798 16.7673 55.7798 17.9131C55.7798 19.5241 54.4692 20.8348 52.858 20.8348C51.2469 20.8348 49.9363 19.5242 49.9363 17.9131C49.9366 16.7673 50.5997 15.774 51.5621 15.2956ZM55.7696 60.9475H55.7694L51.9253 64.7917L48.6784 61.5448L50.0047 60.2185C50.5233 59.6999 50.5233 58.8591 50.0047 58.3403L48.7257 57.0613L50.0047 55.7823C50.5233 55.2637 50.5233 54.4229 50.0047 53.9041L48.7256 52.6251L50.0047 51.346C50.5233 50.8274 50.5233 49.9865 50.0047 49.4678L48.7257 48.1888L50.0047 46.9098C50.2537 46.6606 50.3937 46.3229 50.3937 45.9707V37.245C51.2094 37.3785 52.0337 37.446 52.8583 37.446C53.8337 37.446 54.8089 37.3523 55.7696 37.1656V60.9475Z" fill="#3A9FEC"/>
<path d="M63.64 11.6847L63.5636 11.6076C63.0448 11.0891 62.2043 11.0891 61.6854 11.6076C61.1667 12.1263 61.1667 12.9671 61.6854 13.4859L61.7459 13.5468C62.006 13.8112 62.3493 13.9438 62.6931 13.9438C63.0292 13.9438 63.3656 13.817 63.6242 13.5628C64.147 13.0486 64.1542 12.2078 63.64 11.6847Z" fill="#3A9FEC"/>
<path d="M32.0158 42.8887C31.7689 42.6415 31.4262 42.4995 31.0769 42.4995C30.7261 42.4995 30.385 42.6415 30.1379 42.8887C29.8896 43.1357 29.7488 43.4783 29.7488 43.8276C29.7488 44.1769 29.8896 44.5196 30.1379 44.7665C30.385 45.0135 30.7263 45.1558 31.0769 45.1558C31.4262 45.1558 31.7674 45.0137 32.0158 44.7665C32.2628 44.5196 32.405 44.1769 32.405 43.8276C32.405 43.4783 32.2629 43.1357 32.0158 42.8887Z" fill="#3A9FEC"/>
<path d="M23.108 32.5391H9.29625C8.56286 32.5391 7.96826 33.1338 7.96826 33.8671V58.3032C7.96826 59.0366 8.563 59.6312 9.29625 59.6312H23.108C23.8413 59.6312 24.4359 59.0365 24.4359 58.3032V33.8671C24.4361 33.1338 23.8413 32.5391 23.108 32.5391ZM21.78 56.9752H10.6242V35.1952H13.6807H16.3368H21.78V56.9752Z" fill="#3A9FEC"/>
</g>
<defs>
<clipPath id="clip0">
<rect width="68" height="68" fill="white"/>
</clipPath>
</defs>
</svg>
