<svg width="68" height="68" viewBox="0 0 68 68" fill="none" xmlns="http://www.w3.org/2000/svg">
<g clip-path="url(#clip0)">
<path d="M53.7419 57.0322C51.928 57.0322 50.4515 58.5087 50.4515 60.3225C50.4515 62.1364 51.928 63.6129 53.7419 63.6129C55.5557 63.6129 57.0322 62.1364 57.0322 60.3225C57.0322 58.5087 55.5557 57.0322 53.7419 57.0322ZM53.7419 61.4193C53.1367 61.4193 52.6451 60.9277 52.6451 60.3225C52.6451 59.7174 53.1367 59.2258 53.7419 59.2258C54.347 59.2258 54.8386 59.7174 54.8386 60.3225C54.8386 60.9277 54.347 61.4193 53.7419 61.4193Z" fill="#3A9FEC"/>
<path d="M27.4194 57.0322C25.6055 57.0322 24.129 58.5087 24.129 60.3225C24.129 62.1364 25.6055 63.6129 27.4194 63.6129C29.2332 63.6129 30.7097 62.1364 30.7097 60.3225C30.7097 58.5087 29.2332 57.0322 27.4194 57.0322ZM27.4194 61.4193C26.8142 61.4193 26.3226 60.9277 26.3226 60.3225C26.3226 59.7174 26.8142 59.2258 27.4194 59.2258C28.0245 59.2258 28.5161 59.7174 28.5161 60.3225C28.5161 60.9277 28.0245 61.4193 27.4194 61.4193Z" fill="#3A9FEC"/>
<path d="M65.1012 39.4271L61.474 35.7967C59.6108 33.9309 57.1308 32.9032 54.4933 32.9032H46.0645V1.3C46.0645 0.582029 45.4825 0 44.7645 0H12.1489C11.8041 0 11.4734 0.136964 11.2296 0.380761L0.380761 11.2296C0.136964 11.4734 0 11.8041 0 12.1489V57.9258C0 58.6438 0.58203 59.2258 1.3 59.2258H13.3632C13.8173 60.4993 15.0239 61.4194 16.4516 61.4194H19.8298C20.3648 65.1333 23.5598 68 27.4194 68C31.2789 68 34.4739 65.1333 35.0089 61.4194H46.1523C46.6873 65.1333 49.8823 68 53.7419 68C57.6015 68 60.7965 65.1333 61.3315 61.4194H64.6931C66.5053 61.4194 67.9823 59.944 67.9834 58.1312L67.9904 46.4089C67.9914 43.7724 66.9659 41.2913 65.1012 39.4271ZM65.7968 46.4078V47.0022C63.9144 46.5085 62.5161 44.8087 62.5161 42.7742C62.5161 41.98 62.741 41.2265 63.1336 40.5598L63.5502 40.9775C65.0005 42.4288 65.7979 44.3567 65.7968 46.4078ZM59.9247 37.3487L61.542 38.9671C60.7537 40.0719 60.3226 41.3888 60.3226 42.7742C60.3226 46.0249 62.6939 48.7251 65.7957 49.2542L65.792 54.8387H59.1042C58.8022 54.5436 58.4755 54.2737 58.129 54.0317V41.6774C58.129 39.2579 56.1615 37.2903 53.7419 37.2903H38.762C36.8046 37.2903 34.9618 38.1536 33.7071 39.6574L29.6129 44.5709V52.9686C28.9178 52.7603 28.1814 52.6452 27.4194 52.6452C25.3334 52.6452 23.4425 53.4843 22.057 54.8387H15.3548V50.6808C15.3548 49.1267 16.4141 47.8061 17.9313 47.4682L24.7444 45.9537L31.1242 37.978C32.5905 36.1464 34.7755 35.0968 37.1206 35.0968H54.4933C56.5444 35.0968 58.4723 35.8963 59.9247 37.3487ZM55.9355 43.871H43.871V39.4839H53.7419C54.9517 39.4839 55.9355 40.4677 55.9355 41.6774V43.871ZM41.6774 43.871H33.051L35.3908 41.0621C36.2273 40.0585 37.4558 39.4839 38.762 39.4839H41.6774V43.871ZM31.8064 46.0645H41.6774V48.2581H38.3871C37.7814 48.2581 37.2903 48.7491 37.2903 49.3548C37.2903 49.9606 37.7814 50.4516 38.3871 50.4516H41.6774V54.8387H32.7817C32.4796 54.5436 32.1529 54.2737 31.8064 54.0317V46.0645ZM34.3454 57.0323H46.8159C46.4903 57.7145 46.2643 58.4514 46.1523 59.2258H35.0089C34.897 58.4514 34.671 57.7145 34.3454 57.0323ZM48.3796 54.8387H43.871V46.0645H55.9355V48.2581H52.6452C52.0394 48.2581 51.5484 48.7491 51.5484 49.3548C51.5484 49.9606 52.0394 50.4516 52.6452 50.4516H55.9355V52.9686C55.2404 52.7603 54.504 52.6452 53.7419 52.6452C51.656 52.6452 49.7651 53.4843 48.3796 54.8387ZM10.9677 3.74446V10.9677H3.74446L10.9677 3.74446ZM2.19355 13.1613H11.8613C12.5793 13.1613 13.1613 12.5793 13.1613 11.8613V2.19355H43.871V32.9032H37.1206C34.1055 32.9032 31.2955 34.2533 29.4121 36.607L23.5148 43.9818L17.4563 45.3276C14.9259 45.8899 13.1613 48.0915 13.1613 50.6808V57.0323H2.19355V13.1613ZM15.3548 58.129V57.0323H20.4933C20.1677 57.7145 19.9417 58.4514 19.8298 59.2258H16.4516C15.8465 59.2258 15.3548 58.7342 15.3548 58.129ZM27.4194 65.8064C24.3957 65.8064 21.9355 63.3462 21.9355 60.3226C21.9355 57.299 24.3957 54.8387 27.4194 54.8387C30.443 54.8387 32.9032 57.299 32.9032 60.3226C32.9032 63.3462 30.443 65.8064 27.4194 65.8064ZM53.7419 65.8064C50.7183 65.8064 48.2581 63.3462 48.2581 60.3226C48.2581 57.299 50.7183 54.8387 53.7419 54.8387C56.7656 54.8387 59.2258 57.299 59.2258 60.3226C59.2258 63.3462 56.7656 65.8064 53.7419 65.8064ZM64.6931 59.2258H61.3315C61.2196 58.4514 60.9936 57.7145 60.668 57.0323H65.7909L65.7898 58.129C65.7898 58.7342 65.2977 59.2258 64.6931 59.2258Z" fill="#3A9FEC"/>
<path d="M41.6775 5.6872C41.6775 4.96923 41.0955 4.38721 40.3775 4.38721H23.2355C22.5176 4.38721 21.9355 4.96924 21.9355 5.68721V20.6356C21.9355 21.3536 22.5176 21.9356 23.2355 21.9356H40.3775C41.0955 21.9356 41.6775 21.3536 41.6775 20.6356V5.6872ZM39.4839 19.742H24.1291V6.58076H39.4839V19.742Z" fill="#3A9FEC"/>
<path d="M4.38708 16.4518C4.38708 15.846 4.87813 15.355 5.48386 15.355H18.6451C19.2509 15.355 19.7419 15.846 19.7419 16.4518C19.7419 17.0575 19.2509 17.5485 18.6451 17.5485H5.48386C4.87813 17.5485 4.38708 17.0575 4.38708 16.4518Z" fill="#3A9FEC"/>
<path d="M4.38708 20.839C4.38708 20.2332 4.87813 19.7422 5.48386 19.7422H18.6451C19.2509 19.7422 19.7419 20.2332 19.7419 20.839C19.7419 21.4447 19.2509 21.9357 18.6451 21.9357H5.48386C4.87813 21.9357 4.38708 21.4447 4.38708 20.839Z" fill="#3A9FEC"/>
<path d="M4.38708 25.2262C4.38708 24.6204 4.87813 24.1294 5.48386 24.1294H40.5806C41.1864 24.1294 41.6774 24.6204 41.6774 25.2262C41.6774 25.8319 41.1864 26.3229 40.5806 26.3229H5.48386C4.87813 26.3229 4.38708 25.8319 4.38708 25.2262Z" fill="#3A9FEC"/>
<path d="M39.4839 29.6129C39.4839 29.0072 39.9749 28.5161 40.5807 28.5161C41.1864 28.5161 41.6775 29.0072 41.6775 29.6129C41.6775 30.2186 41.1864 30.7097 40.5807 30.7097C39.9749 30.7097 39.4839 30.2186 39.4839 29.6129Z" fill="#3A9FEC"/>
<path d="M4.38708 29.6129C4.38708 29.0072 4.87813 28.5161 5.48386 28.5161H36.1935C36.7993 28.5161 37.2903 29.0072 37.2903 29.6129C37.2903 30.2186 36.7993 30.7097 36.1935 30.7097H5.48386C4.87813 30.7097 4.38708 30.2186 4.38708 29.6129Z" fill="#3A9FEC"/>
<path d="M13.1613 42.7738C13.1613 40.9599 11.6849 39.4835 9.87101 39.4835C9.26586 39.4835 8.77424 38.9919 8.77424 38.3867C8.77424 37.7815 9.26586 37.2899 9.87101 37.2899C10.0891 37.2899 10.2925 37.3538 10.4634 37.4638C10.9727 37.7917 11.4588 38.3867 12.0646 38.3867C12.6703 38.3867 13.1794 37.8819 12.9788 37.3104C12.6501 36.3735 11.9046 35.6323 10.9678 35.2983V33.9996C10.9678 33.3939 10.4767 32.9028 9.87101 32.9028C9.26528 32.9028 8.77424 33.3939 8.77424 33.9996V35.2983C7.50074 35.7524 6.58069 36.959 6.58069 38.3867C6.58069 40.2006 8.05716 41.677 9.87101 41.677C10.4762 41.677 10.9678 42.1686 10.9678 42.7738C10.9678 43.3789 10.4762 43.8706 9.87101 43.8706C9.6529 43.8706 9.44953 43.8067 9.27862 43.6967C8.7693 43.3688 8.28319 42.7738 7.67746 42.7738C7.07173 42.7738 6.56262 43.2786 6.76319 43.8501C7.09195 44.787 7.83747 45.5282 8.77424 45.8622V47.1609C8.77424 47.7666 9.26528 48.2577 9.87101 48.2577C10.4767 48.2577 10.9678 47.7666 10.9678 47.1609V45.8622C12.2413 45.4081 13.1613 44.2015 13.1613 42.7738Z" fill="#3A9FEC"/>
</g>
<defs>
<clipPath id="clip0">
<rect width="68" height="68" fill="white"/>
</clipPath>
</defs>
</svg>
