<svg width="134" height="54" viewBox="0 0 134 54" fill="none" xmlns="http://www.w3.org/2000/svg">
<path d="M72.2519 6.32661V22.4236H68.5896V15.2383H62.7105V22.4236H59.0482V6.32661H62.7105V12.4855H68.5896V6.32661H72.2519Z" fill="#111D25"/>
<path d="M79.1303 8.8928H77.9738C77.4437 8.8928 77.1786 8.63618 77.1786 8.12294V6.76986C77.1786 6.25662 77.4437 6 77.9738 6H79.1303C79.6604 6 79.9254 6.25662 79.9254 6.76986V8.12294C79.9254 8.63618 79.6604 8.8928 79.1303 8.8928ZM83.5155 8.8928H82.3589C81.8289 8.8928 81.5638 8.63618 81.5638 8.12294V6.76986C81.5638 6.25662 81.8289 6 82.3589 6H83.5155C84.0455 6 84.3106 6.25662 84.3106 6.76986V8.12294C84.3106 8.63618 84.0455 8.8928 83.5155 8.8928ZM75.733 13.4886L75.3957 11.1557C77.532 10.7824 79.5961 10.5958 81.5879 10.5958C83.1942 10.5958 84.3748 10.9146 85.1298 11.5523C85.8847 12.1744 86.2622 13.2631 86.2622 14.8184V22.4236H83.4432L83.0818 20.674C81.8931 22.027 80.4314 22.7036 78.6966 22.7036C77.5561 22.7036 76.6245 22.4158 75.9016 21.8404C75.1788 21.2494 74.8174 20.4329 74.8174 19.3909V18.2244C74.8174 17.3068 75.1387 16.5914 75.7812 16.0781C76.4237 15.5649 77.3152 15.3083 78.4556 15.3083H82.6963V14.795C82.6802 14.204 82.5356 13.8074 82.2626 13.6053C82.0056 13.4031 81.4996 13.302 80.7446 13.302C79.4275 13.302 77.7569 13.3642 75.733 13.4886ZM78.3352 18.481V18.9243C78.3352 19.7175 78.801 20.1141 79.7326 20.1141C80.6964 20.1141 81.6843 19.7408 82.6963 18.9943V17.3846H79.4917C78.7207 17.4001 78.3352 17.7656 78.3352 18.481Z" fill="#111D25"/>
<path d="M91.9818 10.9224L92.2469 12.6254C93.9656 11.2724 95.6602 10.5958 97.3308 10.5958C98.407 10.5958 99.2262 10.868 99.7884 11.4123C100.367 11.9567 100.656 12.7499 100.656 13.7919V22.4236H97.1139V14.865C97.1139 14.3518 97.0256 14.0019 96.8489 13.8152C96.6883 13.613 96.3911 13.5119 95.9574 13.5119C95.2024 13.5119 94.1021 13.8619 92.6565 14.5617V22.4236H89.0905V10.9224H91.9818Z" fill="#111D25"/>
<path d="M114.887 6.09332V22.4236H112.068L111.779 20.7439C110.638 22.0504 109.128 22.7036 107.249 22.7036C105.771 22.7036 104.695 22.1903 104.02 21.1639C103.362 20.1218 103.032 18.5899 103.032 16.568C103.032 14.3596 103.402 12.8121 104.141 11.9256C104.88 11.0391 106.028 10.5958 107.586 10.5958C109.112 10.5958 110.397 10.938 111.441 11.6223C111.361 10.7669 111.321 9.96593 111.321 9.2194V6.09332H114.887ZM111.321 18.9243V13.6053C110.245 13.3098 109.401 13.162 108.791 13.162C107.988 13.162 107.434 13.3797 107.128 13.8152C106.839 14.2507 106.695 15.1605 106.695 16.5447C106.695 17.8667 106.839 18.7532 107.128 19.2042C107.417 19.6397 107.931 19.8574 108.67 19.8574C109.168 19.8574 109.594 19.7952 109.947 19.6708C110.301 19.5308 110.759 19.282 111.321 18.9243Z" fill="#111D25"/>
<path d="M125.386 17.8278H121.097C121.209 18.6677 121.466 19.2353 121.868 19.5308C122.286 19.8108 122.968 19.9508 123.916 19.9508C125.185 19.9508 126.663 19.8652 128.349 19.6941L128.687 21.8404C127.45 22.4158 125.723 22.7036 123.506 22.7036C121.274 22.7036 119.684 22.237 118.736 21.3038C117.788 20.3707 117.314 18.831 117.314 16.6847C117.314 14.4296 117.772 12.851 118.688 11.9489C119.619 11.0468 121.177 10.5958 123.362 10.5958C125.338 10.5958 126.767 10.9302 127.651 11.599C128.534 12.2522 128.984 13.2553 129 14.6084C129 15.6815 128.711 16.4903 128.133 17.0346C127.57 17.5634 126.655 17.8278 125.386 17.8278ZM121.025 15.7515H124.398C124.832 15.7515 125.121 15.6504 125.265 15.4483C125.426 15.2461 125.506 14.9506 125.506 14.5617C125.506 14.0174 125.362 13.6441 125.073 13.442C124.783 13.2242 124.253 13.1154 123.482 13.1154C122.567 13.1154 121.94 13.2942 121.603 13.6519C121.266 13.9941 121.073 14.6939 121.025 15.7515Z" fill="#111D25"/>
<path d="M69.9388 34.3992H63.9875C63.5217 34.3992 63.1844 34.4925 62.9756 34.6791C62.7828 34.8658 62.6864 35.169 62.6864 35.589V38.3418H69.0474V40.9313H62.6864V47.6967H59V34.8658C59 33.8393 59.3293 33.0306 59.9879 32.4396C60.6625 31.833 61.554 31.5297 62.6623 31.5297C66.1962 31.5297 68.6859 31.6153 70.1316 31.7863L69.9388 34.3992Z" fill="#111D25"/>
<path d="M80.3727 35.8689L80.0112 39.065H79.0475C78.2604 39.065 77.0476 39.3294 75.4092 39.8582V47.6967H71.8432V36.1955H74.6141L74.9273 37.8752C76.5497 36.5377 78.156 35.8689 79.7462 35.8689H80.3727Z" fill="#111D25"/>
<path d="M82.3448 38.7617L82.0075 36.4288C84.1439 36.0555 86.208 35.8689 88.1998 35.8689C89.806 35.8689 90.9867 36.1877 91.7416 36.8254C92.4966 37.4475 92.8741 38.5362 92.8741 40.0915V47.6967H90.055L89.6936 45.947C88.5049 47.3001 87.0432 47.9767 85.3084 47.9767C84.168 47.9767 83.2363 47.6889 82.5135 47.1135C81.7906 46.5225 81.4292 45.706 81.4292 44.664V43.4975C81.4292 42.5799 81.7505 41.8645 82.393 41.3512C83.0355 40.838 83.927 40.5814 85.0675 40.5814H89.3081V40.0681C89.292 39.4771 89.1475 39.0805 88.8744 38.8784C88.6174 38.6762 88.1114 38.5751 87.3564 38.5751C86.0393 38.5751 84.3687 38.6373 82.3448 38.7617ZM84.947 43.7541V44.1974C84.947 44.9906 85.4128 45.3871 86.3445 45.3871C87.3083 45.3871 88.2961 45.0139 89.3081 44.2674V42.6577H86.1035C85.3325 42.6732 84.947 43.0387 84.947 43.7541Z" fill="#111D25"/>
<path d="M106.978 36.1955V47.6967H104.159L103.894 46.1103C102.256 47.3701 100.618 48 98.9792 48C96.7464 48 95.63 46.9346 95.63 44.8039V36.1955H99.196V43.7541C99.18 44.2518 99.2683 44.6017 99.4611 44.8039C99.6538 45.0061 99.9911 45.1072 100.473 45.1072C101.164 45.1072 102.152 44.7884 103.437 44.1507V36.1955H106.978Z" fill="#111D25"/>
<g clip-path="url(#clip0)">
<path d="M38.2525 53.4545L35.8918 51.0942C34.6606 49.8621 33.9828 48.2256 33.9828 46.4854V15.3621C33.9828 8.9448 28.7621 3.7241 22.3448 3.7241C15.9276 3.7241 10.7069 8.9448 10.7069 15.3621V28.8621H14.431V15.3621C14.431 10.9988 17.9811 7.44831 22.3447 7.44831C26.7084 7.44831 30.2585 10.9988 30.2585 15.3621V17.0768C30.2585 19.8236 28.8001 22.4157 26.4521 23.8413L22.8457 26.0316L20.9128 22.8476L24.5192 20.6582C25.7621 19.9035 26.5344 18.5316 26.5344 17.0769V15.3622C26.5344 13.0518 24.6551 11.1725 22.3447 11.1725C20.0343 11.1725 18.1551 13.0518 18.1551 15.3622V32.5863H6.98267V15.3622C6.98267 6.89186 13.8741 0 22.3448 0C30.8155 0 37.7069 6.89186 37.7069 15.3621V46.4854C37.7069 47.2309 37.9979 47.9329 38.5256 48.4619L40.8855 50.8213L38.2525 53.4545Z" fill="#111D25"/>
<path d="M37.7069 45.6207H33.9828V17.2241C33.9828 16.967 34.1912 16.7586 34.4483 16.7586H37.2415C37.4986 16.7586 37.707 16.967 37.707 17.2241V45.6207H37.7069Z" fill="#9DAFBD"/>
<path d="M23.7211 27.3259L20.1234 23.0523L23.5364 20.1792C23.9298 19.8482 24.5171 19.8985 24.8482 20.2919L27.2466 23.1408C27.5776 23.5342 27.5272 24.1215 27.1339 24.4526L23.7211 27.3259Z" fill="#8CA2B3"/>
<path d="M22.2016 20.4175C22.0371 20.2024 21.8584 20.0019 21.6684 19.8148C21.3309 19.4828 20.7928 19.4643 20.4256 19.7633L19.0861 20.854L23.8189 29.1946L25.2407 28.6828C25.7209 28.5099 25.9783 27.9808 25.8059 27.5004C24.8492 24.8324 23.6174 22.2686 22.2016 20.4175Z" fill="#E3E9EE"/>
<path d="M14.431 53.0689H22.8103C24.867 53.0689 26.5344 51.4016 26.5344 49.3448V38.1724C26.5344 33.9017 24.1824 25.4317 20.8049 21.0159C19.6463 19.5014 17.8453 18.6207 15.9385 18.6207H8.84464C7.30206 18.6207 6.05151 19.8713 6.05151 21.4138V40.9655L14.431 53.0689Z" fill="#3A9FEC"/>
<path d="M13.4999 48.4137V51.8586L14.431 53.0689H22.8102C24.867 53.0689 26.5343 51.4016 26.5343 49.3448V48.4137H13.4999Z" fill="#065C9D"/>
<path d="M8.84473 39.0259V26.5345C8.84473 25.7632 9.46994 25.138 10.2412 25.138H14.2876C14.9814 25.138 15.6129 25.5209 15.9369 26.1345C17.1819 28.4926 20.0171 34.6363 20.0171 45.6207L8.84473 39.0259Z" fill="#EEF2F4"/>
<path d="M11.6378 54C7.01735 54 3.25854 50.2407 3.25854 45.6207C3.25854 41.0008 7.01735 37.2414 11.6378 37.2414C16.2583 37.2414 20.0171 41.0008 20.0171 45.6207C20.0171 50.2407 16.2583 54 11.6378 54Z" fill="#111D25"/>
<path d="M11.6378 51.207C14.723 51.207 17.224 48.7059 17.224 45.6207C17.224 42.5355 14.723 40.0345 11.6378 40.0345C8.55256 40.0345 6.05151 42.5355 6.05151 45.6207C6.05151 48.7059 8.55256 51.207 11.6378 51.207Z" fill="#9CD4FF"/>
<path d="M11.6379 49.3448C13.6947 49.3448 15.362 47.6775 15.362 45.6207C15.362 43.564 13.6947 41.8966 11.6379 41.8966C9.58116 41.8966 7.91382 43.564 7.91382 45.6207C7.91382 47.6775 9.58116 49.3448 11.6379 49.3448Z" fill="#4C5760"/>
<path d="M15.9385 18.6207H14.4309V19.9063C14.4309 20.7388 15.1059 21.4138 15.9385 21.4138C16.9744 21.4138 17.9642 21.8995 18.5865 22.713C21.4418 26.4461 23.7413 34.2228 23.7413 38.1725V42.2511C23.7413 43.0837 24.4163 43.7587 25.2488 43.7587H26.5344V38.1724C26.5344 33.9017 24.1827 25.4318 20.805 21.016C19.6464 19.5014 17.8454 18.6207 15.9385 18.6207Z" fill="#9CD4FF"/>
<path d="M37.7069 46.4857V44.2241C37.7069 43.967 37.4985 43.7586 37.2413 43.7586H34.4482C34.1911 43.7586 33.9827 43.967 33.9827 44.2241V46.4863C33.9827 48.2146 34.6693 49.8722 35.8915 51.0941L38.2523 53.4544L40.8854 50.8213L38.5255 48.4619C38.0014 47.9378 37.7069 47.227 37.7069 46.4857Z" fill="#111D25"/>
<path d="M49.8103 54H37.9557C37.4696 54 37.1921 53.4451 37.4838 53.0562L39.0695 50.9419C39.3803 50.5276 39.8824 50.3021 40.3986 50.345L49.8877 51.1358C50.3702 51.1761 50.7415 51.5794 50.7415 52.0636V53.069C50.7414 53.5831 50.3244 54 49.8103 54Z" fill="#4C5760"/>
<path d="M14.431 29.7931H11.6379C11.1237 29.7931 10.7068 29.3762 10.7068 28.862C10.7068 28.3479 11.1237 27.931 11.6379 27.931H14.431C14.9451 27.931 15.3621 28.3479 15.3621 28.862C15.3621 29.3762 14.9451 29.7931 14.431 29.7931Z" fill="#9DAFBD"/>
<path d="M16.293 35.3793H11.6379C11.1237 35.3793 10.7068 34.9624 10.7068 34.4482C10.7068 33.934 11.1237 33.5171 11.6379 33.5171H16.293C16.8072 33.5171 17.2241 33.934 17.2241 34.4482C17.2241 34.9625 16.8072 35.3793 16.293 35.3793Z" fill="#9DAFBD"/>
<path d="M15.3621 32.5863H11.638C11.1238 32.5863 10.7069 32.1693 10.7069 31.6552C10.7069 31.141 11.1238 30.7241 11.638 30.7241H15.3621C15.8762 30.7241 16.2932 31.141 16.2932 31.6552C16.2931 32.1693 15.8762 32.5863 15.3621 32.5863Z" fill="#9DAFBD"/>
</g>
<defs>
<clipPath id="clip0">
<rect width="54" height="54" fill="white"/>
</clipPath>
</defs>
</svg>
