<svg width="68" height="68" viewBox="0 0 68 68" fill="none" xmlns="http://www.w3.org/2000/svg">
<g clip-path="url(#clip0)">
<path d="M11.2989 60.4209C11.052 60.1737 10.7093 60.0317 10.36 60.0317C10.0107 60.0317 9.66808 60.1737 9.42105 60.4209C9.17402 60.668 9.03191 61.0106 9.03191 61.3599C9.03191 61.7092 9.17388 62.0518 9.42105 62.2987C9.66808 62.5457 10.0107 62.688 10.36 62.688C10.7093 62.688 11.052 62.5459 11.2989 62.2987C11.5459 62.0518 11.6882 61.7092 11.6882 61.3599C11.6882 61.0106 11.546 60.6679 11.2989 60.4209Z" fill="#3A9FEC"/>
<path d="M62.3585 24.2964C62.1114 24.0492 61.7701 23.9072 61.4195 23.9072C61.0702 23.9072 60.7275 24.0492 60.4805 24.2964C60.2336 24.5434 60.0914 24.8861 60.0914 25.2354C60.0914 25.5846 60.2335 25.9273 60.4805 26.1742C60.7275 26.4212 61.0702 26.5635 61.4195 26.5635C61.7701 26.5635 62.1114 26.4214 62.3585 26.1742C62.6067 25.9273 62.7488 25.5846 62.7488 25.2354C62.7488 24.8861 62.6067 24.5434 62.3585 24.2964Z" fill="#3A9FEC"/>
<path d="M67.61 0.389008C67.3608 0.139984 67.0229 0 66.6706 0L33.9995 0.00172656C33.2661 0.00172656 32.6715 0.596461 32.6715 1.32985V5.12789L20.0823 8.5012C19.3738 8.69112 18.9533 9.41933 19.1432 10.1277L25.6679 34.4779L20.0235 40.1223C19.3051 39.0733 18.0989 38.3835 16.7345 38.3835H3.98494C1.78796 38.3835 0.000701904 40.1709 0.000701904 42.3677V64.0156C0.000701904 66.2126 1.78796 68 3.98494 68H16.7347C18.6011 68 20.1712 66.7096 20.6015 64.9745L22.1807 66.3517C23.3997 67.4147 24.9616 68.0001 26.5791 68.0001H66.6708C67.4042 68.0001 67.999 67.4054 67.999 66.672V1.32812C67.9987 0.975906 67.859 0.638031 67.61 0.389008ZM18.0625 64.0158C18.0625 64.748 17.4667 65.3439 16.7344 65.3439H3.98481C3.25248 65.3439 2.65669 64.7481 2.65669 64.0158V42.3679C2.65669 41.6355 3.25248 41.0397 3.98481 41.0397H9.03155V56.3391C9.03155 57.0725 9.62629 57.6672 10.3597 57.6672C11.0931 57.6672 11.6878 57.0725 11.6878 56.3391V41.0397H16.7345C17.4669 41.0397 18.0627 41.6355 18.0627 42.3679V64.0158H18.0625ZM22.0526 10.7231L32.6715 7.87777V12.7991L31.7814 13.0377C31.441 13.1289 31.1511 13.3514 30.975 13.6564C30.7989 13.9615 30.751 14.324 30.8423 14.6642C31.3527 16.5689 30.2183 18.5336 28.3137 19.044C27.973 19.1354 27.6825 19.3582 27.5066 19.664C27.3306 19.9696 27.2832 20.3327 27.3752 20.6732L32.5521 39.8431H29.8866L28.5129 34.469C28.4692 34.2979 28.3927 34.1402 28.2903 34.0032L22.0526 10.7231ZM32.6715 18.8898V30.0966L30.2491 21.1271C31.261 20.6047 32.0891 19.8229 32.6715 18.8898ZM51.7519 65.3438H26.5789C25.6034 65.3438 24.6613 64.9907 23.9261 64.3496L20.7188 61.5525V43.1836L26.5171 37.3853L27.5687 41.4998C27.7191 42.0877 28.2486 42.4989 28.8554 42.4989L54.9669 42.5005C55.9922 42.5005 56.8263 43.3346 56.8263 44.3599C56.8263 45.3852 55.9922 46.2193 54.9669 46.2193H41.5873C40.854 46.2193 40.2592 46.814 40.2592 47.5474C40.2592 48.2808 40.854 48.8755 41.5873 48.8755H59.1239C60.1492 48.8755 60.9833 49.7096 60.9833 50.7349C60.9833 51.7602 60.1492 52.5943 59.1239 52.5943H41.5873C40.854 52.5943 40.2592 53.189 40.2592 53.9224C40.2592 54.6558 40.854 55.2505 41.5873 55.2505H56.2821C57.3074 55.2505 58.1415 56.0846 58.1415 57.1099C58.1415 58.1352 57.3074 58.9693 56.2821 58.9693H41.5873C40.854 58.9693 40.2592 59.564 40.2592 60.2974C40.2592 61.0308 40.854 61.6255 41.5873 61.6255H51.7519C52.7772 61.6255 53.6113 62.4596 53.6113 63.4849C53.6111 64.5097 52.7771 65.3438 51.7519 65.3438ZM65.3427 65.3438H65.3426H55.8652C56.1227 64.7762 56.2674 64.1471 56.2674 63.4844C56.2674 62.8216 56.1227 62.1925 55.8652 61.625H56.2821C58.772 61.625 60.7976 59.5993 60.7976 57.1095C60.7976 56.3833 60.6243 55.697 60.3183 55.0885C62.2303 54.5634 63.6393 52.8109 63.6393 50.7346C63.6393 49.7274 63.3075 48.7962 62.748 48.0445V31.2119C62.748 30.4785 62.1532 29.8837 61.4198 29.8837C60.6864 29.8837 60.0917 30.4785 60.0917 31.2119V46.3249C59.7796 46.2565 59.4559 46.2193 59.1236 46.2193H59.0801C59.3376 45.6518 59.4822 45.0226 59.4822 44.3599C59.4822 41.8699 57.4566 39.8444 54.9667 39.8444H52.8318C55.0988 38.8722 56.6909 36.6189 56.6909 34C56.6909 30.4952 53.8397 27.6439 50.3349 27.6439C46.8302 27.6439 43.9789 30.4952 43.9789 34C43.9789 36.6189 45.5712 38.8722 47.838 39.8444H40.5781V14.5912C42.9507 14.0741 44.8228 12.2021 45.3397 9.82945H55.33C55.8469 12.2021 57.719 14.0741 60.0916 14.5912V18.7203C60.0916 19.4537 60.6863 20.0484 61.4197 20.0484C62.1531 20.0484 62.7478 19.4537 62.7478 18.7203V13.4054C62.7478 12.672 62.1531 12.0773 61.4197 12.0773C59.4478 12.0773 57.8439 10.4731 57.8439 8.50133C57.8439 7.76794 57.2491 7.1732 56.5157 7.1732H44.1541C43.4207 7.1732 42.826 7.76794 42.826 8.50133C42.826 10.4732 41.2218 12.0773 39.2501 12.0773C38.5167 12.0773 37.922 12.672 37.922 13.4054V39.8443H35.3279V2.65771L65.3427 2.65625V65.3438ZM50.3352 37.6999C48.295 37.6999 46.6354 36.0401 46.6354 34.0001C46.6354 31.9601 48.2952 30.3002 50.3352 30.3002C52.3752 30.3002 54.0349 31.96 54.0349 34C54.0349 36.04 52.3753 37.6999 50.3352 37.6999Z" fill="#3A9FEC"/>
</g>
<defs>
<clipPath id="clip0">
<rect width="68" height="68" fill="white"/>
</clipPath>
</defs>
</svg>
