<svg width="46" height="46" viewBox="0 0 46 46" fill="none" xmlns="http://www.w3.org/2000/svg">
<circle cx="23" cy="23" r="23" fill="#EDF1F4"/>
<g clip-path="url(#clip0)">
<path d="M23 9C17.4739 9 12.9301 13.3272 12.2402 18.9094C10.3829 19.3433 9 21.0105 9 23C9 24.957 10.3385 26.6025 12.15 27.0688V27.3066C12.15 31.6809 15.5313 35.25 19.7324 35.25H20.4023C20.8177 36.2761 21.8249 37 23 37C24.5464 37 25.8 35.7464 25.8 34.2C25.8 32.6536 24.5464 31.4 23 31.4C21.8249 31.4 20.8177 32.1239 20.4023 33.15H19.7324C16.717 33.15 14.25 30.5454 14.25 27.3066V20.3887C14.25 15.2466 18.1804 11.1 23 11.1C27.8196 11.1 31.75 15.2466 31.75 20.3887V27.2H32.8C35.1196 27.2 37 25.3196 37 23C37 21.0105 35.6171 19.3433 33.7598 18.9094C33.0699 13.3272 28.5261 9 23 9ZM18.8 20.2C18.0268 20.2 17.4 20.8268 17.4 21.6C17.4 22.3732 18.0268 23 18.8 23C19.5732 23 20.2 22.3732 20.2 21.6C20.2 20.8268 19.5732 20.2 18.8 20.2ZM26.8336 20.2C26.0604 20.2 25.4336 20.8268 25.4336 21.6C25.4336 22.3732 26.0604 23 26.8336 23C27.6068 23 28.2336 22.3732 28.2336 21.6C28.2336 20.8268 27.6068 20.2 26.8336 20.2ZM19.5 24.4C20.0474 25.7038 21.336 26.6203 22.8387 26.6203C24.3413 26.6203 25.63 25.7038 26.1773 24.4H19.5Z" fill="#1F2D38"/>
</g>
<defs>
<clipPath id="clip0">
<rect width="28" height="28" fill="white" transform="translate(9 9)"/>
</clipPath>
</defs>
</svg>
