<svg width="16" height="16" viewBox="0 0 16 16" fill="none" xmlns="http://www.w3.org/2000/svg">
<path fill-rule="evenodd" clip-rule="evenodd" d="M12.4714 3.52851C12.7317 3.78886 12.7317 4.21097 12.4714 4.47132L4.47138 12.4713C4.21103 12.7317 3.78892 12.7317 3.52858 12.4713C3.26823 12.211 3.26823 11.7889 3.52858 11.5285L11.5286 3.52851C11.7889 3.26816 12.211 3.26816 12.4714 3.52851Z" fill="#3A9FEC"/>
<path fill-rule="evenodd" clip-rule="evenodd" d="M3.52858 3.52851C3.78892 3.26816 4.21103 3.26816 4.47138 3.52851L12.4714 11.5285C12.7317 11.7889 12.7317 12.211 12.4714 12.4713C12.211 12.7317 11.7889 12.7317 11.5286 12.4713L3.52858 4.47132C3.26823 4.21097 3.26823 3.78886 3.52858 3.52851Z" fill="#3A9FEC"/>
</svg>
