<svg width="150" height="150" viewBox="0 0 150 150" fill="none" xmlns="http://www.w3.org/2000/svg">
<g clip-path="url(#clip0)">
<path d="M42.4947 35.4579C44.9328 26.7904 38.8777 19.5195 45.2712 13.1795C55.664 2.87355 92.1323 5.01849 84.7317 16.1811C68.6121 40.4951 91.0647 49.0957 84.7317 62.7175C79.3553 74.2818 37.0595 75.053 35.0533 56.6979C34.0213 47.2554 39.9225 44.6018 42.4947 35.4579Z" fill="#5E4635"/>
<path d="M90.6047 31.3623L85.3835 30.4181C84.8402 30.3199 84.32 30.6806 84.2216 31.224L81.571 45.8593C81.4733 46.3989 81.8284 46.9165 82.367 47.0197L87.2371 47.9522C87.7745 48.0551 88.2948 47.707 88.4048 47.1711L91.4063 32.5474C91.5192 31.9974 91.1573 31.4622 90.6047 31.3623Z" fill="#111D25"/>
<path d="M92.9704 66.7491C103.692 67.8777 114.933 73.1806 115.222 76.2208C115.5 79.1359 98.4398 79.1729 89.5561 76.2207C76.811 71.9855 67.0318 63.7012 72.2329 62.692C75.0689 62.1418 81.4772 65.5393 92.9704 66.7491Z" fill="#F7DDBF"/>
<path d="M107.581 57.2143C114.425 66.6399 117.025 75.6339 114.627 77.148C112.228 78.662 104.495 70.5157 99.0355 61.0421C95.0919 54.1985 92.7391 46.0227 90.2412 44.7614C87.5293 43.392 89.9657 40.5564 91.2661 40.1459C92.5841 39.7298 94.4568 39.5422 94.4568 41.3033C94.4568 43.6006 100.505 47.4709 107.581 57.2143Z" fill="#F7DDBF"/>
<ellipse cx="91.0392" cy="39.2956" rx="3.85403" ry="5.51541" transform="rotate(11.7937 91.0392 39.2956)" fill="#F7DDBF"/>
<path d="M56.2306 62.6878C56.2403 59.8247 56.8972 55.1029 55.3779 53.7974C58.2671 55.2153 66.5066 56.9739 68.2595 57.6739C67.8222 58.6328 67.982 59.9701 68.3941 61.1896C66.3718 62.097 58.3211 62.841 56.2306 62.6878Z" fill="#DFC5A7"/>
<path d="M84.0304 93.7783C83.8397 111.533 82.5887 145.088 65.4337 143.534C51.1374 142.238 45.1699 110.38 45.5987 94.955C46.2306 72.225 48.3751 66.2558 56.2991 62.1666C59.6701 62.4229 64.3385 62.1666 68.397 61.0506C77.8472 62.8864 84.2823 70.3221 84.0304 93.7783Z" fill="#DFC5A7"/>
<path d="M86.5407 94.68C86.35 112.435 82.8577 148.893 65.7027 147.338C51.4065 146.043 43.9087 110.105 44.3375 94.68C44.898 74.5181 48.1305 65.555 56.2871 62.1528C58.2064 63.4549 60.4625 64.3208 63.3565 64.3208C65.6806 64.3208 67.8099 63.0311 68.401 61.062C79.874 67.0936 86.7926 71.2238 86.5407 94.68Z" fill="#3A9FEC"/>
<path d="M91.1382 45.7634C94.8828 54.9138 98.2871 60.9718 104.334 69.1542C95.11 66.3177 86.9171 64.9708 80.3625 63.6117L88.6888 76.6659C95.2579 78.8782 114.083 79.8036 115.166 77.5515C119.077 69.4181 102.842 48.9295 95.6468 43.3428C94.4077 44.294 93.0893 44.9908 91.1382 45.7634Z" fill="#3A9FEC"/>
<g filter="url(#filter0_f)">
<path d="M90.9193 77.2755C89.9683 77.1042 88.8452 76.677 87.8274 76.4912C87.0511 73.2026 85.2564 69.978 84.8394 68.71C86.6607 69.8784 89.9732 74.2887 90.9193 77.2755Z" fill="#2581C7"/>
</g>
<path d="M90.4789 87.5899C90.2385 80.7472 89.6395 78.3999 87.934 74.3567C86.2018 70.2501 82.0796 64.0225 80.045 63.4987C78.0104 62.975 74.344 61.7793 68.4049 61.0552C67.6529 67.6968 70.8005 68.9957 69.1668 77.8952C62.2349 72.1199 58.8942 67.6275 55.9037 62.3335C51.9883 63.6926 51.5501 62.9377 48.2742 65.431C43.9833 68.6969 41.7043 75.6042 40.5158 81.5494C39.4833 86.7143 40.0189 85.3359 40.5159 91.4911C40.9385 96.7245 42.2193 100.965 43.6038 105.774C45.0805 110.904 46.6753 116.681 47.4726 125.002C48.4107 134.79 49.7095 130.394 48.9079 142.698L90.4789 142.059C90.4789 142.059 88.443 130.437 88.443 119.655C88.443 104.64 90.7192 94.4325 90.4789 87.5899Z" fill="#3A9FEC"/>
<g filter="url(#filter1_f)">
<path d="M52.5381 82.6143C49.4127 92.5051 47.9459 96.6929 43.5107 105.443L42.5315 102.106L52.5381 82.6143Z" fill="#2581C7"/>
</g>
<g filter="url(#filter2_f)">
<path d="M51.5896 135.777C50.3781 133.308 49.0917 129.558 47.6451 126.332C48.2406 132.569 48.0554 141.308 48.0554 141.308C48.0554 141.308 49.1667 143.974 50.581 144.998C52.7503 146.568 54.9572 148.968 56.6954 147.041C58.4524 145.094 57.7648 141.214 55.9763 139.295C54.9164 138.158 53.7927 137.649 52.3333 137.221C51.9053 136.793 51.6457 136.496 51.4081 136.098C51.4545 135.99 51.5896 135.904 51.5896 135.777Z" fill="#2581C7"/>
</g>
<path d="M84.8705 31.1153C85.2788 44.5896 77.484 58.2751 65.5339 57.7601C53.5838 57.2451 46.1385 44.5883 44.6022 31.1973C43.0658 17.8063 53.5837 7.80187 65.5338 8.31687C77.4839 8.83186 84.3992 15.562 84.8705 31.1153Z" fill="#F7DDBF"/>
<path d="M87.6442 13.235C87.6445 22.6103 78.2965 23.1758 61.9321 22.6104C45.5676 22.045 42.6136 26.8645 42.1746 20.4152C41.7356 13.9658 49.4761 6.7518 61.932 3.51165C74.388 0.271486 87.6438 5.28377 87.6442 13.235Z" fill="#775943"/>
<path d="M42.7425 34.3343C44.2725 26.4992 38.8978 19.9776 45.0808 13.3891C47.8374 10.4518 62.6447 22.2522 57.2339 22.6008C48.0545 23.1923 44.9673 37.4198 48.199 44.1408C51.0808 50.1344 30.8944 55.8033 46.0398 68.3921C41.1857 66.651 36.3422 63.6109 35.0917 57.1011C33.2978 47.7622 41.0232 43.1386 42.7425 34.3343Z" fill="#775943"/>
<path d="M75.3329 43.0603C71.3812 44.8142 67.1535 45.0673 62.8258 45.0899C64.5762 47.6584 67.5621 48.7448 70.8237 48.0926C73.4266 47.5721 74.6926 45.49 75.3329 43.0603Z" fill="white"/>
<ellipse cx="75.3331" cy="31.8806" rx="1.1438" ry="1.1438" fill="#111D25"/>
<ellipse cx="61.9648" cy="33.1946" rx="1.1438" ry="1.1438" fill="#111D25"/>
<ellipse cx="46.0797" cy="36.1917" rx="2.86186" ry="2.99737" fill="#F7DDBF"/>
<ellipse cx="45.8526" cy="38.4826" rx="0.466991" ry="0.466995" fill="#9DD5FF"/>
<path d="M49.4751 86.836C46.221 96.3104 37.5249 113.73 34.4605 112.772C28.9363 111.046 34.5931 95.701 38.268 82.4989C42.0355 68.9644 48.4726 63.8889 52.2066 64.6416C55.232 65.2516 53.4616 75.229 49.4751 86.836Z" fill="#F7DDBF"/>
<path d="M44.9946 121.891C47.3686 128.965 49.8276 135.803 52.1875 138.413C53.6735 140.057 53.8924 144.198 52.1875 144.436C50.4825 144.674 48.3625 142.645 47.6238 141.657C39.4117 130.671 40.6044 131.864 37.012 125.158C31.5237 114.912 30.6861 105.537 33.5894 103.72C34.9644 102.86 39.5916 102.505 40.2227 106.431C40.6129 108.858 42.6087 114.781 44.9946 121.891Z" fill="#F7DDBF"/>
<ellipse cx="52.5789" cy="143.143" rx="4.02538" ry="5.67856" transform="rotate(134.752 52.5789 143.143)" fill="#F7DDBF"/>
<path d="M46.2564 140.497C36.4365 126.726 31.9983 117.4 31.5333 108.208C31.3823 105.224 34.734 93.8698 37.4409 84.2492C40.5366 73.2467 44.8817 64.3661 53.1602 63.997C56.0575 63.8678 56.038 70.584 55.0611 74.8283C52.514 85.895 42.6184 103.198 40.569 106.652C41.4208 111.543 47.345 128.661 51.2181 136.496C49.5776 138.482 48.4983 139.228 46.2564 140.497Z" fill="#3A9FEC"/>
<g filter="url(#filter3_i)">
<path d="M12.0513 129.498C-3.2554 113.818 -3.02183 84.6233 7.36325 72.6355C35.0076 42.6763 72.2732 73.4476 84.8391 76.3094C106.487 81.2395 137.799 40.6393 146.77 60.9474C158.86 93.4623 134.68 117.476 112.72 133.597C83.323 155.178 38.9955 157.1 12.0513 129.498Z" fill="#D8E5EF"/>
</g>
<mask id="mask0" mask-type="alpha" maskUnits="userSpaceOnUse" x="0" y="55" width="150" height="96">
<path d="M12.0513 129.498C-3.2554 113.818 -3.02183 84.6233 7.36325 72.6355C35.0076 42.6763 72.2732 73.4476 84.8391 76.3094C106.487 81.2395 137.799 40.6393 146.77 60.9474C158.86 93.4624 134.68 117.476 112.72 133.597C83.323 155.178 38.9955 157.1 12.0513 129.498Z" fill="#D8E5EF"/>
</mask>
<g mask="url(#mask0)">
<g filter="url(#filter4_d)">
<path d="M42.4947 35.4579C44.9328 26.7904 38.8777 19.5195 45.2712 13.1795C55.664 2.87355 92.1323 5.01849 84.7317 16.1811C68.6121 40.4951 91.0647 49.0957 84.7317 62.7175C79.3553 74.2818 37.0595 75.053 35.0533 56.6979C34.0213 47.2554 39.9225 44.6018 42.4947 35.4579Z" fill="#5E4635"/>
<path d="M92.9704 66.7491C103.692 67.8777 114.933 73.1806 115.222 76.2208C115.5 79.1359 98.4398 79.1729 89.5561 76.2207C76.811 71.9855 67.0318 63.7012 72.2329 62.692C75.0689 62.1418 81.4772 65.5393 92.9704 66.7491Z" fill="#F7DDBF"/>
<path d="M107.581 57.2143C114.425 66.6399 117.025 75.6339 114.627 77.148C112.228 78.662 104.495 70.5157 99.0355 61.0421C95.0919 54.1985 92.7391 46.0227 90.2412 44.7614C87.5293 43.392 89.9657 40.5564 91.2661 40.1459C92.5841 39.7298 94.4568 39.5422 94.4568 41.3033C94.4568 43.6006 100.505 47.4709 107.581 57.2143Z" fill="#F7DDBF"/>
<path d="M56.2306 62.6878C56.2403 59.8247 56.8972 55.1029 55.3779 53.7974C58.2671 55.2153 66.5066 56.9739 68.2595 57.6739C67.8222 58.6328 67.982 59.9701 68.3941 61.1896C66.3718 62.097 58.3211 62.841 56.2306 62.6878Z" fill="#DFC5A7"/>
<path d="M84.0304 93.7783C83.8397 111.533 82.5887 145.088 65.4337 143.534C51.1374 142.238 45.1699 110.38 45.5987 94.955C46.2306 72.225 48.3751 66.2558 56.2991 62.1666C59.6701 62.4229 64.3385 62.1666 68.397 61.0506C77.8472 62.8864 84.2823 70.3221 84.0304 93.7783Z" fill="#DFC5A7"/>
<path d="M86.5407 94.68C86.35 112.435 82.8577 148.893 65.7027 147.338C51.4065 146.043 43.9087 110.105 44.3375 94.68C44.898 74.5181 48.1305 65.555 56.2871 62.1528C58.2064 63.4549 60.4625 64.3208 63.3565 64.3208C65.6806 64.3208 67.8099 63.0311 68.401 61.062C79.874 67.0936 86.7926 71.2238 86.5407 94.68Z" fill="#3A9FEC"/>
<path d="M91.1382 45.7634C94.8828 54.9138 98.2871 60.9718 104.334 69.1542C95.11 66.3177 86.9171 64.9708 80.3625 63.6117L88.6888 76.6659C95.2579 78.8782 114.083 79.8036 115.166 77.5515C119.077 69.4181 102.842 48.9295 95.6468 43.3428C94.4077 44.294 93.0893 44.9908 91.1382 45.7634Z" fill="#3A9FEC"/>
<g filter="url(#filter5_f)">
<path d="M90.9193 77.2755C89.9683 77.1042 88.8452 76.677 87.8274 76.4912C87.0511 73.2026 85.2564 69.978 84.8394 68.71C86.6607 69.8784 89.9732 74.2887 90.9193 77.2755Z" fill="#2581C7"/>
</g>
<path d="M90.4789 87.5899C90.2385 80.7472 89.6395 78.3999 87.934 74.3567C86.2018 70.2501 82.0796 64.0225 80.045 63.4987C78.0104 62.975 74.344 61.7793 68.4049 61.0552C67.6529 67.6968 70.8005 68.9957 69.1668 77.8952C62.2349 72.1199 58.8942 67.6275 55.9037 62.3335C51.9883 63.6926 51.5501 62.9377 48.2742 65.431C43.9833 68.6969 41.7043 75.6042 40.5158 81.5494C39.4833 86.7143 40.0189 85.3359 40.5159 91.4911C40.9385 96.7245 42.2193 100.965 43.6038 105.774C45.0805 110.904 46.6753 116.681 47.4726 125.002C48.4107 134.79 48.2742 137.753 47.4726 150.057H94.5892C94.5892 150.057 88.443 130.437 88.443 119.655C88.443 104.64 90.7192 94.4325 90.4789 87.5899Z" fill="#3A9FEC"/>
<g filter="url(#filter6_f)">
<path d="M52.5381 82.6143C49.4127 92.5051 47.9459 96.6929 43.5107 105.443L42.5315 102.106L52.5381 82.6143Z" fill="#2581C7"/>
</g>
<g filter="url(#filter7_f)">
<path d="M51.5896 135.777C50.3781 133.308 49.0917 129.558 47.6451 126.332C48.2406 132.569 48.0554 141.308 48.0554 141.308C48.0554 141.308 49.1667 143.974 50.581 144.998C52.7503 146.568 54.9572 148.968 56.6954 147.041C58.4524 145.094 57.7648 141.214 55.9763 139.295C54.9164 138.158 53.7927 137.649 52.3333 137.221C51.9053 136.793 51.6457 136.496 51.4081 136.098C51.4545 135.99 51.5896 135.904 51.5896 135.777Z" fill="#2581C7"/>
</g>
<path d="M84.8705 31.1153C85.2788 44.5896 77.484 58.2751 65.5339 57.7601C53.5838 57.2451 46.1385 44.5883 44.6022 31.1973C43.0658 17.8063 53.5837 7.80187 65.5338 8.31687C77.4839 8.83186 84.3992 15.562 84.8705 31.1153Z" fill="#F7DDBF"/>
<path d="M42.7426 34.3343C44.2726 26.4992 38.8979 19.9776 45.0809 13.3891C47.8375 10.4518 62.6448 22.2522 57.234 22.6008C48.0546 23.1923 44.9674 37.4198 48.1991 44.1408C51.0809 50.1344 30.8945 55.8033 46.0399 68.3921C41.1858 66.651 36.3423 63.6109 35.0918 57.1011C33.2979 47.7622 41.0233 43.1386 42.7426 34.3343Z" fill="#775943"/>
<path d="M49.4751 86.836C46.221 96.3104 37.5249 113.73 34.4605 112.772C28.9363 111.046 34.5931 95.701 38.268 82.4989C42.0355 68.9644 48.4726 63.8889 52.2066 64.6416C55.232 65.2516 53.4616 75.229 49.4751 86.836Z" fill="#F7DDBF"/>
<path d="M44.9946 121.891C47.3686 128.965 49.8276 135.803 52.1875 138.413C53.6735 140.057 53.8924 144.198 52.1875 144.436C50.4825 144.674 48.3625 142.645 47.6238 141.657C39.4117 130.671 40.6044 131.864 37.012 125.158C31.5237 114.912 30.6861 105.537 33.5894 103.72C34.9644 102.86 39.5916 102.505 40.2227 106.431C40.6129 108.858 42.6087 114.781 44.9946 121.891Z" fill="#F7DDBF"/>
<ellipse cx="52.5789" cy="143.143" rx="4.02538" ry="5.67856" transform="rotate(134.752 52.5789 143.143)" fill="#F7DDBF"/>
<path d="M46.2564 140.497C36.4365 126.726 31.9983 117.4 31.5333 108.208C31.3823 105.224 34.734 93.8698 37.4409 84.2492C40.5366 73.2467 44.8817 64.3661 53.1602 63.997C56.0575 63.8678 56.038 70.584 55.0611 74.8283C52.514 85.895 42.6184 103.198 40.569 106.652C41.4208 111.543 47.345 128.661 51.2181 136.496C49.5776 138.482 48.4983 139.228 46.2564 140.497Z" fill="#3A9FEC"/>
</g>
</g>
</g>
<defs>
<filter id="filter0_f" x="80.8394" y="64.71" width="14.0799" height="16.5655" filterUnits="userSpaceOnUse" color-interpolation-filters="sRGB">
<feFlood flood-opacity="0" result="BackgroundImageFix"/>
<feBlend mode="normal" in="SourceGraphic" in2="BackgroundImageFix" result="shape"/>
<feGaussianBlur stdDeviation="2" result="effect1_foregroundBlur"/>
</filter>
<filter id="filter1_f" x="38.5315" y="78.6143" width="18.0066" height="30.8284" filterUnits="userSpaceOnUse" color-interpolation-filters="sRGB">
<feFlood flood-opacity="0" result="BackgroundImageFix"/>
<feBlend mode="normal" in="SourceGraphic" in2="BackgroundImageFix" result="shape"/>
<feGaussianBlur stdDeviation="2" result="effect1_foregroundBlur"/>
</filter>
<filter id="filter2_f" x="43.6451" y="122.332" width="18.0714" height="29.4261" filterUnits="userSpaceOnUse" color-interpolation-filters="sRGB">
<feFlood flood-opacity="0" result="BackgroundImageFix"/>
<feBlend mode="normal" in="SourceGraphic" in2="BackgroundImageFix" result="shape"/>
<feGaussianBlur stdDeviation="2" result="effect1_foregroundBlur"/>
</filter>
<filter id="filter3_i" x="0" y="55.2192" width="150" height="99.7808" filterUnits="userSpaceOnUse" color-interpolation-filters="sRGB">
<feFlood flood-opacity="0" result="BackgroundImageFix"/>
<feBlend mode="normal" in="SourceGraphic" in2="BackgroundImageFix" result="shape"/>
<feColorMatrix in="SourceAlpha" type="matrix" values="0 0 0 0 0 0 0 0 0 0 0 0 0 0 0 0 0 0 127 0" result="hardAlpha"/>
<feOffset dy="5"/>
<feGaussianBlur stdDeviation="5"/>
<feComposite in2="hardAlpha" operator="arithmetic" k2="-1" k3="1"/>
<feColorMatrix type="matrix" values="0 0 0 0 0 0 0 0 0 0 0 0 0 0 0 0 0 0 0.1 0"/>
<feBlend mode="normal" in2="shape" result="effect1_innerShadow"/>
</filter>
<filter id="filter4_d" x="18.5059" y="-2.4873" width="110.193" height="167.544" filterUnits="userSpaceOnUse" color-interpolation-filters="sRGB">
<feFlood flood-opacity="0" result="BackgroundImageFix"/>
<feColorMatrix in="SourceAlpha" type="matrix" values="0 0 0 0 0 0 0 0 0 0 0 0 0 0 0 0 0 0 127 0"/>
<feOffset dy="5"/>
<feGaussianBlur stdDeviation="5"/>
<feColorMatrix type="matrix" values="0 0 0 0 0 0 0 0 0 0 0 0 0 0 0 0 0 0 0.2 0"/>
<feBlend mode="normal" in2="BackgroundImageFix" result="effect1_dropShadow"/>
<feBlend mode="normal" in="SourceGraphic" in2="effect1_dropShadow" result="shape"/>
</filter>
<filter id="filter5_f" x="80.8394" y="64.71" width="14.0799" height="16.5655" filterUnits="userSpaceOnUse" color-interpolation-filters="sRGB">
<feFlood flood-opacity="0" result="BackgroundImageFix"/>
<feBlend mode="normal" in="SourceGraphic" in2="BackgroundImageFix" result="shape"/>
<feGaussianBlur stdDeviation="2" result="effect1_foregroundBlur"/>
</filter>
<filter id="filter6_f" x="38.5315" y="78.6143" width="18.0066" height="30.8284" filterUnits="userSpaceOnUse" color-interpolation-filters="sRGB">
<feFlood flood-opacity="0" result="BackgroundImageFix"/>
<feBlend mode="normal" in="SourceGraphic" in2="BackgroundImageFix" result="shape"/>
<feGaussianBlur stdDeviation="2" result="effect1_foregroundBlur"/>
</filter>
<filter id="filter7_f" x="43.6451" y="122.332" width="18.0714" height="29.4261" filterUnits="userSpaceOnUse" color-interpolation-filters="sRGB">
<feFlood flood-opacity="0" result="BackgroundImageFix"/>
<feBlend mode="normal" in="SourceGraphic" in2="BackgroundImageFix" result="shape"/>
<feGaussianBlur stdDeviation="2" result="effect1_foregroundBlur"/>
</filter>
<clipPath id="clip0">
<rect width="150" height="150" fill="white"/>
</clipPath>
</defs>
</svg>
