<svg width="150" height="150" viewBox="0 0 150 150" fill="none" xmlns="http://www.w3.org/2000/svg">
<g clip-path="url(#clip0)">
<path d="M42.4948 35.4579C44.9329 26.7904 38.8778 19.5195 45.2712 13.1795C55.6641 2.87355 92.1324 5.01849 84.7318 16.1811C68.6122 40.4951 91.0648 49.0957 84.7318 62.7175C79.3554 74.2818 37.0595 75.053 35.0534 56.6979C34.0213 47.2554 39.9226 44.6018 42.4948 35.4579Z" fill="#AF9F68"/>
<path d="M129.87 31.7868C131.207 31.9016 132.072 32.3868 132.867 33.4679C133.595 34.4592 133.36 35.3239 133.632 36.5237C133.936 37.8642 134.478 38.6093 134.322 39.9748C134.125 41.7028 132.391 42.1374 132.143 43.8588C131.946 45.2262 133.021 46.025 132.66 47.3586C132.439 48.174 132.144 48.5981 131.601 49.2451C130.858 50.1303 130.336 51.05 129.184 50.9529C127.811 50.8371 127.507 49.3974 127.157 48.0647C126.897 47.075 127.881 46.1788 127.168 45.4446C126.472 44.727 125.518 45.7413 124.61 45.3226C122.495 44.3474 124.758 41.6251 124.153 39.376C123.711 37.7347 121.808 36.9324 122.464 35.3645C122.954 34.1959 123.999 34.0923 125.117 33.4971C125.775 33.147 126.169 32.9976 126.863 32.7258C128.009 32.2772 128.645 31.6816 129.87 31.7868Z" fill="#3A9FEC"/>
<path d="M92.755 67.2924C103.424 68.839 116.632 72.3869 114.62 77.6263C113.39 80.8277 97.7348 79.9204 88.9732 76.6234C76.4034 71.8934 66.9553 63.2334 72.1918 62.4282C75.0471 61.9891 81.3179 65.6344 92.755 67.2924Z" fill="#F7DDBF"/>
<path d="M120.932 62.7388C118.36 73.8421 114.728 79.8544 111.742 78.9531C109.526 78.2841 107.276 77.3616 113.271 59.2264C115.751 51.7242 119.635 44.5785 118.953 41.9201C118.214 39.034 121.901 39.0259 123.05 39.7271C124.213 40.4379 125.566 41.7059 124.257 42.8325C122.549 44.3022 123.591 51.2612 120.932 62.7388Z" fill="#F7DDBF"/>
<ellipse cx="122.829" cy="38.6778" rx="3.85402" ry="5.51542" transform="rotate(25.9088 122.829 38.6778)" fill="#F9DE4D"/>
<path d="M116.979 48.7599C119.13 43.6607 118.908 42.9545 118.629 40.4336L125.075 42.1826C123.63 43.4226 123.189 45.0484 123.189 50.1506C120.687 50.2067 119.32 49.8784 116.979 48.7599Z" fill="#F9DE4D"/>
<path d="M56.2306 62.6878C56.2403 59.8247 56.8972 55.1029 55.3779 53.7974C58.2671 55.2153 66.5066 56.9739 68.2595 57.6739C67.8222 58.6328 67.982 59.9701 68.3941 61.1896C66.3719 62.097 58.3211 62.841 56.2306 62.6878Z" fill="#DFC5A7"/>
<path d="M84.0308 86.926C83.8401 104.681 82.5891 138.236 65.4341 136.681C51.1379 135.386 45.1701 110.38 45.5989 94.955C46.2307 72.225 48.3753 66.2558 56.2993 62.1666C59.6702 62.4229 64.3387 62.1666 68.3972 61.0506C77.8473 62.8864 84.2827 63.4697 84.0308 86.926Z" fill="#DFC5A7"/>
<path d="M86.5409 94.6802C86.3502 112.435 83.5185 131.213 66.3635 129.659C52.0673 128.363 45.8593 107.969 46.2881 92.5439C46.8485 72.3819 48.1307 65.5552 56.2873 62.1529C58.2066 63.4551 60.4627 64.321 63.3566 64.321C65.6807 64.321 67.81 63.0312 68.4012 61.0621C79.8741 67.0937 86.7928 71.2239 86.5409 94.6802Z" fill="white"/>
<path d="M87.0647 76.6762L79.2548 63.3066C83.6409 64.3964 89.7226 65.8315 95.3968 67.4231C98.3217 71.452 99.0626 77.7747 97.9558 79.3724C93.1912 78.8444 89.7405 77.6954 87.0647 76.6762Z" fill="white"/>
<g style="mix-blend-mode:multiply" opacity="0.7" filter="url(#filter0_f)">
<path d="M90.2836 77.7973C89.3461 77.5404 88.6168 77.1694 87.6409 77.0682C86.8646 73.7795 85.1086 70.5571 84.6917 69.2891C86.5129 70.4575 89.3375 74.8105 90.2836 77.7973Z" fill="#71AEDC"/>
</g>
<path d="M89.7701 88.0471C89.5297 81.2044 89.3628 78.6955 87.6573 74.6523C85.9251 70.5457 82.0798 64.0225 80.0452 63.4987C78.0106 62.975 74.3442 61.7793 68.4051 61.0552C67.653 67.6968 70.8007 68.9957 69.167 77.8952C62.235 72.1199 58.8944 67.6275 55.9039 62.3335C51.9885 63.6926 51.5502 62.9377 48.2743 65.431C43.9835 68.6969 41.7044 75.6042 40.5159 81.5494C39.4834 86.7143 40.019 85.3359 40.516 91.4911C40.9386 96.7245 43.1516 99.8636 44.5361 104.673C46.0128 109.803 47.477 116.137 48.2743 124.457C49.2124 134.246 50.1835 131.125 49.382 143.428L89.4648 126.869C89.4648 126.869 89.2128 122.771 89.2128 117.677C89.2128 102.662 90.0105 94.8897 89.7701 88.0471Z" fill="white"/>
<g style="mix-blend-mode:multiply" opacity="0.4" filter="url(#filter1_f)">
<path d="M54.454 75.8862C51.0699 88.2652 48.7664 94.3854 44.0343 102.96L42.6984 100.11L54.454 75.8862Z" fill="#71AEDC"/>
</g>
<path d="M84.8707 31.1153C85.279 44.5896 77.4842 58.2751 65.5341 57.7601C53.584 57.2451 46.1387 44.5883 44.6024 31.1973C43.066 17.8063 53.5839 7.80187 65.534 8.31687C77.4841 8.83186 84.3994 15.562 84.8707 31.1153Z" fill="#F7DDBF"/>
<path d="M87.6443 13.235C87.6445 22.6103 78.2966 23.1758 61.9321 22.6104C45.5677 22.045 42.6136 26.8645 42.1747 20.4152C41.7357 13.9658 49.4761 6.7518 61.9321 3.51165C74.3881 0.271486 87.6439 5.28377 87.6443 13.235Z" fill="#FFE897"/>
<path d="M42.7434 34.3343C44.2734 26.4992 38.8987 19.9776 45.0817 13.3891C47.8383 10.4518 62.6456 22.2522 57.2348 22.6008C48.0554 23.1923 44.9682 37.4198 48.1998 44.1408C51.0817 50.1344 30.8953 55.8033 46.0407 68.3921C41.1866 66.651 36.3431 63.6109 35.0926 57.1011C33.2987 47.7622 41.0241 43.1386 42.7434 34.3343Z" fill="#FFE897"/>
<path d="M66.8932 45.257C66.63 45.1737 66.3489 45.3194 66.2656 45.5827C66.1822 45.8459 66.328 46.127 66.5912 46.2104L66.8932 45.257ZM73.4096 44.8923C73.6129 44.7054 73.6262 44.3891 73.4392 44.1859C73.2523 43.9826 72.936 43.9693 72.7328 44.1562L73.4096 44.8923ZM66.5912 46.2104C67.9951 46.6551 69.1567 46.8534 70.2571 46.6568C71.3672 46.4585 72.3446 45.8716 73.4096 44.8923L72.7328 44.1562C71.7433 45.066 70.9335 45.5202 70.0813 45.6724C69.2194 45.8264 68.2437 45.6849 66.8932 45.257L66.5912 46.2104Z" fill="#111D25"/>
<ellipse cx="75.3333" cy="31.8806" rx="1.1438" ry="1.1438" fill="#111D25"/>
<ellipse cx="61.965" cy="33.1946" rx="1.1438" ry="1.1438" fill="#111D25"/>
<ellipse cx="46.0799" cy="36.1917" rx="2.86186" ry="2.99738" fill="#F7DDBF"/>
<path d="M49.4752 86.836C46.2211 96.3104 37.5249 113.73 34.4606 112.772C28.9364 111.046 34.5931 95.701 38.2681 82.4989C42.0355 68.9644 48.4727 63.8889 52.2067 64.6416C55.2321 65.2516 53.4617 75.229 49.4752 86.836Z" fill="#F7DDBF"/>
<path d="M53.1603 63.997C56.0576 63.8678 56.0381 70.584 55.0612 74.8283C54.043 79.2523 50.6674 88.2151 48.2712 93.3492C42.8469 93.6262 38.4533 90.915 35.8392 87.2601C38.9349 76.2576 44.8818 64.3661 53.1603 63.997Z" fill="white"/>
<g filter="url(#filter2_d)">
<path d="M58.4361 79.9428C57.6101 73.0962 56.2165 69.3655 52.7997 63.2077C53.7743 62.9961 54.3362 62.8564 55.3001 62.5511C57.5365 66.1746 59.184 68.6612 60.8078 74.374C68.2509 75.1037 76.4536 74.5418 82.443 73.3041C79.7068 68.767 75.2395 64.7997 71.6581 61.6191L71.5339 61.5088C72.6908 61.6988 73.3535 61.8046 74.4816 62.0596C83.3646 68.2489 88.7273 74.716 89.6896 81.8198C91.2843 94.5329 88.6978 107.725 89.6896 121.158C89.8718 123.626 88.6603 127.06 88.6603 127.06L58.6313 139.968C58.6313 139.968 57.1449 101.503 57.5075 95.4478C57.8701 89.3927 59.1626 85.965 58.4361 79.9428Z" fill="#3A9FEC"/>
</g>
<g style="mix-blend-mode:multiply" opacity="0.6" filter="url(#filter3_f)">
<path d="M68.236 118.558C65.5214 118.113 49.7089 112.251 46.1267 110.834C47.4857 116.27 47.8479 119.984 47.8479 119.984C54.9744 122.004 65.7547 122.4 70.5258 121.766C71.5893 123.112 73.9055 123.447 74.9949 123.517C76.7885 123.632 81.0528 122.729 80.4908 120.196C79.9227 117.635 76.246 116.68 73.6456 117.024C72.1046 117.228 71.0384 117.849 69.8436 118.79C69.2468 118.89 68.8538 118.929 68.3921 118.892C68.3314 118.792 68.3393 118.632 68.236 118.558Z" fill="#71AEDC"/>
</g>
<path d="M53.9019 111.437C61.0257 113.659 68.0072 115.673 71.5052 115.29C73.7078 115.049 77.1921 117.298 76.3858 118.819C75.5795 120.34 72.6931 120.869 71.4595 120.889C57.7453 121.106 59.4108 120.839 51.8716 119.82C40.3534 118.264 32.2656 113.449 32.4947 110.032C32.6032 108.414 35.0271 104.457 38.5777 106.245C40.7732 107.351 46.7425 109.205 53.9019 111.437Z" fill="#F7DDBF"/>
<ellipse cx="75.2484" cy="118.142" rx="4.02538" ry="5.67856" transform="rotate(89.9016 75.2484 118.142)" fill="#F7DDBF"/>
<g filter="url(#filter4_i)">
<path d="M12.9707 143.78C-5.36928 125.772 -2.58602 93.8419 10.9074 78.667C30.1333 57.0452 50.3681 49.242 79.3854 52.7167C128.449 58.5917 154.388 84.9167 149.39 109.705C146.547 123.805 118.78 107.645 90.424 127.33C55.5421 151.544 24.6075 155.206 12.9707 143.78Z" fill="#D8E5EF"/>
</g>
<mask id="mask0" mask-type="alpha" maskUnits="userSpaceOnUse" x="0" y="51" width="151" height="99">
<path d="M12.9708 143.78C-5.36915 125.772 -2.58589 93.8419 10.9075 78.667C30.1334 57.0452 50.3682 49.242 79.3856 52.7167C128.449 58.5917 154.388 84.9167 149.39 109.705C146.547 123.805 118.781 107.645 90.4241 127.33C55.5423 151.544 24.6077 155.206 12.9708 143.78Z" fill="#3A9FEC"/>
</mask>
<g mask="url(#mask0)">
<g filter="url(#filter5_d)">
<path d="M42.4949 35.4579C44.933 26.7904 38.8779 19.5195 45.2714 13.1795C55.6642 2.87355 92.1325 5.01849 84.7319 16.1811C68.6123 40.4951 91.0649 49.0957 84.7319 62.7175C79.3555 74.2818 37.0597 75.053 35.0535 56.6979C34.0215 47.2554 39.9227 44.6018 42.4949 35.4579Z" fill="#AF9F68"/>
<path d="M129.87 31.7868C131.207 31.9016 132.072 32.3868 132.867 33.4679C133.595 34.4592 133.361 35.3239 133.632 36.5237C133.936 37.8642 134.478 38.6093 134.322 39.9748C134.125 41.7028 132.391 42.1374 132.143 43.8588C131.946 45.2262 133.021 46.025 132.66 47.3586C132.439 48.174 132.145 48.5981 131.601 49.2451C130.858 50.1303 130.336 51.05 129.184 50.9529C127.811 50.8371 127.507 49.3974 127.157 48.0647C126.897 47.075 127.881 46.1788 127.168 45.4446C126.472 44.727 125.518 45.7413 124.61 45.3226C122.495 44.3474 124.759 41.6251 124.153 39.376C123.711 37.7347 121.808 36.9324 122.465 35.3645C122.954 34.1959 123.999 34.0923 125.117 33.4971C125.775 33.147 126.169 32.9976 126.863 32.7258C128.009 32.2772 128.645 31.6816 129.87 31.7868Z" fill="#3A9FEC"/>
<path d="M92.7551 67.2924C103.424 68.839 116.632 72.3869 114.62 77.6263C113.391 80.8277 97.7349 79.9204 88.9733 76.6234C76.4035 71.8934 66.9554 63.2334 72.1919 62.4282C75.0472 61.9891 81.318 65.6344 92.7551 67.2924Z" fill="#F7DDBF"/>
<path d="M120.933 62.7388C118.361 73.8421 114.729 79.8544 111.742 78.9531C109.526 78.2841 107.276 77.3616 113.271 59.2264C115.752 51.7242 119.635 44.5785 118.954 41.9201C118.214 39.034 121.902 39.0259 123.05 39.7271C124.213 40.4379 125.566 41.7059 124.257 42.8325C122.549 44.3022 123.591 51.2612 120.933 62.7388Z" fill="#F7DDBF"/>
<path d="M56.2308 62.6878C56.2404 59.8247 56.8974 55.1029 55.3781 53.7974C58.2672 55.2153 66.5067 56.9739 68.2597 57.6739C67.8223 58.6328 67.9821 59.9701 68.3942 61.1896C66.372 62.097 58.3213 62.841 56.2308 62.6878Z" fill="#DFC5A7"/>
<path d="M84.0307 93.7783C83.84 111.533 82.589 145.088 65.434 143.534C51.1378 142.238 45.1703 110.38 45.599 94.955C46.2309 72.225 48.3755 66.2558 56.2995 62.1666C59.6704 62.4229 64.3388 62.1666 68.3974 61.0506C77.8475 62.8864 84.2826 70.3221 84.0307 93.7783Z" fill="#DFC5A7"/>
<path d="M86.541 94.6802C86.3503 112.435 83.5186 131.213 66.3636 129.659C52.0674 128.363 45.8594 107.969 46.2882 92.5439C46.8487 72.3819 48.1308 65.5552 56.2874 62.1529C58.2067 63.4551 60.4628 64.321 63.3568 64.321C65.6809 64.321 67.8102 63.0312 68.4013 61.0621C79.8742 67.0937 86.7929 71.2239 86.541 94.6802Z" fill="white"/>
<path d="M87.0648 76.6762L79.2549 63.3066C83.6411 64.3964 89.7227 65.8315 95.397 67.4231C98.3219 71.452 99.0627 77.7747 97.9559 79.3724C93.1913 78.8444 89.7406 77.6954 87.0648 76.6762Z" fill="white"/>
<g style="mix-blend-mode:multiply" opacity="0.7" filter="url(#filter6_f)">
<path d="M90.2838 77.7973C89.3463 77.5404 88.6169 77.1694 87.641 77.0682C86.8648 73.7795 85.1087 70.5571 84.6918 69.2891C86.513 70.4575 89.3376 74.8105 90.2838 77.7973Z" fill="#71AEDC"/>
</g>
<path d="M89.7702 88.0471C89.5299 81.2044 89.3629 78.6955 87.6574 74.6523C85.9252 70.5457 82.0799 64.0225 80.0453 63.4988C78.0107 62.975 74.3443 61.7793 68.4052 61.0552C67.6531 67.6968 70.8008 68.9957 69.1671 77.8952C62.2351 72.1199 58.8945 67.6275 55.904 62.3335C51.9886 63.6926 51.5503 62.9377 48.2745 65.431C43.9836 68.6969 41.7046 75.6042 40.5161 81.5494C39.4835 86.7143 40.0192 85.3359 40.5162 91.4911C40.9388 96.7245 43.1517 99.8636 44.5363 104.673C46.013 109.803 47.4771 116.137 48.2745 124.457C49.2125 134.246 48.2745 137.753 47.4729 150.057L93.2069 148.885C93.2069 148.885 89.2129 128.459 89.2129 117.677C89.2129 102.662 90.0106 94.8897 89.7702 88.0471Z" fill="white"/>
<g style="mix-blend-mode:multiply" opacity="0.4" filter="url(#filter7_f)">
<path d="M54.4541 75.8862C51.07 88.2652 48.7665 94.3854 44.0344 102.96L42.6985 100.11L54.4541 75.8862Z" fill="#71AEDC"/>
</g>
<path d="M84.8708 31.1153C85.2791 44.5896 77.4843 58.2751 65.5342 57.7601C53.5841 57.2451 46.1388 44.5883 44.6025 31.1973C43.0662 17.8063 53.584 7.80187 65.5341 8.31687C77.4842 8.83186 84.3995 15.562 84.8708 31.1153Z" fill="#F7DDBF"/>
<path d="M42.7434 34.3343C44.2734 26.4992 38.8987 19.9776 45.0817 13.3891C47.8383 10.4518 62.6456 22.2522 57.2348 22.6008C48.0554 23.1923 44.9682 37.4198 48.1998 44.1408C51.0817 50.1344 30.8953 55.8033 46.0407 68.3921C41.1866 66.651 36.3431 63.6109 35.0926 57.1011C33.2987 47.7622 41.0241 43.1386 42.7434 34.3343Z" fill="#FFE897"/>
<path d="M49.4753 86.836C46.2212 96.3104 37.5251 113.73 34.4607 112.772C28.9365 111.046 34.5932 95.701 38.2682 82.4989C42.0357 68.9644 48.4728 63.8889 52.2068 64.6416C55.2322 65.2516 53.4618 75.229 49.4753 86.836Z" fill="#F7DDBF"/>
<path d="M53.1604 63.997C56.0577 63.8678 56.0382 70.584 55.0613 74.8283C54.0431 79.2523 50.6675 88.2151 48.2713 93.3492C42.847 93.6262 38.4534 90.915 35.8393 87.2601C38.935 76.2576 44.8819 64.3661 53.1604 63.997Z" fill="white"/>
<g filter="url(#filter8_d)">
<path d="M58.4362 79.9428C57.6103 73.0962 56.2166 69.3655 52.7998 63.2077C53.7744 62.9961 54.3363 62.8564 55.3002 62.5511C57.5366 66.1746 59.1842 68.6612 60.8079 74.374C68.2511 75.1037 76.4537 74.5418 82.4432 73.3041C79.7069 68.767 75.2396 64.7997 71.6582 61.6191L71.534 61.5088C72.6909 61.6988 73.3537 61.8046 74.4817 62.0596C83.3647 68.2489 88.7274 74.716 89.6897 81.8198C91.2845 94.5329 88.6979 107.725 89.6897 121.158C90.6573 134.262 94.5714 150.021 94.5714 150.021H58.4362C58.4362 150.021 57.145 101.503 57.5077 95.4478C57.8703 89.3927 59.1627 85.965 58.4362 79.9428Z" fill="#3A9FEC"/>
</g>
<g style="mix-blend-mode:multiply" opacity="0.6" filter="url(#filter9_f)">
<path d="M69.5705 103.491C66.8568 103.941 48.1368 107.166 44.2893 106.975C45.8783 112.059 46.09 115.29 46.09 115.29C53.4875 114.914 69.0223 109.093 72.7689 105.793C74.2084 106.727 76.5096 106.301 77.5638 106.017C79.2992 105.55 83.0477 103.325 81.702 101.106C80.3416 98.8634 76.5529 99.1396 74.2009 100.301C72.8071 100.989 71.9966 101.919 71.1671 103.194C70.6342 103.481 70.2746 103.644 69.8255 103.757C69.7359 103.682 69.6919 103.527 69.5705 103.491Z" fill="#71AEDC"/>
</g>
<g filter="url(#filter10_d)">
<path d="M78.1576 124.26C74.0385 124.429 71.4828 124.296 67.8644 122.649C67.4409 122.456 67.2193 121.987 67.3287 121.535C69.2542 113.572 71.6364 108.56 74.5325 104.77C76.3801 102.353 74.9052 97.1679 74.9052 97.1679C74.0682 97.0796 75.1054 97.0715 75.2055 97.1052C75.5067 97.2067 74.6579 96.8724 74.7075 96.5585L74.9318 95.1406C74.9731 94.8797 75.2103 94.6959 75.4733 94.721L86.0246 95.7304C86.1272 95.7402 86.2056 95.8264 86.2056 95.9295V97.3482C86.2056 97.4586 86.116 97.5482 86.0056 97.5482H82.6175C82.5384 97.5482 82.4661 97.5959 82.4348 97.6685C81.7012 99.3678 81.763 100.255 82.0694 101.246C82.1046 101.36 81.9448 101.438 81.8824 101.337C81.2767 100.356 80.9373 99.4784 81.3265 97.5482H80.3575C80.3575 97.5482 79.0186 101.749 79.4463 104.439C80.4753 110.909 80.1506 117.955 79.084 123.469C78.9975 123.916 78.6125 124.241 78.1576 124.26Z" fill="#F6FBFF"/>
</g>
<path d="M70.4445 119.124C70.2363 118.53 72.2973 111.601 73.3165 111.226C74.5371 110.777 77.66 111.37 77.9113 111.962C78.2675 112.801 77.6242 119.59 77.1036 120.183C76.5831 120.775 70.756 120.012 70.4445 119.124Z" fill="#3A9FEC"/>
<path d="M73.5487 113.458L76.3606 113.826M72.9837 115.259L76.1898 115.758M72.3926 117.19L76.019 117.834" stroke="white" stroke-width="0.5" stroke-linecap="round" stroke-linejoin="round"/>
<path d="M81.3266 97.5482H80.3576C80.3576 97.5482 79.8811 99.0433 79.5874 100.821H75.4568C75.3966 98.8951 74.9053 97.1679 74.9053 97.1679C74.4587 97.1208 74.3838 97.0965 74.3748 97.0892C74.3656 97.0946 74.313 97.1086 74.0744 97.1285C73.7577 97.1549 73.5041 96.8724 73.5537 96.5585L73.5741 96.4299C73.7323 95.4294 74.6161 94.7033 75.6278 94.7522C79.7916 94.9536 81.0928 95.2092 86.0234 95.7286C86.1252 95.7393 86.2056 95.8255 86.2056 95.9279V97.3482C86.2056 97.4586 86.1161 97.5482 86.0056 97.5482H82.6176C82.5385 97.5482 82.4662 97.5959 82.4349 97.6685C81.7012 99.3678 81.7631 100.255 82.0695 101.246C82.1046 101.36 81.9449 101.438 81.8824 101.337C81.2767 100.356 80.9374 99.4784 81.3266 97.5482Z" fill="#AFD0E9"/>
<path d="M82.0745 97.5481H81.254C79.9581 97.4093 79.518 97.3372 76.6373 97.1678C75.7792 97.0609 75.1304 97.0715 74.0645 97.1316C73.7501 97.1494 73.4962 96.8773 73.5381 96.5651L73.564 96.3712C73.6948 95.3953 74.517 94.6554 75.5017 94.6558C79.0467 94.657 81.6919 94.9609 86.0387 95.7184C86.1344 95.7351 86.2058 95.8185 86.2058 95.9156V97.3481C86.2058 97.4585 86.1162 97.5481 86.0058 97.5481H83.0575H82.0745Z" fill="#1E5B8A"/>
<path d="M52.9631 103.658C60.3705 102.756 67.5627 101.722 70.5942 99.9355C72.5031 98.8104 76.604 99.4289 76.4941 101.147C76.3841 102.865 73.9703 104.533 72.8537 105.058C60.4407 110.893 61.8491 109.965 54.5575 112.135C43.4176 115.45 34.0657 114.385 32.87 111.176C32.3038 109.656 32.887 105.052 36.859 105.223C39.315 105.329 45.5187 104.566 52.9631 103.658Z" fill="#F7DDBF"/>
<ellipse cx="76.367" cy="100.739" rx="4.02538" ry="5.67856" transform="rotate(79.5645 76.367 100.739)" fill="#F9DE4D"/>
<path d="M72.1965 98.4083L72.2036 98.4014L74.68 104.767C73.3308 104.37 72.7753 105.751 64.0128 109.45C62.342 106.585 61.9931 105.108 61.6317 102.148C70.4253 100.135 70.9319 99.6413 72.1965 98.4083Z" fill="#F9DE4D"/>
</g>
</g>
</g>
<defs>
<filter id="filter0_f" x="81.6917" y="66.2891" width="11.592" height="14.5083" filterUnits="userSpaceOnUse" color-interpolation-filters="sRGB">
<feFlood flood-opacity="0" result="BackgroundImageFix"/>
<feBlend mode="normal" in="SourceGraphic" in2="BackgroundImageFix" result="shape"/>
<feGaussianBlur stdDeviation="1.5" result="effect1_foregroundBlur"/>
</filter>
<filter id="filter1_f" x="39.6984" y="72.8862" width="17.7556" height="33.0734" filterUnits="userSpaceOnUse" color-interpolation-filters="sRGB">
<feFlood flood-opacity="0" result="BackgroundImageFix"/>
<feBlend mode="normal" in="SourceGraphic" in2="BackgroundImageFix" result="shape"/>
<feGaussianBlur stdDeviation="1.5" result="effect1_foregroundBlur"/>
</filter>
<filter id="filter2_d" x="50.2997" y="60.0088" width="41.4233" height="82.4595" filterUnits="userSpaceOnUse" color-interpolation-filters="sRGB">
<feFlood flood-opacity="0" result="BackgroundImageFix"/>
<feColorMatrix in="SourceAlpha" type="matrix" values="0 0 0 0 0 0 0 0 0 0 0 0 0 0 0 0 0 0 127 0"/>
<feOffset dx="-0.5" dy="0.5"/>
<feGaussianBlur stdDeviation="1"/>
<feColorMatrix type="matrix" values="0 0 0 0 0.678431 0 0 0 0 0.807843 0 0 0 0 0.909804 0 0 0 0.6 0"/>
<feBlend mode="normal" in2="BackgroundImageFix" result="effect1_dropShadow"/>
<feBlend mode="normal" in="SourceGraphic" in2="effect1_dropShadow" result="shape"/>
</filter>
<filter id="filter3_f" x="42.1266" y="106.834" width="42.4147" height="20.6923" filterUnits="userSpaceOnUse" color-interpolation-filters="sRGB">
<feFlood flood-opacity="0" result="BackgroundImageFix"/>
<feBlend mode="normal" in="SourceGraphic" in2="BackgroundImageFix" result="shape"/>
<feGaussianBlur stdDeviation="2" result="effect1_foregroundBlur"/>
</filter>
<filter id="filter4_i" x="0" y="51.9229" width="150" height="103.077" filterUnits="userSpaceOnUse" color-interpolation-filters="sRGB">
<feFlood flood-opacity="0" result="BackgroundImageFix"/>
<feBlend mode="normal" in="SourceGraphic" in2="BackgroundImageFix" result="shape"/>
<feColorMatrix in="SourceAlpha" type="matrix" values="0 0 0 0 0 0 0 0 0 0 0 0 0 0 0 0 0 0 127 0" result="hardAlpha"/>
<feOffset dy="5"/>
<feGaussianBlur stdDeviation="5"/>
<feComposite in2="hardAlpha" operator="arithmetic" k2="-1" k3="1"/>
<feColorMatrix type="matrix" values="0 0 0 0 0 0 0 0 0 0 0 0 0 0 0 0 0 0 0.1 0"/>
<feBlend mode="normal" in2="shape" result="effect1_innerShadow"/>
</filter>
<filter id="filter5_d" x="19.3362" y="-2.4873" width="129.624" height="167.544" filterUnits="userSpaceOnUse" color-interpolation-filters="sRGB">
<feFlood flood-opacity="0" result="BackgroundImageFix"/>
<feColorMatrix in="SourceAlpha" type="matrix" values="0 0 0 0 0 0 0 0 0 0 0 0 0 0 0 0 0 0 127 0"/>
<feOffset dy="5"/>
<feGaussianBlur stdDeviation="5"/>
<feColorMatrix type="matrix" values="0 0 0 0 0 0 0 0 0 0 0 0 0 0 0 0 0 0 0.2 0"/>
<feBlend mode="normal" in2="BackgroundImageFix" result="effect1_dropShadow"/>
<feBlend mode="normal" in="SourceGraphic" in2="effect1_dropShadow" result="shape"/>
</filter>
<filter id="filter6_f" x="81.6918" y="66.2891" width="11.592" height="14.5083" filterUnits="userSpaceOnUse" color-interpolation-filters="sRGB">
<feFlood flood-opacity="0" result="BackgroundImageFix"/>
<feBlend mode="normal" in="SourceGraphic" in2="BackgroundImageFix" result="shape"/>
<feGaussianBlur stdDeviation="1.5" result="effect1_foregroundBlur"/>
</filter>
<filter id="filter7_f" x="39.6985" y="72.8862" width="17.7556" height="33.0734" filterUnits="userSpaceOnUse" color-interpolation-filters="sRGB">
<feFlood flood-opacity="0" result="BackgroundImageFix"/>
<feBlend mode="normal" in="SourceGraphic" in2="BackgroundImageFix" result="shape"/>
<feGaussianBlur stdDeviation="1.5" result="effect1_foregroundBlur"/>
</filter>
<filter id="filter8_d" x="50.2998" y="60.0088" width="45.7716" height="92.5127" filterUnits="userSpaceOnUse" color-interpolation-filters="sRGB">
<feFlood flood-opacity="0" result="BackgroundImageFix"/>
<feColorMatrix in="SourceAlpha" type="matrix" values="0 0 0 0 0 0 0 0 0 0 0 0 0 0 0 0 0 0 127 0"/>
<feOffset dx="-0.5" dy="0.5"/>
<feGaussianBlur stdDeviation="1"/>
<feColorMatrix type="matrix" values="0 0 0 0 0.678431 0 0 0 0 0.807843 0 0 0 0 0.909804 0 0 0 0.6 0"/>
<feBlend mode="normal" in2="BackgroundImageFix" result="effect1_dropShadow"/>
<feBlend mode="normal" in="SourceGraphic" in2="effect1_dropShadow" result="shape"/>
</filter>
<filter id="filter9_f" x="38.1484" y="86.5039" width="48.3946" height="41.6014" filterUnits="userSpaceOnUse" color-interpolation-filters="sRGB">
<feFlood flood-opacity="0" result="BackgroundImageFix"/>
<feBlend mode="normal" in="SourceGraphic" in2="BackgroundImageFix" result="shape"/>
<feGaussianBlur stdDeviation="2" result="effect1_foregroundBlur"/>
</filter>
<filter id="filter10_d" x="65.301" y="94.7188" width="22.9046" height="33.5963" filterUnits="userSpaceOnUse" color-interpolation-filters="sRGB">
<feFlood flood-opacity="0" result="BackgroundImageFix"/>
<feColorMatrix in="SourceAlpha" type="matrix" values="0 0 0 0 0 0 0 0 0 0 0 0 0 0 0 0 0 0 127 0"/>
<feOffset dy="2"/>
<feGaussianBlur stdDeviation="1"/>
<feColorMatrix type="matrix" values="0 0 0 0 0.0623558 0 0 0 0 0.298162 0 0 0 0 0.475983 0 0 0 0.15 0"/>
<feBlend mode="normal" in2="BackgroundImageFix" result="effect1_dropShadow"/>
<feBlend mode="normal" in="SourceGraphic" in2="effect1_dropShadow" result="shape"/>
</filter>
<clipPath id="clip0">
<rect width="150" height="150" fill="white"/>
</clipPath>
</defs>
</svg>
