<svg width="200" height="150" viewBox="0 0 200 150" fill="none" xmlns="http://www.w3.org/2000/svg">
<path d="M183.011 35.1772C180.573 26.5096 186.628 19.2387 180.235 12.8987C169.842 2.59278 133.374 4.73772 140.774 15.9003C156.894 40.2144 134.441 48.8149 140.774 62.4367C146.151 74.001 188.446 74.7723 190.453 56.4172C191.485 46.9746 185.583 44.3211 183.011 35.1772Z" fill="#5E4635"/>
<path d="M133.268 81.0332C128.108 89.6199 120.367 107.484 123.072 109.214C127.947 112.333 136.056 98.1298 143.798 86.8227C151.736 75.2309 151.48 67.0374 148.502 64.6631C146.088 62.7394 139.589 70.5138 133.268 81.0332Z" fill="#F7DDBF"/>
<path d="M109.314 107.017C102.37 109.751 95.554 112.267 92.0374 112.14C89.8231 112.06 86.5117 114.556 87.4265 116.015C88.3413 117.473 91.2585 117.791 92.4903 117.72C106.184 116.939 104.503 116.794 111.949 115.229C123.323 112.84 131.039 107.449 130.562 104.058C130.336 102.452 127.631 98.6812 124.22 100.723C122.11 101.986 116.292 104.269 109.314 107.017Z" fill="#F7DDBF"/>
<ellipse rx="4.02538" ry="5.67856" transform="matrix(-0.0907251 0.995876 0.995876 0.0907252 88.1642 114.883)" fill="#F7DDBF"/>
<path d="M169.275 62.4071C169.266 59.544 168.609 54.8222 170.128 53.5166C167.239 54.9345 158.999 56.6931 157.246 57.3932C157.684 58.352 157.524 59.6893 157.112 60.9089C159.134 61.8162 167.185 62.5602 169.275 62.4071Z" fill="#DFC5A7"/>
<path d="M141.475 93.4976C141.666 111.252 142.25 140.217 159.405 138.662C173.701 137.367 180.336 110.099 179.907 94.6742C179.275 71.9443 177.131 65.9751 169.207 61.8858C165.836 62.1421 161.167 61.8858 157.109 60.7698C147.659 62.6057 141.224 70.0414 141.475 93.4976Z" fill="#DFC5A7"/>
<path d="M94.2578 118.02C111.118 116.679 121.113 114.076 128.449 108.519C130.831 106.714 137.367 96.8437 142.99 88.5818C149.422 79.1334 153.425 70.0935 148.382 63.5182C146.616 61.2171 141.487 65.553 138.867 69.0315C132.033 78.1013 125.153 96.8088 123.827 100.6C119.535 103.094 102.619 109.572 94.1283 111.648C93.6633 114.182 93.7869 115.488 94.2578 118.02Z" fill="#3A9FEC"/>
<path d="M138.965 94.3993C139.156 112.154 142.677 140.359 159.832 138.805C174.128 137.509 181.597 109.824 181.168 94.3993C180.608 74.2373 177.375 65.2743 169.219 61.8721C167.299 63.1742 165.043 64.0401 162.149 64.0401C159.825 64.0401 157.696 62.7503 157.105 60.7812C145.632 66.8128 138.713 70.943 138.965 94.3993Z" fill="#3A9FEC"/>
<g filter="url(#filter0_f)">
<path d="M133.978 101.223C135.105 99.8146 135.809 98.8639 136.795 97.9484C137.571 85.6955 137.712 77.8906 140.034 69.9556C133.731 79.9203 133.591 89.6034 133.978 101.223Z" fill="#2581C7"/>
</g>
<path d="M135.027 87.3091C135.267 80.4665 135.866 78.1192 137.572 74.076C139.304 69.9694 143.426 63.7417 145.461 63.218C147.495 62.6942 151.162 61.4985 157.101 60.7744C157.853 67.4161 154.705 68.7149 156.339 77.6145C163.271 71.8391 166.611 67.3467 169.602 62.0527C173.517 63.4118 173.956 62.657 177.232 65.1503C181.522 68.4161 183.801 75.3234 184.99 81.2686C186.022 86.4335 185.487 85.0552 184.99 91.2104C184.567 96.4437 183.286 100.684 181.902 105.494C180.425 110.623 178.83 116.4 178.033 124.721C177.095 134.509 176.43 128.07 177.232 140.373L135.027 133.672C135.027 133.672 137.063 130.157 137.063 119.374C137.063 104.36 134.786 94.1518 135.027 87.3091Z" fill="#3A9FEC"/>
<g filter="url(#filter1_f)">
<path d="M172.968 82.333C176.093 92.2238 177.56 96.4116 181.995 105.161L182.974 101.825L172.968 82.333Z" fill="#2581C7"/>
</g>
<g filter="url(#filter2_f)">
<path d="M180.728 109.68C180.02 112.276 178.316 122.319 177.87 125.439C174.063 126.796 167.966 130.56 163.762 131.147C162.585 130.734 160.617 131.79 160.617 131.79C160.617 131.79 158.951 134.011 156.593 134.89C154.529 135.66 150.043 135.014 149.844 132.072C149.642 129.099 151.699 127.134 154.323 126.75C155.879 126.523 157.896 126.887 159.332 127.569C160.161 127.481 176.402 114.295 180.728 109.68Z" fill="#2581C7"/>
</g>
<path d="M140.635 30.8345C140.227 44.3088 148.022 57.9943 159.972 57.4793C171.922 56.9643 179.367 44.3076 180.904 30.9166C182.44 17.5255 171.922 7.52111 159.972 8.03611C148.022 8.5511 141.107 15.2813 140.635 30.8345Z" fill="#F7DDBF"/>
<path d="M137.862 12.9542C137.861 22.3295 147.209 22.895 163.574 22.3296C179.938 21.7642 182.892 26.5838 183.331 20.1344C183.77 13.685 176.03 6.47104 163.574 3.23088C151.118 -0.00927541 137.862 5.00301 137.862 12.9542Z" fill="#775943"/>
<path d="M182.763 34.0535C181.233 26.2185 186.608 19.6969 180.425 13.1084C177.668 10.171 162.861 21.9715 168.272 22.3201C177.451 22.9115 180.538 37.1391 177.307 43.8601C174.425 49.8536 194.611 55.5225 179.466 68.1114C184.32 66.3702 189.163 63.3301 190.414 56.8203C192.208 47.4815 184.482 42.8578 182.763 34.0535Z" fill="#775943"/>
<path d="M150.173 42.7795C154.125 44.5335 158.352 44.7866 162.68 44.8091C160.93 47.3776 157.944 48.4641 154.682 47.8118C152.079 47.2913 150.813 45.2093 150.173 42.7795Z" fill="white"/>
<ellipse rx="1.1438" ry="1.1438" transform="matrix(-1 0 0 1 150.173 31.5999)" fill="#111D25"/>
<ellipse rx="1.1438" ry="1.1438" transform="matrix(-1 0 0 1 163.541 32.9138)" fill="#111D25"/>
<ellipse rx="2.86186" ry="2.99737" transform="matrix(-1 0 0 1 179.426 35.9109)" fill="#F7DDBF"/>
<path d="M176.031 86.5553C179.285 96.0297 187.981 113.449 191.045 112.492C196.57 110.766 190.913 95.4203 187.238 82.2182C183.47 68.6837 177.033 63.6081 173.299 64.3609C170.274 64.9708 172.044 74.9483 176.031 86.5553Z" fill="#F7DDBF"/>
<path d="M173.188 116.123C167.288 120.692 161.449 125.017 158.038 125.879C155.889 126.423 153.41 129.747 154.696 130.891C155.983 132.034 158.873 131.522 160.035 131.11C172.962 126.525 171.308 126.856 178.017 123.269C188.267 117.789 194.165 110.453 192.757 107.331C192.09 105.852 188.437 102.99 185.734 105.906C184.063 107.709 179.117 111.53 173.188 116.123Z" fill="#F7DDBF"/>
<ellipse rx="4.02538" ry="5.67856" transform="matrix(0.191837 0.981427 0.981427 -0.191837 155.088 129.598)" fill="#F7DDBF"/>
<path d="M163.152 130.363C174.501 126.284 193.507 117.119 193.972 107.927C194.123 104.943 190.772 93.5891 188.065 83.9684C184.969 72.966 180.624 64.0854 172.346 63.7162C169.448 63.587 169.468 70.3032 170.445 74.5476C172.992 85.6142 181.341 102.953 183.39 106.408C178.512 110.295 167.284 121.095 159.754 124.979C160.459 127.496 161.122 128.818 163.152 130.363Z" fill="#3A9FEC"/>
<path d="M67.1445 74.9598C75.4022 81.8905 86.0646 88.5402 80.7291 93.0749C78.1488 95.2679 65.9668 88.7606 59.6414 81.8595C50.5667 71.9588 47.0111 66.2102 51.0446 62.8359C53.2604 60.9823 58.5216 67.7227 67.1445 74.9598Z" fill="#F7DDBF"/>
<path d="M95.47 88.9796C86.0511 93.6175 76.7442 95.2444 76.4991 91.6233C76.1826 86.9468 83.8053 83.2339 93.0908 79.942C99.7986 77.5641 107.511 76.9978 108.973 74.8516C110.561 72.5215 112.821 75.4616 113.027 76.8012C113.236 78.1588 113.167 80.0038 111.57 79.637C109.487 79.1586 105.206 84.1853 95.47 88.9796Z" fill="#F7DDBF"/>
<mask id="mask0" mask-type="alpha" maskUnits="userSpaceOnUse" x="76" y="73" width="38" height="21">
<path d="M95.4699 88.9796C86.051 93.6175 76.7441 95.2444 76.499 91.6233C76.1825 86.9468 83.8052 83.2339 93.0907 79.942C99.7984 77.5641 107.511 76.9978 108.973 74.8516C110.561 72.5215 112.82 75.4616 113.027 76.8012C113.236 78.1588 113.167 80.0038 111.57 79.637C109.487 79.1586 105.206 84.1853 95.4699 88.9796Z" fill="#F7DDBF"/>
</mask>
<g mask="url(#mask0)">
<g filter="url(#filter3_d)">
<path d="M114.278 79.6368C112.53 80.668 110.192 79.9427 109.056 78.0169C107.92 76.0912 108.417 73.6941 110.165 72.6629C112.95 71.0207 114.252 72.3571 115.388 74.2828C116.523 76.2086 117.025 78.0169 114.278 79.6368Z" fill="#F7DDBF"/>
</g>
</g>
<path d="M114.278 79.6368C112.53 80.668 110.192 79.9427 109.056 78.0169C107.92 76.0912 108.417 73.6941 110.166 72.6629C112.95 71.0207 114.252 72.3571 115.388 74.2828C116.524 76.2086 117.025 78.0169 114.278 79.6368Z" fill="#F7DDBF"/>
<path d="M109.834 72.3115C110.323 73.5147 110.302 74.6593 109.787 74.8682C109.273 75.077 108.399 73.9991 108.312 72.9585C108.188 71.4625 107.504 70.7201 108.018 70.5112C108.533 70.3024 109.346 71.1084 109.834 72.3115Z" fill="#F7DDBF"/>
<path d="M31.7248 62.4071C31.7345 59.544 32.3914 54.8222 30.8721 53.5166C33.7613 54.9345 42.0008 56.6931 43.7537 57.3932C43.3164 58.352 43.4762 59.6893 43.8883 60.9089C41.8661 61.8162 33.8153 62.5602 31.7248 62.4071Z" fill="#DFC5A7"/>
<path d="M59.5245 93.4976C59.3338 111.252 58.0828 144.807 40.9279 143.253C26.6316 141.958 20.6641 110.099 21.0929 94.6742C21.7247 71.9443 23.8693 65.9751 31.7933 61.8858C35.1642 62.1421 39.8327 61.8858 43.8912 60.7698C53.3413 62.6057 59.7765 70.0414 59.5245 93.4976Z" fill="#DFC5A7"/>
<path d="M62.0349 94.3993C61.8442 112.154 58.3519 148.612 41.1969 147.058C26.9007 145.762 19.4029 109.824 19.8317 94.3993C20.3922 74.2373 23.6247 65.2743 31.7813 61.8721C33.7006 63.1742 35.9567 64.0401 38.8507 64.0401C41.1748 64.0401 43.3041 62.7503 43.8952 60.7812C55.3682 66.8128 62.2868 70.943 62.0349 94.3993Z" fill="white"/>
<path d="M105.785 76.1822C98.0261 78.5771 88.169 81.2978 80.4333 85.1001C78.4666 82.6089 66.4894 73.2293 59.1449 65.5463C57.1494 63.4588 57.3771 63.5727 53.3866 62.6406C58.8993 72.5293 61.0888 78.9869 63.5818 86.3769C68.6128 90.02 76.7363 94.0785 79.7864 94.0785C87.7629 94.0785 97.8106 88.7897 109.168 81.0347C108.267 78.6117 107.506 77.4747 105.785 76.1822Z" fill="#404A52"/>
<g opacity="0.8" filter="url(#filter4_f)">
<path d="M64.5126 87.0462C63.831 86.7116 62.9976 85.6692 62.2678 85.3058C61.3717 78.2683 59.4281 72.3759 59.0005 69.6665C60.7236 72.2652 63.9742 80.8945 64.5126 87.0462Z" fill="#171A1D"/>
</g>
<path d="M64.345 89.4719C64.1047 82.6292 63.1839 79.1822 61.4785 75.1389C59.7462 71.0323 57.5738 63.7417 55.5392 63.218C53.5046 62.6942 49.8382 61.4985 43.8991 60.7744C43.1471 67.4161 46.2947 68.7149 44.661 77.6145C37.7291 71.8391 34.3884 67.3467 31.3979 62.0527C27.4825 63.4118 27.0443 62.657 23.7684 65.1503C19.4775 68.4161 16.8864 75.128 16.8704 81.1908C16.8478 89.7093 17.8635 96.0433 19.098 105.494C20.1248 113.354 21.6384 118.429 22.4358 126.75C23.3739 136.538 27.0142 125.739 27.0142 138.255L68.4503 146.406C65.1165 133.763 66.9981 128.589 65.9061 117.942C64.3742 103.006 64.5854 96.3145 64.345 89.4719Z" fill="#404A52"/>
<g style="mix-blend-mode:screen">
<path d="M44.2772 76.52C47.312 87.0956 47.0364 96.1907 47.812 113.343C48.5876 130.495 51.9294 129.275 50.9421 143.128" stroke="#20272D" stroke-width="0.75"/>
</g>
<g opacity="0.5" filter="url(#filter5_f)">
<path d="M44.2511 112.148C49.1034 116.297 60.6489 118.538 65.9671 119.139L64.9421 109.698C58.6716 108.424 50.6473 105.722 48.3267 104.034C44.5748 99.6104 42.6623 90.8172 34.1389 77.3307C31.7946 73.6214 27.5978 73.5834 25.6417 73.5835C24.6577 73.5835 19.6977 74.3812 22.8015 82.2775C24.2109 85.8634 38.1858 106.961 44.2511 112.148Z" fill="#171A1D"/>
</g>
<path d="M60.3647 30.8345C60.773 44.3088 52.9782 57.9943 41.0281 57.4793C29.078 56.9643 21.6327 44.3076 20.0964 30.9166C18.5601 17.5255 29.0779 7.52111 41.028 8.03611C52.9781 8.5511 59.8934 15.2813 60.3647 30.8345Z" fill="#F7DDBF"/>
<path d="M21.3803 35.5186C18.884 30.1494 18.3617 25.4158 17.6741 20.3438C17.2171 16.973 39.2421 22.1863 33.8208 22.2779C22.8306 22.4635 22.6428 26.5958 22.6435 34.0537C22.6436 35.5096 22.4313 37.779 21.3803 35.5186Z" fill="#88644A"/>
<path d="M63.1384 12.9542C63.1386 22.3295 53.7907 22.895 37.4262 22.3296C21.0617 21.7642 18.1077 26.5838 17.6687 20.1344C17.2297 13.685 24.9702 6.47104 37.4262 3.23088C49.8822 -0.00927522 63.138 5.00301 63.1384 12.9542Z" fill="#4D2F19"/>
<path d="M50.8271 42.7795C46.8754 44.5335 42.6477 44.7866 38.32 44.8091C40.0704 47.3776 43.0563 48.4641 46.3179 47.8118C48.9208 47.2913 50.1868 45.2093 50.8271 42.7795Z" fill="white"/>
<ellipse cx="50.8273" cy="31.5999" rx="1.1438" ry="1.1438" fill="#111D25"/>
<ellipse cx="37.459" cy="32.9138" rx="1.1438" ry="1.1438" fill="#111D25"/>
<ellipse cx="21.5739" cy="35.9109" rx="2.86186" ry="2.99737" fill="#F7DDBF"/>
<path d="M38.3415 83.6223C43.8951 91.9596 52.4589 109.445 49.8378 111.298C45.1129 114.641 36.3522 100.83 28.0917 89.8955C19.6233 78.6856 19.4976 70.489 22.3624 67.9787C24.6837 65.9448 31.5378 73.4084 38.3415 83.6223Z" fill="#F7DDBF"/>
<g filter="url(#filter6_d)">
<ellipse cx="84.9712" cy="115.337" rx="4.02538" ry="5.67856" transform="rotate(82.1279 84.9712 115.337)" fill="#F7DDBF"/>
</g>
<path d="M63.4787 108.463C70.5417 110.871 77.4678 113.068 80.9747 112.777C83.1829 112.594 86.6069 114.934 85.7609 116.433C84.9149 117.932 82.0157 118.385 80.7819 118.372C67.0667 118.229 68.7387 118.006 61.2288 116.79C49.7555 114.932 41.7969 109.906 42.1157 106.496C42.2667 104.881 44.7938 100.989 48.2961 102.87C50.4618 104.033 56.3804 106.043 63.4787 108.463Z" fill="#F7DDBF"/>
<path d="M79.0301 118.755C62.1261 118.199 52.0206 116.065 44.4338 110.854C41.9707 109.163 34.9826 99.6069 28.9806 91.6156C22.1165 82.4766 17.697 73.6328 22.4291 66.83C24.0852 64.4492 29.4105 68.5417 32.1904 71.8945C39.4385 80.6366 47.4435 98.6257 48.9448 102.351C53.348 104.643 70.2852 110.705 78.863 112.383C79.4454 114.893 79.3827 116.203 79.0301 118.755Z" fill="#404A52"/>
<g filter="url(#filter7_i)">
<path d="M21.8193 138.816C-3.71645 121.674 -9.30487 71.3335 18.3841 67.4226C49.4903 63.0291 67.9257 91.6024 95.2582 79.5495C188.658 38.3627 208.838 85.6454 196.896 120.209C180.631 167.285 136.607 122.89 102.798 138.816C84.0363 147.654 51.5784 158.794 21.8193 138.816Z" fill="#D8E5EF"/>
</g>
<mask id="mask1" mask-type="alpha" maskUnits="userSpaceOnUse" x="0" y="63" width="200" height="87">
<path d="M21.8193 138.816C-3.71645 121.674 -9.30487 71.3335 18.3841 67.4226C49.4903 63.0291 67.9257 91.6024 95.2582 79.5495C188.658 38.3627 208.838 85.6454 196.896 120.209C180.631 167.285 136.607 122.89 102.798 138.816C84.0363 147.654 51.5784 158.794 21.8193 138.816Z" fill="#D8E5EF"/>
</mask>
<g mask="url(#mask1)">
<g filter="url(#filter8_d)">
<path d="M183.011 35.1772C180.573 26.5096 186.628 19.2387 180.235 12.8987C169.842 2.59278 133.374 4.73772 140.774 15.9003C156.894 40.2144 134.441 48.8149 140.774 62.4367C146.151 74.001 188.447 74.7723 190.453 56.4172C191.485 46.9746 185.583 44.3211 183.011 35.1772Z" fill="#5E4635"/>
<path d="M133.268 81.0332C128.108 89.6199 120.367 107.484 123.072 109.214C127.947 112.333 136.056 98.1298 143.799 86.8227C151.736 75.2309 151.481 67.0374 148.502 64.6631C146.089 62.7394 139.589 70.5138 133.268 81.0332Z" fill="#F7DDBF"/>
<path d="M109.314 107.017C102.371 109.751 95.5541 112.267 92.0375 112.14C89.8232 112.06 86.5118 114.556 87.4266 116.015C88.3414 117.473 91.2586 117.791 92.4904 117.72C106.184 116.939 104.504 116.794 111.949 115.229C123.323 112.84 131.039 107.449 130.562 104.058C130.336 102.452 127.631 98.6812 124.22 100.723C122.111 101.986 116.292 104.269 109.314 107.017Z" fill="#F7DDBF"/>
<ellipse rx="4.02538" ry="5.67856" transform="matrix(-0.0907251 0.995876 0.995876 0.0907252 88.1643 114.883)" fill="#F7DDBF"/>
<path d="M141.476 93.4976C141.666 111.252 142.917 144.807 160.072 143.253C174.369 141.958 180.336 110.099 179.907 94.6742C179.275 71.9443 177.131 65.9751 169.207 61.8858C165.836 62.1421 161.167 61.8858 157.109 60.7698C147.659 62.6057 141.224 70.0414 141.476 93.4976Z" fill="#DFC5A7"/>
<path d="M94.2579 118.02C111.118 116.679 121.113 114.076 128.449 108.519C130.831 106.714 137.367 96.8437 142.991 88.5818C149.422 79.1334 153.425 70.0935 148.382 63.5182C146.617 61.2171 141.487 65.553 138.867 69.0315C132.033 78.1013 125.153 96.8088 123.827 100.6C119.535 103.094 102.619 109.572 94.1284 111.648C93.6634 114.182 93.787 115.488 94.2579 118.02Z" fill="#3A9FEC"/>
<path d="M138.965 94.3993C139.156 112.154 142.648 148.612 159.803 147.058C174.099 145.762 181.597 109.824 181.168 94.3993C180.608 74.2373 177.375 65.2743 169.219 61.8721C167.299 63.1742 165.043 64.0401 162.149 64.0401C159.825 64.0401 157.696 62.7503 157.105 60.7812C145.632 66.8128 138.713 70.943 138.965 94.3993Z" fill="#3A9FEC"/>
<g filter="url(#filter9_f)">
<path d="M133.978 101.223C135.105 99.8146 135.809 98.8639 136.795 97.9484C137.571 85.6955 137.712 77.8906 140.034 69.9556C133.732 79.9203 133.591 89.6034 133.978 101.223Z" fill="#2581C7"/>
</g>
<path d="M135.027 87.3091C135.267 80.4665 135.866 78.1192 137.572 74.076C139.304 69.9694 143.426 63.7417 145.461 63.218C147.496 62.6942 151.162 61.4985 157.101 60.7744C157.853 67.4161 154.705 68.7149 156.339 77.6145C163.271 71.8391 166.612 67.3467 169.602 62.0527C173.518 63.4118 173.956 62.657 177.232 65.1503C181.523 68.4161 183.802 75.3234 184.99 81.2686C186.023 86.4335 185.487 85.0552 184.99 91.2104C184.567 96.4438 183.287 100.684 181.902 105.494C180.425 110.623 178.831 116.4 178.033 124.721C177.095 134.509 177.232 137.472 178.033 149.776H130.917C130.917 149.776 137.063 130.157 137.063 119.374C137.063 104.36 134.787 94.1518 135.027 87.3091Z" fill="#3A9FEC"/>
<g filter="url(#filter10_f)">
<path d="M172.968 82.333C176.093 92.2238 177.56 96.4116 181.995 105.161L182.974 101.825L172.968 82.333Z" fill="#2581C7"/>
</g>
<g filter="url(#filter11_f)">
<path d="M180.728 109.68C180.02 112.276 178.316 122.319 177.87 125.439C174.063 126.796 167.966 130.56 163.763 131.147C162.585 130.734 160.617 131.79 160.617 131.79C160.617 131.79 158.952 134.011 156.594 134.89C154.529 135.66 150.043 135.014 149.844 132.072C149.643 129.099 151.699 127.134 154.323 126.75C155.879 126.523 157.896 126.887 159.332 127.569C160.161 127.481 176.402 114.295 180.728 109.68Z" fill="#2581C7"/>
</g>
<path d="M182.763 34.0535C181.233 26.2185 186.608 19.6969 180.425 13.1084C177.668 10.171 162.861 21.9715 168.272 22.3201C177.451 22.9115 180.538 37.1391 177.307 43.8601C174.425 49.8536 194.611 55.5225 179.466 68.1114C184.32 66.3702 189.164 63.3301 190.414 56.8203C192.208 47.4815 184.483 42.8578 182.763 34.0535Z" fill="#775943"/>
<path d="M176.031 86.5553C179.285 96.0297 187.981 113.449 191.045 112.492C196.57 110.766 190.913 95.4203 187.238 82.2182C183.471 68.6837 177.033 63.6081 173.299 64.3609C170.274 64.9708 172.044 74.9483 176.031 86.5553Z" fill="#F7DDBF"/>
<path d="M173.188 116.123C167.288 120.692 161.449 125.017 158.038 125.879C155.889 126.423 153.41 129.747 154.697 130.891C155.983 132.034 158.873 131.522 160.035 131.11C172.962 126.525 171.308 126.856 178.017 123.269C188.267 117.789 194.165 110.453 192.757 107.331C192.09 105.852 188.437 102.99 185.734 105.906C184.063 107.709 179.117 111.53 173.188 116.123Z" fill="#F7DDBF"/>
<ellipse rx="4.02538" ry="5.67856" transform="matrix(0.191837 0.981427 0.981427 -0.191837 155.088 129.598)" fill="#F7DDBF"/>
<path d="M163.152 130.363C174.501 126.284 193.508 117.119 193.973 107.927C194.124 104.943 190.772 93.5891 188.065 83.9684C184.969 72.966 180.624 64.0854 172.346 63.7162C169.448 63.587 169.468 70.3032 170.445 74.5476C172.992 85.6142 181.341 102.953 183.39 106.408C178.512 110.295 167.284 121.095 159.754 124.979C160.459 127.496 161.122 128.818 163.152 130.363Z" fill="#3A9FEC"/>
</g>
<g filter="url(#filter12_d)">
<path d="M67.1445 74.9598C75.4022 81.8905 86.0646 88.5402 80.7291 93.0749C78.1488 95.2679 65.9668 88.7606 59.6414 81.8595C50.5667 71.9588 47.0111 66.2102 51.0446 62.8359C53.2604 60.9823 58.5216 67.7227 67.1445 74.9598Z" fill="#F7DDBF"/>
<path d="M95.47 88.9796C86.0511 93.6175 76.7442 95.2444 76.4991 91.6233C76.1826 86.9468 83.8053 83.2339 93.0908 79.942C99.7986 77.5641 107.511 76.9978 108.973 74.8516C110.561 72.5215 112.821 75.4616 113.027 76.8012C113.236 78.1588 113.167 80.0038 111.57 79.637C109.487 79.1586 105.206 84.1853 95.47 88.9796Z" fill="#F7DDBF"/>
<mask id="mask2" mask-type="alpha" maskUnits="userSpaceOnUse" x="76" y="73" width="38" height="21">
<path d="M95.4699 88.9796C86.051 93.6175 76.7441 95.2444 76.499 91.6233C76.1825 86.9468 83.8052 83.2339 93.0907 79.942C99.7984 77.5641 107.511 76.9978 108.973 74.8516C110.561 72.5215 112.82 75.4616 113.027 76.8012C113.236 78.1588 113.167 80.0038 111.57 79.637C109.487 79.1586 105.206 84.1853 95.4699 88.9796Z" fill="#F7DDBF"/>
</mask>
<g mask="url(#mask2)">
<g filter="url(#filter13_d)">
<path d="M114.278 79.6368C112.53 80.668 110.192 79.9427 109.056 78.0169C107.92 76.0912 108.417 73.6941 110.165 72.6629C112.95 71.0207 114.252 72.3571 115.388 74.2828C116.523 76.2086 117.025 78.0169 114.278 79.6368Z" fill="#F7DDBF"/>
</g>
</g>
<path d="M114.278 79.6368C112.53 80.668 110.192 79.9427 109.056 78.0169C107.92 76.0912 108.417 73.6941 110.166 72.6629C112.95 71.0207 114.252 72.3571 115.388 74.2828C116.524 76.2086 117.025 78.0169 114.278 79.6368Z" fill="#F7DDBF"/>
<path d="M109.834 72.3115C110.323 73.5147 110.302 74.6593 109.787 74.8682C109.273 75.077 108.399 73.9991 108.312 72.9585C108.188 71.4625 107.504 70.7201 108.018 70.5112C108.533 70.3024 109.346 71.1084 109.834 72.3115Z" fill="#F7DDBF"/>
<path d="M59.5245 93.4976C59.3338 111.252 58.0828 144.807 40.9279 143.253C26.6316 141.958 20.6641 110.099 21.0929 94.6742C21.7247 71.9443 23.8693 65.9751 31.7933 61.8858C35.1642 62.1421 39.8327 61.8858 43.8912 60.7698C53.3413 62.6057 59.7765 70.0414 59.5245 93.4976Z" fill="#DFC5A7"/>
<path d="M62.0349 94.3993C61.8442 112.154 58.3519 148.612 41.1969 147.058C26.9007 145.762 19.4029 109.824 19.8317 94.3993C20.3922 74.2373 23.6247 65.2743 31.7813 61.8721C33.7006 63.1742 35.9567 64.0401 38.8507 64.0401C41.1748 64.0401 43.3041 62.7503 43.8952 60.7812C55.3682 66.8128 62.2868 70.943 62.0349 94.3993Z" fill="white"/>
<path d="M105.785 76.1822C98.0261 78.5771 88.169 81.2978 80.4333 85.1001C78.4666 82.6089 66.4894 73.2293 59.1449 65.5463C57.1494 63.4588 57.3771 63.5727 53.3866 62.6406C58.8993 72.5293 61.0888 78.9869 63.5818 86.3769C68.6128 90.02 76.7363 94.0785 79.7864 94.0785C87.7629 94.0785 97.8106 88.7897 109.168 81.0347C108.267 78.6117 107.506 77.4747 105.785 76.1822Z" fill="#404A52"/>
<g opacity="0.8" filter="url(#filter14_f)">
<path d="M64.5126 87.0462C63.831 86.7116 62.9976 85.6692 62.2678 85.3058C61.3717 78.2683 59.4281 72.3759 59.0005 69.6665C60.7236 72.2652 63.9742 80.8945 64.5126 87.0462Z" fill="#171A1D"/>
</g>
<path d="M64.345 89.4719C64.1047 82.6292 63.1839 79.1822 61.4785 75.1389C59.7462 71.0323 57.5738 63.7417 55.5392 63.218C53.5046 62.6942 49.8382 61.4985 43.8991 60.7744C43.1471 67.4161 46.2947 68.7149 44.661 77.6145C37.7291 71.8391 34.3884 67.3467 31.3979 62.0527C27.4825 63.4118 27.0443 62.657 23.7684 65.1503C19.4775 68.4161 16.8864 75.128 16.8704 81.1908C16.8478 89.7093 17.8635 96.0433 19.098 105.494C20.1248 113.354 21.6384 118.429 22.4358 126.75C23.3739 136.538 23.1091 137.758 23.1091 150.274H70.2257C66.8919 137.63 66.9981 128.589 65.9061 117.942C64.3742 103.006 64.5854 96.3145 64.345 89.4719Z" fill="#404A52"/>
<g style="mix-blend-mode:screen">
<path d="M44.2772 76.52C47.312 87.0956 47.0364 96.1907 47.812 113.343C48.5876 130.495 51.9796 135.993 50.9923 149.846" stroke="#20272D" stroke-width="0.75"/>
</g>
<g opacity="0.5" filter="url(#filter15_f)">
<path d="M44.2511 112.148C49.1034 116.297 60.6489 118.538 65.9671 119.139L64.9421 109.698C58.6716 108.424 50.6473 105.722 48.3267 104.034C44.5748 99.6104 42.6623 90.8172 34.1389 77.3307C31.7946 73.6214 27.5978 73.5834 25.6417 73.5835C24.6577 73.5835 19.6977 74.3812 22.8015 82.2775C24.2109 85.8634 38.1858 106.961 44.2511 112.148Z" fill="#171A1D"/>
</g>
<path d="M38.3415 83.6223C43.8951 91.9596 52.4589 109.445 49.8378 111.298C45.1129 114.641 36.3522 100.83 28.0917 89.8955C19.6233 78.6856 19.4976 70.489 22.3624 67.9787C24.6837 65.9448 31.5378 73.4084 38.3415 83.6223Z" fill="#F7DDBF"/>
<g filter="url(#filter16_d)">
<ellipse cx="84.9712" cy="115.337" rx="4.02538" ry="5.67856" transform="rotate(82.1279 84.9712 115.337)" fill="#F7DDBF"/>
</g>
<path d="M63.4787 108.463C70.5417 110.871 77.4678 113.068 80.9747 112.777C83.1829 112.594 86.6069 114.934 85.7609 116.433C84.9149 117.932 82.0157 118.385 80.7819 118.372C67.0667 118.229 68.7387 118.006 61.2288 116.79C49.7555 114.932 41.7969 109.906 42.1157 106.496C42.2667 104.881 44.7938 100.989 48.2961 102.87C50.4618 104.033 56.3804 106.043 63.4787 108.463Z" fill="#F7DDBF"/>
<path d="M79.0301 118.755C62.1261 118.199 52.0206 116.065 44.4338 110.854C41.9707 109.163 34.9826 99.6069 28.9806 91.6156C22.1165 82.4766 17.697 73.6328 22.4291 66.83C24.0852 64.4492 29.4105 68.5417 32.1904 71.8945C39.4385 80.6366 47.4435 98.6257 48.9448 102.351C53.348 104.643 70.2852 110.705 78.863 112.383C79.4454 114.893 79.3827 116.203 79.0301 118.755Z" fill="#404A52"/>
</g>
</g>
<g filter="url(#filter17_d)">
<circle cx="100.912" cy="39.2254" r="10.9993" fill="white"/>
</g>
<path d="M107.837 35.1667C104.549 38.2319 102.435 40.5215 99.3572 45.2106C99.1742 45.4894 98.7741 45.5173 98.5509 45.2694C97.1388 43.701 95.8436 42.6032 94.3315 41.7274C93.7784 41.4071 93.605 40.6701 93.9998 40.1674L94.3205 39.7591C94.5898 39.4163 95.0542 39.2806 95.4432 39.4774C96.578 40.0516 97.4766 40.9148 98.5341 42.0582C98.7628 42.3055 99.1667 42.2633 99.3404 41.9747C101.694 38.0645 103.462 35.9752 106.134 33.3677C106.526 32.9852 107.154 32.9955 107.537 33.3869L107.872 33.7289C108.267 34.1321 108.249 34.7818 107.837 35.1667Z" fill="#3A9FEC"/>
<defs>
<filter id="filter0_f" x="129.853" y="65.9556" width="14.1813" height="39.2675" filterUnits="userSpaceOnUse" color-interpolation-filters="sRGB">
<feFlood flood-opacity="0" result="BackgroundImageFix"/>
<feBlend mode="normal" in="SourceGraphic" in2="BackgroundImageFix" result="shape"/>
<feGaussianBlur stdDeviation="2" result="effect1_foregroundBlur"/>
</filter>
<filter id="filter1_f" x="168.968" y="78.333" width="18.0066" height="30.8284" filterUnits="userSpaceOnUse" color-interpolation-filters="sRGB">
<feFlood flood-opacity="0" result="BackgroundImageFix"/>
<feBlend mode="normal" in="SourceGraphic" in2="BackgroundImageFix" result="shape"/>
<feGaussianBlur stdDeviation="2" result="effect1_foregroundBlur"/>
</filter>
<filter id="filter2_f" x="145.83" y="105.68" width="38.8983" height="33.5083" filterUnits="userSpaceOnUse" color-interpolation-filters="sRGB">
<feFlood flood-opacity="0" result="BackgroundImageFix"/>
<feBlend mode="normal" in="SourceGraphic" in2="BackgroundImageFix" result="shape"/>
<feGaussianBlur stdDeviation="2" result="effect1_foregroundBlur"/>
</filter>
<filter id="filter3_d" x="103.446" y="66.9229" width="17.8517" height="18.183" filterUnits="userSpaceOnUse" color-interpolation-filters="sRGB">
<feFlood flood-opacity="0" result="BackgroundImageFix"/>
<feColorMatrix in="SourceAlpha" type="matrix" values="0 0 0 0 0 0 0 0 0 0 0 0 0 0 0 0 0 0 127 0"/>
<feOffset/>
<feGaussianBlur stdDeviation="2.5"/>
<feColorMatrix type="matrix" values="0 0 0 0 0 0 0 0 0 0 0 0 0 0 0 0 0 0 0.1 0"/>
<feBlend mode="normal" in2="BackgroundImageFix" result="effect1_dropShadow"/>
<feBlend mode="normal" in="SourceGraphic" in2="effect1_dropShadow" result="shape"/>
</filter>
<filter id="filter4_f" x="55.0005" y="65.6665" width="13.5121" height="25.3797" filterUnits="userSpaceOnUse" color-interpolation-filters="sRGB">
<feFlood flood-opacity="0" result="BackgroundImageFix"/>
<feBlend mode="normal" in="SourceGraphic" in2="BackgroundImageFix" result="shape"/>
<feGaussianBlur stdDeviation="2" result="effect1_foregroundBlur"/>
</filter>
<filter id="filter5_f" x="17.793" y="69.5835" width="52.1741" height="53.5554" filterUnits="userSpaceOnUse" color-interpolation-filters="sRGB">
<feFlood flood-opacity="0" result="BackgroundImageFix"/>
<feBlend mode="normal" in="SourceGraphic" in2="BackgroundImageFix" result="shape"/>
<feGaussianBlur stdDeviation="2" result="effect1_foregroundBlur"/>
</filter>
<filter id="filter6_d" x="77.2949" y="109.072" width="16.3527" height="13.5304" filterUnits="userSpaceOnUse" color-interpolation-filters="sRGB">
<feFlood flood-opacity="0" result="BackgroundImageFix"/>
<feColorMatrix in="SourceAlpha" type="matrix" values="0 0 0 0 0 0 0 0 0 0 0 0 0 0 0 0 0 0 127 0"/>
<feOffset dx="0.5" dy="0.5"/>
<feGaussianBlur stdDeviation="1"/>
<feColorMatrix type="matrix" values="0 0 0 0 0 0 0 0 0 0 0 0 0 0 0 0 0 0 0.1 0"/>
<feBlend mode="normal" in2="BackgroundImageFix" result="effect1_dropShadow"/>
<feBlend mode="normal" in="SourceGraphic" in2="effect1_dropShadow" result="shape"/>
</filter>
<filter id="filter7_i" x="0" y="63.5371" width="200" height="91.4626" filterUnits="userSpaceOnUse" color-interpolation-filters="sRGB">
<feFlood flood-opacity="0" result="BackgroundImageFix"/>
<feBlend mode="normal" in="SourceGraphic" in2="BackgroundImageFix" result="shape"/>
<feColorMatrix in="SourceAlpha" type="matrix" values="0 0 0 0 0 0 0 0 0 0 0 0 0 0 0 0 0 0 127 0" result="hardAlpha"/>
<feOffset dy="5"/>
<feGaussianBlur stdDeviation="5"/>
<feComposite in2="hardAlpha" operator="arithmetic" k2="-1" k3="1"/>
<feColorMatrix type="matrix" values="0 0 0 0 0 0 0 0 0 0 0 0 0 0 0 0 0 0 0.1 0"/>
<feBlend mode="normal" in2="shape" result="effect1_innerShadow"/>
</filter>
<filter id="filter8_d" x="72.144" y="-4.00195" width="134.026" height="168.778" filterUnits="userSpaceOnUse" color-interpolation-filters="sRGB">
<feFlood flood-opacity="0" result="BackgroundImageFix"/>
<feColorMatrix in="SourceAlpha" type="matrix" values="0 0 0 0 0 0 0 0 0 0 0 0 0 0 0 0 0 0 127 0"/>
<feOffset dy="5"/>
<feGaussianBlur stdDeviation="5"/>
<feColorMatrix type="matrix" values="0 0 0 0 0 0 0 0 0 0 0 0 0 0 0 0 0 0 0.2 0"/>
<feBlend mode="normal" in2="BackgroundImageFix" result="effect1_dropShadow"/>
<feBlend mode="normal" in="SourceGraphic" in2="effect1_dropShadow" result="shape"/>
</filter>
<filter id="filter9_f" x="129.853" y="65.9556" width="14.1813" height="39.2675" filterUnits="userSpaceOnUse" color-interpolation-filters="sRGB">
<feFlood flood-opacity="0" result="BackgroundImageFix"/>
<feBlend mode="normal" in="SourceGraphic" in2="BackgroundImageFix" result="shape"/>
<feGaussianBlur stdDeviation="2" result="effect1_foregroundBlur"/>
</filter>
<filter id="filter10_f" x="168.968" y="78.333" width="18.0066" height="30.8284" filterUnits="userSpaceOnUse" color-interpolation-filters="sRGB">
<feFlood flood-opacity="0" result="BackgroundImageFix"/>
<feBlend mode="normal" in="SourceGraphic" in2="BackgroundImageFix" result="shape"/>
<feGaussianBlur stdDeviation="2" result="effect1_foregroundBlur"/>
</filter>
<filter id="filter11_f" x="145.83" y="105.68" width="38.8983" height="33.5083" filterUnits="userSpaceOnUse" color-interpolation-filters="sRGB">
<feFlood flood-opacity="0" result="BackgroundImageFix"/>
<feBlend mode="normal" in="SourceGraphic" in2="BackgroundImageFix" result="shape"/>
<feGaussianBlur stdDeviation="2" result="effect1_foregroundBlur"/>
</filter>
<filter id="filter12_d" x="4.95789" y="-4.00195" width="121.34" height="169.276" filterUnits="userSpaceOnUse" color-interpolation-filters="sRGB">
<feFlood flood-opacity="0" result="BackgroundImageFix"/>
<feColorMatrix in="SourceAlpha" type="matrix" values="0 0 0 0 0 0 0 0 0 0 0 0 0 0 0 0 0 0 127 0"/>
<feOffset dy="5"/>
<feGaussianBlur stdDeviation="5"/>
<feColorMatrix type="matrix" values="0 0 0 0 0 0 0 0 0 0 0 0 0 0 0 0 0 0 0.2 0"/>
<feBlend mode="normal" in2="BackgroundImageFix" result="effect1_dropShadow"/>
<feBlend mode="normal" in="SourceGraphic" in2="effect1_dropShadow" result="shape"/>
</filter>
<filter id="filter13_d" x="103.446" y="66.9229" width="17.8517" height="18.183" filterUnits="userSpaceOnUse" color-interpolation-filters="sRGB">
<feFlood flood-opacity="0" result="BackgroundImageFix"/>
<feColorMatrix in="SourceAlpha" type="matrix" values="0 0 0 0 0 0 0 0 0 0 0 0 0 0 0 0 0 0 127 0"/>
<feOffset/>
<feGaussianBlur stdDeviation="2.5"/>
<feColorMatrix type="matrix" values="0 0 0 0 0 0 0 0 0 0 0 0 0 0 0 0 0 0 0.1 0"/>
<feBlend mode="normal" in2="BackgroundImageFix" result="effect1_dropShadow"/>
<feBlend mode="normal" in="SourceGraphic" in2="effect1_dropShadow" result="shape"/>
</filter>
<filter id="filter14_f" x="55.0005" y="65.6665" width="13.5121" height="25.3797" filterUnits="userSpaceOnUse" color-interpolation-filters="sRGB">
<feFlood flood-opacity="0" result="BackgroundImageFix"/>
<feBlend mode="normal" in="SourceGraphic" in2="BackgroundImageFix" result="shape"/>
<feGaussianBlur stdDeviation="2" result="effect1_foregroundBlur"/>
</filter>
<filter id="filter15_f" x="17.793" y="69.5835" width="52.1741" height="53.5554" filterUnits="userSpaceOnUse" color-interpolation-filters="sRGB">
<feFlood flood-opacity="0" result="BackgroundImageFix"/>
<feBlend mode="normal" in="SourceGraphic" in2="BackgroundImageFix" result="shape"/>
<feGaussianBlur stdDeviation="2" result="effect1_foregroundBlur"/>
</filter>
<filter id="filter16_d" x="77.2949" y="109.072" width="16.3527" height="13.5304" filterUnits="userSpaceOnUse" color-interpolation-filters="sRGB">
<feFlood flood-opacity="0" result="BackgroundImageFix"/>
<feColorMatrix in="SourceAlpha" type="matrix" values="0 0 0 0 0 0 0 0 0 0 0 0 0 0 0 0 0 0 127 0"/>
<feOffset dx="0.5" dy="0.5"/>
<feGaussianBlur stdDeviation="1"/>
<feColorMatrix type="matrix" values="0 0 0 0 0 0 0 0 0 0 0 0 0 0 0 0 0 0 0.1 0"/>
<feBlend mode="normal" in2="BackgroundImageFix" result="effect1_dropShadow"/>
<feBlend mode="normal" in="SourceGraphic" in2="effect1_dropShadow" result="shape"/>
</filter>
<filter id="filter17_d" x="79.9128" y="23.2261" width="41.9986" height="41.9986" filterUnits="userSpaceOnUse" color-interpolation-filters="sRGB">
<feFlood flood-opacity="0" result="BackgroundImageFix"/>
<feColorMatrix in="SourceAlpha" type="matrix" values="0 0 0 0 0 0 0 0 0 0 0 0 0 0 0 0 0 0 127 0"/>
<feOffset dy="5"/>
<feGaussianBlur stdDeviation="5"/>
<feColorMatrix type="matrix" values="0 0 0 0 0 0 0 0 0 0 0 0 0 0 0 0 0 0 0.2 0"/>
<feBlend mode="normal" in2="BackgroundImageFix" result="effect1_dropShadow"/>
<feBlend mode="normal" in="SourceGraphic" in2="effect1_dropShadow" result="shape"/>
</filter>
</defs>
</svg>
