<svg width="60" height="60" viewBox="0 0 60 60" fill="none" xmlns="http://www.w3.org/2000/svg">
<path d="M55 20H51V5C50.9967 2.24 48.76 0.00325 46 0H14C11.24 0.00325 9.00325 2.24 9 5V20H5C2.24 20.0033 0.00325 22.24 0 25V47C0 47.5522 0.44775 48 1 48H4V49C4 50.6569 5.34312 52 7 52H9V59C9 59.5522 9.44775 60 10 60H13C13.4171 60.0003 13.7906 59.7416 13.937 59.351L16.693 52H43.307L46.063 59.351C46.2094 59.7416 46.5829 60.0003 47 60H50C50.5522 60 51 59.5522 51 59V52H53C54.6569 52 56 50.6569 56 49V48H59C59.5522 48 60 47.5522 60 47V25C59.9967 22.24 57.76 20.0033 55 20ZM11 5C11 3.34312 12.3431 2 14 2H46C47.6569 2 49 3.34312 49 5V20H45C44.4478 20 44 20.4478 44 21V32H16V21C16 20.4478 15.5522 20 15 20H11V5ZM4 35V46H2V25C2 23.3431 3.34312 22 5 22H14V32H7C5.34312 32 4 33.3431 4 35ZM12.307 58H11V52H14.557L12.307 58ZM49 58H47.693L45.443 52H49V58ZM54 49C54 49.5522 53.5522 50 53 50H7C6.44775 50 6 49.5522 6 49V35C6 34.4478 6.44775 34 7 34H53C53.5522 34 54 34.4478 54 35V49ZM58 46H56V35C56 33.3431 54.6569 32 53 32H46V22H55C56.6569 22 58 23.3431 58 25V46Z" fill="#3A9FEC"/>
<path d="M43 46H9C8.44775 46 8 46.4477 8 47C8 47.5522 8.44775 48 9 48H43C43.5522 48 44 47.5522 44 47C44 46.4477 43.5522 46 43 46Z" fill="#3A9FEC"/>
<path d="M51 46H47C46.4477 46 46 46.4477 46 47C46 47.5522 46.4477 48 47 48H51C51.5522 48 52 47.5522 52 47C52 46.4477 51.5522 46 51 46Z" fill="#3A9FEC"/>
<path d="M30 14C30.5523 14 31 13.5523 31 13C31 12.4477 30.5523 12 30 12C29.4477 12 29 12.4477 29 13C29 13.5523 29.4477 14 30 14Z" fill="#3A9FEC"/>
<path d="M24 22C24.5523 22 25 21.5523 25 21C25 20.4477 24.5523 20 24 20C23.4477 20 23 20.4477 23 21C23 21.5523 23.4477 22 24 22Z" fill="#3A9FEC"/>
<path d="M36 22C36.5523 22 37 21.5523 37 21C37 20.4477 36.5523 20 36 20C35.4477 20 35 20.4477 35 21C35 21.5523 35.4477 22 36 22Z" fill="#3A9FEC"/>
<path d="M18 14C18.5523 14 19 13.5523 19 13C19 12.4477 18.5523 12 18 12C17.4477 12 17 12.4477 17 13C17 13.5523 17.4477 14 18 14Z" fill="#3A9FEC"/>
<path d="M42 14C42.5523 14 43 13.5523 43 13C43 12.4477 42.5523 12 42 12C41.4477 12 41 12.4477 41 13C41 13.5523 41.4477 14 42 14Z" fill="#3A9FEC"/>
</svg>
