<svg width="60" height="60" viewBox="0 0 60 60" fill="none" xmlns="http://www.w3.org/2000/svg">
<g clip-path="url(#clip0)">
<path d="M9.99963 20.9662C11.6564 20.9662 12.9996 19.6234 12.9996 17.9662C12.9996 16.3094 11.6564 14.9662 9.99963 14.9662C8.3429 14.9662 6.99963 16.3094 6.99963 17.9662C6.99963 19.6234 8.3429 20.9662 9.99963 20.9662ZM9.99963 16.9662C10.5519 16.9662 10.9996 17.4139 10.9996 17.9662C10.9996 18.5184 10.5519 18.9662 9.99963 18.9662C9.44739 18.9662 8.99963 18.5184 8.99963 17.9662C8.99963 17.4139 9.44739 16.9662 9.99963 16.9662Z" fill="#3A9FEC"/>
<path d="M9.99963 38.9663C8.3429 38.9663 6.99963 40.3096 6.99963 41.9663C6.99963 43.6235 8.3429 44.9663 9.99963 44.9663C11.6564 44.9663 12.9996 43.6235 12.9996 41.9663C12.9996 40.3096 11.6564 38.9663 9.99963 38.9663ZM9.99963 42.9663C9.44739 42.9663 8.99963 42.5185 8.99963 41.9663C8.99963 41.4141 9.44739 40.9663 9.99963 40.9663C10.5519 40.9663 10.9996 41.4141 10.9996 41.9663C10.9996 42.5185 10.5519 42.9663 9.99963 42.9663Z" fill="#3A9FEC"/>
<path d="M22.2932 25.2593L18.2932 29.2593C17.903 29.6499 17.903 30.2832 18.2932 30.6734L22.2932 34.6734C22.6838 35.064 23.3166 35.064 23.7072 34.6734L27.7072 30.6734C28.0974 30.2832 28.0974 29.6499 27.7072 29.2593L23.7072 25.2593C23.3166 24.8691 22.6838 24.8691 22.2932 25.2593ZM25.5861 29.9663L23.0002 32.5528L20.4142 29.9663L23.0002 27.3804L25.5861 29.9663Z" fill="#3A9FEC"/>
<path d="M59.3159 9.01855C55.2148 7.66064 50.7852 7.66064 46.6841 9.01855C46.2759 9.1543 46.0005 9.53613 46 9.96631V10.9663H1C0.447754 10.9663 0 11.4141 0 11.9663C0 12.5186 0.447754 12.9663 1 12.9663H3V16.9663H1C0.447754 16.9663 0 17.4141 0 17.9663C0 18.5186 0.447754 18.9663 1 18.9663H3V22.9663H1C0.447754 22.9663 0 23.4141 0 23.9663C0 24.5186 0.447754 24.9663 1 24.9663H3V28.9663H1C0.447754 28.9663 0 29.4141 0 29.9663C0 30.5186 0.447754 30.9663 1 30.9663H3V34.9663H1C0.447754 34.9663 0 35.4141 0 35.9663C0 36.5186 0.447754 36.9663 1 36.9663H3V40.9663H1C0.447754 40.9663 0 41.4141 0 41.9663C0 42.5186 0.447754 42.9663 1 42.9663H3V46.9663H1C0.447754 46.9663 0 47.4141 0 47.9663C0 48.5186 0.447754 48.9663 1 48.9663H46V49.9663C46.0005 50.397 46.2759 50.7783 46.6841 50.9146C50.7852 52.2729 55.2148 52.2729 59.3159 50.9146C59.7241 50.7783 59.9995 50.397 60 49.9663V9.96631C59.9995 9.53613 59.7241 9.1543 59.3159 9.01855ZM16.9448 42.9663C16.4712 38.7905 13.1758 35.4956 9 35.0225V24.9106C13.1758 24.437 16.4712 21.1421 16.9448 16.9663H46V21.5527L43.707 19.2593C43.3164 18.8691 42.6836 18.8691 42.293 19.2593L33 28.5527L23.707 19.2593C23.3164 18.8691 22.6836 18.8691 22.293 19.2593L12.293 29.2593C11.9028 29.6499 11.9028 30.2832 12.293 30.6733L22.293 40.6733C22.6836 41.064 23.3164 41.064 23.707 40.6733L33 31.3804L42.293 40.6733C42.6836 41.064 43.3164 41.064 43.707 40.6733L46 38.3804V42.9663H16.9448ZM43.707 25.2593C43.3164 24.8691 42.6836 24.8691 42.293 25.2593L38.293 29.2593C37.9028 29.6499 37.9028 30.2832 38.293 30.6733L42.293 34.6733C42.6836 35.064 43.3164 35.064 43.707 34.6733L46 32.3804V35.5527L43 38.5527L34.4141 29.9663L43 21.3804L46 24.3804V27.5527L43.707 25.2593ZM45.5859 29.9663L43 32.5527L40.4141 29.9663L43 27.3804L45.5859 29.9663ZM31.5859 29.9663L23 38.5527L14.4141 29.9663L23 21.3804L31.5859 29.9663ZM5 46.9663V12.9663H46V14.9663H16C15.4478 14.9663 15 15.4141 15 15.9663C14.9956 19.8306 11.8643 22.9619 8 22.9663C7.44775 22.9663 7 23.4141 7 23.9663V35.9663C7 36.5186 7.44775 36.9663 8 36.9663C11.8643 36.9707 14.9956 40.1025 15 43.9663C15 44.5186 15.4478 44.9663 16 44.9663H46V46.9663H5ZM58 49.2305C54.7324 50.1675 51.2676 50.1675 48 49.2305V10.7026C51.2676 9.76562 54.7324 9.76562 58 10.7026V49.2305Z" fill="#3A9FEC"/>
<path d="M33 24.9663C34.6567 24.9663 36 23.6235 36 21.9663C36 20.3096 34.6567 18.9663 33 18.9663C31.3433 18.9663 30 20.3096 30 21.9663C30 23.6235 31.3433 24.9663 33 24.9663ZM33 20.9663C33.5522 20.9663 34 21.4141 34 21.9663C34 22.5185 33.5522 22.9663 33 22.9663C32.4477 22.9663 32 22.5185 32 21.9663C32 21.4141 32.4477 20.9663 33 20.9663Z" fill="#3A9FEC"/>
<path d="M33 34.9664C31.3433 34.9664 30 36.3097 30 37.9664C30 39.6236 31.3433 40.9664 33 40.9664C34.6567 40.9664 36 39.6236 36 37.9664C36 36.3097 34.6567 34.9664 33 34.9664ZM33 38.9664C32.4477 38.9664 32 38.5187 32 37.9664C32 37.4142 32.4477 36.9664 33 36.9664C33.5522 36.9664 34 37.4142 34 37.9664C34 38.5187 33.5522 38.9664 33 38.9664Z" fill="#3A9FEC"/>
</g>
<defs>
<clipPath id="clip0">
<rect width="60" height="60" fill="white"/>
</clipPath>
</defs>
</svg>
