<svg width="60" height="60" viewBox="0 0 60 60" fill="none" xmlns="http://www.w3.org/2000/svg">
<g clip-path="url(#clip0)">
<path d="M50.8659 53.141L48.3659 48.811C48.093 48.3308 47.4825 48.1628 47.0024 48.4357C46.5222 48.7086 46.3542 49.3191 46.6271 49.7992C46.6294 49.8031 46.6316 49.807 46.6339 49.8108L49.1339 54.1408C49.4132 54.6172 50.0259 54.777 50.5024 54.4976C50.9742 54.2211 51.1362 53.6166 50.8659 53.141Z" fill="#3A9FEC"/>
<path d="M5.93339 43.0423C5.54589 42.6679 4.93139 42.6679 4.54389 43.0423L1.00889 46.5773C0.61164 46.961 0.60064 47.594 0.98439 47.9913C1.36814 48.3885 2.00114 48.3995 2.39839 48.0158C2.40676 48.0078 2.41489 47.9995 2.42289 47.9913L5.95789 44.4563C6.34164 44.059 6.33064 43.426 5.93339 43.0423Z" fill="#3A9FEC"/>
<path d="M30 53C29.4477 53 29 53.4477 29 54V59C29 59.5522 29.4477 60 30 60C30.5522 60 31 59.5522 31 59V54C31 53.4477 30.5522 53 30 53Z" fill="#3A9FEC"/>
<path d="M21.1999 51.842C20.6667 51.6995 20.1189 52.016 19.9759 52.549L18.6819 57.378C18.5244 57.9074 18.826 58.4641 19.3554 58.6216C19.8848 58.7791 20.4415 58.4775 20.599 57.9481C20.6042 57.9309 20.6088 57.9135 20.613 57.896L21.907 53.066C22.0494 52.5328 21.7329 51.985 21.1999 51.842Z" fill="#3A9FEC"/>
<path d="M58.991 46.5768L55.456 43.0418C55.0588 42.658 54.4258 42.669 54.042 43.0663C53.6676 43.4538 53.6676 44.0683 54.042 44.4558L57.577 47.9908C57.9743 48.3745 58.6073 48.3635 58.991 47.9663C59.3654 47.5788 59.3654 46.9643 58.991 46.5768Z" fill="#3A9FEC"/>
<path d="M13.0012 48.4448C13.0008 48.4446 13.0004 48.4444 13 48.4442C12.5217 48.1683 11.91 48.3324 11.6342 48.8109C11.6342 48.8111 11.634 48.8111 11.634 48.8112L9.13403 53.1412C8.85478 53.6177 9.01453 54.2303 9.49103 54.5096C9.96753 54.7888 10.5802 54.6291 10.8594 54.1526C10.8617 54.1488 10.8638 54.1449 10.866 54.1411L13.366 49.8111C13.6425 49.3332 13.4793 48.7214 13.0012 48.4448Z" fill="#3A9FEC"/>
<path d="M41.332 57.4302C41.3277 57.4127 41.3231 57.3953 41.318 57.378L40.024 52.549C39.8645 52.0203 39.3065 51.721 38.7777 51.8805C38.2724 52.033 37.9725 52.552 38.093 53.066L39.387 57.896C39.5156 58.4332 40.0554 58.7643 40.5924 58.6357C41.1295 58.5069 41.4606 57.9673 41.332 57.4302Z" fill="#3A9FEC"/>
<path d="M59 23H35.91C35.4806 20.4875 33.5125 18.5194 31 18.09V7.92C34.4409 7.42338 36.9959 4.47663 37 1C37 0.44775 36.5522 0 36 0H24C23.4478 0 23 0.44775 23 1C23.0041 4.47663 25.5591 7.42338 29 7.92V18.09C26.4875 18.5194 24.5194 20.4875 24.09 23H1C0.44775 23 0 23.4478 0 24V30C0 30.5523 0.44775 31 1 31H2.526C9.135 46.1735 26.7931 53.1164 41.9666 46.5074C48.9095 43.4834 54.45 37.9429 57.474 31H59C59.5522 31 60 30.5523 60 30V24C60 23.4478 59.5522 23 59 23ZM25.1 2H34.9C34.3505 4.70625 31.7112 6.4545 29.005 5.905C27.0374 5.5055 25.4995 3.96763 25.1 2ZM30 20C31.8234 20.0024 33.4154 21.2353 33.874 23H26.126C26.5846 21.2353 28.1766 20.0024 30 20ZM30 47C19.1754 47.0316 9.31112 40.7935 4.7 31H55.3C50.6889 40.7935 40.8246 47.0316 30 47ZM58 29H2V25H58V29Z" fill="#3A9FEC"/>
</g>
<defs>
<clipPath id="clip0">
<rect width="60" height="60" fill="white"/>
</clipPath>
</defs>
</svg>
