<svg width="60" height="60" viewBox="0 0 60 60" fill="none" xmlns="http://www.w3.org/2000/svg">
<path d="M52.0001 42H50.4341C49.3359 42.001 48.2529 42.2566 47.2701 42.747C45.8403 43.4578 44.16 43.4578 42.7301 42.747C42.1598 42.4671 41.5544 42.2653 40.9301 42.147L42.8791 27H45.0001C45.5524 27 46.0001 26.5523 46.0001 26V22C46.0001 21.4478 45.5524 21 45.0001 21H41.0001V18C41.0001 17.7347 40.8946 17.4805 40.7071 17.293L36.0001 12.586V9.48L37.5161 8.268L40.1051 13.447L41.8951 12.553L39.1131 6.99L40.3501 6H44.0001C44.5524 6 45.0001 5.55225 45.0001 5V1C45.0001 0.44775 44.5524 0 44.0001 0H34.0001C29.0321 0.006 25.0061 4.032 25.0001 9C25.0001 9.55225 25.4479 10 26.0001 10H28.0001V12.586L25.2931 15.293C25.1056 15.4805 25.0001 15.7347 25.0001 16V21H3.00012C2.44787 21 2.00012 21.4478 2.00012 22V26C2.00012 26.5523 2.44787 27 3.00012 27H5.12112L9.00812 57.128C9.0725 57.6268 9.49725 58.0001 10.0001 58H33.5401C34.6743 59.2713 36.2965 59.9987 38.0001 60H39.5661C40.6644 59.999 41.7474 59.7434 42.7301 59.253C44.16 58.5423 45.8403 58.5423 47.2701 59.253C48.2529 59.7434 49.3359 59.999 50.4341 60H52.0001C55.3125 59.9967 57.9969 57.3124 58.0001 54V48C57.9969 44.6876 55.3125 42.0033 52.0001 42ZM41.0001 2H43.0001V4H41.0001V2ZM44.0001 23V25H30.0001V23H44.0001ZM27.0711 8C27.5727 4.55813 30.5219 2.00437 34.0001 2H39.0001V4.52L34.6491 8H27.0711ZM34.0001 10V12H30.0001V10H34.0001ZM27.0001 16.414L29.4141 14H34.5861L39.0001 18.414V21H27.0001V16.414ZM26.0001 23H28.0001V30C27.998 30.3809 28.2125 30.7297 28.5531 30.9L34.5531 33.9C34.8458 34.0443 35.0675 34.3006 35.1681 34.611C35.2717 34.9441 35.2358 35.305 35.0681 35.611C34.7804 36.1884 34.0791 36.4231 33.5017 36.1353L33.4991 36.134L29.4391 34.104C28.9429 33.8615 28.3441 34.0672 28.1016 34.5635C28.0352 34.6995 28.0005 34.8488 28.0001 35V45C28.0001 46.1046 27.1047 47 26.0001 47V38H24.0001V47H22.0001V38H20.0001V47H18.0001V38H16.0001V47C14.8955 47 14.0001 46.1046 14.0001 45V23H26.0001ZM4.00012 25V23H12.0001V25H4.00012ZM32.0001 48V54C32.0019 54.6818 32.1202 55.3581 32.3501 56H10.8791L7.13712 27H12.0001V45C12.0001 47.2091 13.791 49 16.0001 49H26.0001C28.2092 49 30.0001 47.2091 30.0001 45V36.618L32.6121 37.924C34.1905 38.703 36.1015 38.055 36.8805 36.4766C36.8838 36.4701 36.8869 36.4635 36.8901 36.457C37.2775 35.6891 37.3434 34.7985 37.0731 33.982C36.8066 33.1651 36.2229 32.4899 35.4531 32.108L30.0001 29.382V27H40.8631L38.9271 42H38.0001C34.6878 42.0033 32.0034 44.6876 32.0001 48ZM56.0001 54C56.0001 56.2091 54.2093 58 52.0001 58H50.4341C49.6465 57.9989 48.8699 57.8155 48.1651 57.464C46.1714 56.4734 43.8289 56.4734 41.8351 57.464C41.1304 57.8155 40.3538 57.9989 39.5661 58H38.0001C35.791 58 34.0001 56.2091 34.0001 54V52.46C35.0967 53.4509 36.5221 53.9996 38.0001 54H39.5661C40.6644 53.999 41.7474 53.7434 42.7301 53.253C44.16 52.5422 45.8403 52.5422 47.2701 53.253C48.2529 53.7434 49.3359 53.999 50.4341 54H52.0001C53.4781 53.9996 54.9035 53.4509 56.0001 52.46V54ZM52.0001 52H50.4341C49.6465 51.9989 48.8699 51.8155 48.1651 51.464C46.1714 50.4734 43.8289 50.4734 41.8351 51.464C41.1304 51.8155 40.3538 51.9989 39.5661 52H38.0001C35.791 52 34.0001 50.2091 34.0001 48C34.0001 45.7909 35.791 44 38.0001 44H39.5661C40.3538 44.0011 41.1304 44.1845 41.8351 44.536C43.829 45.526 46.1712 45.526 48.1651 44.536C48.8699 44.1845 49.6465 44.0011 50.4341 44H52.0001C54.2093 44 56.0001 45.7909 56.0001 48C56.0001 50.2091 54.2093 52 52.0001 52Z" fill="#3A9FEC"/>
<path d="M51.0004 47.0001C51.0004 47.5524 51.4481 48.0001 52.0004 48.0001C52.5526 48.0001 53.0003 47.5524 53.0003 47.0001C53.0003 46.4478 52.5526 46.0001 52.0004 46.0001C51.4481 46.0001 51.0004 46.4478 51.0004 47.0001Z" fill="#3A9FEC"/>
<path d="M40.9998 47.0001C40.9998 47.5524 41.4475 48.0001 41.9997 48.0001C42.552 48.0001 42.9997 47.5524 42.9997 47.0001C42.9997 46.4478 42.552 46.0001 41.9997 46.0001C41.4475 46.0001 40.9998 46.4478 40.9998 47.0001Z" fill="#3A9FEC"/>
<path d="M37.0001 48.0001C37.0001 48.5524 37.4478 49.0001 38.0001 49.0001C38.5524 49.0001 39.0001 48.5524 39.0001 48.0001C39.0001 47.4478 38.5524 47.0001 38.0001 47.0001C37.4478 47.0001 37.0001 47.4478 37.0001 48.0001Z" fill="#3A9FEC"/>
<path d="M47.0001 48.0001C47.0001 48.5524 47.4478 49.0001 48.0001 49.0001C48.5524 49.0001 49.0001 48.5524 49.0001 48.0001C49.0001 47.4478 48.5524 47.0001 48.0001 47.0001C47.4478 47.0001 47.0001 47.4478 47.0001 48.0001Z" fill="#3A9FEC"/>
<path fill-rule="evenodd" clip-rule="evenodd" d="M4.69605 0.547763L5.69787 0.835463C7.47099 1.34466 9.16288 1.86425 10.7288 2.43909C13.0784 3.30159 15.1918 4.30504 16.8984 5.62539C18.7219 7.03617 20.0798 8.80871 20.7673 11.1292C21.6132 13.9842 21.4076 17.5424 20.0389 22.0793L19.8075 22.8462L19.0086 22.7879C12.1909 22.2898 7.64003 19.9372 5.3171 15.8867C4.0267 13.6366 3.48143 10.9531 3.54516 7.96047C3.58759 5.96832 3.89986 3.82656 4.45009 1.56064L4.69605 0.547763ZM7.14233 3.34951C7.54187 4.29849 7.93288 5.19202 8.32116 6.03819C8.71496 5.37978 8.97912 4.77421 9.19568 4.01639C8.53518 3.78844 7.85015 3.56734 7.14233 3.34951ZM11.075 4.7136C10.6901 5.99837 10.1749 6.94337 9.3303 8.14076C9.73229 8.93875 10.1364 9.69264 10.5488 10.4114C10.8193 10.8828 11.0935 11.3391 11.3732 11.783C12.3379 11.1165 13.0197 10.4914 13.5656 9.77763C14.1584 9.00263 14.626 8.07743 15.0977 6.78669C13.9634 6.00627 12.6153 5.33171 11.075 4.7136ZM16.7245 8.131C16.2808 9.23422 15.7894 10.1622 15.1542 10.9927C14.4435 11.9219 13.5835 12.6893 12.487 13.4444C13.0187 14.1893 13.5762 14.9055 14.17 15.607C14.5661 16.0749 14.9788 16.5369 15.4113 16.9969C15.9588 16.5804 16.4123 16.1124 16.8514 15.4638C17.4466 14.5846 18.0346 13.3447 18.7527 11.3904C18.3262 10.1226 17.6426 9.05675 16.7245 8.131ZM19.2637 15.2966C19.0164 15.7764 18.7667 16.2022 18.5076 16.585C17.9877 17.353 17.4403 17.9329 16.8267 18.4284C17.3665 18.9491 17.9362 19.4729 18.5405 20.0058C18.9929 18.223 19.2225 16.6653 19.2637 15.2966ZM15.9864 20.3885C15.4916 19.9256 15.0184 19.4645 14.5641 19.0016C13.9992 18.426 13.4638 17.8478 12.9529 17.26C11.4385 17.2736 10.2079 17.1902 8.60571 16.9119C10.2624 18.5538 12.6683 19.7575 15.9864 20.3885ZM6.84671 14.5147C8.76609 14.947 10.039 15.1497 11.311 15.225C10.9459 14.7363 10.5929 14.2373 10.2495 13.7244C9.83016 13.0982 9.42557 12.4521 9.03086 11.7801C8.18589 11.5656 7.4277 11.3102 6.65383 10.888C6.31264 10.7018 5.97575 10.4873 5.6317 10.2369C5.80105 11.8463 6.20557 13.2735 6.84671 14.5147ZM5.55858 7.56738C6.36273 8.32114 6.99001 8.78899 7.58229 9.11614C7.47744 8.90877 7.37289 8.69882 7.26854 8.48618C6.77007 7.4704 6.27567 6.39209 5.77424 5.23738C5.66226 6.04236 5.59015 6.81937 5.55858 7.56738Z" fill="#3A9FEC"/>
</svg>
