<svg width="60" height="60" viewBox="0 0 60 60" fill="none" xmlns="http://www.w3.org/2000/svg">
<path d="M52.0002 42H50.4342C49.336 42.001 48.253 42.2566 47.2702 42.747C45.8404 43.4578 44.1601 43.4578 42.7302 42.747C42.1599 42.4671 41.5545 42.2653 40.9302 42.147L42.8792 27H45.0002C45.5525 27 46.0003 26.5523 46.0003 26V22C46.0003 21.4478 45.5525 21 45.0002 21H41.0003V18C41.0003 17.7347 40.8947 17.4805 40.7072 17.293L36.0002 12.586V9.48L37.5162 8.268L40.1052 13.447L41.8952 12.553L39.1132 6.99L40.3502 6H44.0002C44.5525 6 45.0002 5.55225 45.0002 5V1C45.0002 0.44775 44.5525 0 44.0002 0H34.0002C29.0322 0.006 25.0062 4.032 25.0002 9C25.0002 9.55225 25.448 10 26.0002 10H28.0002V12.586L25.2932 15.293C25.1057 15.4805 25.0002 15.7347 25.0002 16V21H3.00024C2.44799 21 2.00024 21.4478 2.00024 22V26C2.00024 26.5523 2.44799 27 3.00024 27H5.12124L9.00825 57.128C9.07262 57.6268 9.49737 58.0001 10.0002 58H33.5402C34.6744 59.2713 36.2966 59.9987 38.0002 60H39.5662C40.6645 59.999 41.7475 59.7434 42.7302 59.253C44.1601 58.5423 45.8404 58.5423 47.2702 59.253C48.253 59.7434 49.336 59.999 50.4342 60H52.0002C55.3126 59.9967 57.997 57.3124 58.0002 54V48C57.997 44.6876 55.3126 42.0033 52.0002 42ZM41.0003 2H43.0002V4H41.0003V2ZM44.0002 23V25H30.0002V23H44.0002ZM27.0712 8C27.5729 4.55813 30.522 2.00437 34.0002 2H39.0002V4.52L34.6492 8H27.0712ZM34.0002 10V12H30.0002V10H34.0002ZM27.0002 16.414L29.4142 14H34.5862L39.0002 18.414V21H27.0002V16.414ZM26.0002 23H28.0002V30C27.9981 30.3809 28.2126 30.7297 28.5532 30.9L34.5532 33.9C34.8459 34.0443 35.0676 34.3006 35.1682 34.611C35.2719 34.9441 35.2359 35.305 35.0682 35.611C34.7805 36.1884 34.0792 36.4231 33.5019 36.1353L33.4992 36.134L29.4392 34.104C28.943 33.8615 28.3442 34.0672 28.1017 34.5635C28.0354 34.6995 28.0006 34.8488 28.0002 35V45C28.0002 46.1046 27.1049 47 26.0002 47V38H24.0002V47H22.0002V38H20.0002V47H18.0002V38H16.0002V47C14.8956 47 14.0002 46.1046 14.0002 45V23H26.0002ZM4.00024 25V23H12.0002V25H4.00024ZM32.0002 48V54C32.002 54.6818 32.1204 55.3581 32.3502 56H10.8792L7.13724 27H12.0002V45C12.0002 47.2091 13.7911 49 16.0002 49H26.0002C28.2094 49 30.0002 47.2091 30.0002 45V36.618L32.6122 37.924C34.1906 38.703 36.1016 38.055 36.8806 36.4766C36.8839 36.4701 36.887 36.4635 36.8902 36.457C37.2776 35.6891 37.3435 34.7985 37.0732 33.982C36.8068 33.1651 36.223 32.4899 35.4532 32.108L30.0002 29.382V27H40.8632L38.9272 42H38.0002C34.6879 42.0033 32.0035 44.6876 32.0002 48ZM56.0003 54C56.0003 56.2091 54.2094 58 52.0002 58H50.4342C49.6466 57.9989 48.87 57.8155 48.1652 57.464C46.1715 56.4734 43.829 56.4734 41.8352 57.464C41.1305 57.8155 40.3539 57.9989 39.5662 58H38.0002C35.7911 58 34.0002 56.2091 34.0002 54V52.46C35.0969 53.4509 36.5222 53.9996 38.0002 54H39.5662C40.6645 53.999 41.7475 53.7434 42.7302 53.253C44.1601 52.5422 45.8404 52.5422 47.2702 53.253C48.253 53.7434 49.336 53.999 50.4342 54H52.0002C53.4782 53.9996 54.9036 53.4509 56.0003 52.46V54ZM52.0002 52H50.4342C49.6466 51.9989 48.87 51.8155 48.1652 51.464C46.1715 50.4734 43.829 50.4734 41.8352 51.464C41.1305 51.8155 40.3539 51.9989 39.5662 52H38.0002C35.7911 52 34.0002 50.2091 34.0002 48C34.0002 45.7909 35.7911 44 38.0002 44H39.5662C40.3539 44.0011 41.1305 44.1845 41.8352 44.536C43.8291 45.526 46.1714 45.526 48.1652 44.536C48.87 44.1845 49.6466 44.0011 50.4342 44H52.0002C54.2094 44 56.0003 45.7909 56.0003 48C56.0003 50.2091 54.2094 52 52.0002 52Z" fill="#3A9FEC"/>
<path d="M51.0005 47C51.0005 47.5523 51.4482 48 52.0005 48C52.5527 48 53.0005 47.5523 53.0005 47C53.0005 46.4477 52.5527 46 52.0005 46C51.4482 46 51.0005 46.4477 51.0005 47Z" fill="#3A9FEC"/>
<path d="M40.9998 47C40.9998 47.5523 41.4475 48 41.9997 48C42.552 48 42.9997 47.5523 42.9997 47C42.9997 46.4477 42.552 46 41.9997 46C41.4475 46 40.9998 46.4477 40.9998 47Z" fill="#3A9FEC"/>
<path d="M37.0002 48C37.0002 48.5523 37.448 49 38.0002 49C38.5525 49 39.0002 48.5523 39.0002 48C39.0002 47.4477 38.5525 47 38.0002 47C37.448 47 37.0002 47.4477 37.0002 48Z" fill="#3A9FEC"/>
<path d="M47.0002 48C47.0002 48.5523 47.448 49 48.0002 49C48.5525 49 49.0002 48.5523 49.0002 48C49.0002 47.4477 48.5525 47 48.0002 47C47.448 47 47.0002 47.4477 47.0002 48Z" fill="#3A9FEC"/>
<path fill-rule="evenodd" clip-rule="evenodd" d="M4.6961 0.547763L5.69792 0.835463C7.47103 1.34466 9.16293 1.86425 10.7289 2.43909C13.0784 3.30159 15.1918 4.30504 16.8984 5.62539C18.7219 7.03617 20.0798 8.80871 20.7673 11.1292C21.6132 13.9842 21.4076 17.5424 20.0389 22.0793L19.8076 22.8462L19.0087 22.7879C12.191 22.2898 7.64007 19.9372 5.31714 15.8867C4.02675 13.6366 3.48148 10.9531 3.54521 7.96047C3.58763 5.96832 3.8999 3.82656 4.45014 1.56064L4.6961 0.547763ZM7.14237 3.34951C7.54191 4.29849 7.93293 5.19202 8.32121 6.03819C8.71501 5.37978 8.97917 4.77421 9.19573 4.01639C8.53523 3.78844 7.8502 3.56734 7.14237 3.34951ZM11.075 4.7136C10.6902 5.99837 10.1749 6.94337 9.33035 8.14076C9.73234 8.93875 10.1364 9.69264 10.5489 10.4114C10.8194 10.8828 11.0936 11.3391 11.3732 11.783C12.3379 11.1165 13.0197 10.4914 13.5656 9.77763C14.1584 9.00263 14.6261 8.07743 15.0978 6.78669C13.9634 6.00627 12.6153 5.33171 11.075 4.7136ZM16.7245 8.131C16.2809 9.23422 15.7894 10.1622 15.1542 10.9927C14.4435 11.9219 13.5835 12.6893 12.4871 13.4444C13.0188 14.1893 13.5763 14.9055 14.17 15.607C14.5661 16.0749 14.9788 16.5369 15.4114 16.9969C15.9589 16.5804 16.4124 16.1124 16.8515 15.4638C17.4466 14.5846 18.0347 13.3447 18.7527 11.3904C18.3263 10.1226 17.6426 9.05675 16.7245 8.131ZM19.2638 15.2966C19.0165 15.7764 18.7668 16.2022 18.5077 16.585C17.9877 17.353 17.4403 17.9329 16.8268 18.4284C17.3666 18.9491 17.9362 19.4729 18.5406 20.0058C18.9929 18.223 19.2225 16.6653 19.2638 15.2966ZM15.9864 20.3885C15.4917 19.9256 15.0184 19.4645 14.5641 19.0016C13.9992 18.426 13.4639 17.8478 12.953 17.26C11.4386 17.2736 10.2079 17.1902 8.60576 16.9119C10.2625 18.5538 12.6683 19.7575 15.9864 20.3885ZM6.84676 14.5147C8.76613 14.947 10.0391 15.1497 11.3111 15.225C10.946 14.7363 10.593 14.2373 10.2495 13.7244C9.8302 13.0982 9.42561 12.4521 9.03091 11.7801C8.18593 11.5656 7.42775 11.3102 6.65388 10.888C6.31269 10.7018 5.9758 10.4873 5.63175 10.2369C5.8011 11.8463 6.20561 13.2735 6.84676 14.5147ZM5.55862 7.56738C6.36278 8.32114 6.99006 8.78899 7.58234 9.11614C7.47748 8.90877 7.37293 8.69882 7.26858 8.48618C6.77011 7.4704 6.27572 6.39209 5.77429 5.23738C5.6623 6.04236 5.5902 6.81937 5.55862 7.56738Z" fill="#3A9FEC"/>
</svg>
