<svg width="60" height="60" viewBox="0 0 60 60" fill="none" xmlns="http://www.w3.org/2000/svg">
<g clip-path="url(#clip0)">
<path d="M52.623 0H7.37711C6.79495 0 6.32324 0.47185 6.32324 1.05386V58.9461C6.32324 59.5281 6.79495 60 7.37711 60H52.623C53.2052 60 53.6769 59.5281 53.6769 58.9461V1.05386C53.6769 0.47185 53.2052 0 52.623 0ZM51.5691 14.4731H31.0539V2.10773H51.5691V14.4731ZM31.0539 31.0539H51.5691V43.4192H31.0539V31.0539ZM31.0539 28.9461V16.5808H51.5691V28.9461H31.0539ZM8.43097 2.10773H28.9462V57.8923H8.43097V2.10773ZM31.0539 57.8923V45.5269H51.5691V57.8923H31.0539Z" fill="#3A9FEC"/>
<path d="M25.9252 25.1523C25.343 25.1523 24.8713 25.6242 24.8713 26.2062V33.794C24.8713 34.376 25.343 34.8479 25.9252 34.8479C26.5074 34.8479 26.9791 34.376 26.9791 33.794V26.2062C26.9791 25.6242 26.5074 25.1523 25.9252 25.1523Z" fill="#3A9FEC"/>
</g>
<defs>
<clipPath id="clip0">
<rect width="60" height="60" fill="white"/>
</clipPath>
</defs>
</svg>
