<svg width="60" height="60" viewBox="0 0 60 60" fill="none" xmlns="http://www.w3.org/2000/svg">
<g clip-path="url(#clip0)">
<path d="M38.71 3.87109H11.6132C10.0125 3.87109 8.70996 5.17367 8.70996 6.77432V53.2259C8.70996 54.8266 10.0125 56.1292 11.6132 56.1292H38.71C40.3106 56.1292 41.6132 54.8266 41.6132 53.2259V6.77432C41.6132 5.17367 40.3106 3.87109 38.71 3.87109ZM39.6777 53.2259C39.6777 53.7601 39.2432 54.1937 38.71 54.1937H11.6132C11.08 54.1937 10.6454 53.7601 10.6454 53.2259V41.613H17.5677H25.0135H27.0971H34.839H39.6777V53.2259ZM18.3874 32.9034C18.3874 31.3027 19.69 30.0001 21.2906 30.0001C22.8912 30.0001 24.1938 31.3027 24.1938 32.9034H18.3874ZM24.1812 34.8388L23.3751 39.6775H19.208L18.4009 34.8388H24.1812ZM32.9035 31.9356V39.6775H29.0325V31.9356H32.9035ZM30.0003 30.0001V28.0646H31.9358V30.0001H30.0003ZM39.6777 22.2582H38.71C38.1755 22.2582 37.7422 22.6915 37.7422 23.2259C37.7422 23.7604 38.1755 24.1937 38.71 24.1937H39.6777V39.6775H34.839V30.9679C34.839 30.4334 34.4057 30.0001 33.8712 30.0001V27.1292C33.8712 26.5769 33.4235 26.1292 32.8712 26.1292H29.0648C28.5125 26.1292 28.0648 26.5769 28.0648 27.1292V30.0001C27.5303 30.0001 27.0971 30.4334 27.0971 30.9679V39.6775H25.3358L26.1158 34.9975L26.1293 32.9034C26.1293 30.2353 23.9587 28.0646 21.2906 28.0646C18.6225 28.0646 16.4519 30.2353 16.4519 32.9034V34.8388L17.2483 39.6775H10.6454V24.1937H34.839C35.3735 24.1937 35.8067 23.7604 35.8067 23.2259C35.8067 22.6915 35.3735 22.2582 34.839 22.2582H10.6454V6.77432C10.6454 6.24109 11.08 5.80658 11.6132 5.80658H38.71C39.2432 5.80658 39.6777 6.24109 39.6777 6.77432V22.2582Z" fill="#3A9FEC"/>
<path d="M18.3875 48.3548C18.3875 48.9071 18.8352 49.3548 19.3875 49.3548H30.9358C31.4881 49.3548 31.9358 48.9071 31.9358 48.3548V44.5483C31.9358 43.9961 31.4881 43.5483 30.9358 43.5483H19.3875C18.8352 43.5483 18.3875 43.9961 18.3875 44.5483V48.3548ZM20.3229 45.4838H30.0003V47.4193H20.3229V45.4838Z" fill="#3A9FEC"/>
<path d="M19.355 7.74219H13.5486C13.0141 7.74219 12.5808 8.17546 12.5808 8.70993C12.5808 9.2444 13.0141 9.67767 13.5486 9.67767H19.355C19.8895 9.67767 20.3227 9.2444 20.3227 8.70993C20.3227 8.17546 19.8895 7.74219 19.355 7.74219Z" fill="#3A9FEC"/>
<path d="M51.2905 16.8213V3.87097C51.2905 1.73613 49.5543 0 47.4195 0C45.815 0 44.4369 0.98129 43.8505 2.37484C42.6069 0.924194 40.7653 0 38.7098 0H11.6131C7.87758 0 4.83887 3.03871 4.83887 6.77419V53.2258C4.83887 56.9603 7.87758 60 11.6131 60H38.7098C40.7653 60 42.6069 59.0758 43.8505 57.6252C44.4369 59.0187 45.815 60 47.4195 60C49.5543 60 51.2905 58.2639 51.2905 56.129V33.5013L55.1614 31.5658V18.7568L51.2905 16.8213ZM49.355 56.129C49.355 57.1965 48.4869 58.0645 47.4195 58.0645C46.3521 58.0645 45.484 57.1965 45.484 56.129V52.2581C45.484 51.7236 45.0508 51.2903 44.5163 51.2903C43.9818 51.2903 43.5485 51.7236 43.5485 52.2581V53.2258C43.5485 55.8939 41.3779 58.0645 38.7098 58.0645H11.6131C8.945 58.0645 6.77435 55.8939 6.77435 53.2258V6.77419C6.77435 4.10613 8.945 1.93548 11.6131 1.93548H38.7098C41.3779 1.93548 43.5485 4.10613 43.5485 6.77419V48.3871C43.5485 48.9216 43.9818 49.3548 44.5163 49.3548C45.0508 49.3548 45.484 48.9216 45.484 48.3871V3.87097C45.484 2.80355 46.3521 1.93548 47.4195 1.93548C48.4869 1.93548 49.355 2.80355 49.355 3.87097V56.129ZM53.226 30.3697L51.2905 31.3374V18.9852L53.226 19.9529V30.3697Z" fill="#3A9FEC"/>
</g>
<defs>
<clipPath id="clip0">
<rect width="60" height="60" fill="white"/>
</clipPath>
</defs>
</svg>
