<svg width="60" height="60" viewBox="0 0 60 60" fill="none" xmlns="http://www.w3.org/2000/svg">
<path d="M38.9305 11.7209C38.8049 11.252 38.3229 10.9738 37.854 11.0994C37.3852 11.2251 37.107 11.707 37.2326 12.1758L39.4675 20.5165L31.3252 28.6588L24.7335 26.8924C24.3885 26.8 24.0202 26.8986 23.7676 27.1513L6.99783 43.9206L4.00543 43.1186L16.8466 30.2779C17.1899 29.9345 17.1899 29.3779 16.8466 29.0346C16.5033 28.6913 15.9467 28.6913 15.6033 29.0346L2.7626 41.8758L1.9606 38.8834L4.64297 36.201C4.79353 36.0504 4.98823 35.9519 5.19871 35.9196L7.1921 35.6144C7.62402 35.5482 7.96299 35.2093 8.02919 34.7774L8.21913 33.5383C8.28533 33.1064 8.62429 32.7675 9.05621 32.7013L10.2949 32.5116C10.7268 32.4455 11.0657 32.1067 11.132 31.6748L11.3222 30.4349C11.3885 30.0031 11.7274 29.6643 12.1592 29.5981L13.3986 29.4081C13.8304 29.3419 14.1693 29.003 14.2355 28.5711L14.5411 26.5771C14.5734 26.3667 14.6719 26.172 14.8224 26.0215L18.1577 22.6859L19.9219 24.4501C20.2652 24.7934 20.8218 24.7933 21.165 24.45C21.5082 24.1067 21.5081 23.5502 21.1649 23.207L18.9459 20.988L17.2224 14.556L25.3647 6.41373L33.0308 8.46812C33.4998 8.59379 33.9819 8.31548 34.1075 7.8465C34.2332 7.37754 33.9549 6.89551 33.4859 6.76986L25.3973 4.60255C25.0522 4.51009 24.684 4.60875 24.4314 4.86137L15.6701 13.6227C15.4175 13.8753 15.3188 14.2435 15.4113 14.5886L17.1776 21.1803L13.1718 25.186C13.0212 25.3366 12.9227 25.5313 12.8904 25.7417L12.6932 27.029C12.6271 27.4609 12.2883 27.7998 11.8565 27.866L10.6172 28.0562C10.1855 28.1225 9.84675 28.4613 9.7805 28.893L9.59025 30.1327C9.52399 30.5645 9.18513 30.9033 8.75334 30.9695L7.51386 31.1595C7.08202 31.2257 6.74313 31.5646 6.67692 31.9964L6.48702 33.2352C6.4208 33.6671 6.08178 34.006 5.64982 34.0721L4.36335 34.269C4.15283 34.3012 3.9581 34.3998 3.8075 34.5503L0.408242 37.9496C0.15562 38.2022 0.0569588 38.5704 0.149421 38.9155L1.44039 43.7337C1.53285 44.0788 1.80241 44.3483 2.14751 44.4408L6.96567 45.7318C7.31076 45.8242 7.67897 45.7256 7.93159 45.473L24.7009 28.7036L31.2931 30.4699C31.6382 30.5624 32.0064 30.4637 32.259 30.2111L41.0198 21.4503C41.2724 21.1976 41.3711 20.8294 41.2786 20.4843L38.9305 11.7209Z" fill="#3A9FEC"/>
<path d="M33.2505 10.5331C32.9342 10.4306 32.5973 10.3752 32.2476 10.3752C30.4509 10.3752 28.9888 11.8368 28.9888 13.6335C28.9888 15.4307 30.4509 16.8924 32.2476 16.8924C34.0443 16.8924 35.506 15.4307 35.506 13.6335C35.506 12.8297 35.2134 12.0932 34.7291 11.5242C36.1775 10.0213 38.21 9.09619 40.4356 9.09619C44.8004 9.09619 48.3517 12.6471 48.3517 17.0118C48.3517 17.4188 48.3201 17.8221 48.2592 18.218C48.0244 18.1736 47.7827 18.1503 47.5351 18.1503C45.3936 18.1503 43.6509 19.893 43.6509 22.0344C43.6509 24.1763 45.3936 25.919 47.5351 25.919C49.6769 25.919 51.4196 24.1763 51.4196 22.0344C51.4196 20.7866 50.8278 19.6742 49.9104 18.9633C50.0418 18.327 50.1095 17.6738 50.1095 17.0118C50.1095 11.678 45.7699 7.33838 40.4356 7.33838C37.6057 7.33838 35.0312 8.56244 33.2505 10.5331ZM47.5351 19.9081C47.623 19.9081 47.7099 19.9136 47.7951 19.9241C47.3323 21.0923 46.5944 22.1447 45.6326 22.9834C45.4893 22.6977 45.4088 22.3755 45.4088 22.0344C45.4088 20.8621 46.3627 19.9081 47.5351 19.9081ZM49.6614 22.0349C49.6614 23.2072 48.7079 24.1612 47.5351 24.1612C47.3579 24.1612 47.1858 24.1392 47.021 24.098C48.0043 23.183 48.7802 22.0788 49.3084 20.863C49.5314 21.199 49.6614 21.6018 49.6614 22.0349ZM32.0727 12.1431C31.6365 12.8911 31.2973 13.7045 31.073 14.5669C30.8688 14.3106 30.747 13.986 30.747 13.634C30.747 12.8654 31.3275 12.23 32.0727 12.1431ZM33.7481 13.6335C33.7481 14.279 33.3389 14.8301 32.7662 15.0421C32.9521 14.3142 33.2382 13.629 33.6081 13.0005C33.6978 13.1932 33.7481 13.4079 33.7481 13.6335Z" fill="#3A9FEC"/>
<path d="M39.5889 47.8673C39.5889 48.4196 40.0366 48.8673 40.5889 48.8673H54.482C55.0342 48.8673 55.482 48.4196 55.482 47.8673V28.8486C55.482 28.2963 55.0342 27.8486 54.482 27.8486H40.5889C40.0366 27.8486 39.5889 28.2963 39.5889 28.8486V47.8673ZM41.3467 29.6064H53.7242V47.1095H41.3467V29.6064Z" fill="#3A9FEC"/>
<path d="M43.3003 32.5928C43.3003 32.1074 43.6938 31.7139 44.1792 31.7139C44.6646 31.7139 45.0581 32.1074 45.0581 32.5928V44.1234C45.0581 44.6088 44.6646 45.0023 44.1792 45.0023C43.6938 45.0023 43.3003 44.6088 43.3003 44.1234V32.5928Z" fill="#3A9FEC"/>
<path d="M46.6562 32.5928C46.6562 32.1074 47.0497 31.7139 47.5352 31.7139C48.0206 31.7139 48.4141 32.1074 48.4141 32.5928V44.1234C48.4141 44.6088 48.0206 45.0023 47.5352 45.0023C47.0497 45.0023 46.6562 44.6088 46.6562 44.1234V32.5928Z" fill="#3A9FEC"/>
<path d="M50.012 32.593C50.012 32.1075 50.4056 31.7139 50.8911 31.7139C51.3766 31.7139 51.7702 32.1075 51.7702 32.593V44.1232C51.7702 44.6087 51.3766 45.0023 50.8911 45.0023C50.4056 45.0023 50.012 44.6087 50.012 44.1232V32.593Z" fill="#3A9FEC"/>
<path d="M42.1235 17.9838C41.832 17.5957 41.9103 17.0448 42.2983 16.7533L45.234 14.5479C45.6221 14.2564 46.173 14.3346 46.4645 14.7227C46.756 15.1108 46.6777 15.6617 46.2897 15.9532L43.354 18.1586C42.9659 18.4501 42.415 18.3718 42.1235 17.9838Z" fill="#3A9FEC"/>
<path d="M52.8338 16.7991C52.4456 16.5074 51.8945 16.5857 51.6029 16.9739C51.3113 17.3621 51.3895 17.9132 51.7777 18.2048L58.2421 23.061V53.7792H36.8279V29.4711C36.8279 28.9857 36.4344 28.5922 35.949 28.5922C35.4636 28.5922 35.0701 28.9857 35.0701 29.4711V54.537C35.0701 55.0893 35.5178 55.537 36.0701 55.537H58.9999C59.5522 55.537 59.9999 55.0893 59.9999 54.537V22.6825C59.9999 22.368 59.852 22.0719 59.6005 21.883L52.8338 16.7991Z" fill="#3A9FEC"/>
<path d="M20.8306 20.111C20.3618 20.2366 19.88 19.9583 19.7544 19.4895L18.6755 15.4628C18.5831 15.1177 18.6817 14.7495 18.9344 14.4969L20.5902 12.841C20.9335 12.4977 21.4901 12.4978 21.8334 12.8411C22.1765 13.1844 22.1765 13.7409 21.8332 14.0841L20.4867 15.4306L21.4522 19.0347C21.5778 19.5036 21.2995 19.9855 20.8306 20.111ZM23.9051 12.0123C23.5619 12.3555 23.0054 12.3555 22.6622 12.0123C22.319 11.6691 22.319 11.1126 22.6622 10.7694C23.0054 10.4262 23.5619 10.4262 23.9051 10.7694C24.2483 11.1126 24.2483 11.6691 23.9051 12.0123ZM25.977 9.94059C25.6338 10.2839 25.0771 10.2839 24.7338 9.94059C24.3906 9.59736 24.3905 9.04076 24.7337 8.69753C25.0769 8.35434 25.6334 8.35441 25.9766 8.69753C26.3199 9.04069 26.3201 9.59729 25.977 9.94059Z" fill="#3A9FEC"/>
<path d="M56.1941 51.7319C56.1941 52.2173 55.8006 52.6108 55.3152 52.6108H45.6147C45.1293 52.6108 44.7358 52.2173 44.7358 51.7319C44.7358 51.2465 45.1293 50.853 45.6147 50.853H55.3152C55.8006 50.853 56.1941 51.2465 56.1941 51.7319ZM43.5639 51.7319C43.5639 52.2173 43.1704 52.6108 42.685 52.6108C42.1996 52.6108 41.8061 52.2173 41.8061 51.7319C41.8061 51.2465 42.1996 50.853 42.685 50.853C43.1704 50.853 43.5639 51.2465 43.5639 51.7319ZM40.6338 51.7319C40.6338 52.2173 40.2403 52.6108 39.7549 52.6108C39.2695 52.6108 38.876 52.2173 38.876 51.7319C38.876 51.2465 39.2695 50.853 39.7549 50.853C40.2403 50.853 40.6338 51.2465 40.6338 51.7319Z" fill="#3A9FEC"/>
</svg>
