<svg width="60" height="60" viewBox="0 0 60 60" fill="none" xmlns="http://www.w3.org/2000/svg">
<path d="M30.9436 16.8852C30.4956 16.6257 29.922 16.7785 29.6625 17.2266C29.4031 17.6747 29.5559 18.2483 30.004 18.5077C32.7148 20.0775 34.6981 22.5882 35.5886 25.5775C35.7097 25.9845 36.0826 26.2476 36.4867 26.2476C36.5753 26.2476 36.6654 26.235 36.7547 26.2084C37.2509 26.0606 37.5334 25.5385 37.3855 25.0422C36.3579 21.5926 34.0702 18.6957 30.9436 16.8852Z" fill="#3A9FEC"/>
<path d="M23.9062 3.75C23.3885 3.75 22.9688 4.16977 22.9688 4.6875C22.9688 5.20523 23.3885 5.625 23.9062 5.625C25.4571 5.625 26.7188 6.88664 26.7188 8.4375C26.7188 8.95523 27.1385 9.375 27.6562 9.375C28.174 9.375 28.5938 8.95523 28.5938 8.4375C28.5938 5.85281 26.4909 3.75 23.9062 3.75Z" fill="#3A9FEC"/>
<path d="M53.9062 30C53.9062 28.3821 52.8764 27.0005 51.4378 26.4757L42.5626 10.2045C42.6232 9.93738 42.6562 9.66012 42.6562 9.375C42.6562 7.30723 40.974 5.625 38.9062 5.625C37.9577 5.625 37.0909 5.97973 36.4298 6.5625H32.1312C31.2759 2.8098 27.9142 0 23.9062 0C19.2538 0 15.4688 3.78504 15.4688 8.4375V13.3924C12.771 14.847 10.4891 16.9706 8.84519 19.5633C7.04519 22.402 6.09375 25.6868 6.09375 29.0625C6.09375 29.5802 6.51352 30 7.03125 30H40.7812C41.299 30 41.7188 29.5802 41.7188 29.0625C41.7188 25.6868 40.7673 22.402 38.9673 19.5633C37.3234 16.9706 35.0415 14.847 32.3438 13.3924V12.1875H36.4298C36.7774 12.4939 37.1815 12.7376 37.6248 12.8993L46.4999 29.1703C46.4393 29.4374 46.4062 29.7148 46.4062 30C46.4062 30.415 46.475 30.814 46.6001 31.1875L37.2537 53.2791C37.2316 53.3311 37.2156 53.3842 37.2034 53.4375H17.3438C15.793 53.4375 14.5312 54.6993 14.5312 56.25V59.0625C14.5312 59.5802 14.951 60 15.4688 60H47.3438C47.8615 60 48.2812 59.5802 48.2812 59.0625V56.25C48.2812 54.6993 47.0195 53.4375 45.4688 53.4375H43.2941L51.78 33.3799C53.037 32.7736 53.9062 31.4864 53.9062 30ZM50.1562 31.875C49.1224 31.875 48.2812 31.0338 48.2812 30C48.2812 29.8084 48.3104 29.6235 48.3641 29.4492C48.384 29.4047 48.4009 29.3591 48.4137 29.3121C48.6887 28.618 49.3654 28.125 50.1562 28.125C51.1901 28.125 52.0312 28.9662 52.0312 30C52.0312 31.0338 51.1901 31.875 50.1562 31.875ZM41.4668 12.1111L49.2408 26.3636C48.6153 26.5211 48.0524 26.8363 47.5956 27.2639L39.8216 13.0116C40.4471 12.8539 41.0101 12.5387 41.4668 12.1111ZM40.7812 9.375C40.7812 9.57867 40.7475 9.77437 40.6873 9.95813C40.6827 9.96914 40.6791 9.98051 40.675 9.99176C40.419 10.7231 39.7239 11.25 38.9062 11.25C38.7793 11.25 38.6553 11.237 38.5354 11.2129C38.5029 11.203 38.4701 11.1945 38.4368 11.1881C38.0919 11.0987 37.7857 10.9144 37.5476 10.6635C37.5236 10.6337 37.4979 10.6054 37.4706 10.5788C37.1968 10.2527 37.0312 9.83297 37.0312 9.375C37.0312 8.9182 37.1959 8.49926 37.4685 8.17371C37.4977 8.14547 37.525 8.11547 37.5503 8.08371C37.892 7.725 38.3729 7.5 38.9062 7.5C39.9401 7.5 40.7812 8.34117 40.7812 9.375ZM37.3837 20.5673C38.826 22.842 39.6589 25.4373 39.8163 28.125H7.99617C8.15355 25.4372 8.98652 22.8418 10.4287 20.5673C11.9173 18.22 13.9907 16.3032 16.442 15H25.7812C26.299 15 26.7188 14.5802 26.7188 14.0625C26.7188 13.5448 26.299 13.125 25.7812 13.125H17.3438V8.4375C17.3438 4.81898 20.2877 1.875 23.9062 1.875C27.5248 1.875 30.4688 4.81898 30.4688 8.4375V13.125H29.5312C29.0135 13.125 28.5938 13.5448 28.5938 14.0625C28.5938 14.5802 29.0135 15 29.5312 15H31.3705C33.8218 16.3032 35.8952 18.2198 37.3837 20.5673ZM32.3438 8.4375H35.275C35.1975 8.73727 35.1562 9.05145 35.1562 9.375C35.1562 9.69855 35.1975 10.0127 35.275 10.3125H32.3438V8.4375ZM46.4062 56.25V58.125H16.4062V56.25C16.4062 55.7331 16.8268 55.3125 17.3438 55.3125H41.8745C41.876 55.3125 41.8775 55.3127 41.8792 55.3127C41.8802 55.3127 41.8813 55.3125 41.8823 55.3125H45.4688C45.9857 55.3125 46.4062 55.7331 46.4062 56.25ZM39.2225 53.4375L47.8791 32.9766C48.3727 33.3551 48.9622 33.6139 49.6049 33.7091L41.2582 53.4375H39.2225Z" fill="#3A9FEC"/>
</svg>
