<svg width="60" height="60" viewBox="0 0 60 60" fill="none" xmlns="http://www.w3.org/2000/svg">
<g clip-path="url(#clip0)">
<path d="M57.9714 10.2306C57.802 9.89175 57.4557 9.67773 57.0769 9.67773H2.92306C2.54428 9.67773 2.198 9.89175 2.02862 10.2306L0.105554 14.0771C0.0361385 14.2159 0 14.369 0 14.5243V43.5487C0 45.1492 1.30277 46.4519 2.90323 46.4519H5.05182L5.46954 48.1252C5.7918 49.418 6.95139 50.3229 8.28582 50.3229H14.9409C16.2754 50.3229 17.434 49.418 17.7572 48.1242L18.174 46.4519H41.826L42.2437 48.1252C42.566 49.418 43.7256 50.3229 45.06 50.3229H51.7151C53.0496 50.3229 54.2082 49.418 54.5314 48.1242L54.9482 46.4519H57.0968C58.6972 46.4519 60 45.1492 60 43.5487V14.5243C60 14.369 59.9639 14.2159 59.8944 14.0771L57.9714 10.2306ZM56.4986 11.6132L57.4663 13.5487H2.53371L3.50145 11.6132H56.4986ZM15.8799 47.654C15.7712 48.0855 15.3851 48.3874 14.94 48.3874H8.28582C7.84069 48.3874 7.45558 48.0855 7.34595 47.655L7.04495 46.4519H16.1809L15.8799 47.654ZM52.654 47.654C52.5454 48.0855 52.1593 48.3874 51.7142 48.3874H45.0591C44.6139 48.3874 44.2288 48.0855 44.1192 47.655L43.8191 46.4519H52.955L52.654 47.654ZM57.0968 44.5164H2.90323C2.36927 44.5164 1.93548 44.0827 1.93548 43.5487V15.4842H58.0645V43.5487C58.0645 44.0827 57.6307 44.5164 57.0968 44.5164Z" fill="#3A9FEC"/>
<path d="M3.87109 41.5807C3.87109 42.133 4.31881 42.5807 4.87109 42.5807H35.7743C36.3266 42.5807 36.7743 42.133 36.7743 41.5807V18.4194C36.7743 17.8671 36.3266 17.4194 35.7743 17.4194H4.87109C4.31881 17.4194 3.87109 17.8671 3.87109 18.4194V41.5807ZM5.80658 19.3549H34.8388V40.6453H5.80658V19.3549Z" fill="#3A9FEC"/>
<path d="M31.9067 22.0229C31.7989 21.5925 31.4121 21.2905 30.9683 21.2905H9.67664C9.23313 21.2905 8.84663 21.5926 8.73946 22.0229C8.69787 22.1864 7.74194 26.0555 7.74194 30.0002C7.74194 33.9449 8.69787 37.814 8.73851 37.9765C8.84626 38.4075 9.23352 38.7099 9.67779 38.7099H30.9676C31.4116 38.7099 31.7986 38.4074 31.9057 37.9765C31.9473 37.814 32.9032 33.9449 32.9032 30.0002C32.9032 26.0555 31.9473 22.1864 31.9067 22.0229ZM30.1928 36.7744H10.4514C10.1826 35.4962 9.67743 32.7343 9.67743 30.0002C9.67743 27.2723 10.1826 24.5066 10.4524 23.226H30.1938C30.4626 24.5042 30.9678 27.2661 30.9678 30.0002C30.9678 32.7281 30.4626 35.4953 30.1928 36.7744Z" fill="#3A9FEC"/>
<path d="M38.7097 26.0969C38.7097 26.6491 39.1574 27.0969 39.7097 27.0969H55.1291C55.6814 27.0969 56.1291 26.6491 56.1291 26.0969V18.4194C56.1291 17.8671 55.6814 17.4194 55.1291 17.4194H39.7097C39.1574 17.4194 38.7097 17.8671 38.7097 18.4194V26.0969ZM40.6452 19.3549H54.1936V25.1614H40.6452V19.3549Z" fill="#3A9FEC"/>
<path d="M47.4195 32.9028C44.7516 32.9028 42.5808 35.0736 42.5808 37.7415C42.5808 40.4095 44.7516 42.5803 47.4195 42.5803C50.0874 42.5803 52.2582 40.4095 52.2582 37.7415C52.2582 35.0736 50.0874 32.9028 47.4195 32.9028ZM48.3873 40.4666V37.7415C48.3873 37.2071 47.954 36.7738 47.4195 36.7738C46.8851 36.7738 46.4518 37.2071 46.4518 37.7415V40.4666C45.3281 40.0659 44.5163 39.0013 44.5163 37.7415C44.5163 36.1411 45.8191 34.8383 47.4195 34.8383C49.02 34.8383 50.3228 36.1411 50.3228 37.7415C50.3228 39.0013 49.5109 40.0659 48.3873 40.4666Z" fill="#3A9FEC"/>
<path d="M42.5808 30C42.5808 29.4655 43.0141 29.0322 43.5486 29.0322C44.083 29.0322 44.5163 29.4655 44.5163 30C44.5163 30.5344 44.083 30.9677 43.5486 30.9677C43.0141 30.9677 42.5808 30.5344 42.5808 30Z" fill="#3A9FEC"/>
<path d="M46.4514 30C46.4514 29.4655 46.8847 29.0322 47.4192 29.0322C47.9536 29.0322 48.3869 29.4655 48.3869 30C48.3869 30.5344 47.9536 30.9677 47.4192 30.9677C46.8847 30.9677 46.4514 30.5344 46.4514 30Z" fill="#3A9FEC"/>
<path d="M50.3225 30C50.3225 29.4655 50.7558 29.0322 51.2903 29.0322C51.8247 29.0322 52.258 29.4655 52.258 30C52.258 30.5344 51.8247 30.9677 51.2903 30.9677C50.7558 30.9677 50.3225 30.5344 50.3225 30Z" fill="#3A9FEC"/>
</g>
<defs>
<clipPath id="clip0">
<rect width="60" height="60" fill="white"/>
</clipPath>
</defs>
</svg>
