<svg width="60" height="60" viewBox="0 0 60 60" fill="none" xmlns="http://www.w3.org/2000/svg">
<g clip-path="url(#clip0)">
<path d="M59.002 7.51489H0.998043C0.44771 7.51489 0 7.9626 0 8.51294V51.4875C0 52.0378 0.44771 52.4855 0.998043 52.4855H59.002C59.5523 52.4855 60 52.0378 60 51.4875V8.51294C60 7.9626 59.5523 7.51489 59.002 7.51489ZM53.5421 13.9728V31.0042C46.6508 31.089 42.698 32.161 39.1959 33.1119C38.8683 33.2008 38.5428 33.2891 38.2173 33.3761L33.0043 28.1631C30.9195 26.0783 27.5823 25.9936 25.3939 27.9062L20.679 23.1913C19.6032 22.1154 17.8526 22.1154 16.7769 23.1913L6.45793 33.5103V13.9728H53.5421ZM29.9601 34.7565C29.89 34.7597 29.8225 34.7719 29.7578 34.7904C27.6157 34.1529 25.2329 33.5615 22.5544 33.2165L26.3623 29.4084C27.8502 27.9206 30.2711 27.9205 31.759 29.4084L36.2291 33.8786C34.3928 34.3071 32.4232 34.6445 29.9601 34.7565ZM8.49112 33.9678L18.0223 24.4367C18.4114 24.0477 19.0445 24.0477 19.4338 24.4367L24.1387 29.1415L20.2872 32.9931C16.8436 32.7569 12.9441 32.9633 8.49112 33.9678ZM6.45793 46.0276V36.3016C11.7463 34.8141 16.6984 34.3439 21.5746 34.8705C25.9452 35.3427 29.5083 36.522 32.6519 37.5626C35.5248 38.5135 38.0061 39.3349 40.3327 39.3349C40.819 39.3349 41.2133 38.9406 41.2133 38.4542C41.2133 37.9679 40.819 37.5736 40.3327 37.5736C38.4721 37.5736 36.3504 36.926 33.9252 36.1282C36.0245 35.7974 37.8083 35.3136 39.6573 34.8116C43.2187 33.8448 46.8983 32.847 53.5421 32.7655V46.0276H6.45793ZM54.058 12.2116H5.942L3.00658 9.27614H56.9933L54.058 12.2116ZM4.69667 13.4569V35.6208C4.69667 35.623 4.69667 35.6251 4.69667 35.6272V35.6359C4.69667 35.6361 4.69667 35.6362 4.69667 35.6365V46.5434L1.76125 49.4788V10.5215L4.69667 13.4569ZM5.942 47.7889H54.0579L56.9933 50.7243H3.00658L5.942 47.7889ZM55.3033 46.5435V13.4569L58.2387 10.5215V49.4788L55.3033 46.5435Z" fill="#3A9FEC"/>
<path d="M43.1503 26.1841C45.1897 26.1841 46.8489 24.5249 46.8489 22.4855C46.8489 20.4461 45.1897 18.7869 43.1503 18.7869C41.1109 18.7869 39.4517 20.4461 39.4517 22.4855C39.4517 24.5249 41.1109 26.1841 43.1503 26.1841ZM43.1503 20.5481C44.2185 20.5481 45.0877 21.4172 45.0877 22.4855C45.0877 23.5538 44.2185 24.4229 43.1503 24.4229C42.082 24.4229 41.2129 23.5538 41.2129 22.4855C41.2129 21.4172 42.082 20.5481 43.1503 20.5481Z" fill="#3A9FEC"/>
</g>
<defs>
<clipPath id="clip0">
<rect width="60" height="60" fill="white"/>
</clipPath>
</defs>
</svg>
