<svg width="60" height="60" viewBox="0 0 60 60" fill="none" xmlns="http://www.w3.org/2000/svg">
<g clip-path="url(#clip0)">
<path d="M55 19H54V12C53.9967 9.24 51.76 7.00325 49 7H11C8.24 7.00325 6.00325 9.24 6 12V19H5C2.24 19.0033 0.00325 21.24 0 24V40C0.00325 42.76 2.24 44.9968 5 45H6V52C6 52.5523 6.44775 53 7 53H9C9.41712 53.0003 9.79063 52.7416 9.937 52.351L12.693 45H47.307L50.063 52.351C50.2094 52.7416 50.5829 53.0003 51 53H53C53.5522 53 54 52.5523 54 52V45H55C57.76 44.9968 59.9967 42.76 60 40V24C59.9967 21.24 57.76 19.0033 55 19ZM8 12C8 10.3431 9.34313 9 11 9H49C50.6569 9 52 10.3431 52 12V19H49C48.4478 19 48 19.4478 48 20V31H12V20C12 19.4478 11.5522 19 11 19H8V12ZM2 24C2 22.3431 3.34312 21 5 21H10V31H2V24ZM8.307 51H8V45H10.557L8.307 51ZM52 51H51.693L49.443 45H52V51ZM58 40C58 41.6569 56.6569 43 55 43H5C3.34312 43 2 41.6569 2 40V33H58V40ZM58 31H50V21H55C56.6569 21 58 22.3431 58 24V31Z" fill="#3A9FEC"/>
<circle cx="42" cy="24" r="1" fill="#3A9FEC"/>
<circle cx="30" cy="24" r="1" fill="#3A9FEC"/>
<circle cx="18" cy="24" r="1" fill="#3A9FEC"/>
<circle cx="42" cy="16" r="1" fill="#3A9FEC"/>
<circle cx="30" cy="16" r="1" fill="#3A9FEC"/>
<circle cx="18" cy="16" r="1" fill="#3A9FEC"/>
<path d="M5 41H47C47.5522 41 48 40.5522 48 40C48 39.4477 47.5522 39 47 39H5C4.44775 39 4 39.4477 4 40C4 40.5522 4.44775 41 5 41Z" fill="#3A9FEC"/>
<path d="M51 41H55C55.5522 41 56 40.5522 56 40C56 39.4477 55.5522 39 55 39H51C50.4477 39 50 39.4477 50 40C50 40.5522 50.4477 41 51 41Z" fill="#3A9FEC"/>
</g>
<defs>
<clipPath id="clip0">
<rect width="60" height="60" fill="white"/>
</clipPath>
</defs>
</svg>
