<svg width="60" height="60" viewBox="0 0 60 60" fill="none" xmlns="http://www.w3.org/2000/svg">
<g clip-path="url(#clip0)">
<path d="M31.634 37.989C32.675 37.908 33.624 37.377 34.24 36.53L43.603 23.5859C43.89 23.1889 43.847 22.6409 43.499 22.2929C43.151 21.9459 42.603 21.9029 42.206 22.1889L29.26 31.555C28.416 32.169 27.885 33.118 27.804 34.159C27.723 35.2 28.1 36.219 28.837 36.956C29.508 37.628 30.413 38 31.354 38C31.447 38 31.54 37.996 31.634 37.989ZM29.798 34.315C29.833 33.858 30.067 33.441 30.435 33.173L38.332 27.4599L32.621 35.355C32.351 35.726 31.934 35.959 31.477 35.995C31.022 36.025 30.575 35.867 30.25 35.542C29.928 35.219 29.762 34.771 29.798 34.315Z" fill="#3A9FEC"/>
<path d="M54.0334 19.564C54.0234 19.543 54.0234 19.521 54.0124 19.5C54.0004 19.48 53.9814 19.469 53.9684 19.45C52.9574 17.716 51.7614 16.103 50.4034 14.641L52.5514 12.494L53.9654 13.908L58.2074 9.665L53.9654 5.423L49.7224 9.665L51.1374 11.08L48.9894 13.227C47.5274 11.869 45.9154 10.672 44.1804 9.661C44.1614 9.648 44.1504 9.629 44.1304 9.617C44.1094 9.605 44.0874 9.606 44.0664 9.595C40.9734 7.813 37.4984 6.626 33.7934 6.191V5H35.2934C36.6724 5 37.7934 3.879 37.7934 2.5C37.7934 1.121 36.6714 0 35.2924 0H26.2924C24.9134 0 23.7924 1.121 23.7924 2.5C23.7924 3.879 24.9134 5 26.2924 5H27.7924V6.156C26.7124 6.271 25.6344 6.447 24.5684 6.691C24.0304 6.814 23.6934 7.351 23.8174 7.889C23.9404 8.427 24.4774 8.765 25.0154 8.64C25.9354 8.429 26.8644 8.27 27.7954 8.163L28.8684 8.08C29.1964 8.055 29.4984 8.037 29.7924 8.023V10C29.7924 10.553 30.2394 11 30.7924 11C31.3454 11 31.7924 10.553 31.7924 10V8.03C35.5534 8.203 39.0974 9.213 42.2484 10.875L41.2624 12.582C40.9864 13.061 41.1504 13.672 41.6284 13.948C41.7854 14.039 41.9574 14.082 42.1274 14.082C42.4734 14.082 42.8094 13.903 42.9944 13.582L43.9774 11.879C47.1064 13.864 49.7644 16.522 51.7494 19.651L50.0464 20.634C49.5694 20.91 49.4054 21.521 49.6824 22C49.8684 22.321 50.2034 22.5 50.5494 22.5C50.7194 22.5 50.8914 22.457 51.0484 22.366L52.7554 21.38C54.4404 24.576 55.4534 28.178 55.6044 31.999H53.6294C53.0764 31.999 52.6294 32.446 52.6294 32.999C52.6294 33.552 53.0764 33.999 53.6294 33.999H55.6044C55.4534 37.82 54.4404 41.422 52.7554 44.618L51.0484 43.632C50.5704 43.356 49.9584 43.518 49.6824 43.998C49.4064 44.477 49.5704 45.088 50.0484 45.364L51.7514 46.347C49.7664 49.476 47.1084 52.134 43.9794 54.119L42.9964 52.416C42.7194 51.936 42.1064 51.773 41.6304 52.05C41.1514 52.326 40.9874 52.938 41.2644 53.416L42.2504 55.123C39.0994 56.785 35.5554 57.795 31.7944 57.968V56C31.7944 55.447 31.3474 55 30.7944 55C30.2414 55 29.7944 55.447 29.7944 56V57.976C28.1974 57.921 26.5954 57.721 25.0184 57.359C24.4804 57.23 23.9434 57.572 23.8204 58.11C23.6964 58.648 24.0334 59.185 24.5714 59.308C26.5674 59.768 28.6064 60 30.6294 60C30.6784 60 30.7254 59.997 30.7744 59.996C30.7814 59.996 30.7864 60 30.7924 60C30.8004 60 30.8074 59.995 30.8154 59.995C35.6224 59.962 40.1324 58.664 44.0344 56.422C44.0654 56.408 44.0984 56.401 44.1284 56.383C44.1484 56.371 44.1594 56.352 44.1784 56.339C48.2174 53.985 51.5924 50.614 53.9514 46.578C53.9704 46.551 53.9944 46.53 54.0114 46.5C54.0234 46.479 54.0224 46.457 54.0324 46.436C56.3164 42.476 57.6294 37.89 57.6294 33C57.6294 28.11 56.3164 23.524 54.0334 19.564ZM53.9644 8.251L55.3784 9.665L53.9644 11.08L52.5494 9.665L53.9644 8.251ZM29.7924 6.021V3H26.2924C26.0174 3 25.7924 2.775 25.7924 2.5C25.7924 2.225 26.0174 2 26.2924 2H35.2924C35.5674 2 35.7924 2.225 35.7924 2.5C35.7924 2.775 35.5674 3 35.2924 3H31.7924V6.021C31.4444 6.007 31.1124 6 30.7924 6C30.7644 6 30.7324 6.002 30.7044 6.002C30.6794 6.002 30.6544 6 30.6294 6C30.4654 6 30.3014 6.011 30.1374 6.014C30.0214 6.017 29.9124 6.016 29.7924 6.021Z" fill="#3A9FEC"/>
<path d="M21.793 14H16.793C16.24 14 15.793 14.447 15.793 15C15.793 15.553 16.24 16 16.793 16H21.793C22.346 16 22.793 15.553 22.793 15C22.793 14.447 22.346 14 21.793 14Z" fill="#3A9FEC"/>
<path d="M21.7925 21.0001H11.7925C11.2395 21.0001 10.7925 21.4471 10.7925 22.0001C10.7925 22.5531 11.2395 23.0001 11.7925 23.0001H21.7925C22.3455 23.0001 22.7925 22.5531 22.7925 22.0001C22.7925 21.4471 22.3455 21.0001 21.7925 21.0001Z" fill="#3A9FEC"/>
<path d="M21.7929 27.9999H6.79291C6.23991 27.9999 5.79291 28.4469 5.79291 28.9999C5.79291 29.5529 6.23991 29.9998 6.79291 29.9998H21.7929C22.3459 29.9998 22.7929 29.5529 22.7929 28.9999C22.7929 28.4469 22.3459 27.9999 21.7929 27.9999Z" fill="#3A9FEC"/>
<path d="M21.7927 35H2.79272C2.23972 35 1.79272 35.447 1.79272 36C1.79272 36.553 2.23972 37 2.79272 37H21.7927C22.3457 37 22.7927 36.553 22.7927 36C22.7927 35.447 22.3457 35 21.7927 35Z" fill="#3A9FEC"/>
<path d="M21.7924 41.9999H8.79242C8.23942 41.9999 7.79242 42.4469 7.79242 42.9999C7.79242 43.5529 8.23942 43.9998 8.79242 43.9998H21.7924C22.3454 43.9998 22.7924 43.5529 22.7924 42.9999C22.7924 42.4469 22.3454 41.9999 21.7924 41.9999Z" fill="#3A9FEC"/>
<path d="M21.7929 49H14.7929C14.2399 49 13.7929 49.447 13.7929 50C13.7929 50.553 14.2399 51 14.7929 51H21.7929C22.3459 51 22.7929 50.553 22.7929 50C22.7929 49.447 22.3459 49 21.7929 49Z" fill="#3A9FEC"/>
</g>
<defs>
<clipPath id="clip0">
<rect width="60" height="60" fill="white"/>
</clipPath>
</defs>
</svg>
