<svg width="60" height="60" viewBox="0 0 60 60" fill="none" xmlns="http://www.w3.org/2000/svg">
<g clip-path="url(#clip0)">
<path d="M23 51C23.5523 51 24 50.5522 24 50V41C24 40.4477 23.5523 40 23 40C22.4478 40 22 40.4477 22 41V50C22 50.5522 22.4478 51 23 51Z" fill="#3A9FEC"/>
<path d="M30 51C30.5522 51 31 50.5522 31 50V41C31 40.4477 30.5522 40 30 40C29.4477 40 29 40.4477 29 41V50C29 50.5522 29.4477 51 30 51Z" fill="#3A9FEC"/>
<path d="M37 51C37.5522 51 38 50.5522 38 50V41C38 40.4477 37.5522 40 37 40C36.4477 40 36 40.4477 36 41V50C36 50.5522 36.4477 51 37 51Z" fill="#3A9FEC"/>
<path d="M23 38C23.5523 38 24 37.5522 24 37V35C24 34.4477 23.5523 34 23 34C22.4478 34 22 34.4477 22 35V37C22 37.5522 22.4478 38 23 38Z" fill="#3A9FEC"/>
<path d="M30 38C30.5522 38 31 37.5522 31 37V35C31 34.4477 30.5522 34 30 34C29.4477 34 29 34.4477 29 35V37C29 37.5522 29.4477 38 30 38Z" fill="#3A9FEC"/>
<path d="M37 38C37.5522 38 38 37.5522 38 37V35C38 34.4477 37.5522 34 37 34C36.4477 34 36 34.4477 36 35V37C36 37.5522 36.4477 38 37 38Z" fill="#3A9FEC"/>
<path d="M50 23H49V16C48.9985 14.729 48.1978 13.5964 47 13.171V4C47 3.44775 46.5523 3 46 3H42C41.4478 3 41 3.44775 41 4V13.171C39.8023 13.5964 39.0015 14.729 39 16V16.726C37.9044 15.4806 36.4484 14.6069 34.834 14.226L36.8 11.6C37.1314 11.1581 37.0419 10.5314 36.6 10.2C36.4269 10.0701 36.2164 10 36 10H33.737C32.9904 7.13088 30.721 4.908 27.837 4.221L29.8 1.6C30.1314 1.15813 30.0419 0.531375 29.6 0.2C29.4269 0.070125 29.2164 0 29 0H23C22.4478 0 22 0.44775 22 1C22 1.21638 22.0701 1.42688 22.2 1.6L24.166 4.221C21.2809 4.90713 19.0101 7.13 18.263 10H16C15.4478 10 15 10.4478 15 11C15 11.2164 15.0701 11.4269 15.2 11.6L17.166 14.221C13.5574 15.0735 11.0063 18.2921 11 22V23H10C8.34313 23 7 24.3431 7 26V28C7 29.6569 8.34313 31 10 31H12.794L16.007 59.113C16.0645 59.6181 16.4916 59.9997 17 60H43C43.5084 59.9997 43.9355 59.6181 43.993 59.113L47.206 31H50C51.6569 31 53 29.6569 53 28V26C53 24.3431 51.6569 23 50 23ZM43 5H45V7H43V5ZM41 16C41 15.4478 41.4478 15 42 15C42.5523 15 43 14.5523 43 14V9H45V14C45 14.5523 45.4478 15 46 15C46.5523 15 47 15.4478 47 16V19H41V16ZM41 22V21H47V23H41V22ZM31.829 18.556L31.832 18.555L33 16.8L34.168 18.552C34.4745 19.0115 35.0955 19.1355 35.555 18.829C36.0145 18.5225 36.1385 17.9015 35.832 17.442L35.132 16.396C37.4591 17.2806 38.9981 19.5104 39 22V23H27V22C27.003 19.5126 28.5405 17.2851 30.865 16.4L30.165 17.446C29.8585 17.9055 29.9825 18.5265 30.442 18.833C30.9015 19.1395 31.5225 19.0155 31.829 18.556ZM27 2L26 3.333L25 2H27ZM23.865 6.4L23.165 7.446C22.8585 7.9055 22.9825 8.5265 23.442 8.833C23.9015 9.1395 24.5225 9.0155 24.829 8.556L26 6.8L27.168 8.552C27.4745 9.0115 28.0955 9.1355 28.555 8.829C29.0145 8.5225 29.1385 7.9015 28.832 7.442L28.132 6.396C29.7749 7.02575 31.0601 8.34237 31.65 10H30C29.4478 10 29 10.4478 29 11C29 11.2164 29.0701 11.4269 29.2 11.6L31.166 14.221C28.97 14.7414 27.0948 16.1625 26 18.136C24.9053 16.1625 23.03 14.7414 20.834 14.221L22.8 11.6C23.1314 11.1581 23.0419 10.5314 22.6 10.2C22.4269 10.0701 22.2164 10 22 10H20.35C20.9403 8.34463 22.2241 7.02963 23.865 6.4ZM13 22C13.003 19.5126 14.5405 17.2851 16.865 16.4L16.165 17.446C15.8585 17.9055 15.9825 18.5265 16.442 18.833C16.9015 19.1395 17.5225 19.0155 17.829 18.556L19 16.8L20.168 18.552C20.4745 19.0115 21.0955 19.1355 21.555 18.829C22.0145 18.5225 22.1385 17.9015 21.832 17.442L21.132 16.396C23.4591 17.2806 24.9981 19.5104 25 22V23H13V22ZM42.107 58H17.893L17.664 56H42.336L42.107 58ZM42.565 54H17.435L14.806 31H45.194L42.565 54ZM51 28C51 28.5523 50.5523 29 50 29H10C9.44775 29 9 28.5523 9 28V26C9 25.4478 9.44775 25 10 25H40H50C50.5523 25 51 25.4478 51 26V28Z" fill="#3A9FEC"/>
</g>
<defs>
<clipPath id="clip0">
<rect width="60" height="60" fill="white"/>
</clipPath>
</defs>
</svg>
