<svg width="60" height="60" viewBox="0 0 60 60" fill="none" xmlns="http://www.w3.org/2000/svg">
<path d="M59.0323 0H10.6452C10.1098 0 9.67742 0.433783 9.67742 0.967742V36.8748C9.36271 36.8111 9.0395 36.7742 8.70968 36.7742C6.04177 36.7742 3.87097 38.945 3.87097 41.6129V41.6332C2.92449 42.3453 2.27996 43.375 2.0418 44.5161H0.967742C0.432365 44.5161 0 44.9499 0 45.4839V49.3548C0 49.8888 0.432365 50.3226 0.967742 50.3226H1.93548V53.2258C1.93548 56.9612 4.97527 60 8.70968 60H59.0323C59.5676 60 60 59.5662 60 59.0323V0.967742C60 0.433783 59.5676 0 59.0323 0ZM58.0645 1.93548V11.6129H11.6129V1.93548H58.0645ZM5.36416 42.9648C5.70769 42.7711 5.90049 42.3888 5.84992 41.9971L5.83433 41.8846C5.82204 41.7958 5.80645 41.7069 5.80645 41.6129C5.80645 40.0124 7.10922 38.7097 8.70968 38.7097C9.73176 38.7097 10.6598 39.2427 11.1928 40.1372C11.3379 40.381 11.5841 40.5492 11.8643 40.596C12.1459 40.6442 12.4327 40.5639 12.6501 40.3791C13.0277 40.0588 13.6566 39.6774 14.5161 39.6774C15.5514 39.6774 16.5163 40.2492 17.0342 41.1697C17.2355 41.5297 17.6457 41.7211 18.0483 41.6488C19.0586 41.4688 20.0934 42.1625 20.2857 43.1902C20.3547 43.5578 20.6293 43.8541 20.9922 43.9491C21.3569 44.046 21.7383 43.9207 21.9802 43.6334C22.5387 42.9648 23.3458 42.5806 24.1935 42.5806C25.4533 42.5806 26.5179 43.3925 26.9186 44.5161H4.0647C4.29955 43.8754 4.74279 43.314 5.36416 42.9648ZM18.3871 33.871C18.3871 24.7993 25.7671 17.4194 34.8387 17.4194C43.9103 17.4194 51.2903 24.7993 51.2903 33.871C51.2903 42.9426 43.9103 50.3226 34.8387 50.3226C33.4731 50.3226 32.1377 50.1388 30.8373 49.8127C30.9134 49.6743 30.9677 49.5231 30.9677 49.3548V47.8626C32.2218 48.209 33.5175 48.3871 34.8387 48.3871C42.8429 48.3871 49.3548 41.8752 49.3548 33.871C49.3548 25.8668 42.8429 19.3548 34.8387 19.3548C26.8345 19.3548 20.3226 25.8668 20.3226 33.871C20.3226 36.4222 20.9855 38.8831 22.2368 41.069C22.0199 41.1668 21.8092 41.2779 21.6088 41.4078C21.1178 40.6683 20.3807 40.1216 19.5273 39.8565C18.7812 37.9498 18.3871 35.9421 18.3871 33.871ZM24.2498 40.6508C23.4796 39.452 22.9191 38.1464 22.595 36.7742H23.2258C24.1075 36.7742 24.9378 36.4307 25.562 35.8064L26.129 35.2404C26.6469 34.7225 27.5466 34.7225 28.0645 35.2404L28.6316 35.8064C29.8809 37.0539 32.0546 37.0549 33.3039 35.8064L33.871 35.2404C34.3889 34.7225 35.2886 34.7225 35.8064 35.2404L36.3735 35.8064C37.6229 37.0539 39.7965 37.0549 41.0459 35.8064L41.6129 35.2404C42.1308 34.7225 43.0305 34.7225 43.5484 35.2404L44.1154 35.8064C44.7406 36.4307 45.5699 36.7742 46.4516 36.7742H47.0683C45.7518 42.3137 40.7746 46.4516 34.8387 46.4516C33.5109 46.4516 32.2143 46.2347 30.9677 45.8312V45.4839C30.9677 44.9499 30.5354 44.5161 30 44.5161H28.9344C28.4884 42.3278 26.5605 40.6782 24.2498 40.6508ZM22.2581 33.871C22.2581 26.9342 27.902 21.2903 34.8387 21.2903C41.7755 21.2903 47.4194 26.9342 47.4194 33.871C47.4194 34.198 47.3953 34.5183 47.3702 34.8387H46.4516C46.0859 34.8387 45.7433 34.6965 45.4839 34.438L44.9168 33.871C43.6675 32.6235 41.4938 32.6225 40.2445 33.871L39.6774 34.4371C39.1595 34.955 38.2598 34.955 37.7419 34.4371L37.1749 33.871C35.9255 32.6235 33.7519 32.6225 32.5025 33.871L31.9355 34.4371C31.4176 34.955 30.5179 34.955 30 34.4371L29.433 33.871C28.1836 32.6235 26.01 32.6225 24.7606 33.871L24.1935 34.4371C23.9341 34.6965 23.5915 34.8387 23.2258 34.8387H22.2949C22.2708 34.5183 22.2581 34.1951 22.2581 33.871ZM1.93548 46.4516H29.0323V48.3871H1.93548V46.4516ZM21.2903 58.0645H8.70968C6.04177 58.0645 3.87097 55.8937 3.87097 53.2258V50.3226H27.0968V53.2258C27.0968 55.8937 24.926 58.0645 22.2581 58.0645H21.2903ZM26.9895 58.0645C28.2483 56.8336 29.0323 55.1207 29.0323 53.2258V51.3059C30.8983 51.9282 32.8432 52.2581 34.8387 52.2581C44.9778 52.2581 53.2258 44.01 53.2258 33.871C53.2258 23.7319 44.9778 15.4839 34.8387 15.4839C24.6996 15.4839 16.4516 23.7319 16.4516 33.871C16.4516 35.4454 16.6694 36.984 17.0574 38.4814C16.3047 38.0089 15.4286 37.7419 14.5161 37.7419C13.7256 37.7419 12.9435 37.9442 12.2437 38.3246C12.0514 38.1157 11.8355 37.9357 11.6129 37.7651V13.5484H58.0645V58.0645H26.9895Z" fill="#3A9FEC"/>
<path d="M16.4516 9.67755C18.052 9.67755 19.3548 8.37478 19.3548 6.77432C19.3548 5.17386 18.052 3.87109 16.4516 3.87109C14.8511 3.87109 13.5483 5.17386 13.5483 6.77432C13.5483 8.37478 14.8511 9.67755 16.4516 9.67755ZM16.4516 5.80658C16.9855 5.80658 17.4193 6.24131 17.4193 6.77432C17.4193 7.30733 16.9855 7.74206 16.4516 7.74206C15.9176 7.74206 15.4838 7.30733 15.4838 6.77432C15.4838 6.24131 15.9176 5.80658 16.4516 5.80658Z" fill="#3A9FEC"/>
<path d="M24.1938 9.67755C25.7942 9.67755 27.097 8.37478 27.097 6.77432C27.097 5.17386 25.7942 3.87109 24.1938 3.87109C22.5933 3.87109 21.2905 5.17386 21.2905 6.77432C21.2905 8.37478 22.5933 9.67755 24.1938 9.67755ZM24.1938 5.80658C24.7277 5.80658 25.1615 6.24131 25.1615 6.77432C25.1615 7.30733 24.7277 7.74206 24.1938 7.74206C23.6598 7.74206 23.226 7.30733 23.226 6.77432C23.226 6.24131 23.6598 5.80658 24.1938 5.80658Z" fill="#3A9FEC"/>
<path d="M31.9354 9.67755C33.5359 9.67755 34.8387 8.37478 34.8387 6.77432C34.8387 5.17386 33.5359 3.87109 31.9354 3.87109C30.335 3.87109 29.0322 5.17386 29.0322 6.77432C29.0322 8.37478 30.335 9.67755 31.9354 9.67755ZM31.9354 5.80658C32.4694 5.80658 32.9032 6.24131 32.9032 6.77432C32.9032 7.30733 32.4694 7.74206 31.9354 7.74206C31.4015 7.74206 30.9677 7.30733 30.9677 6.77432C30.9677 6.24131 31.4015 5.80658 31.9354 5.80658Z" fill="#3A9FEC"/>
<path d="M54.1934 8.70993C54.1934 8.17546 54.6266 7.74219 55.1611 7.74219C55.6956 7.74219 56.1289 8.17546 56.1289 8.70993C56.1289 9.2444 55.6956 9.67767 55.1611 9.67767C54.6266 9.67767 54.1934 9.2444 54.1934 8.70993Z" fill="#3A9FEC"/>
<path d="M54.1934 4.83884C54.1934 4.30437 54.6266 3.87109 55.1611 3.87109C55.6956 3.87109 56.1289 4.30437 56.1289 4.83884C56.1289 5.37331 55.6956 5.80658 55.1611 5.80658C54.6266 5.80658 54.1934 5.37331 54.1934 4.83884Z" fill="#3A9FEC"/>
<path d="M50.3223 8.70993C50.3223 8.17546 50.7555 7.74219 51.29 7.74219C51.8245 7.74219 52.2578 8.17546 52.2578 8.70993C52.2578 9.2444 51.8245 9.67767 51.29 9.67767C50.7555 9.67767 50.3223 9.2444 50.3223 8.70993Z" fill="#3A9FEC"/>
<path d="M50.3223 4.83884C50.3223 4.30437 50.7555 3.87109 51.29 3.87109C51.8245 3.87109 52.2578 4.30437 52.2578 4.83884C52.2578 5.37331 51.8245 5.80658 51.29 5.80658C50.7555 5.80658 50.3223 5.37331 50.3223 4.83884Z" fill="#3A9FEC"/>
<path d="M46.4517 8.70993C46.4517 8.17546 46.8849 7.74219 47.4194 7.74219C47.9539 7.74219 48.3872 8.17546 48.3872 8.70993C48.3872 9.2444 47.9539 9.67767 47.4194 9.67767C46.8849 9.67767 46.4517 9.2444 46.4517 8.70993Z" fill="#3A9FEC"/>
<path d="M46.4517 4.83884C46.4517 4.30437 46.8849 3.87109 47.4194 3.87109C47.9539 3.87109 48.3872 4.30437 48.3872 4.83884C48.3872 5.37331 47.9539 5.80658 47.4194 5.80658C46.8849 5.80658 46.4517 5.37331 46.4517 4.83884Z" fill="#3A9FEC"/>
<path d="M42.5806 8.70993C42.5806 8.17546 43.0138 7.74219 43.5483 7.74219C44.0828 7.74219 44.5161 8.17546 44.5161 8.70993C44.5161 9.2444 44.0828 9.67767 43.5483 9.67767C43.0138 9.67767 42.5806 9.2444 42.5806 8.70993Z" fill="#3A9FEC"/>
<path d="M42.5806 4.83884C42.5806 4.30437 43.0138 3.87109 43.5483 3.87109C44.0828 3.87109 44.5161 4.30437 44.5161 4.83884C44.5161 5.37331 44.0828 5.80658 43.5483 5.80658C43.0138 5.80658 42.5806 5.37331 42.5806 4.83884Z" fill="#3A9FEC"/>
</svg>
