<svg width="60" height="60" viewBox="0 0 60 60" fill="none" xmlns="http://www.w3.org/2000/svg">
<path d="M0.5 0C0.223857 0 0 0.223858 0 0.5V59.5C0 59.7761 0.223858 60 0.5 60H59.5C59.7761 60 60 59.7761 60 59.5V0.5C60 0.223857 59.7761 0 59.5 0H0.5ZM58.0645 58.0645H1.93548V1.93548H58.0645V58.0645Z" fill="#3A9FEC"/>
<path d="M55.1614 31.9357V26.1293V5.33894C55.1614 5.0628 54.9375 4.83894 54.6614 4.83894H22.3151V4.83894C22.2556 4.3078 21.8247 3.87109 21.2902 3.87109V3.87109C20.7557 3.87109 20.3252 4.30784 20.2653 4.83894V4.83894H5.33881C5.06266 4.83894 4.83881 5.0628 4.83881 5.33894V26.1293V31.9357V54.6615C4.83881 54.9377 5.06266 55.1615 5.33881 55.1615H54.6614C54.9375 55.1615 55.1614 54.9377 55.1614 54.6615V31.9357ZM53.2257 6.77442V26.1293H47.8656C46.1267 24.1056 44.7455 21.8731 43.6579 19.6463L49.3549 13.9492C49.7328 13.5714 49.7328 12.9587 49.3549 12.5809V12.5809C48.9771 12.203 48.3644 12.203 47.9866 12.5809L42.8042 17.7632C40.8233 13.0698 40.0578 8.7033 39.7964 6.77442H53.2257ZM21.2903 8.30423C22.354 10.6171 24.2225 12.4849 26.5336 13.5485C24.2217 14.6122 22.354 16.4797 21.2903 18.7928C20.2267 16.4797 18.3581 14.6122 16.0471 13.5485C18.3589 12.4849 20.2267 10.6173 21.2903 8.30423ZM6.77429 6.77442H19.8146C18.719 9.8603 15.9373 12.1545 12.579 12.5276C12.0478 12.5866 11.6129 13.0141 11.6129 13.5486V13.5486C11.6129 14.0831 12.0476 14.5107 12.5787 14.5699C14.3614 14.7686 15.9812 15.5106 17.2752 16.6222C16.2504 19.1712 14.5123 23.2831 12.1181 26.1293H6.77429V6.77442ZM6.77429 28.0647H11.6129V30.0002H6.77429V28.0647ZM6.77408 31.9357H11.9081C12.3716 33.2025 13.4672 36.304 14.5732 40.1876L6.77408 47.9867V31.9357ZM6.77429 53.226V50.7234L15.1637 42.3341C16.0675 45.756 16.9018 49.5844 17.3149 53.226H6.77429ZM29.032 36.4353C28.7187 36.5463 28.3939 36.633 28.0595 36.6909C27.5329 36.7821 27.0966 37.2074 27.0966 37.7419V37.7419C27.0966 38.2763 27.5329 38.7016 28.0595 38.7928C28.3939 38.8507 28.7187 38.9374 29.032 39.0484V53.2258H19.2619C18.8013 48.9901 17.7967 44.5578 16.7507 40.7469L24.1935 33.304C24.5715 32.9261 24.5714 32.3133 24.1935 31.9355V31.9355C23.8156 31.5576 23.2029 31.5576 22.8251 31.9355L16.1447 38.6159C14.9485 34.5552 13.8308 31.5358 13.5482 30.7887V27.4363C15.8939 24.6715 17.6147 20.8885 18.7188 18.2061C19.5494 19.3786 20.1012 20.7614 20.2686 22.2599C20.328 22.791 20.7555 23.2257 21.29 23.2257V23.2257C21.8245 23.2257 22.2521 22.7907 22.311 22.2595C22.7219 18.5578 25.4647 15.5544 29.032 14.7406V36.4353ZM29.0323 12.3563C26.1134 11.6904 23.7541 9.5576 22.766 6.77442H29.0323V12.3563ZM30.9677 53.2262V40.2002C31.9254 41.0602 32.5997 42.2301 32.8229 43.5529C32.9117 44.0799 33.3365 44.5163 33.871 44.5163V44.5163C34.4054 44.5163 34.8302 44.0797 34.9186 43.5526C35.3263 41.121 37.2499 39.1974 39.6815 38.7897C40.2086 38.7014 40.6452 38.2765 40.6452 37.7421V37.7421C40.6452 37.2076 40.2086 36.7828 39.6815 36.6944C37.2499 36.2868 35.3263 34.3631 34.9186 31.9315C34.8302 31.4044 34.4054 30.9679 33.871 30.9679V30.9679C33.3365 30.9679 32.9117 31.4042 32.8228 31.9312C32.5996 33.2535 31.9253 34.4234 30.9677 35.2839V14.5164V12.5809V6.77442H37.8387C38.0835 8.77969 38.9031 13.8495 41.3186 19.2486L35.3224 25.2448C34.9446 25.6227 34.9446 26.2353 35.3224 26.6132V26.6132C35.7003 26.991 36.3129 26.991 36.6908 26.6132L42.2059 21.098C43.3237 23.2744 44.7172 25.4509 46.4504 27.4543V30.7901C45.8764 32.3123 41.8159 43.3126 40.7378 53.2262H30.9677ZM30.842 37.7422C32.1127 37.0367 33.1656 35.9846 33.8711 34.7131C34.5765 35.9838 35.6294 37.0367 36.9001 37.7422C35.6294 38.4476 34.5765 39.4997 33.8711 40.7712C33.1654 39.4995 32.1125 38.4476 30.842 37.7422ZM53.2257 53.225H42.6853C43.6843 44.4101 47.162 34.4798 48.0919 31.9357H49.107C48.7742 33.458 48.1828 36.3857 47.5686 40.5177C47.49 41.0462 47.8576 41.537 48.3865 41.6126V41.6126C48.9154 41.6883 49.4053 41.3203 49.4839 40.7919C50.1476 36.3347 50.7925 33.2597 51.09 31.9347H53.2257V53.225ZM53.2259 30.0002H48.3871V28.0647H53.2259V30.0002Z" fill="#3A9FEC"/>
<path d="M35.4059 19.3544L33.871 20.8892C33.4931 21.2671 33.4931 21.8799 33.871 22.2578C34.2489 22.6357 34.8617 22.6357 35.2396 22.2578L36.7744 20.7229C37.1524 20.345 37.1524 19.7323 36.7744 19.3544C36.3965 18.9764 35.7838 18.9764 35.4059 19.3544Z" fill="#3A9FEC"/>
<path d="M23.7922 40.646L20.3222 44.116C19.9443 44.4939 19.9443 45.1066 20.3222 45.4845C20.7001 45.8625 21.3128 45.8625 21.6908 45.4845L25.1608 42.0146C25.5387 41.6366 25.5387 41.0239 25.1608 40.646C24.7828 40.2681 24.1701 40.2681 23.7922 40.646Z" fill="#3A9FEC"/>
</svg>
