<svg width="60" height="60" viewBox="0 0 60 60" fill="none" xmlns="http://www.w3.org/2000/svg">
<path d="M54.8789 49.4649L44.4139 38.9999L53.7068 29.707C54.0974 29.3165 54.0974 28.6834 53.7068 28.2928L46.4139 20.9999L42.707 17.293C42.3165 16.9025 41.6834 16.9025 41.2928 17.293L17.293 41.2928C16.9025 41.6834 16.9025 42.3165 17.293 42.707L20.9999 46.4139L28.2928 53.7068C28.6834 54.0974 29.3165 54.0974 29.707 53.7068L38.9999 44.4139L49.4649 54.8789C50.9599 56.3739 53.3839 56.3739 54.8789 54.8789C56.3739 53.3839 56.3739 50.9599 54.8789 49.4649ZM19.4139 41.9999L41.9999 19.4139L43.5859 20.9999L20.9999 43.5859L19.4139 41.9999ZM28.9999 51.5859L22.4139 44.9999L44.9999 22.4139L51.5859 28.9999L42.9999 37.5859L38.707 33.293C38.3165 32.9025 37.6834 32.9025 37.2928 33.293L33.293 37.2928C32.9025 37.6834 32.9025 38.3165 33.293 38.707L37.5859 42.9999L28.9999 51.5859ZM53.4093 53.4649C52.7019 54.1426 51.5863 54.1426 50.8789 53.4649L40.4139 42.9999L39.7069 42.2929L35.4139 37.9999L37.9999 35.4139L42.2929 39.7069L42.9999 40.4139L53.4649 50.8789C54.1637 51.6084 54.1388 52.7662 53.4093 53.4649Z" fill="#3A9FEC"/>
<path d="M15.9985 38.5847L7.41427 30.0004C7.02375 29.6099 6.39059 29.6099 6.00007 30.0004C5.60955 30.3909 5.60955 31.0241 6.00007 31.4146L14.5843 39.9989C14.9749 40.3894 15.608 40.3894 15.9985 39.9989C16.3891 39.6084 16.3891 38.9752 15.9985 38.5847Z" fill="#3A9FEC"/>
<path d="M39.9988 14.5847L31.4145 6.00042C31.024 5.6099 30.3908 5.6099 30.0003 6.00042C29.6098 6.39094 29.6098 7.0241 30.0003 7.41462L38.5846 15.9989C38.9751 16.3894 39.6083 16.3894 39.9988 15.9989C40.3893 15.6084 40.3893 14.9752 39.9988 14.5847Z" fill="#3A9FEC"/>
<path d="M28.0005 26.5864L26.4145 25.0004C26.024 24.6099 25.3908 24.6099 25.0003 25.0004C24.6098 25.3909 24.6098 26.0241 25.0003 26.4146L26.5863 28.0006C26.9769 28.3912 27.61 28.3912 28.0005 28.0006C28.3911 27.6101 28.3911 26.977 28.0005 26.5864Z" fill="#3A9FEC"/>
<path d="M51.0998 4.99351C50.9901 4.45204 50.5525 4 50 4C49.4475 4 49.0099 4.45204 48.9002 4.99351C48.5025 6.95637 46.9564 8.50248 44.9935 8.90021C44.452 9.00992 44 9.44753 44 10C44 10.5525 44.452 10.9901 44.9935 11.0998C46.9564 11.4975 48.5025 13.0436 48.9002 15.0065C49.0099 15.548 49.4475 16 50 16C50.5525 16 50.9901 15.548 51.0998 15.0065C51.4975 13.0436 53.0436 11.4975 55.0065 11.0998C55.5479 10.9901 56 10.5525 56 10C56 9.44753 55.5479 9.00992 55.0065 8.90021C53.0436 8.50248 51.4975 6.95637 51.0998 4.99351ZM50 12.4C49.4071 11.4166 48.5834 10.5929 47.6 10C48.5834 9.40712 49.4071 8.58337 50 7.6C50.5929 8.58337 51.4166 9.40712 52.4 10C51.4166 10.5929 50.5929 11.4166 50 12.4Z" fill="#3A9FEC"/>
<path d="M31.1644 13.9819C30.9837 13.46 30.5523 13 30 13C29.4477 13 29.0163 13.46 28.8356 13.9819C28.5355 14.8489 27.8489 15.5355 26.9819 15.8356C26.46 16.0163 26 16.4477 26 17C26 17.5523 26.46 17.9837 26.9819 18.1644C27.8489 18.4645 28.5355 19.1511 28.8356 20.0181C29.0163 20.54 29.4477 21 30 21C30.5523 21 30.9837 20.54 31.1644 20.0181C31.4645 19.1511 32.1511 18.4645 33.0181 18.1644C33.54 17.9837 34 17.5523 34 17C34 16.4477 33.54 16.0163 33.0181 15.8356C32.1511 15.5355 31.4645 14.8489 31.1644 13.9819ZM30 18C29.7154 17.6213 29.3788 17.2846 29 17C29.3788 16.7154 29.7154 16.3788 30 16C30.2846 16.3788 30.6213 16.7154 31 17C30.6213 17.2846 30.2846 17.6213 30 18Z" fill="#3A9FEC"/>
<path d="M23.0002 21.5856L5.41451 3.99993C5.02399 3.60941 4.39083 3.60941 4.00031 3.99993C3.60979 4.39045 3.60979 5.02361 4.00031 5.41413L21.586 22.9998C21.9765 23.3903 22.6097 23.3903 23.0002 22.9998C23.3907 22.6093 23.3907 21.9761 23.0002 21.5856Z" fill="#3A9FEC"/>
<path d="M0.999999 0C0.447714 0 0 0.447715 0 1V59C0 59.5523 0.447715 60 1 60H59C59.5523 60 60 59.5523 60 59V0.999999C60 0.447714 59.5523 0 59 0H0.999999ZM58 58H2V2H58V58Z" fill="#3A9FEC"/>
<path d="M21.9411 32.5856L10.4105 21.9416C10.0047 21.567 9.37201 21.5923 8.99739 21.9981C8.62278 22.4039 8.64807 23.0366 9.05389 23.4112L20.5845 34.0552C20.9903 34.4298 21.623 34.4045 21.9976 33.9987C22.3722 33.5929 22.3469 32.9602 21.9411 32.5856Z" fill="#3A9FEC"/>
<path d="M7.0003 18.5864L5.41427 17.0004C5.02375 16.6099 4.39059 16.6099 4.00007 17.0004C3.60955 17.3909 3.60955 18.0241 4.00007 18.4146L5.58609 20.0006C5.97662 20.3912 6.60977 20.3912 7.0003 20.0006C7.39082 19.6101 7.39082 18.977 7.0003 18.5864Z" fill="#3A9FEC"/>
<path d="M25.9996 11.5852L18.4138 3.99944C18.0233 3.60892 17.3901 3.60892 16.9996 3.99944C16.6091 4.38996 16.6091 5.02312 16.9996 5.41364L24.5854 12.9994C24.9759 13.3899 25.609 13.3899 25.9996 12.9994C26.3901 12.6089 26.3901 11.9757 25.9996 11.5852Z" fill="#3A9FEC"/>
<path d="M5.99731 54.5888L5.41183 54.0034C5.02131 53.6128 4.38815 53.6128 3.99763 54.0034C3.60711 54.3939 3.60711 55.027 3.99763 55.4175L4.58311 56.003C4.97363 56.3935 5.60678 56.3935 5.99731 56.003C6.38783 55.6125 6.38783 54.9793 5.99731 54.5888Z" fill="#3A9FEC"/>
<path d="M9.99354 52.5843L7.40768 49.9985C7.01716 49.6079 6.384 49.6079 5.99348 49.9985C5.60296 50.389 5.60296 51.0221 5.99348 51.4127L8.57934 53.9985C8.96986 54.3891 9.60302 54.3891 9.99354 53.9985C10.3841 53.608 10.3841 52.9749 9.99354 52.5843Z" fill="#3A9FEC"/>
</svg>
