<svg width="60" height="60" viewBox="0 0 60 60" fill="none" xmlns="http://www.w3.org/2000/svg">
<path d="M59 40H38V37C38 36.4478 37.5522 36 37 36H30.969C32.242 35.0641 32.9956 33.58 33 32C33 31.4477 32.5522 31 32 31H24C23.4478 31 23 31.4477 23 32C23.0044 33.58 23.758 35.0641 25.031 36H19.969C21.242 35.0641 21.9956 33.58 22 32C22 31.4477 21.5522 31 21 31H13C12.4478 31 12 31.4477 12 32C12.0044 33.58 12.758 35.0641 14.031 36H1C0.44775 36 0 36.4478 0 37V59C0 59.5522 0.44775 60 1 60H59C59.5522 60 60 59.5522 60 59V41C60 40.4478 59.5522 40 59 40ZM18 58H2V44H18V58ZM18 42H2V38H18V42ZM16.0016 34.8306C15.146 34.5286 14.473 33.8556 14.171 33H19.829C19.2776 34.5624 17.564 35.382 16.0016 34.8306ZM30.829 33C30.2776 34.5624 28.564 35.382 27.0016 34.8306C26.146 34.5286 25.473 33.8556 25.171 33H30.829ZM36 58H20V44H36V58ZM36 41V42H20V38H36V41ZM58 58H38V42H58V58Z" fill="#3A9FEC"/>
<path d="M1 22H37C37.5523 22 38 21.5522 38 21V16H59C59.5523 15.9998 59.9998 15.5518 59.9995 14.9995C59.9994 14.7948 59.9364 14.5949 59.819 14.427L53 4.685V1C53 0.44775 52.5523 0 52 0H45C44.4478 0 44 0.44775 44 1V4.685L38 13.256V1C38 0.44775 37.5523 0 37 0H1C0.44775 0 0 0.44775 0 1V21C0 21.5522 0.44775 22 1 22ZM45.819 5.573C45.9366 5.40513 45.9999 5.205 46 5V2H51V5C51.0001 5.205 51.0634 5.40513 51.181 5.573L57.08 14H39.92L45.819 5.573ZM20 2H36V6H20V2ZM20 8H36V20H20V8ZM2 2H18V6H2V2ZM2 8H18V20H2V8Z" fill="#3A9FEC"/>
<path d="M44 35.0001C43.4477 35.0001 43 35.4479 43 36.0001V37.0001H40C39.4477 37.0001 39 37.4479 39 38.0001C39 38.5524 39.4477 39.0001 40 39.0001H58C58.5522 39.0001 59 38.5524 59 38.0001C59 37.4479 58.5522 37.0001 58 37.0001H54.938L54.998 36.0641C55.0334 35.5119 54.6142 35.0355 54.062 35.0001C53.5097 34.9648 53.0334 35.3839 52.998 35.9361L52.934 37.0001H45V36.0001C45 35.4479 44.5522 35.0001 44 35.0001Z" fill="#3A9FEC"/>
<path d="M40 57H56C56.5522 57 57 56.5522 57 56V44C57 43.4477 56.5522 43 56 43H40C39.4477 43 39 43.4477 39 44V56C39 56.5522 39.4477 57 40 57ZM41 45H55V55H41V45Z" fill="#3A9FEC"/>
<path d="M16 11C15.4478 11 15 11.4477 15 12V16C15 16.5522 15.4478 17 16 17C16.5523 17 17 16.5522 17 16V12C17 11.4477 16.5523 11 16 11Z" fill="#3A9FEC"/>
<path d="M34 11C33.4477 11 33 11.4477 33 12V16C33 16.5522 33.4477 17 34 17C34.5522 17 35 16.5522 35 16V12C35 11.4477 34.5522 11 34 11Z" fill="#3A9FEC"/>
<path d="M34 54C34.5522 54 35 53.5522 35 53V49C35 48.4477 34.5522 48 34 48C33.4477 48 33 48.4477 33 49V53C33 53.5522 33.4477 54 34 54Z" fill="#3A9FEC"/>
<path d="M16 54C16.5523 54 17 53.5522 17 53V49C17 48.4477 16.5523 48 16 48C15.4478 48 15 48.4477 15 49V53C15 53.5522 15.4478 54 16 54Z" fill="#3A9FEC"/>
<path d="M50 46H46C45.4477 46 45 46.4477 45 47C45 47.5523 45.4477 48 46 48H50C50.5522 48 51 47.5523 51 47C51 46.4477 50.5522 46 50 46Z" fill="#3A9FEC"/>
</svg>
