<svg width="60" height="60" viewBox="0 0 60 60" fill="none" xmlns="http://www.w3.org/2000/svg">
<g clip-path="url(#clip0)">
<path d="M9.99951 20.966C11.6562 20.966 12.9995 19.6233 12.9995 17.9661C12.9995 16.3093 11.6562 14.9661 9.99951 14.9661C8.34277 14.9661 6.99951 16.3093 6.99951 17.9661C6.99951 19.6233 8.34277 20.966 9.99951 20.966ZM9.99951 16.9661C10.5518 16.9661 10.9995 17.4138 10.9995 17.9661C10.9995 18.5183 10.5518 18.9661 9.99951 18.9661C9.44727 18.9661 8.99951 18.5183 8.99951 17.9661C8.99951 17.4138 9.44727 16.9661 9.99951 16.9661Z" fill="#3A9FEC"/>
<path d="M9.99951 38.9663C8.34277 38.9663 6.99951 40.3096 6.99951 41.9663C6.99951 43.6235 8.34277 44.9663 9.99951 44.9663C11.6562 44.9663 12.9995 43.6235 12.9995 41.9663C12.9995 40.3096 11.6562 38.9663 9.99951 38.9663ZM9.99951 42.9663C9.44727 42.9663 8.99951 42.5185 8.99951 41.9663C8.99951 41.4141 9.44727 40.9663 9.99951 40.9663C10.5518 40.9663 10.9995 41.4141 10.9995 41.9663C10.9995 42.5185 10.5518 42.9663 9.99951 42.9663Z" fill="#3A9FEC"/>
<path d="M22.2931 25.2594L18.2931 29.2594C17.903 29.65 17.903 30.2833 18.2931 30.6735L22.2931 34.6735C22.6837 35.0641 23.3165 35.0641 23.7072 34.6735L27.7072 30.6735C28.0973 30.2833 28.0973 29.65 27.7072 29.2594L23.7072 25.2594C23.3165 24.8693 22.6837 24.8693 22.2931 25.2594ZM25.5861 29.9665L23.0001 32.5529L20.4142 29.9665L23.0001 27.3805L25.5861 29.9665Z" fill="#3A9FEC"/>
<path d="M59.3159 9.01868C55.2148 7.66077 50.7852 7.66077 46.6841 9.01868C46.2759 9.15442 46.0005 9.53625 46 9.96643V10.9664H1C0.447754 10.9664 0 11.4142 0 11.9664C0 12.5187 0.447754 12.9664 1 12.9664H3V16.9664H1C0.447754 16.9664 0 17.4142 0 17.9664C0 18.5187 0.447754 18.9664 1 18.9664H3V22.9664H1C0.447754 22.9664 0 23.4142 0 23.9664C0 24.5187 0.447754 24.9664 1 24.9664H3V28.9664H1C0.447754 28.9664 0 29.4142 0 29.9664C0 30.5187 0.447754 30.9664 1 30.9664H3V34.9664H1C0.447754 34.9664 0 35.4142 0 35.9664C0 36.5187 0.447754 36.9664 1 36.9664H3V40.9664H1C0.447754 40.9664 0 41.4142 0 41.9664C0 42.5187 0.447754 42.9664 1 42.9664H3V46.9664H1C0.447754 46.9664 0 47.4142 0 47.9664C0 48.5187 0.447754 48.9664 1 48.9664H46V49.9664C46.0005 50.3971 46.2759 50.7784 46.6841 50.9147C50.7852 52.2731 55.2148 52.2731 59.3159 50.9147C59.7241 50.7784 59.9995 50.3971 60 49.9664V9.96643C59.9995 9.53625 59.7241 9.15442 59.3159 9.01868ZM16.9448 42.9664C16.4712 38.7906 13.1758 35.4957 9 35.0226V24.9108C13.1758 24.4371 16.4712 21.1422 16.9448 16.9664H46V21.5529L43.707 19.2594C43.3164 18.8693 42.6836 18.8693 42.293 19.2594L33 28.5529L23.707 19.2594C23.3164 18.8693 22.6836 18.8693 22.293 19.2594L12.293 29.2594C11.9028 29.65 11.9028 30.2833 12.293 30.6735L22.293 40.6735C22.6836 41.0641 23.3164 41.0641 23.707 40.6735L33 31.3805L42.293 40.6735C42.6836 41.0641 43.3164 41.0641 43.707 40.6735L46 38.3805V42.9664H16.9448ZM43.707 25.2594C43.3164 24.8693 42.6836 24.8693 42.293 25.2594L38.293 29.2594C37.9028 29.65 37.9028 30.2833 38.293 30.6735L42.293 34.6735C42.6836 35.0641 43.3164 35.0641 43.707 34.6735L46 32.3805V35.5529L43 38.5529L34.4141 29.9664L43 21.3805L46 24.3805V27.5529L43.707 25.2594ZM45.5859 29.9664L43 32.5529L40.4141 29.9664L43 27.3805L45.5859 29.9664ZM31.5859 29.9664L23 38.5529L14.4141 29.9664L23 21.3805L31.5859 29.9664ZM5 46.9664V12.9664H46V14.9664H16C15.4478 14.9664 15 15.4142 15 15.9664C14.9956 19.8307 11.8643 22.962 8 22.9664C7.44775 22.9664 7 23.4142 7 23.9664V35.9664C7 36.5187 7.44775 36.9664 8 36.9664C11.8643 36.9708 14.9956 40.1027 15 43.9664C15 44.5187 15.4478 44.9664 16 44.9664H46V46.9664H5ZM58 49.2306C54.7324 50.1676 51.2676 50.1676 48 49.2306V10.7028C51.2676 9.76575 54.7324 9.76575 58 10.7028V49.2306Z" fill="#3A9FEC"/>
<path d="M33 24.9663C34.6567 24.9663 36 23.6235 36 21.9663C36 20.3096 34.6567 18.9663 33 18.9663C31.3433 18.9663 30 20.3096 30 21.9663C30 23.6235 31.3433 24.9663 33 24.9663ZM33 20.9663C33.5522 20.9663 34 21.4141 34 21.9663C34 22.5185 33.5522 22.9663 33 22.9663C32.4477 22.9663 32 22.5185 32 21.9663C32 21.4141 32.4477 20.9663 33 20.9663Z" fill="#3A9FEC"/>
<path d="M33 34.9663C31.3433 34.9663 30 36.3096 30 37.9663C30 39.6235 31.3433 40.9663 33 40.9663C34.6567 40.9663 36 39.6235 36 37.9663C36 36.3096 34.6567 34.9663 33 34.9663ZM33 38.9663C32.4477 38.9663 32 38.5185 32 37.9663C32 37.4141 32.4477 36.9663 33 36.9663C33.5522 36.9663 34 37.4141 34 37.9663C34 38.5185 33.5522 38.9663 33 38.9663Z" fill="#3A9FEC"/>
</g>
<defs>
<clipPath id="clip0">
<rect width="60" height="60" fill="white"/>
</clipPath>
</defs>
</svg>
