<svg width="60" height="60" viewBox="0 0 60 60" fill="none" xmlns="http://www.w3.org/2000/svg">
<g clip-path="url(#clip0)">
<path d="M5.93339 43.042C5.54589 42.6676 4.93139 42.6676 4.54389 43.042L1.00889 46.577C0.61164 46.9608 0.60064 47.5938 0.98439 47.991C1.36814 48.3883 2.00114 48.3993 2.39839 48.0155C2.40676 48.0075 2.41489 47.9993 2.42289 47.991L5.95789 44.456C6.34164 44.0588 6.33064 43.4258 5.93339 43.042Z" fill="#3A9FEC"/>
<path d="M30 53C29.4477 53 29 53.4477 29 54V59C29 59.5522 29.4477 60 30 60C30.5522 60 31 59.5522 31 59V54C31 53.4477 30.5522 53 30 53Z" fill="#3A9FEC"/>
<path d="M21.1999 51.8418C20.6667 51.6993 20.1189 52.0158 19.9759 52.5488L18.6819 57.3778C18.5244 57.9071 18.826 58.4639 19.3554 58.6214C19.8848 58.7789 20.4415 58.4773 20.599 57.9479C20.6042 57.9306 20.6088 57.9133 20.613 57.8958L21.907 53.0658C22.0494 52.5325 21.7329 51.9848 21.1999 51.8418Z" fill="#3A9FEC"/>
<path d="M58.991 46.577L55.456 43.042C55.0588 42.6583 54.4258 42.6693 54.042 43.0665C53.6676 43.454 53.6676 44.0685 54.042 44.456L57.577 47.991C57.9743 48.3748 58.6073 48.3638 58.991 47.9665C59.3654 47.579 59.3654 46.9645 58.991 46.577Z" fill="#3A9FEC"/>
<path d="M13.0012 48.4451C13.0008 48.4448 13.0004 48.4447 13 48.4444C12.5217 48.1686 11.91 48.3327 11.6342 48.8112C11.6342 48.8113 11.634 48.8113 11.634 48.8114L9.13403 53.1414C8.85478 53.6179 9.01453 54.2306 9.49103 54.5098C9.96753 54.7891 10.5802 54.6293 10.8594 54.1528C10.8617 54.1491 10.8638 54.1452 10.866 54.1413L13.366 49.8113C13.6425 49.3334 13.4793 48.7217 13.0012 48.4451Z" fill="#3A9FEC"/>
<path fill-rule="evenodd" clip-rule="evenodd" d="M49 23H59C59.5522 23 60 23.4478 60 24V30C60 30.5523 59.5522 31 59 31H57.474C56.2746 33.7538 54.6792 36.287 52.7575 38.53L52.1605 36.142C53.3745 34.5665 54.4306 32.8464 55.3 31H49.4167L49.0833 29H58V25H49V23ZM38 23H35.91C35.4806 20.4875 33.5125 18.5194 31 18.09V7.92C34.4409 7.42338 36.9959 4.47663 37 1C37 0.44775 36.5522 0 36 0H24C23.4478 0 23 0.44775 23 1C23.0041 4.47663 25.5591 7.42338 29 7.92V18.09C26.4875 18.5194 24.5194 20.4875 24.09 23H1C0.44775 23 0 23.4478 0 24V30C0 30.5523 0.44775 31 1 31H2.526C8.0003 43.5684 21.0554 50.4897 34 48.74V46.7241C32.6872 46.9102 31.3511 47.004 30 47C19.1754 47.0316 9.31112 40.7935 4.7 31H37.5V29H2V25H38V23ZM34.9 2H25.1C25.4995 3.96763 27.0374 5.5055 29.005 5.905C31.7112 6.4545 34.3505 4.70625 34.9 2ZM33.874 23C33.4154 21.2353 31.8234 20.0024 30 20C28.1766 20.0024 26.5846 21.2353 26.126 23H33.874Z" fill="#3A9FEC"/>
<g clip-path="url(#clip1)">
<path d="M57.3438 5.08723C58.3134 5.08723 59.1026 4.29851 59.1026 3.32942V1.77074C59.1026 0.801651 58.3138 0.0129239 57.3438 0.0129239H54.9374C54.9044 0.00834629 54.8705 0.00468418 54.8367 0.00376864C54.4856 -0.00584439 54.1345 0.00239536 53.8191 0.0129239H53.8177C53.8085 0.0129239 53.7989 0.0129239 53.7898 0.0133817C49.1737 0.158951 44.732 1.62471 40.9463 4.25273C40.5471 4.52922 40.4482 5.07716 40.7252 5.47588C41.0017 5.87459 41.5496 5.97346 41.9483 5.69652C45.4269 3.28227 49.5024 1.92729 53.7417 1.77394C53.5691 2.48576 53.3329 3.18111 53.0354 3.85127C52.8239 4.3278 52.5794 4.79518 52.3094 5.24013C51.7907 6.09477 51.1695 6.8835 50.4637 7.58525C49.3939 8.65047 48.1268 9.51381 46.7516 10.1231C46.6734 8.35063 45.2076 6.93248 43.4159 6.93248H43.3729C41.5313 6.93248 40.0335 8.43074 40.0335 10.2723V11.0473C39.031 10.9063 38.0532 10.6427 37.1185 10.2577C37.8848 9.27898 38.739 8.35841 39.6586 7.52116C40.0175 7.19432 40.0436 6.63814 39.7167 6.27925C39.3899 5.92036 38.8342 5.89473 38.4753 6.22112C37.4828 7.12474 36.5609 8.11809 35.7342 9.17415C35.3918 9.61223 35.2764 10.1721 35.4188 10.7099C35.5607 11.2464 35.9361 11.6749 36.4497 11.8859C37.5982 12.3565 38.8008 12.6669 40.0331 12.8184V14.2269C39.2649 14.3702 38.6808 15.0445 38.6808 15.8538V18.3116C37.7131 18.6663 37.0191 19.5938 37.0191 20.6828V27.5666C37.0191 29.6344 36.3801 31.6137 35.1716 33.2919C33.7457 35.2708 32.9922 37.6059 32.9922 40.0448V56.3018C32.9922 58.3407 34.652 59.9996 36.6918 59.9996H50.097C52.1368 59.9996 53.7966 58.3407 53.7966 56.3018V46.5432C53.7966 46.058 53.403 45.6643 52.9177 45.6643C52.432 45.6643 52.0388 46.058 52.0388 46.5432V56.3018C52.0388 57.3716 51.1677 58.2418 50.097 58.2418H36.6918C35.6211 58.2418 34.75 57.3716 34.75 56.3018V40.0444C34.75 37.9771 35.389 35.9973 36.5975 34.3191C38.0235 32.3402 38.7769 30.0051 38.7769 27.5666V20.6828C38.7769 20.2584 39.1226 19.9128 39.5478 19.9128H47.241C47.6663 19.9128 48.0119 20.2584 48.0119 20.6828V27.5666C48.0119 30.0051 48.7654 32.3402 50.1913 34.3191C51.3998 35.9973 52.0388 37.9771 52.0388 40.0444V43.2231C52.0388 43.7083 52.432 44.102 52.9177 44.102C53.403 44.102 53.7966 43.7083 53.7966 43.2231V40.0444C53.7966 37.6059 53.0432 35.2708 51.6172 33.2919C50.4087 31.6137 49.7697 29.6339 49.7697 27.5666V20.6828C49.7697 19.5938 49.0757 18.6659 48.1075 18.3111V15.8538C48.1075 15.0445 47.5239 14.3702 46.7553 14.2269V12.021C48.1098 11.5074 49.3865 10.7814 50.5245 9.87819C51.0121 11.8557 51.8356 13.7609 52.9466 15.4592C53.8845 16.8925 55.023 18.1852 56.3299 19.3013C56.5945 19.5269 56.9181 19.6409 57.2422 19.6409C57.5421 19.6409 57.8428 19.5439 58.0982 19.3479C58.6292 18.941 58.7995 18.2351 58.5125 17.6309C57.8506 16.2384 57.2912 14.784 56.8485 13.3082C56.3235 11.5559 55.955 9.74452 55.7536 7.92445C55.6913 7.36049 55.4373 6.8304 55.0385 6.43214L54.1555 5.54958C54.2379 5.39668 54.318 5.24287 54.3954 5.08723H57.3438ZM57.3448 1.77074L57.3438 3.32942H55.1205C55.2912 2.81856 55.4318 2.29808 55.5425 1.77074H57.3448ZM41.7909 10.2719C41.7909 9.39983 42.5009 8.69029 43.3729 8.69029H43.4159C44.288 8.69029 44.9975 9.39983 44.9975 10.2719V11.392V11.4241V14.1976H41.7909V10.2719ZM40.4386 18.155V15.9555H46.3497V18.155H40.4386ZM55.1649 13.8127C55.4638 14.8097 55.8135 15.7975 56.2095 16.7648C55.5462 16.0635 54.9465 15.305 54.4178 14.4966C53.2359 12.6911 52.4128 10.6262 52.0246 8.50032C52.4458 8.05263 52.8372 7.57655 53.1974 7.07668L53.7962 7.67497C53.9129 7.79216 53.9875 7.94917 54.0063 8.11763C54.2196 10.043 54.6096 11.9587 55.1649 13.8127Z" fill="#3A9FEC"/>
<path d="M43.2411 40.1719C42.8241 40.1719 42.4263 40.3504 42.1498 40.6626C39.655 43.4742 39.1313 45.0786 39.1313 45.9292C39.1313 48.1946 40.9748 50.0371 43.2411 50.0371C45.5071 50.0371 47.351 48.1946 47.351 45.9292C47.351 45.0786 46.8273 43.4742 44.332 40.6626C44.056 40.3504 43.6577 40.1719 43.2411 40.1719ZM43.2411 48.2793C41.9443 48.2793 40.8892 47.2251 40.8892 45.9292C40.8892 45.237 41.8042 43.7461 43.2411 42.0844C44.6776 43.7461 45.5931 45.237 45.5931 45.9292C45.5931 47.2251 44.538 48.2793 43.2411 48.2793Z" fill="#3A9FEC"/>
</g>
</g>
<defs>
<clipPath id="clip0">
<rect width="60" height="60" fill="white"/>
</clipPath>
<clipPath id="clip1">
<rect x="16" width="60" height="60" fill="white"/>
</clipPath>
</defs>
</svg>
