<svg width="60" height="60" viewBox="0 0 60 60" fill="none" xmlns="http://www.w3.org/2000/svg">
<g clip-path="url(#clip0)">
<path d="M50.8659 53.1407L48.3659 48.8107C48.093 48.3306 47.4825 48.1626 47.0024 48.4355C46.5222 48.7083 46.3542 49.3188 46.6271 49.799C46.6294 49.8028 46.6316 49.8067 46.6339 49.8106L49.1339 54.1406C49.4132 54.617 50.0259 54.7767 50.5024 54.4973C50.9742 54.2208 51.1362 53.6163 50.8659 53.1407Z" fill="#3A9FEC"/>
<path d="M5.93339 43.042C5.54589 42.6676 4.93139 42.6676 4.54389 43.042L1.00889 46.577C0.61164 46.9608 0.60064 47.5938 0.98439 47.991C1.36814 48.3883 2.00114 48.3993 2.39839 48.0155C2.40676 48.0075 2.41489 47.9993 2.42289 47.991L5.95789 44.456C6.34164 44.0588 6.33064 43.4258 5.93339 43.042Z" fill="#3A9FEC"/>
<path d="M30 53C29.4477 53 29 53.4477 29 54V59C29 59.5522 29.4477 60 30 60C30.5522 60 31 59.5522 31 59V54C31 53.4477 30.5522 53 30 53Z" fill="#3A9FEC"/>
<path d="M21.1999 51.8418C20.6667 51.6993 20.1189 52.0158 19.9759 52.5488L18.6819 57.3778C18.5244 57.9071 18.826 58.4639 19.3554 58.6214C19.8848 58.7789 20.4415 58.4773 20.599 57.9479C20.6042 57.9306 20.6088 57.9133 20.613 57.8958L21.907 53.0658C22.0494 52.5325 21.7329 51.9848 21.1999 51.8418Z" fill="#3A9FEC"/>
<path d="M58.991 46.577L55.456 43.042C55.0588 42.6583 54.4258 42.6693 54.042 43.0665C53.6676 43.454 53.6676 44.0685 54.042 44.456L57.577 47.991C57.9743 48.3748 58.6073 48.3638 58.991 47.9665C59.3654 47.579 59.3654 46.9645 58.991 46.577Z" fill="#3A9FEC"/>
<path d="M13.0012 48.4451C13.0008 48.4448 13.0004 48.4447 13 48.4444C12.5217 48.1686 11.91 48.3327 11.6342 48.8112C11.6342 48.8113 11.634 48.8113 11.634 48.8114L9.13403 53.1414C8.85478 53.6179 9.01453 54.2306 9.49103 54.5098C9.96753 54.7891 10.5802 54.6293 10.8594 54.1528C10.8617 54.1491 10.8638 54.1452 10.866 54.1413L13.366 49.8113C13.6425 49.3334 13.4793 48.7217 13.0012 48.4451Z" fill="#3A9FEC"/>
<path d="M41.332 57.4304C41.3277 57.4129 41.3231 57.3955 41.318 57.3783L40.024 52.5493C39.8645 52.0205 39.3065 51.7213 38.7777 51.8808C38.2724 52.0333 37.9725 52.5523 38.093 53.0663L39.387 57.8963C39.5156 58.4334 40.0554 58.7645 40.5924 58.6359C41.1295 58.5072 41.4606 57.9675 41.332 57.4304Z" fill="#3A9FEC"/>
<path d="M59 23H35.91C35.4806 20.4875 33.5125 18.5194 31 18.09V7.92C34.4409 7.42338 36.9959 4.47663 37 1C37 0.44775 36.5522 0 36 0H24C23.4478 0 23 0.44775 23 1C23.0041 4.47663 25.5591 7.42338 29 7.92V18.09C26.4875 18.5194 24.5194 20.4875 24.09 23H1C0.44775 23 0 23.4478 0 24V30C0 30.5523 0.44775 31 1 31H2.526C9.135 46.1735 26.7931 53.1164 41.9666 46.5074C48.9095 43.4834 54.45 37.9429 57.474 31H59C59.5522 31 60 30.5523 60 30V24C60 23.4478 59.5522 23 59 23ZM25.1 2H34.9C34.3505 4.70625 31.7112 6.4545 29.005 5.905C27.0374 5.5055 25.4995 3.96763 25.1 2ZM30 20C31.8234 20.0024 33.4154 21.2353 33.874 23H26.126C26.5846 21.2353 28.1766 20.0024 30 20ZM30 47C19.1754 47.0316 9.31112 40.7935 4.7 31H55.3C50.6889 40.7935 40.8246 47.0316 30 47ZM58 29H2V25H58V29Z" fill="#3A9FEC"/>
</g>
<defs>
<clipPath id="clip0">
<rect width="60" height="60" fill="white"/>
</clipPath>
</defs>
</svg>
