<svg width="48" height="60" viewBox="0 0 48 60" fill="none" xmlns="http://www.w3.org/2000/svg">
<path d="M46.623 0H1.37711C0.794952 0 0.323242 0.47185 0.323242 1.05386V58.9461C0.323242 59.5281 0.794952 60 1.37711 60H46.623C47.2052 60 47.6769 59.5281 47.6769 58.9461V1.05386C47.6769 0.47185 47.2052 0 46.623 0ZM45.5691 14.4731H25.0539V2.10773H45.5691V14.4731ZM25.0539 31.0539H45.5691V43.4192H25.0539V31.0539ZM25.0539 28.9461V16.5808H45.5691V28.9461H25.0539ZM2.43097 2.10773H22.9462V57.8923H2.43097V2.10773ZM25.0539 57.8923V45.5269H45.5691V57.8923H25.0539Z" fill="#3A9FEC"/>
<path d="M19.9252 25.1523C19.343 25.1523 18.8713 25.6242 18.8713 26.2062V33.794C18.8713 34.376 19.343 34.8479 19.9252 34.8479C20.5074 34.8479 20.9791 34.376 20.9791 33.794V26.2062C20.9791 25.6242 20.5074 25.1523 19.9252 25.1523Z" fill="#3A9FEC"/>
</svg>
