<svg width="60" height="60" viewBox="0 0 60 60" fill="none" xmlns="http://www.w3.org/2000/svg">
<path d="M57.0977 36.7741C57.0977 36.2466 57.385 35.8285 57.9367 35.0737C58.8077 33.8815 60.0008 32.247 60.0008 29.0322C60.0008 24.3482 56.603 20.9698 53.2265 20.4124V15.5162C53.2265 14.9639 52.7788 14.5162 52.2265 14.5162H51.291V11.6452C51.291 11.0929 50.8433 10.6452 50.291 10.6452H46.4846C45.9323 10.6452 45.4846 11.0929 45.4846 11.6452V12.7046C41.2856 4.93934 33.0967 0 24.1945 0C10.8541 0 0.000976562 10.8531 0.000976562 24.1936C0.000976562 37.534 10.8541 48.3871 24.1945 48.3871C28.9762 48.3871 33.7171 46.986 37.7429 44.4194V55.1612C37.7429 57.8292 39.9135 60 42.5817 60H54.1945C56.8625 60 59.0333 57.8294 59.0333 55.1612V43.5483C59.0333 41.0429 58.2678 39.5777 57.7085 38.5083C57.3541 37.8288 57.0977 37.3383 57.0977 36.7741ZM51.2912 16.4517V20.3226H45.4848V16.4517H51.2912ZM47.4203 12.5807H49.3557V14.5162H47.4203V12.5807ZM39.0673 38.5083C38.6356 39.3347 38.085 40.402 37.8548 41.996C33.9087 44.8653 29.0748 46.4515 24.1945 46.4515C11.9217 46.4515 1.93645 36.4673 1.93645 24.1936C1.93645 11.9207 11.9217 1.93548 24.1945 1.93548C32.7193 1.93548 40.5281 6.86222 44.2316 14.5162C43.8548 14.5162 43.5493 14.8217 43.5493 15.1985V20.4126C42.8013 20.5365 42.0552 20.7968 41.3428 21.181C39.9086 12.961 32.7356 6.77427 24.1943 6.77427C14.5896 6.77427 6.77504 14.5889 6.77504 24.1936C6.77504 33.7983 14.5896 41.6129 24.1943 41.6129C30.117 41.6129 35.3844 39.0764 38.6145 34.7622C38.6901 34.8677 38.7675 34.9751 38.8389 35.0737C39.3906 35.8285 39.6779 36.2466 39.6779 36.7741C39.6779 37.3383 39.4215 37.8288 39.0673 38.5083ZM37.5385 32.933C34.7097 37.2239 29.8876 39.6772 24.1943 39.6772C15.657 39.6772 8.71052 32.7307 8.71052 24.1934C8.71052 15.656 15.657 8.70954 24.1943 8.70954C32.1152 8.70954 38.7056 14.696 39.565 22.4747C37.9334 24.0212 36.775 26.3031 36.775 29.0322C36.775 30.712 37.1031 31.9539 37.5385 32.933ZM54.1943 58.0645H42.5815C40.9809 58.0645 39.6782 56.762 39.6782 55.1612V43.5483C39.6782 41.5181 40.2647 40.3954 40.7823 39.4045C41.1906 38.6216 41.6136 37.8135 41.6136 36.7741C41.6136 35.5905 40.9982 34.7475 40.402 33.9319C39.6094 32.8461 38.7103 31.6161 38.7103 29.0322C38.7103 24.835 42.0926 22.2579 44.5167 22.2579H52.2587C54.6828 22.2579 58.0651 24.835 58.0651 29.0322C58.0651 31.6161 57.166 32.8459 56.3734 33.9319C55.7774 34.7478 55.1618 35.5905 55.1618 36.7741C55.1618 37.8133 55.5846 38.6214 55.9931 39.4045C56.5109 40.3954 57.0972 41.5181 57.0972 43.5483V55.1612C57.0972 56.7618 55.7952 58.0645 54.1943 58.0645Z" fill="#3A9FEC"/>
<path d="M47.4194 28.0645H41.613C41.0785 28.0645 40.6453 28.4977 40.6453 29.0322C40.6453 29.5667 41.0785 29.9999 41.613 29.9999H47.4194C47.9539 29.9999 48.3872 29.5667 48.3872 29.0322C48.3872 28.4977 47.9539 28.0645 47.4194 28.0645Z" fill="#3A9FEC"/>
<path d="M54.1937 53.2256H42.5808C42.0463 53.2256 41.613 53.6589 41.613 54.1933C41.613 54.7278 42.0463 55.1611 42.5808 55.1611H54.1937C54.7281 55.1611 55.1614 54.7278 55.1614 54.1933C55.1614 53.6589 54.7281 53.2256 54.1937 53.2256Z" fill="#3A9FEC"/>
<path d="M54.1936 29.0322C54.1936 29.5667 54.6269 29.9999 55.1613 29.9999C55.6958 29.9999 56.1291 29.5667 56.1291 29.0322C56.1291 28.4977 55.6958 28.0645 55.1613 28.0645C54.6269 28.0645 54.1936 28.4977 54.1936 29.0322Z" fill="#3A9FEC"/>
<path d="M50.3228 29.0322C50.3228 29.5667 50.756 29.9999 51.2905 29.9999C51.825 29.9999 52.2582 29.5667 52.2582 29.0322C52.2582 28.4977 51.825 28.0645 51.2905 28.0645C50.756 28.0645 50.3228 28.4977 50.3228 29.0322Z" fill="#3A9FEC"/>
<path d="M8.77851 45.4809C8.70273 44.9519 8.27672 44.5161 7.74226 44.5161C7.20779 44.5161 6.78179 44.9519 6.706 45.4809C6.28137 48.4452 3.92994 50.7972 0.965069 51.2219C0.436003 51.2977 0.000244141 51.7237 0.000244141 52.2581C0.000244141 52.7926 0.436003 53.2186 0.96507 53.2944C3.92996 53.719 6.28139 56.0709 6.706 59.0353C6.78179 59.5644 7.20779 60.0001 7.74226 60.0001C8.27672 60.0001 8.70273 59.5644 8.77852 59.0353C9.20315 56.071 11.5546 53.719 14.5194 53.2944C15.0485 53.2186 15.4843 52.7926 15.4843 52.2581C15.4843 51.7237 15.0485 51.2977 14.5194 51.2219C11.5544 50.7972 9.20312 48.4452 8.77851 45.4809ZM7.74215 56.0119C6.91181 54.4055 5.59465 53.0884 3.98826 52.258C5.59465 51.4277 6.91181 50.1105 7.74215 48.5041C8.5725 50.1105 9.88966 51.4277 11.496 52.258C9.88945 53.0884 8.57229 54.4055 7.74215 56.0119Z" fill="#3A9FEC"/>
<path d="M19.451 21.2843C19.345 20.7604 18.9218 20.3228 18.3873 20.3228C17.8529 20.3228 17.4297 20.7604 17.3237 21.2843C16.9394 23.1824 15.4406 24.6814 13.5423 25.0656C13.0185 25.1716 12.5808 25.5948 12.5808 26.1293C12.5808 26.6638 13.0185 27.0869 13.5423 27.193C15.4405 27.5772 16.9394 29.076 17.3237 30.9743C17.4297 31.4982 17.8529 31.9358 18.3873 31.9358C18.9218 31.9358 19.345 31.4982 19.451 30.9743C19.8353 29.0762 21.3341 27.5772 23.2323 27.193C23.7562 27.0869 24.1939 26.6637 24.1939 26.1293C24.1939 25.5948 23.7562 25.1716 23.2324 25.0656C21.334 24.6813 19.8352 23.1824 19.451 21.2843ZM18.3874 28.4487C17.8156 27.4994 17.0162 26.7009 16.0678 26.129C17.017 25.5571 17.8156 24.7577 18.3874 23.8093C18.9593 24.7586 19.7587 25.5571 20.7071 26.129C19.7587 26.7011 18.9593 27.5004 18.3874 28.4487Z" fill="#3A9FEC"/>
</svg>
