<svg width="60" height="60" viewBox="0 0 60 60" fill="none" xmlns="http://www.w3.org/2000/svg">
<path d="M59 0H1C0.44775 0 0 0.44775 0 1V59C0 59.5522 0.44775 60 1 60H59C59.5522 60 60 59.5522 60 59V1C60 0.44775 59.5522 0 59 0ZM12 58C8.68637 58.019 5.98475 55.3481 5.96562 52.0345C5.9465 48.7209 8.6175 46.0193 11.9311 46.0001C12.7264 45.9956 13.5146 46.1491 14.25 46.4519C13.7611 46.9562 13.3409 47.5228 13 48.1369C10.8676 47.5596 8.671 48.8201 8.09375 50.9526C7.5165 53.085 8.777 55.2816 10.9095 55.8589C11.594 56.0443 12.3156 56.0443 13.0001 55.8589C13.3425 56.4754 13.7645 57.0443 14.2551 57.5509C13.5393 57.8446 12.7736 57.9971 12 58ZM12.257 53.975C11.1671 54.1542 10.1382 53.4159 9.959 52.326C9.77975 51.2361 10.5181 50.2072 11.608 50.028C11.8229 49.9926 12.0421 49.9926 12.257 50.028C11.915 51.3214 11.915 52.6815 12.257 53.975ZM21.165 53.617C20.8269 53.8646 20.419 53.9987 20 54C18.8955 54.0051 17.9959 53.1138 17.9909 52.0093C17.9858 50.9048 18.8771 50.0051 19.9816 50C20.4065 49.998 20.821 50.1315 21.165 50.381C20.945 51.4485 20.945 52.5495 21.165 53.617ZM20 48C17.791 47.9793 15.9834 49.7533 15.9626 51.9624C15.9419 54.1714 17.7159 55.979 19.925 55.9997C20.5901 56.006 21.2463 55.8463 21.834 55.5351C22.133 56.1394 22.5066 56.7038 22.946 57.2151C22.049 57.7286 21.0336 57.9993 20 58.0001C16.6863 58.0011 13.9993 55.3156 13.9983 52.0019C13.9972 48.6881 16.6828 46.0011 19.9965 46.0001C21.0326 45.9999 22.0512 46.2679 22.953 46.7781C22.5102 47.291 22.1344 47.8579 21.834 48.4651C21.2692 48.1639 20.64 48.0044 20 48ZM29 58C25.6863 58 23 55.3138 23 52C23 48.6862 25.6863 46 29 46C32.3138 46 35 48.6862 35 52C34.9967 55.3124 32.3124 57.9967 29 58ZM44 55C44 56.6569 42.6569 58 41 58V46C42.6569 46 44 47.3431 44 49V55ZM49 55C49 56.6569 47.6569 58 46 58V46C47.6569 46 49 47.3431 49 49V55ZM54 55C54 56.6569 52.6569 58 51 58V46C52.6569 46 54 47.3431 54 49V55ZM58 58H54.974C55.6357 57.1396 55.9964 56.0855 56 55V49C55.9967 46.24 53.76 44.0033 51 44H50C49.4478 44 49 44.4478 49 45V45.026C48.1396 44.3643 47.0855 44.0036 46 44H45C44.4478 44 44 44.4478 44 45V45.026C43.1396 44.3643 42.0855 44.0036 41 44H40C39.4478 44 39 44.4478 39 45V58H34.274C37.5999 55.099 37.9444 50.0511 35.0435 46.7253C32.3774 43.6686 27.8444 43.0941 24.5 45.389C21.9586 43.6527 18.6444 43.536 15.987 45.089C12.1696 42.8831 7.28675 44.1894 5.08087 48.0067C3.17562 51.3039 3.86437 55.4876 6.726 58H2V42H58V58ZM58 40H2V38H58V40ZM6 36V32C6 30.8954 6.89538 30 8 30C9.10462 30 10 30.8954 10 32V36H6ZM16 36V32C16 30.8954 16.8954 30 18 30C19.1046 30 20 30.8954 20 32V36H16ZM25.869 36L28 32.8L30.131 36H25.869ZM36.1 36L36.918 27H41.092L41.91 36H36.1ZM48.1 36L48.918 27H53.092L53.91 36H48.1ZM58 36H55.913L55 25.909C54.9528 25.3925 54.5186 24.9979 54 25H48C47.4814 24.9979 47.0472 25.3925 47 25.909L46.087 36H43.913L43 25.909C42.9528 25.3925 42.5186 24.9979 42 25H36C35.4814 24.9979 35.0472 25.3925 35 25.909L34.087 36H32.535L29 30.7V26H30C30.5522 26 31 25.5522 31 25C31 24.4478 30.5522 24 30 24H26C25.4478 24 25 24.4478 25 25C25 25.5522 25.4478 26 26 26H27V30.7L23.465 36H22V32C21.9931 30.1816 20.7607 28.5966 19 28.142V26H21C21.5522 26 22 25.5522 22 25C22 24.4478 21.5522 24 21 24H15C14.4478 24 14 24.4478 14 25C14 25.5522 14.4478 26 15 26H17V28.142C15.2394 28.5966 14.0069 30.1816 14 32V36H12V32C11.9931 30.1816 10.7607 28.5966 9 28.142V26H11C11.5522 26 12 25.5522 12 25C12 24.4478 11.5522 24 11 24H5C4.44775 24 4 24.4478 4 25C4 25.5522 4.44775 26 5 26H7V28.142C5.23938 28.5966 4.00688 30.1816 4 32V36H2V16H4V19C4 19.5522 4.44775 20 5 20H54C54.5522 20 55 19.5522 55 19V16H58V36ZM9.125 16H53V18H6V16H9.125ZM6 14V12C6 11.4478 6.44775 11 7 11C7.55225 11 8 11.4478 8 12V14H6ZM51 14V12C51 11.4478 51.4478 11 52 11C52.5522 11 53 11.4478 53 12V14H51ZM58 14H55V12C55 10.3431 53.6569 9 52 9C50.3431 9 49 10.3431 49 12V14H10V12C10 10.3431 8.65687 9 7 9C5.34312 9 4 10.3431 4 12V14H2V2H58V14Z" fill="#3A9FEC"/>
<path d="M23 12H37C37.5523 12 38 11.5522 38 11V5C38 4.44775 37.5523 4 37 4H23C22.4478 4 22 4.44775 22 5V11C22 11.5522 22.4478 12 23 12ZM24 6H36V10H24V6Z" fill="#3A9FEC"/>
<path d="M29 48C26.7909 48 25 49.7909 25 52C25 54.2091 26.7909 56 29 56C31.2091 56 33 54.2091 33 52C33 49.7909 31.2091 48 29 48ZM29 54C27.8954 54 27 53.1046 27 52C27 50.8954 27.8954 50 29 50C30.1046 50 31 50.8954 31 52C31 53.1046 30.1046 54 29 54Z" fill="#3A9FEC"/>
<path d="M44 12C46.2091 12 48 10.2091 48 8C48 5.79087 46.2091 4 44 4C41.7909 4 40 5.79087 40 8C40 10.2091 41.7909 12 44 12ZM44 6C45.1046 6 46 6.89538 46 8C46 9.10462 45.1046 10 44 10C42.8954 10 42 9.10462 42 8C42 6.89538 42.8954 6 44 6Z" fill="#3A9FEC"/>
<path d="M16 12C18.2091 12 20 10.2091 20 8C20 5.79087 18.2091 4 16 4C13.7909 4 12 5.79087 12 8C12 10.2091 13.7909 12 16 12ZM16 6C17.1046 6 18 6.89538 18 8C18 9.10462 17.1046 10 16 10C14.8954 10 14 9.10462 14 8C14 6.89538 14.8954 6 16 6Z" fill="#3A9FEC"/>
</svg>
