<svg width="60" height="60" viewBox="0 0 60 60" fill="none" xmlns="http://www.w3.org/2000/svg">
<path d="M59.9991 31.507C59.9931 31.1636 59.778 30.8432 59.4598 30.7114L36.5167 20.6163V2.40417C36.5167 1.91757 36.1226 1.52344 35.636 1.52344H24.364C23.8774 1.52344 23.4833 1.91757 23.4833 2.40417V20.6163L0.540161 30.7114C0.217438 30.8469 0 31.1732 0 31.5234V42.7954C0 43.282 0.394134 43.6761 0.880737 43.6761H59.1193C59.6059 43.6761 60 43.282 60 42.7954V31.5234C60 31.5179 59.9991 31.5125 59.9991 31.507ZM25.2448 3.28491H34.7552V20.3101H25.2448V3.28491ZM1.76147 41.9147V32.4042H44.599C45.0851 32.4042 45.4793 32.0096 45.4793 31.5234C45.4793 31.0373 45.0851 30.6427 44.599 30.6427H5.06882L24.549 22.0715H35.451L54.9312 30.6427H48.7477C48.2611 30.6427 47.867 31.0373 47.867 31.5234C47.867 32.0096 48.2611 32.4042 48.7477 32.4042H58.2385V41.9147H1.76147Z" fill="#3A9FEC"/>
<path d="M45.0294 34.3999C43.5078 34.3999 42.27 35.6377 42.27 37.1593C42.27 38.6809 43.5078 39.9187 45.0294 39.9187C46.551 39.9187 47.7888 38.6809 47.7888 37.1593C47.7888 35.6377 46.551 34.3999 45.0294 34.3999ZM45.0294 38.1572C44.4792 38.1572 44.0315 37.7095 44.0315 37.1593C44.0315 36.6091 44.4792 36.1614 45.0294 36.1614C45.5797 36.1614 46.0273 36.6091 46.0273 37.1593C46.0273 37.7095 45.5797 38.1572 45.0294 38.1572Z" fill="#3A9FEC"/>
<path d="M14.9708 34.3999C13.4492 34.3999 12.2114 35.6377 12.2114 37.1593C12.2114 38.6809 13.4492 39.9187 14.9708 39.9187C16.4924 39.9187 17.7302 38.6809 17.7302 37.1593C17.7302 35.6377 16.4924 34.3999 14.9708 34.3999ZM14.9708 38.1572C14.4206 38.1572 13.9729 37.7095 13.9729 37.1593C13.9729 36.6091 14.4206 36.1614 14.9708 36.1614C15.5211 36.1614 15.9688 36.6091 15.9688 37.1593C15.9688 37.7095 15.5211 38.1572 14.9708 38.1572Z" fill="#3A9FEC"/>
<path d="M37.5145 34.3999H22.4852C21.9986 34.3999 21.6045 34.7945 21.6045 35.2806V39.038C21.6045 39.5241 21.9986 39.9187 22.4852 39.9187H37.5145C38.0011 39.9187 38.3953 39.5241 38.3953 39.038V35.2806C38.3953 34.7945 38.0011 34.3999 37.5145 34.3999ZM36.6338 38.1572H23.366V36.1614H36.6338V38.1572Z" fill="#3A9FEC"/>
<path d="M50.6654 34.3999C50.1788 34.3999 49.7847 34.7945 49.7847 35.2806V39.038C49.7847 39.5241 50.1788 39.9187 50.6654 39.9187C51.152 39.9187 51.5461 39.5241 51.5461 39.038V35.2806C51.5461 34.7945 51.152 34.3999 50.6654 34.3999Z" fill="#3A9FEC"/>
<path d="M53.4833 34.3999C52.9971 34.3999 52.6025 34.7945 52.6025 35.2806V39.038C52.6025 39.5241 52.9971 39.9187 53.4833 39.9187C53.9699 39.9187 54.364 39.5241 54.364 39.038V35.2806C54.364 34.7945 53.9699 34.3999 53.4833 34.3999Z" fill="#3A9FEC"/>
<path d="M56.3011 34.3999C55.815 34.3999 55.4204 34.7945 55.4204 35.2806V39.038C55.4204 39.5241 55.815 39.9187 56.3011 39.9187C56.7878 39.9187 57.1819 39.5241 57.1819 39.038V35.2806C57.1819 34.7945 56.7878 34.3999 56.3011 34.3999Z" fill="#3A9FEC"/>
<path d="M9.33484 34.3999C8.84824 34.3999 8.4541 34.7945 8.4541 35.2806V39.038C8.4541 39.5241 8.84824 39.9187 9.33484 39.9187C9.82144 39.9187 10.2156 39.5241 10.2156 39.038V35.2806C10.2156 34.7945 9.82144 34.3999 9.33484 34.3999Z" fill="#3A9FEC"/>
<path d="M6.51672 34.3999C6.03012 34.3999 5.63599 34.7945 5.63599 35.2806V39.038C5.63599 39.5241 6.03012 39.9187 6.51672 39.9187C7.00287 39.9187 7.39746 39.5241 7.39746 39.038V35.2806C7.39746 34.7945 7.00287 34.3999 6.51672 34.3999Z" fill="#3A9FEC"/>
<path d="M3.69861 34.3999C3.21201 34.3999 2.81787 34.7945 2.81787 35.2806V39.038C2.81787 39.5241 3.21201 39.9187 3.69861 39.9187C4.18475 39.9187 4.57935 39.5241 4.57935 39.038V35.2806C4.57935 34.7945 4.18475 34.3999 3.69861 34.3999Z" fill="#3A9FEC"/>
<path d="M31.8788 45.6719C31.79 45.6719 29.6939 45.6906 28.7005 47.2979C27.9191 48.5622 28.0912 50.3401 29.2123 52.5823C30.0161 54.1899 30.2267 55.4557 29.8056 56.1469C29.3345 56.92 28.1283 56.9438 28.1215 56.9438C27.6349 56.9438 27.2407 57.3384 27.2407 57.8246C27.2407 58.3112 27.6349 58.7053 28.1215 58.7053C28.2103 58.7053 30.3064 58.687 31.2997 57.0793C32.0811 55.815 31.909 54.037 30.7879 51.7949C29.9841 50.1877 29.7735 48.9215 30.1947 48.2308C30.662 47.464 31.8518 47.4338 31.8838 47.4333C32.3677 47.4306 32.7595 47.0374 32.7595 46.5526C32.7595 46.0665 32.3654 45.6719 31.8788 45.6719Z" fill="#3A9FEC"/>
<path d="M41.2719 45.6719C41.183 45.6719 39.0869 45.6906 38.0936 47.2979C37.3122 48.5622 37.4843 50.3401 38.6054 52.5823C39.4092 54.1899 39.6198 55.4557 39.1986 56.1469C38.7276 56.92 37.5214 56.9438 37.5145 56.9438C37.0348 56.9438 36.6338 57.3448 36.6338 57.8246C36.6338 58.3048 37.0348 58.7053 37.5145 58.7053C37.6033 58.7053 39.6994 58.687 40.6928 57.0793C41.4742 55.815 41.3021 54.037 40.181 51.7949C39.3772 50.1877 39.1666 48.9215 39.5877 48.2308C40.0551 47.464 41.2448 47.4338 41.2769 47.4333C41.7607 47.4306 42.1526 47.0374 42.1526 46.5526C42.1526 46.0665 41.7585 45.6719 41.2719 45.6719Z" fill="#3A9FEC"/>
<path d="M22.4852 45.6719C22.3964 45.6719 20.3003 45.6906 19.307 47.2979C18.5256 48.5622 18.6977 50.3401 19.8188 52.5823C20.6226 54.1899 20.8332 55.4557 20.412 56.1469C19.941 56.92 18.7348 56.9438 18.7279 56.9438C18.2482 56.9438 17.8472 57.3448 17.8472 57.8246C17.8472 58.3048 18.2482 58.7053 18.7279 58.7053C18.8167 58.7053 20.9128 58.687 21.9062 57.0793C22.6876 55.815 22.5154 54.037 21.3944 51.7949C20.5905 50.1877 20.38 48.9215 20.8011 48.2308C21.2685 47.464 22.4582 47.4338 22.4898 47.4333C22.9741 47.4306 23.366 47.0374 23.366 46.5526C23.366 46.0665 22.9718 45.6719 22.4852 45.6719Z" fill="#3A9FEC"/>
</svg>
