<svg width="52" height="60" viewBox="0 0 52 60" fill="none" xmlns="http://www.w3.org/2000/svg">
<path d="M34.71 3.87109H7.61319C6.01254 3.87109 4.70996 5.17367 4.70996 6.77432V53.2259C4.70996 54.8266 6.01254 56.1292 7.61319 56.1292H34.71C36.3106 56.1292 37.6132 54.8266 37.6132 53.2259V6.77432C37.6132 5.17367 36.3106 3.87109 34.71 3.87109ZM35.6777 53.2259C35.6777 53.7601 35.2432 54.1937 34.71 54.1937H7.61319C7.07996 54.1937 6.64544 53.7601 6.64544 53.2259V41.613H13.5677H21.0135H23.0971H30.839H35.6777V53.2259ZM14.3874 32.9034C14.3874 31.3027 15.69 30.0001 17.2906 30.0001C18.8912 30.0001 20.1938 31.3027 20.1938 32.9034H14.3874ZM20.1812 34.8388L19.3751 39.6775H15.208L14.4009 34.8388H20.1812ZM28.9035 31.9356V39.6775H25.0325V31.9356H28.9035ZM26.0003 30.0001V28.0646H27.9358V30.0001H26.0003ZM35.6777 22.2582H34.71C34.1755 22.2582 33.7422 22.6915 33.7422 23.2259C33.7422 23.7604 34.1755 24.1937 34.71 24.1937H35.6777V39.6775H30.839V30.9679C30.839 30.4334 30.4057 30.0001 29.8712 30.0001V27.1292C29.8712 26.5769 29.4235 26.1292 28.8712 26.1292H25.0648C24.5125 26.1292 24.0648 26.5769 24.0648 27.1292V30.0001C23.5303 30.0001 23.0971 30.4334 23.0971 30.9679V39.6775H21.3358L22.1158 34.9975L22.1293 32.9034C22.1293 30.2353 19.9587 28.0646 17.2906 28.0646C14.6225 28.0646 12.4519 30.2353 12.4519 32.9034V34.8388L13.2483 39.6775H6.64544V24.1937H30.839C31.3735 24.1937 31.8067 23.7604 31.8067 23.2259C31.8067 22.6915 31.3735 22.2582 30.839 22.2582H6.64544V6.77432C6.64544 6.24109 7.07996 5.80658 7.61319 5.80658H34.71C35.2432 5.80658 35.6777 6.24109 35.6777 6.77432V22.2582Z" fill="#3A9FEC"/>
<path d="M14.3875 48.3548C14.3875 48.9071 14.8352 49.3548 15.3875 49.3548H26.9358C27.4881 49.3548 27.9358 48.9071 27.9358 48.3548V44.5483C27.9358 43.9961 27.4881 43.5483 26.9358 43.5483H15.3875C14.8352 43.5483 14.3875 43.9961 14.3875 44.5483V48.3548ZM16.3229 45.4838H26.0003V47.4193H16.3229V45.4838Z" fill="#3A9FEC"/>
<path d="M15.355 7.74219H9.54855C9.01408 7.74219 8.58081 8.17546 8.58081 8.70993C8.58081 9.2444 9.01408 9.67767 9.54855 9.67767H15.355C15.8895 9.67767 16.3227 9.2444 16.3227 8.70993C16.3227 8.17546 15.8895 7.74219 15.355 7.74219Z" fill="#3A9FEC"/>
<path d="M47.2905 16.8213V3.87097C47.2905 1.73613 45.5543 0 43.4195 0C41.815 0 40.4369 0.98129 39.8505 2.37484C38.6069 0.924194 36.7653 0 34.7098 0H7.61306C3.87758 0 0.838867 3.03871 0.838867 6.77419V53.2258C0.838867 56.9603 3.87758 60 7.61306 60H34.7098C36.7653 60 38.6069 59.0758 39.8505 57.6252C40.4369 59.0187 41.815 60 43.4195 60C45.5543 60 47.2905 58.2639 47.2905 56.129V33.5013L51.1614 31.5658V18.7568L47.2905 16.8213ZM45.355 56.129C45.355 57.1965 44.4869 58.0645 43.4195 58.0645C42.3521 58.0645 41.484 57.1965 41.484 56.129V52.2581C41.484 51.7236 41.0508 51.2903 40.5163 51.2903C39.9818 51.2903 39.5485 51.7236 39.5485 52.2581V53.2258C39.5485 55.8939 37.3779 58.0645 34.7098 58.0645H7.61306C4.945 58.0645 2.77435 55.8939 2.77435 53.2258V6.77419C2.77435 4.10613 4.945 1.93548 7.61306 1.93548H34.7098C37.3779 1.93548 39.5485 4.10613 39.5485 6.77419V48.3871C39.5485 48.9216 39.9818 49.3548 40.5163 49.3548C41.0508 49.3548 41.484 48.9216 41.484 48.3871V3.87097C41.484 2.80355 42.3521 1.93548 43.4195 1.93548C44.4869 1.93548 45.355 2.80355 45.355 3.87097V56.129ZM49.226 30.3697L47.2905 31.3374V18.9852L49.226 19.9529V30.3697Z" fill="#3A9FEC"/>
</svg>
