<svg width="60" height="60" viewBox="0 0 60 60" fill="none" xmlns="http://www.w3.org/2000/svg">
<g clip-path="url(#clip0)">
<path d="M54.5091 28.4043C54.3233 27.9557 53.8092 27.7428 53.3606 27.9287C52.912 28.1141 52.6991 28.6286 52.885 29.0772L57.4644 40.13C57.5478 40.3305 57.4828 40.4966 57.4365 40.5772C57.3907 40.6578 57.2827 40.7965 57.0699 40.8267C55.1756 41.0977 53.3615 41.6786 51.6783 42.5529C49.9177 43.4675 48.3462 44.6774 47.0013 46.1532H31.3137C30.8285 46.1532 30.4348 46.5464 30.4348 47.0321C30.4348 47.5178 30.8285 47.9115 31.3137 47.9115H46.3302C46.0194 48.5643 45.3529 49.017 44.583 49.017H3.69267C2.92271 49.017 2.25666 48.5643 1.94584 47.9115H27.5628C28.0485 47.9115 28.4422 47.5178 28.4422 47.0321C28.4422 46.5464 28.0485 46.1532 27.5628 46.1532H2.38621L5.56721 40.5241C5.9586 40.5566 6.34862 40.5744 6.73589 40.5744C7.50814 40.5744 8.27031 40.5099 9.0151 40.3808C10.9606 40.0444 12.5225 39.3298 13.9315 38.1327C14.3014 37.8182 14.3462 37.2634 14.0317 36.8936C13.7173 36.5232 13.1629 36.4784 12.7926 36.7928C11.6335 37.778 10.338 38.3676 8.71526 38.6486C8.00481 38.7718 7.27513 38.8272 6.5331 38.8148L6.78578 38.3676C12.3343 28.548 22.347 22.034 33.5691 20.9423L45.5021 19.7823C46.479 19.6875 47.4225 19.9013 48.2263 20.3582C48.2739 20.3934 48.3252 20.4241 48.3792 20.4488C49.0219 20.848 49.5662 21.4069 49.9525 22.0913C49.9539 22.0935 49.9548 22.0954 49.9562 22.0977C49.9594 22.1032 49.9621 22.1087 49.9653 22.1141C46.9587 22.1073 43.9471 22.2066 40.9904 22.4094C36.036 22.7477 32.3084 23.2915 29.2602 24.1205C26.4536 24.8832 24.1131 25.9278 21.8952 27.4082C18.8305 29.4512 17.0951 31.6883 15.5639 33.6617C15.291 34.0133 15.0338 34.3452 14.7738 34.6693C14.4703 35.0483 14.5312 35.6017 14.9102 35.9052C15.2892 36.2092 15.8422 36.1479 16.1457 35.7688C16.4144 35.4337 16.6758 35.0968 16.9532 34.7398C18.402 32.8721 20.0445 30.7554 22.8712 28.8708C24.9545 27.4801 27.067 26.5384 29.7216 25.8175C32.6554 25.0196 36.2741 24.4941 41.1103 24.164C44.2785 23.9461 47.5122 23.8514 50.7303 23.8784L51.5423 25.8381C51.7282 26.2867 52.2427 26.4995 52.6913 26.3137C53.1399 26.1278 53.3528 25.6138 53.167 25.1652L52.2546 22.9638L53.6517 22.7449C54.6533 22.5884 55.4036 21.8088 55.5748 20.8631L57.35 20.3307C58.9352 19.8555 60 18.4241 60 16.7688C60 14.7185 58.3324 13.0509 56.2825 13.0509H45.4985C44.4182 13.0509 43.5392 12.1715 43.5392 11.0902V10.1367C43.5392 9.65149 43.146 9.25781 42.6603 9.25781C42.1747 9.25781 41.781 9.65149 41.781 10.1367V11.0902C41.781 13.1406 43.4486 14.8087 45.4985 14.8087H56.2825C57.3628 14.8087 58.2417 15.688 58.2417 16.7688C58.2417 17.6413 57.6805 18.3962 56.8451 18.6466L55.2255 19.1323C54.7407 18.393 53.8541 17.9627 52.9262 18.1078L48.9244 18.7345C47.8518 18.1682 46.6122 17.9082 45.3319 18.0327L33.3993 19.1927C27.3618 19.78 21.6581 21.8615 16.7458 25.1368V23.9827C16.7458 23.4041 16.4217 22.8887 15.8994 22.6387C15.378 22.3888 14.7742 22.4584 14.3247 22.8196L13.438 23.5291C12.5756 24.2203 12.0807 25.2503 12.0807 26.354V28.8319C9.40923 31.3285 7.09752 34.2417 5.25502 37.5028L0.114322 46.5995C0.0314661 46.746 -0.00607052 46.9154 0.000795946 47.083C0.000795946 49.1186 1.65699 50.7748 3.69267 50.7748H44.583C46.5184 50.7748 48.1096 49.2779 48.262 47.381C49.4755 46.0392 50.896 44.9406 52.4885 44.1134C53.996 43.3302 55.621 42.8102 57.3184 42.5676C58.0156 42.4682 58.6153 42.0599 58.9641 41.4479C59.3138 40.8345 59.3591 40.108 59.0886 39.4561L54.5091 28.4043ZM53.1981 19.8445C53.3464 19.8217 53.4947 19.8574 53.6165 19.9457C53.7378 20.0345 53.8174 20.165 53.8403 20.3133C53.8417 20.3206 53.8431 20.3275 53.844 20.3348L53.8467 20.349C53.8472 20.3545 53.8481 20.36 53.849 20.365C53.8966 20.6713 53.6865 20.9597 53.3798 21.0077L51.5227 21.2984C51.3103 20.9102 51.0621 20.5509 50.7829 20.2227L53.1981 19.8445ZM13.839 26.3535C13.839 25.7859 14.0935 25.2562 14.5371 24.901L14.988 24.5403V26.3856C14.5989 26.6799 14.2162 26.9816 13.839 27.291V26.3535Z" fill="#3A9FEC"/>
<path d="M47.5593 32.2303V32.0829C47.5593 29.3359 45.3245 27.1011 42.5779 27.1011H30.7799C28.0329 27.1011 25.7981 29.3359 25.7981 32.0829V32.2303C25.7981 34.9769 28.0329 37.2117 30.7799 37.2117H42.5779C45.3245 37.2117 47.5593 34.9769 47.5593 32.2303ZM33.5837 35.4534V34.7819C33.5837 34.5187 33.798 34.3044 34.0616 34.3044H39.2605C39.5237 34.3044 39.7379 34.5187 39.7379 34.7819V35.4534H33.5837ZM45.801 32.2303C45.801 34.0074 44.3554 35.4534 42.5779 35.4534H41.4962V34.7819C41.4962 33.5491 40.4932 32.5462 39.2605 32.5462H34.0616C32.8284 32.5462 31.8255 33.5491 31.8255 34.7819V35.4534H30.7795C29.002 35.4534 27.5564 34.0074 27.5564 32.2303V32.0829C27.5564 30.3054 29.002 28.8593 30.7795 28.8593H42.5779C44.3549 28.8593 45.801 30.3054 45.801 32.0829V32.2303Z" fill="#3A9FEC"/>
<path d="M16.7618 42.6772C16.7618 43.1711 16.3613 43.5717 15.8669 43.5717C15.373 43.5717 14.9724 43.1711 14.9724 42.6772C14.9724 42.1828 15.373 41.7827 15.8669 41.7827C16.3613 41.7827 16.7618 42.1828 16.7618 42.6772Z" fill="#3A9FEC"/>
<path d="M20.5194 42.6772C20.5194 43.1711 20.1188 43.5717 19.6245 43.5717C19.1305 43.5717 18.73 43.1711 18.73 42.6772C18.73 42.1828 19.1305 41.7827 19.6245 41.7827C20.1188 41.7827 20.5194 42.1828 20.5194 42.6772Z" fill="#3A9FEC"/>
<path d="M40.1402 42.6772C40.1402 43.1711 39.7397 43.5717 39.2458 43.5717C38.7514 43.5717 38.3508 43.1711 38.3508 42.6772C38.3508 42.1828 38.7514 41.7827 39.2458 41.7827C39.7397 41.7827 40.1402 42.1828 40.1402 42.6772Z" fill="#3A9FEC"/>
<path d="M43.8981 42.6772C43.8981 43.1711 43.4975 43.5717 43.0031 43.5717C42.5092 43.5717 42.1086 43.1711 42.1086 42.6772C42.1086 42.1828 42.5092 41.7827 43.0031 41.7827C43.4975 41.7827 43.8981 42.1828 43.8981 42.6772Z" fill="#3A9FEC"/>
</g>
<defs>
<clipPath id="clip0">
<rect width="60" height="60" fill="white"/>
</clipPath>
</defs>
</svg>
