<svg width="48" height="60" viewBox="0 0 48 60" fill="none" xmlns="http://www.w3.org/2000/svg">
<path d="M24.9436 16.8852C24.4956 16.6257 23.922 16.7785 23.6625 17.2266C23.4031 17.6747 23.5559 18.2483 24.004 18.5077C26.7148 20.0775 28.6981 22.5882 29.5886 25.5775C29.7097 25.9845 30.0826 26.2476 30.4867 26.2476C30.5753 26.2476 30.6654 26.235 30.7547 26.2084C31.2509 26.0606 31.5334 25.5385 31.3855 25.0422C30.3579 21.5926 28.0702 18.6957 24.9436 16.8852Z" fill="#3A9FEC"/>
<path d="M17.9062 3.75C17.3885 3.75 16.9688 4.16977 16.9688 4.6875C16.9688 5.20523 17.3885 5.625 17.9062 5.625C19.4571 5.625 20.7188 6.88664 20.7188 8.4375C20.7188 8.95523 21.1385 9.375 21.6562 9.375C22.174 9.375 22.5938 8.95523 22.5938 8.4375C22.5938 5.85281 20.4909 3.75 17.9062 3.75Z" fill="#3A9FEC"/>
<path d="M47.9062 30C47.9062 28.3821 46.8764 27.0005 45.4378 26.4757L36.5626 10.2045C36.6232 9.93738 36.6562 9.66012 36.6562 9.375C36.6562 7.30723 34.974 5.625 32.9062 5.625C31.9577 5.625 31.0909 5.97973 30.4298 6.5625H26.1312C25.2759 2.8098 21.9142 0 17.9062 0C13.2538 0 9.46875 3.78504 9.46875 8.4375V13.3924C6.77098 14.847 4.4891 16.9706 2.84519 19.5633C1.04519 22.402 0.09375 25.6868 0.09375 29.0625C0.09375 29.5802 0.513516 30 1.03125 30H34.7812C35.299 30 35.7188 29.5802 35.7188 29.0625C35.7188 25.6868 34.7673 22.402 32.9673 19.5633C31.3234 16.9706 29.0415 14.847 26.3438 13.3924V12.1875H30.4298C30.7774 12.4939 31.1815 12.7376 31.6248 12.8993L40.4999 29.1703C40.4393 29.4374 40.4062 29.7148 40.4062 30C40.4062 30.415 40.475 30.814 40.6001 31.1875L31.2537 53.2791C31.2316 53.3311 31.2156 53.3842 31.2034 53.4375H11.3438C9.79301 53.4375 8.53125 54.6993 8.53125 56.25V59.0625C8.53125 59.5802 8.95102 60 9.46875 60H41.3438C41.8615 60 42.2812 59.5802 42.2812 59.0625V56.25C42.2812 54.6993 41.0195 53.4375 39.4688 53.4375H37.2941L45.78 33.3799C47.037 32.7736 47.9062 31.4864 47.9062 30ZM44.1562 31.875C43.1224 31.875 42.2812 31.0338 42.2812 30C42.2812 29.8084 42.3104 29.6235 42.3641 29.4492C42.384 29.4047 42.4009 29.3591 42.4137 29.3121C42.6887 28.618 43.3654 28.125 44.1562 28.125C45.1901 28.125 46.0312 28.9662 46.0312 30C46.0312 31.0338 45.1901 31.875 44.1562 31.875ZM35.4668 12.1111L43.2408 26.3636C42.6153 26.5211 42.0524 26.8363 41.5956 27.2639L33.8216 13.0116C34.4471 12.8539 35.0101 12.5387 35.4668 12.1111ZM34.7812 9.375C34.7812 9.57867 34.7475 9.77437 34.6873 9.95813C34.6827 9.96914 34.6791 9.98051 34.675 9.99176C34.419 10.7231 33.7239 11.25 32.9062 11.25C32.7793 11.25 32.6553 11.237 32.5354 11.2129C32.5029 11.203 32.4701 11.1945 32.4368 11.1881C32.0919 11.0987 31.7857 10.9144 31.5476 10.6635C31.5236 10.6337 31.4979 10.6054 31.4706 10.5788C31.1968 10.2527 31.0312 9.83297 31.0312 9.375C31.0312 8.9182 31.1959 8.49926 31.4685 8.17371C31.4977 8.14547 31.525 8.11547 31.5503 8.08371C31.892 7.725 32.3729 7.5 32.9062 7.5C33.9401 7.5 34.7812 8.34117 34.7812 9.375ZM31.3837 20.5673C32.826 22.842 33.6589 25.4373 33.8163 28.125H1.99617C2.15355 25.4372 2.98652 22.8418 4.42875 20.5673C5.91727 18.22 7.99066 16.3032 10.442 15H19.7812C20.299 15 20.7188 14.5802 20.7188 14.0625C20.7188 13.5448 20.299 13.125 19.7812 13.125H11.3438V8.4375C11.3438 4.81898 14.2877 1.875 17.9062 1.875C21.5248 1.875 24.4688 4.81898 24.4688 8.4375V13.125H23.5312C23.0135 13.125 22.5938 13.5448 22.5938 14.0625C22.5938 14.5802 23.0135 15 23.5312 15H25.3705C27.8218 16.3032 29.8952 18.2198 31.3837 20.5673ZM26.3438 8.4375H29.275C29.1975 8.73727 29.1562 9.05145 29.1562 9.375C29.1562 9.69855 29.1975 10.0127 29.275 10.3125H26.3438V8.4375ZM40.4062 56.25V58.125H10.4062V56.25C10.4062 55.7331 10.8268 55.3125 11.3438 55.3125H35.8745C35.876 55.3125 35.8775 55.3127 35.8792 55.3127C35.8802 55.3127 35.8813 55.3125 35.8823 55.3125H39.4688C39.9857 55.3125 40.4062 55.7331 40.4062 56.25ZM33.2225 53.4375L41.8791 32.9766C42.3727 33.3551 42.9622 33.6139 43.6049 33.7091L35.2582 53.4375H33.2225Z" fill="#3A9FEC"/>
</svg>
