<svg width="60" height="46" viewBox="0 0 60 46" fill="none" xmlns="http://www.w3.org/2000/svg">
<path d="M59.002 0.514648H0.998043C0.44771 0.514648 0 0.962359 0 1.51269V44.4873C0 45.0376 0.44771 45.4853 0.998043 45.4853H59.002C59.5523 45.4853 60 45.0376 60 44.4873V1.51269C60 0.962359 59.5523 0.514648 59.002 0.514648ZM53.5421 6.97257V24.004C46.6508 24.0888 42.698 25.1608 39.1959 26.1116C38.8683 26.2005 38.5428 26.2888 38.2173 26.3758L33.0043 21.1629C30.9195 19.078 27.5823 18.9934 25.3939 20.906L20.679 16.1911C19.6032 15.1152 17.8526 15.1152 16.7769 16.1911L6.45793 26.51V6.97257H53.5421ZM29.9601 27.7563C29.89 27.7595 29.8225 27.7717 29.7578 27.7901C27.6157 27.1527 25.2329 26.5612 22.5544 26.2163L26.3623 22.4082C27.8502 20.9204 30.2711 20.9203 31.759 22.4082L36.2291 26.8784C34.3928 27.3068 32.4232 27.6443 29.9601 27.7563ZM8.49112 26.9676L18.0223 17.4364C18.4114 17.0474 19.0445 17.0474 19.4338 17.4364L24.1387 22.1413L20.2872 25.9928C16.8436 25.7567 12.9441 25.9631 8.49112 26.9676ZM6.45793 39.0274V29.3014C11.7463 27.8138 16.6984 27.3437 21.5746 27.8703C25.9452 28.3424 29.5083 29.5218 32.6519 30.5623C35.5248 31.5133 38.0061 32.3346 40.3327 32.3346C40.819 32.3346 41.2133 31.9403 41.2133 31.454C41.2133 30.9676 40.819 30.5734 40.3327 30.5734C38.4721 30.5734 36.3504 29.9258 33.9252 29.128C36.0245 28.7972 37.8083 28.3133 39.6573 27.8114C43.2187 26.8445 46.8983 25.8467 53.5421 25.7653V39.0274H6.45793ZM54.058 5.21132H5.942L3.00658 2.2759H56.9933L54.058 5.21132ZM4.69667 6.45665V28.6206C4.69667 28.6227 4.69667 28.6248 4.69667 28.6269V28.6356C4.69667 28.6359 4.69667 28.636 4.69667 28.6362V39.5432L1.76125 42.4786V3.52122L4.69667 6.45665ZM5.942 40.7886H54.0579L56.9933 43.724H3.00658L5.942 40.7886ZM55.3033 39.5433V6.45665L58.2387 3.52122V42.4786L55.3033 39.5433Z" fill="#3A9FEC"/>
<path d="M43.1503 19.1839C45.1897 19.1839 46.8489 17.5247 46.8489 15.4852C46.8489 13.4458 45.1897 11.7866 43.1503 11.7866C41.1109 11.7866 39.4517 13.4458 39.4517 15.4852C39.4517 17.5247 41.1109 19.1839 43.1503 19.1839ZM43.1503 13.5479C44.2185 13.5479 45.0877 14.417 45.0877 15.4852C45.0877 16.5535 44.2185 17.4226 43.1503 17.4226C42.082 17.4226 41.2129 16.5535 41.2129 15.4852C41.2129 14.417 42.082 13.5479 43.1503 13.5479Z" fill="#3A9FEC"/>
</svg>
