<svg width="60" height="59" viewBox="0 0 60 59" fill="none" xmlns="http://www.w3.org/2000/svg">
<path d="M15.5 27.4547C16.0523 27.4547 16.5 27.007 16.5 26.4547V24.6367C16.5 24.0845 16.0523 23.6367 15.5 23.6367C14.9478 23.6367 14.5 24.0845 14.5 24.6367V26.4547C14.5 27.007 14.9478 27.4547 15.5 27.4547Z" fill="#3A9FEC"/>
<path d="M15.5 32.9093C16.0523 32.9093 16.5 32.4616 16.5 31.9093V30.0913C16.5 29.5391 16.0523 29.0913 15.5 29.0913C14.9478 29.0913 14.5 29.5391 14.5 30.0913V31.9093C14.5 32.4616 14.9478 32.9093 15.5 32.9093Z" fill="#3A9FEC"/>
<path d="M15.5 22C16.0522 22 16.5 21.5522 16.5 21C17.0522 21 17.5 20.5522 17.5 20C17.5 19.4477 17.0522 19 16.5 19H15.5C14.9477 19 14.5 19.4477 14.5 20V21C14.5 21.5522 14.9477 22 15.5 22Z" fill="#3A9FEC"/>
<path d="M20.3569 21H22.2859C22.8382 21 23.2859 20.5523 23.2859 20C23.2859 19.4478 22.8382 19 22.2859 19H20.3569C19.8047 19 19.3569 19.4478 19.3569 20C19.3569 20.5523 19.8047 21 20.3569 21Z" fill="#3A9FEC"/>
<path d="M37.7141 21H39.6431C40.1954 21 40.6431 20.5523 40.6431 20C40.6431 19.4478 40.1954 19 39.6431 19H37.7141C37.1619 19 36.7141 19.4478 36.7141 20C36.7141 20.5523 37.1619 21 37.7141 21Z" fill="#3A9FEC"/>
<path d="M31.928 21H33.857C34.4092 21 34.857 20.5523 34.857 20C34.857 19.4478 34.4092 19 33.857 19H31.928C31.3757 19 30.928 19.4478 30.928 20C30.928 20.5523 31.3757 21 31.928 21Z" fill="#3A9FEC"/>
<path d="M26.1431 21H28.0711C28.6233 21 29.0711 20.5523 29.0711 20C29.0711 19.4478 28.6233 19 28.0711 19H26.1431C25.5908 19 25.1431 19.4478 25.1431 20C25.1431 20.5523 25.5908 21 26.1431 21Z" fill="#3A9FEC"/>
<path d="M43.5 21C43.5 21.5522 43.9477 22 44.5 22C45.0522 22 45.5 21.5522 45.5 21V20C45.5 19.4477 45.0522 19 44.5 19H43.5C42.9477 19 42.5 19.4477 42.5 20C42.5 20.5522 42.9477 21 43.5 21Z" fill="#3A9FEC"/>
<path d="M44.5 34.5449C43.9477 34.5449 43.5 34.9927 43.5 35.5449V37.3629C43.5 37.9152 43.9477 38.3629 44.5 38.3629C45.0522 38.3629 45.5 37.9152 45.5 37.3629V35.5449C45.5 34.9927 45.0522 34.5449 44.5 34.5449Z" fill="#3A9FEC"/>
<path d="M44.5 29.0913C43.9477 29.0913 43.5 29.5391 43.5 30.0913V31.9093C43.5 32.4616 43.9477 32.9093 44.5 32.9093C45.0522 32.9093 45.5 32.4616 45.5 31.9093V30.0913C45.5 29.5391 45.0522 29.0913 44.5 29.0913Z" fill="#3A9FEC"/>
<path d="M44.5 23.6362C43.9477 23.6362 43.5 24.084 43.5 24.6362V26.4552C43.5 27.0075 43.9477 27.4552 44.5 27.4552C45.0522 27.4552 45.5 27.0075 45.5 26.4552V24.6362C45.5 24.084 45.0522 23.6362 44.5 23.6362Z" fill="#3A9FEC"/>
<path d="M43.5 43H44.5C45.0522 43 45.5 42.5522 45.5 42V41C45.5 40.4477 45.0522 40 44.5 40C43.9477 40 43.5 40.4477 43.5 41C42.9477 41 42.5 41.4477 42.5 42C42.5 42.5522 42.9477 43 43.5 43Z" fill="#3A9FEC"/>
<path d="M48.5 -1C47.9478 -1 47.5 -0.55225 47.5 0V15H43.5V9C43.5 8.44775 43.0523 8 42.5 8C41.9478 8 41.5 8.44775 41.5 9V15H37.5V6C37.5 5.44775 37.0523 5 36.5 5C35.9478 5 35.5 5.44775 35.5 6V15H31.5V9C31.5 8.44775 31.0523 8 30.5 8C29.9478 8 29.5 8.44775 29.5 9V15H24.5V6C24.5 5.44775 24.0523 5 23.5 5C22.9478 5 22.5 5.44775 22.5 6V15H18.5V9C18.5 8.44775 18.0523 8 17.5 8C16.9478 8 16.5 8.44775 16.5 9V15H12.5V0C12.5 -0.55225 12.0523 -1 11.5 -1C10.9478 -1 10.5 -0.55225 10.5 0V46C10.5 46.5522 10.9478 47 11.5 47H15.04C16.1741 48.2713 17.7964 48.9987 19.5 49H19.58C19.8604 50.9137 20.9165 52.6274 22.5 53.738V58C22.5 58.5522 22.9478 59 23.5 59H37.5C38.0523 59 38.5 58.5522 38.5 58V53.738C40.3746 52.4279 41.494 50.287 41.5 48V47H48.5C49.0523 47 49.5 46.5522 49.5 46V0C49.5 -0.55225 49.0523 -1 48.5 -1ZM39.5 48C39.4946 49.7837 38.5429 51.4308 37 52.326C36.6909 52.5045 36.5004 52.8341 36.5 53.191V57H24.5V53.191C24.4996 52.8341 24.3091 52.5045 24 52.326C22.4571 51.4308 21.5054 49.7837 21.5 48C21.5 47.4478 21.0523 47 20.5 47H19.5C17.2909 47 15.5 45.2091 15.5 43V38C15.5 36.8954 16.3954 36 17.5 36C18.6046 36 19.5 36.8954 19.5 38V38.938C19.5 39.4902 19.9478 39.938 20.5 39.938C21.0523 39.938 21.5 39.4902 21.5 38.938V27.329C21.5169 26.6987 21.9691 26.1646 22.588 26.044C23.0984 25.9211 23.637 26.0359 24.053 26.356C24.327 26.5609 24.4918 26.88 24.5 27.222C24.5058 27.269 24.5151 27.3155 24.528 27.361C24.5151 27.4065 24.5058 27.453 24.5 27.5V34C24.5 34.5522 24.9478 35 25.5 35C26.0523 35 26.5 34.5522 26.5 34V27.5C26.4943 27.453 26.4849 27.4065 26.472 27.361C26.4849 27.3155 26.4943 27.269 26.5 27.222C26.672 26.3936 27.4831 25.8615 28.3115 26.0335C28.909 26.1576 29.3759 26.6245 29.5 27.222C29.5058 27.269 29.5151 27.3155 29.528 27.361C29.5151 27.4065 29.5058 27.453 29.5 27.5V34C29.5 34.5522 29.9478 35 30.5 35C31.0523 35 31.5 34.5522 31.5 34V27.5C31.4943 27.453 31.4849 27.4065 31.472 27.361C31.4849 27.3155 31.4943 27.269 31.5 27.222C31.672 26.3936 32.4831 25.8615 33.3115 26.0335C33.909 26.1576 34.376 26.6245 34.5 27.222C34.5058 27.269 34.5151 27.3155 34.528 27.361C34.5151 27.4065 34.5058 27.453 34.5 27.5V34C34.5 34.5522 34.9478 35 35.5 35C36.0523 35 36.5 34.5522 36.5 34V27.5C36.4943 27.453 36.4849 27.4065 36.472 27.361C36.4849 27.3155 36.4943 27.269 36.5 27.222C36.5073 26.9023 36.6533 26.6015 36.9 26.398C37.3116 26.055 37.8589 25.922 38.382 26.038C39.016 26.1504 39.4833 26.6934 39.5 27.337V48ZM47.5 45H41.5V27.337C41.4815 25.7384 40.3386 24.3744 38.768 24.076C37.6308 23.8395 36.4483 24.1451 35.568 24.903L35.498 24.967C34.0816 23.6752 31.9144 23.6752 30.498 24.967C29.0816 23.6752 26.9144 23.6752 25.498 24.967C25.437 24.91 25.373 24.854 25.307 24.801C24.4224 24.0991 23.267 23.8369 22.166 24.088C20.6284 24.4112 19.5206 25.7579 19.5 27.329V34.545C17.5984 33.4337 15.156 34.0746 14.0448 35.9762C13.686 36.5902 13.4979 37.2889 13.5 38V43C13.5018 43.6818 13.6201 44.3581 13.85 45H12.5V17H47.5V45Z" fill="#3A9FEC"/>
<path d="M2.5 21C2.5 21.5523 2.94772 22 3.5 22C4.05229 22 4.5 21.5523 4.5 21C4.5 20.4477 4.05229 20 3.5 20C2.94772 20 2.5 20.4477 2.5 21Z" fill="#3A9FEC"/>
<path d="M6.5 29C6.5 29.5523 6.94772 30 7.5 30C8.05228 30 8.5 29.5523 8.5 29C8.5 28.4477 8.05228 28 7.5 28C6.94772 28 6.5 28.4477 6.5 29Z" fill="#3A9FEC"/>
<path d="M5.5 16C5.5 16.5523 5.94772 17 6.5 17C7.05229 17 7.5 16.5523 7.5 16C7.5 15.4477 7.05229 15 6.5 15C5.94772 15 5.5 15.4477 5.5 16Z" fill="#3A9FEC"/>
<path d="M4.5 2C4.5 2.55229 4.94772 3 5.5 3C6.05229 3 6.5 2.55229 6.5 2C6.5 1.44772 6.05229 1 5.5 1C4.94772 1 4.5 1.44772 4.5 2Z" fill="#3A9FEC"/>
<path d="M0.5 43C0.5 43.5523 0.947718 44 1.5 44C2.05228 44 2.5 43.5523 2.5 43C2.5 42.4477 2.05228 42 1.5 42C0.947718 42 0.5 42.4477 0.5 43Z" fill="#3A9FEC"/>
<path d="M1.5 9C1.5 9.55229 1.94772 10 2.5 10C3.05228 10 3.5 9.55229 3.5 9C3.5 8.44772 3.05228 8 2.5 8C1.94772 8 1.5 8.44772 1.5 9Z" fill="#3A9FEC"/>
<path d="M3.5 36C3.5 36.5523 3.94772 37 4.5 37C5.05228 37 5.5 36.5523 5.5 36C5.5 35.4477 5.05228 35 4.5 35C3.94772 35 3.5 35.4477 3.5 36Z" fill="#3A9FEC"/>
<path d="M55.5 21C55.5 21.5523 55.9477 22 56.5 22C57.0523 22 57.5 21.5523 57.5 21C57.5 20.4477 57.0523 20 56.5 20C55.9477 20 55.5 20.4477 55.5 21Z" fill="#3A9FEC"/>
<path d="M51.5 29C51.5 29.5523 51.9477 30 52.5 30C53.0523 30 53.5 29.5523 53.5 29C53.5 28.4477 53.0523 28 52.5 28C51.9477 28 51.5 28.4477 51.5 29Z" fill="#3A9FEC"/>
<path d="M52.5 16C52.5 16.5523 52.9477 17 53.5 17C54.0523 17 54.5 16.5523 54.5 16C54.5 15.4477 54.0523 15 53.5 15C52.9477 15 52.5 15.4477 52.5 16Z" fill="#3A9FEC"/>
<path d="M53.5 2C53.5 2.55228 53.9477 3 54.5 3C55.0523 3 55.5 2.55228 55.5 2C55.5 1.44772 55.0523 1 54.5 1C53.9477 1 53.5 1.44772 53.5 2Z" fill="#3A9FEC"/>
<path d="M57.5 43C57.5 43.5523 57.9477 44 58.5 44C59.0523 44 59.5 43.5523 59.5 43C59.5 42.4477 59.0523 42 58.5 42C57.9477 42 57.5 42.4477 57.5 43Z" fill="#3A9FEC"/>
<path d="M56.5 9C56.5 9.55228 56.9477 10 57.5 10C58.0523 10 58.5 9.55228 58.5 9C58.5 8.44772 58.0523 8 57.5 8C56.9477 8 56.5 8.44772 56.5 9Z" fill="#3A9FEC"/>
<path d="M54.5 36C54.5 36.5523 54.9477 37 55.5 37C56.0523 37 56.5 36.5523 56.5 36C56.5 35.4477 56.0523 35 55.5 35C54.9477 35 54.5 35.4477 54.5 36Z" fill="#3A9FEC"/>
</svg>
