<svg width="60" height="46" viewBox="0 0 60 46" fill="none" xmlns="http://www.w3.org/2000/svg">
<path d="M55 12H54V5C53.9967 2.24 51.76 0.00325 49 0H11C8.24 0.00325 6.00325 2.24 6 5V12H5C2.24 12.0033 0.00325 14.24 0 17V33C0.00325 35.76 2.24 37.9968 5 38H6V45C6 45.5523 6.44775 46 7 46H9C9.41712 46.0003 9.79063 45.7416 9.937 45.351L12.693 38H47.307L50.063 45.351C50.2094 45.7416 50.5829 46.0003 51 46H53C53.5522 46 54 45.5523 54 45V38H55C57.76 37.9968 59.9967 35.76 60 33V17C59.9967 14.24 57.76 12.0033 55 12ZM8 5C8 3.34313 9.34313 2 11 2H49C50.6569 2 52 3.34313 52 5V12H49C48.4478 12 48 12.4478 48 13V24H12V13C12 12.4478 11.5522 12 11 12H8V5ZM2 17C2 15.3431 3.34312 14 5 14H10V24H2V17ZM8.307 44H8V38H10.557L8.307 44ZM52 44H51.693L49.443 38H52V44ZM58 33C58 34.6569 56.6569 36 55 36H5C3.34312 36 2 34.6569 2 33V26H58V33ZM58 24H50V14H55C56.6569 14 58 15.3431 58 17V24Z" fill="#3A9FEC"/>
<circle cx="42" cy="17" r="1" fill="#3A9FEC"/>
<circle cx="30" cy="17" r="1" fill="#3A9FEC"/>
<circle cx="18" cy="17" r="1" fill="#3A9FEC"/>
<circle cx="42" cy="9" r="1" fill="#3A9FEC"/>
<circle cx="30" cy="9" r="1" fill="#3A9FEC"/>
<circle cx="18" cy="9" r="1" fill="#3A9FEC"/>
<path d="M5 34H47C47.5522 34 48 33.5522 48 33C48 32.4477 47.5522 32 47 32H5C4.44775 32 4 32.4477 4 33C4 33.5522 4.44775 34 5 34Z" fill="#3A9FEC"/>
<path d="M51 34H55C55.5522 34 56 33.5522 56 33C56 32.4477 55.5522 32 55 32H51C50.4477 32 50 32.4477 50 33C50 33.5522 50.4477 34 51 34Z" fill="#3A9FEC"/>
</svg>
