<svg width="46" height="60" viewBox="0 0 46 60" fill="none" xmlns="http://www.w3.org/2000/svg">
<path d="M16 51C16.5523 51 17 50.5522 17 50V41C17 40.4477 16.5523 40 16 40C15.4478 40 15 40.4477 15 41V50C15 50.5522 15.4478 51 16 51Z" fill="#3A9FEC"/>
<path d="M23 51C23.5522 51 24 50.5522 24 50V41C24 40.4477 23.5522 40 23 40C22.4477 40 22 40.4477 22 41V50C22 50.5522 22.4477 51 23 51Z" fill="#3A9FEC"/>
<path d="M30 51C30.5522 51 31 50.5522 31 50V41C31 40.4477 30.5522 40 30 40C29.4477 40 29 40.4477 29 41V50C29 50.5522 29.4477 51 30 51Z" fill="#3A9FEC"/>
<path d="M16 38C16.5523 38 17 37.5522 17 37V35C17 34.4477 16.5523 34 16 34C15.4478 34 15 34.4477 15 35V37C15 37.5522 15.4478 38 16 38Z" fill="#3A9FEC"/>
<path d="M23 38C23.5522 38 24 37.5522 24 37V35C24 34.4477 23.5522 34 23 34C22.4477 34 22 34.4477 22 35V37C22 37.5522 22.4477 38 23 38Z" fill="#3A9FEC"/>
<path d="M30 38C30.5522 38 31 37.5522 31 37V35C31 34.4477 30.5522 34 30 34C29.4477 34 29 34.4477 29 35V37C29 37.5522 29.4477 38 30 38Z" fill="#3A9FEC"/>
<path d="M43 23H42V16C41.9985 14.729 41.1978 13.5964 40 13.171V4C40 3.44775 39.5523 3 39 3H35C34.4478 3 34 3.44775 34 4V13.171C32.8023 13.5964 32.0015 14.729 32 16V16.726C30.9044 15.4806 29.4484 14.6069 27.834 14.226L29.8 11.6C30.1314 11.1581 30.0419 10.5314 29.6 10.2C29.4269 10.0701 29.2164 10 29 10H26.737C25.9904 7.13088 23.721 4.908 20.837 4.221L22.8 1.6C23.1314 1.15813 23.0419 0.531375 22.6 0.2C22.4269 0.070125 22.2164 0 22 0H16C15.4478 0 15 0.44775 15 1C15 1.21638 15.0701 1.42688 15.2 1.6L17.166 4.221C14.2809 4.90713 12.0101 7.13 11.263 10H9C8.44775 10 8 10.4478 8 11C8 11.2164 8.07013 11.4269 8.2 11.6L10.166 14.221C6.55738 15.0735 4.00625 18.2921 4 22V23H3C1.34313 23 0 24.3431 0 26V28C0 29.6569 1.34313 31 3 31H5.794L9.007 59.113C9.0645 59.6181 9.49162 59.9997 10 60H36C36.5084 59.9997 36.9355 59.6181 36.993 59.113L40.206 31H43C44.6569 31 46 29.6569 46 28V26C46 24.3431 44.6569 23 43 23ZM36 5H38V7H36V5ZM34 16C34 15.4478 34.4478 15 35 15C35.5523 15 36 14.5523 36 14V9H38V14C38 14.5523 38.4478 15 39 15C39.5523 15 40 15.4478 40 16V19H34V16ZM34 22V21H40V23H34V22ZM24.829 18.556L24.832 18.555L26 16.8L27.168 18.552C27.4745 19.0115 28.0955 19.1355 28.555 18.829C29.0145 18.5225 29.1385 17.9015 28.832 17.442L28.132 16.396C30.4591 17.2806 31.9981 19.5104 32 22V23H20V22C20.003 19.5126 21.5405 17.2851 23.865 16.4L23.165 17.446C22.8585 17.9055 22.9825 18.5265 23.442 18.833C23.9015 19.1395 24.5225 19.0155 24.829 18.556ZM20 2L19 3.333L18 2H20ZM16.865 6.4L16.165 7.446C15.8585 7.9055 15.9825 8.5265 16.442 8.833C16.9015 9.1395 17.5225 9.0155 17.829 8.556L19 6.8L20.168 8.552C20.4745 9.0115 21.0955 9.1355 21.555 8.829C22.0145 8.5225 22.1385 7.9015 21.832 7.442L21.132 6.396C22.7749 7.02575 24.0601 8.34237 24.65 10H23C22.4478 10 22 10.4478 22 11C22 11.2164 22.0701 11.4269 22.2 11.6L24.166 14.221C21.97 14.7414 20.0948 16.1625 19 18.136C17.9053 16.1625 16.03 14.7414 13.834 14.221L15.8 11.6C16.1314 11.1581 16.0419 10.5314 15.6 10.2C15.4269 10.0701 15.2164 10 15 10H13.35C13.9403 8.34463 15.2241 7.02963 16.865 6.4ZM6 22C6.003 19.5126 7.5405 17.2851 9.865 16.4L9.165 17.446C8.8585 17.9055 8.9825 18.5265 9.442 18.833C9.9015 19.1395 10.5225 19.0155 10.829 18.556L12 16.8L13.168 18.552C13.4745 19.0115 14.0955 19.1355 14.555 18.829C15.0145 18.5225 15.1385 17.9015 14.832 17.442L14.132 16.396C16.4591 17.2806 17.9981 19.5104 18 22V23H6V22ZM35.107 58H10.893L10.664 56H35.336L35.107 58ZM35.565 54H10.435L7.806 31H38.194L35.565 54ZM44 28C44 28.5523 43.5523 29 43 29H3C2.44775 29 2 28.5523 2 28V26C2 25.4478 2.44775 25 3 25H33H43C43.5523 25 44 25.4478 44 26V28Z" fill="#3A9FEC"/>
</svg>
