<svg width="60" height="60" viewBox="0 0 60 60" fill="none" xmlns="http://www.w3.org/2000/svg">
<path d="M43.9302 47.5347V37.9224C43.9301 36.4817 42.758 35.3096 41.3173 35.3096H7.61777C6.17707 35.3096 5.00484 36.4817 5.00484 37.9224V47.5347C3.92555 47.9016 3.14648 48.9243 3.14648 50.1262C3.14648 51.6354 4.37438 52.8632 5.8834 52.8632H43.0515C44.5607 52.8632 45.7884 51.6353 45.7884 50.1262C45.7886 48.9243 45.0095 47.9016 43.9302 47.5347ZM6.76207 37.9223C6.76207 37.4505 7.14586 37.0667 7.61777 37.0667H41.3173C41.7891 37.0667 42.173 37.4505 42.173 37.9223V47.3891H6.76207V37.9223ZM43.0514 51.106H5.88352C5.3434 51.106 4.90383 50.6664 4.90383 50.1262C4.90383 49.5861 5.3434 49.1465 5.88352 49.1465H43.0516C43.5918 49.1465 44.0313 49.5861 44.0313 50.1262C44.0312 50.6664 43.5918 51.106 43.0514 51.106Z" fill="#3A9FEC"/>
<path d="M45.6709 38.6787C45.2491 38.6787 44.9072 39.0206 44.9072 39.4424V39.6722C44.9072 40.094 45.2491 40.4359 45.6709 40.4359C46.6645 40.4359 46.6645 40.6735 46.6645 41.0023V52.7453C46.6645 53.546 46.1259 54.4937 45.6709 54.4937H3.26441C2.74551 54.4937 2.03066 53.4806 2.03066 52.7453V41.0024C2.03066 40.8187 2.03066 40.4361 3.26441 40.4361C3.68296 40.4361 4.02227 40.0968 4.02227 39.6782V39.4367C4.02227 39.0181 3.68296 38.6788 3.26441 38.6788C2.48289 38.6788 1.83988 38.8196 1.3532 39.0971C0.656875 39.4941 0.273438 40.1709 0.273438 41.0027V52.7456C0.273438 53.4839 0.577188 54.3292 1.08602 55.0065C1.68004 55.7977 2.47422 56.2513 3.26453 56.2513H4.02238V59.1213C4.02238 59.6065 4.41575 59.9999 4.901 59.9999C5.38624 59.9999 5.77961 59.6065 5.77961 59.1213V56.2511H43.9703V59.1213C43.9703 59.6065 44.3637 59.9999 44.8489 59.9999C45.3342 59.9999 45.7275 59.6065 45.7275 59.1213V56.249C47.4629 56.2051 48.422 54.1628 48.422 52.7454V41.0024C48.4217 40.1345 48.0643 38.6787 45.6709 38.6787Z" fill="#3A9FEC"/>
<path d="M10.6408 40.5532H10.5236C10.0384 40.5532 9.64502 40.9466 9.64502 41.4318C9.64502 41.9171 10.0384 42.3104 10.5236 42.3104H10.6408C11.1261 42.3104 11.5194 41.9171 11.5194 41.4318C11.5194 40.9466 11.1261 40.5532 10.6408 40.5532Z" fill="#3A9FEC"/>
<path d="M38.522 40.5532H38.2878C37.8025 40.5532 37.4092 40.9466 37.4092 41.4318C37.4092 41.9171 37.8025 42.3104 38.2878 42.3104H38.522C39.0073 42.3104 39.4007 41.9171 39.4007 41.4318C39.4007 40.9466 39.0073 40.5532 38.522 40.5532Z" fill="#3A9FEC"/>
<path d="M24.5815 40.5532H24.4643C23.9791 40.5532 23.5857 40.9466 23.5857 41.4318C23.5857 41.9171 23.9791 42.3104 24.4643 42.3104H24.5815C25.0667 42.3104 25.4601 41.9171 25.4601 41.4318C25.4601 40.9466 25.0667 40.5532 24.5815 40.5532Z" fill="#3A9FEC"/>
<path d="M0.358887 19.3412C0.358887 19.8935 0.806602 20.3412 1.35889 20.3412H28.0629C28.6152 20.3412 29.0629 19.8935 29.0629 19.3412V0.999999C29.0629 0.447714 28.6152 0 28.0629 0H1.35889C0.806602 0 0.358887 0.447715 0.358887 1V19.3412ZM2.11611 1.75723H27.3057V18.5839H2.11611V1.75723Z" fill="#3A9FEC"/>
<path d="M4.14648 2.7876C3.5942 2.7876 3.14648 3.23531 3.14648 3.7876V16.5537C3.14648 17.106 3.5942 17.5537 4.14648 17.5537H25.2753C25.8276 17.5537 26.2753 17.106 26.2753 16.5537V3.7876C26.2753 3.23531 25.8276 2.7876 25.2753 2.7876H4.14648ZM24.5181 15.7965H4.90371V4.54482H24.518L24.5181 15.7965Z" fill="#3A9FEC"/>
<path d="M31.0935 20.4424C30.5412 20.4424 30.0935 20.8901 30.0935 21.4424V32.35C30.0935 32.9023 30.5412 33.35 31.0935 33.35H45.718C46.2702 33.35 46.718 32.9023 46.718 32.35V21.4424C46.718 20.8901 46.2702 20.4424 45.718 20.4424H31.0935ZM44.9607 31.5928H31.8507V22.1996H44.9607V31.5928Z" fill="#3A9FEC"/>
<path d="M33.8809 23.23C33.3286 23.23 32.8809 23.6777 32.8809 24.23V29.5624C32.8809 30.1147 33.3286 30.5624 33.8809 30.5624H42.9301C43.4824 30.5624 43.9301 30.1147 43.9301 29.5624V24.23C43.9301 23.6777 43.4824 23.23 42.9301 23.23H33.8809ZM42.173 28.8052H34.6382V24.9873H42.173V28.8052Z" fill="#3A9FEC"/>
<path d="M38.4056 3.7168C34.3345 3.7168 31.0227 7.02875 31.0227 11.0997C31.0227 15.1708 34.3347 18.4827 38.4056 18.4827C42.4766 18.4827 45.7886 15.1706 45.7886 11.0997C45.7887 7.02875 42.4767 3.7168 38.4056 3.7168ZM39.2841 16.6566V16.5962C39.2841 16.111 38.8907 15.7176 38.4055 15.7176C37.9202 15.7176 37.5268 16.111 37.5268 16.5962V16.6565C35.1633 16.2841 33.2854 14.4345 32.8682 12.086H33.0165C33.5018 12.086 33.8952 11.6926 33.8952 11.2073C33.8952 10.722 33.5018 10.3286 33.0165 10.3286H32.834C33.1716 7.87848 35.0916 5.92672 37.5268 5.54305V5.93545C37.5268 6.42069 37.9202 6.81406 38.4055 6.81406C38.8907 6.81406 39.2841 6.42069 39.2841 5.93545V5.54316C41.7195 5.92672 43.6397 7.87859 43.9772 10.3288H43.6771C43.1919 10.3288 42.7985 10.7221 42.7985 11.2074C42.7985 11.6926 43.1919 12.086 43.6771 12.086H43.9431C43.5259 14.4346 41.6479 16.2843 39.2841 16.6566Z" fill="#3A9FEC"/>
<path d="M38.4055 8.21973C37.9203 8.21973 37.5269 8.61309 37.5269 9.09834V10.3284H35.4768C34.9915 10.3284 34.5981 10.7218 34.5981 11.207C34.5981 11.6923 34.9915 12.0856 35.4768 12.0856H38.2841C38.8364 12.0856 39.2841 11.6379 39.2841 11.0856V9.09834C39.2841 8.6131 38.8908 8.21973 38.4055 8.21973Z" fill="#3A9FEC"/>
<path d="M55.0994 55.4007V35.5744C55.0994 35.0892 54.706 34.6958 54.2207 34.6958C53.7355 34.6958 53.3421 35.0892 53.3421 35.5744V55.4006H49.6775C49.1252 55.4006 48.6775 55.8483 48.6775 56.4006V58.9454C48.6775 59.4977 49.1252 59.9454 49.6775 59.9454H58.7266C59.2789 59.9454 59.7266 59.4977 59.7266 58.9454V56.4006C59.7266 55.8483 59.2789 55.4006 58.7266 55.4006L55.0994 55.4007ZM57.9695 58.1883H50.4348V57.1579H57.9695V58.1883Z" fill="#3A9FEC"/>
<path d="M51.5356 12.0796C50.9834 12.0796 50.5356 12.5273 50.5356 13.0796V31.4208C50.5356 31.973 50.9834 32.4208 51.5356 32.4208H53.3418V32.997C53.3418 33.4823 53.7352 33.8756 54.2204 33.8756C54.7057 33.8756 55.099 33.4823 55.099 32.997V32.4209H56.8681C57.4204 32.4209 57.8681 31.9732 57.8681 31.4209V13.0796C57.8681 12.5273 57.4204 12.0796 56.8681 12.0796H51.5356ZM56.111 27.9011H54.2205C53.7353 27.9011 53.3419 28.2944 53.3419 28.7797C53.3419 29.2649 53.7353 29.6583 54.2205 29.6583H56.111V30.6636H52.293V13.8368H56.111V27.9011Z" fill="#3A9FEC"/>
<path d="M12.0744 7.38358L11.4587 7.99934C11.1156 8.34246 11.1156 8.89876 11.4587 9.24187C11.8018 9.58499 12.3581 9.58499 12.7012 9.24187L13.317 8.62612C13.6601 8.283 13.6601 7.7267 13.317 7.38358C12.9738 7.04047 12.4175 7.04047 12.0744 7.38358Z" fill="#3A9FEC"/>
<path d="M16.7202 6.4544L11.4584 11.7161C11.1153 12.0593 11.1153 12.6156 11.4584 12.9587C11.8015 13.3018 12.3578 13.3018 12.701 12.9587L17.9627 7.69693C18.3058 7.35382 18.3058 6.79751 17.9627 6.4544C17.6196 6.11128 17.0633 6.11128 16.7202 6.4544Z" fill="#3A9FEC"/>
<path d="M16.7199 11.1004L16.1042 11.7161C15.7611 12.0593 15.7611 12.6156 16.1042 12.9587C16.4473 13.3018 17.0036 13.3018 17.3467 12.9587L17.9625 12.3429C18.3056 11.9998 18.3056 11.4435 17.9625 11.1004C17.6194 10.7573 17.063 10.7573 16.7199 11.1004Z" fill="#3A9FEC"/>
</svg>
