<svg width="60" height="60" viewBox="0 0 60 60" fill="none" xmlns="http://www.w3.org/2000/svg">
<path d="M0.999999 0C0.447714 0 0 0.447715 0 1V59C0 59.5523 0.447715 60 1 60H59C59.5523 60 60 59.5523 60 59V0.999999C60 0.447714 59.5523 0 59 0H0.999999ZM58.0645 58.0645H1.93548V1.93548H58.0645V58.0645Z" fill="#3A9FEC"/>
<path d="M55.1614 31.9357V26.1293V5.83894C55.1614 5.28665 54.7137 4.83894 54.1614 4.83894H22.3152C22.2556 4.3078 21.8247 3.87109 21.2903 3.87109C20.7558 3.87109 20.3252 4.30784 20.2653 4.83894H5.83887C5.28658 4.83894 4.83887 5.28665 4.83887 5.83894V26.1293V31.9357V54.1615C4.83887 54.7138 5.28658 55.1615 5.83887 55.1615H54.1614C54.7137 55.1615 55.1614 54.7138 55.1614 54.1615V31.9357ZM53.2258 6.77442V26.1293H47.8657C46.1267 24.1056 44.7455 21.8731 43.658 19.6463L49.355 13.9492C49.7329 13.5714 49.7329 12.9587 49.355 12.5809C48.9771 12.203 48.3645 12.203 47.9866 12.5809L42.8043 17.7632C40.8234 13.0698 40.0579 8.7033 39.7965 6.77442H53.2258ZM21.2904 8.30423C22.354 10.6171 24.2226 12.4849 26.5336 13.5485C24.2218 14.6122 22.354 16.4797 21.2904 18.7928C20.2267 16.4797 18.3581 14.6122 16.0471 13.5485C18.359 12.4849 20.2267 10.6173 21.2904 8.30423ZM6.77435 6.77442H19.8147C18.7191 9.8603 15.9373 12.1545 12.579 12.5276C12.0478 12.5866 11.613 13.0141 11.613 13.5486C11.613 14.0831 12.0476 14.5107 12.5788 14.5699C14.3615 14.7686 15.9813 15.5106 17.2753 16.6222C16.2505 19.1712 14.5124 23.2831 12.1181 26.1293H6.77435V6.77442ZM6.77435 28.0647H11.613V30.0002H6.77435V28.0647ZM6.77414 31.9357H11.9082C12.3717 33.2025 13.4673 36.304 14.5733 40.1876L6.77414 47.9867V31.9357ZM6.77435 53.226V50.7234L15.1637 42.3341C16.0676 45.756 16.9018 49.5844 17.3149 53.226H6.77435ZM29.0321 36.4353C28.7187 36.5463 28.394 36.633 28.0596 36.6909C27.533 36.7821 27.0966 37.2074 27.0966 37.7419C27.0966 38.2763 27.533 38.7016 28.0596 38.7928C28.394 38.8507 28.7187 38.9374 29.0321 39.0484V53.2258H19.262C18.8014 48.9901 17.7968 44.5578 16.7507 40.7469L24.1936 33.304C24.5715 32.9261 24.5715 32.3133 24.1936 31.9355C23.8157 31.5576 23.203 31.5576 22.8251 31.9355L16.1448 38.6159C14.9486 34.5552 13.8309 31.5358 13.5482 30.7887V27.4363C15.8939 24.6715 17.6147 20.8885 18.7188 18.2061C19.5495 19.3786 20.1013 20.7614 20.2687 22.2599C20.328 22.791 20.7556 23.2257 21.2901 23.2257C21.8245 23.2257 22.2521 22.7907 22.3111 22.2595C22.7219 18.5578 25.4648 15.5544 29.0321 14.7406V36.4353ZM29.0323 12.3563C26.1135 11.6904 23.7542 9.5576 22.7661 6.77442H29.0323V12.3563ZM30.9678 53.2262V40.2002C31.9254 41.0602 32.5998 42.2301 32.8229 43.5529C32.9118 44.0799 33.3366 44.5163 33.871 44.5163C34.4055 44.5163 34.8303 44.0797 34.9187 43.5526C35.3263 41.121 37.25 39.1974 39.6816 38.7897C40.2087 38.7014 40.6452 38.2765 40.6452 37.7421C40.6452 37.2076 40.2087 36.7828 39.6816 36.6944C37.25 36.2868 35.3263 34.3631 34.9187 31.9315C34.8303 31.4044 34.4055 30.9679 33.871 30.9679C33.3366 30.9679 32.9118 31.4042 32.8229 31.9312C32.5997 33.2535 31.9254 34.4234 30.9678 35.2839V14.5164V12.5809V6.77442H37.8387C38.0836 8.77969 38.9032 13.8495 41.3187 19.2486L35.3225 25.2448C34.9446 25.6227 34.9446 26.2353 35.3225 26.6132C35.7003 26.991 36.313 26.991 36.6908 26.6132L42.206 21.098C43.3237 23.2744 44.7173 25.4509 46.4504 27.4543V30.7901C45.8765 32.3123 41.816 43.3126 40.7379 53.2262H30.9678ZM30.8421 37.7422C32.1128 37.0367 33.1657 35.9846 33.8711 34.7131C34.5766 35.9838 35.6295 37.0367 36.9002 37.7422C35.6295 38.4476 34.5766 39.4997 33.8711 40.7712C33.1655 39.4995 32.1126 38.4476 30.8421 37.7422ZM53.2258 53.225H42.6854C43.6844 44.4101 47.1621 34.4798 48.0919 31.9357H49.107C48.7742 33.458 48.1828 36.3857 47.5686 40.5177C47.4901 41.0462 47.8577 41.537 48.3865 41.6126C48.9155 41.6883 49.4053 41.3203 49.484 40.7919C50.1476 36.3347 50.7925 33.2597 51.09 31.9347H53.2258V53.225ZM53.226 30.0002H48.3871V28.0647H53.226V30.0002Z" fill="#3A9FEC"/>
<path d="M35.4059 19.3544L33.8711 20.8892C33.4931 21.2671 33.4931 21.8799 33.8711 22.2578C34.249 22.6357 34.8617 22.6357 35.2396 22.2578L36.7745 20.7229C37.1524 20.345 37.1524 19.7323 36.7745 19.3544C36.3966 18.9764 35.7838 18.9764 35.4059 19.3544Z" fill="#3A9FEC"/>
<path d="M23.7923 40.6461L20.3223 44.1161C19.9444 44.494 19.9444 45.1067 20.3223 45.4847C20.7002 45.8626 21.313 45.8626 21.6909 45.4847L25.1609 42.0147C25.5388 41.6368 25.5388 41.024 25.1609 40.6461C24.783 40.2682 24.1702 40.2682 23.7923 40.6461Z" fill="#3A9FEC"/>
</svg>
